<svg version="1" xmlns="http://www.w3.org/2000/svg" width="836" height="836" viewBox="0 0 627.000000 627.000000"><path d="M342.7.6c-.1.1-5.4.5-11.7.8-11.1.6-13.1.8-23 2.1-27 3.5-51.1 9.8-75.5 19.5-13 5.2-33.7 15.3-39.8 19.4-2.1 1.4-4 2.6-4.3 2.6-1.1 0-27.5 17.9-29.4 20-.3.3-2.7 2.3-5.5 4.4-10.5 8.3-28.4 25.1-39 36.7C88.3 134.7 67 168.5 54.2 202c-6.7 17.6-12.5 38.5-14.8 53-.3 1.9-.7 4.2-1 5-.2.8-.6 3.8-.9 6.5-.4 2.8-.8 6.1-1.1 7.5-2.5 13.8-2.5 67.8 0 80.6.2 1.2.7 4.5 1.1 7.5.4 3 1.1 7.6 1.7 10.4.5 2.7 1.2 6.3 1.4 8 2.9 17.5 14 49.5 24.3 70.4 7.6 15.3 21.2 37.2 30.2 48.5 27.5 34.5 54 58.8 87.4 80.1 10.6 6.8 33.6 18.9 45.1 23.8 12.9 5.4 38.9 13.6 51.6 16.1 10.1 2 19.1 3.6 23.3 4.2 2.8.3 5.8.8 6.7.9 13.9 2.7 74.3 2.6 83.8 0 .8-.2 3.3-.6 5.5-.9 5.9-.7 24.2-4.4 30.5-6.1 3-.9 6.2-1.7 7-2 .8-.2 6-1.8 11.5-3.5 29.7-9.5 62.1-25.7 91.5-45.8 8.1-5.6 24.4-17.6 26-19.2.3-.3 2.5-2.1 5-4.1 2.5-2 5.5-4.5 6.6-5.5 1.2-1.1 4-3.4 6.3-5.3s4.1-3.9 4.1-4.3c0-.5-1.4-2.1-3.2-3.6-4-3.4-27.2-23.7-31.3-27.4-1.6-1.6-7.6-6.7-13.2-11.5-5.6-4.9-10.2-9.2-10.2-9.6-.1-.4 2.7-4.1 6.2-8.1 7.5-8.8 16-20.6 21.8-30.1 5-8.2 16.9-31.8 16.9-33.4 0-.7 1-3.1 2.1-5.4 1.2-2.3 2.1-4.2 1.9-4.2-.1 0 1-3.8 2.4-8.5 3.1-9.6 7-26 8.1-33.3.3-2.7.8-5.9 1.1-7 2.3-11.8 2.3-50.7 0-63.7-.3-1.4-.7-4.1-1-6-5.9-38.8-23.1-77.9-48.4-109.8-4.1-5.2-8.3-10.3-9.5-11.5l-2-2 3.4-3c1.9-1.6 5.4-4.8 7.9-7.1s10.4-9.3 17.5-15.6c7.2-6.3 13.5-11.9 14.1-12.5.6-.5 4.3-3.9 8.2-7.4 4-3.6 7.2-6.8 7.2-7.2 0-1.9-32-27.4-49-39-35.8-24.7-76.5-43-116-52.3-5.8-1.4-12.3-2.7-14.5-3.1-2.2-.3-4.7-.7-5.5-1-.8-.2-4-.6-7-.9-3-.3-6.5-.8-7.6-1-5.4-1.1-43.8-2.7-44.7-2z"/></svg>