<svg xmlns="http://www.w3.org/2000/svg" xmlns:xlink="http://www.w3.org/1999/xlink" viewBox="0 0 136.49 132.99"><defs><filter id="luminosity-noclip" x="4.2" y="-8160.71" width="57.03" height="32766" filterUnits="userSpaceOnUse" color-interpolation-filters="sRGB"><feFlood flood-color="#fff" result="bg"/><feBlend in="SourceGraphic" in2="bg"/></filter><mask id="mask" x="4.2" y="-8160.71" width="57.03" height="32766" maskUnits="userSpaceOnUse"><g style="filter:url(#luminosity-noclip)"/></mask><linearGradient id="linear-gradient" x1="4.2" y1="124.63" x2="61.24" y2="124.63" gradientUnits="userSpaceOnUse"><stop offset="0" stop-color="#4d4d4d"/><stop offset="1"/></linearGradient><filter id="luminosity-noclip-2" x="100.81" y="-8160.71" width="34.59" height="32766" filterUnits="userSpaceOnUse" color-interpolation-filters="sRGB"><feFlood flood-color="#fff" result="bg"/><feBlend in="SourceGraphic" in2="bg"/></filter><mask id="mask-2" x="100.81" y="-8160.71" width="34.59" height="32766" maskUnits="userSpaceOnUse"><g style="filter:url(#luminosity-noclip-2)"/></mask><linearGradient id="linear-gradient-2" x1="100.81" y1="124.63" x2="135.4" y2="124.63" xlink:href="#linear-gradient"/><filter id="luminosity-noclip-3" x="63.23" y="-8160.71" width="44.51" height="32766" filterUnits="userSpaceOnUse" color-interpolation-filters="sRGB"><feFlood flood-color="#fff" result="bg"/><feBlend in="SourceGraphic" in2="bg"/></filter><mask id="mask-3" x="63.23" y="-8160.71" width="44.51" height="32766" maskUnits="userSpaceOnUse"><g style="filter:url(#luminosity-noclip-3)"/></mask><linearGradient id="linear-gradient-3" x1="63.23" y1="129.87" x2="107.75" y2="129.87" xlink:href="#linear-gradient"/><filter id="luminosity-noclip-4" x="4.2" y="121.04" width="57.03" height="7.18" filterUnits="userSpaceOnUse" color-interpolation-filters="sRGB"><feFlood flood-color="#fff" result="bg"/><feBlend in="SourceGraphic" in2="bg"/></filter><mask id="mask-4" x="4.2" y="121.04" width="57.03" height="7.18" maskUnits="userSpaceOnUse"><g style="mask:url(#mask);filter:url(#luminosity-noclip-4)"><path d="M57.74,121.45a28.72,28.72,0,0,0-6-.41c-11.32,0-22.64,0-34,.14a42.48,42.48,0,0,0-10.6,1,4.8,4.8,0,0,0-2.56,1.35c-.95,1.21,0,2.89,1.53,3.65a12.74,12.74,0,0,0,5.24.89q13.89.38,27.78-.12,6.94-.25,13.86-.72c2.27-.15,7.52-.4,8.18-2.67C61.6,123.07,59.6,121.85,57.74,121.45Z" style="mix-blend-mode:multiply;fill:url(#linear-gradient)"/></g></mask><linearGradient id="linear-gradient-4" x1="4.2" y1="124.63" x2="61.24" y2="124.63" gradientUnits="userSpaceOnUse"><stop offset="0"/><stop offset="1"/></linearGradient><filter id="luminosity-noclip-5" x="100.81" y="121.17" width="34.59" height="6.92" filterUnits="userSpaceOnUse" color-interpolation-filters="sRGB"><feFlood flood-color="#fff" result="bg"/><feBlend in="SourceGraphic" in2="bg"/></filter><mask id="mask-5" x="100.81" y="121.17" width="34.59" height="6.92" maskUnits="userSpaceOnUse"><g style="mask:url(#mask-2);filter:url(#luminosity-noclip-5)"><path d="M134.28,123c-2.29-1.54-5.39-1.58-7.94-1.68a118.83,118.83,0,0,0-19.61.83,15.69,15.69,0,0,0-5,1.26,1.43,1.43,0,0,0-.83.82,1.6,1.6,0,0,0,.64,1.54,7.2,7.2,0,0,0,4,1.41,100.72,100.72,0,0,0,10.3.8c5.44.14,12,.67,17.28-1.23C134.82,126.05,136.63,124.52,134.28,123Z" style="mix-blend-mode:multiply;fill:url(#linear-gradient-2)"/></g></mask><linearGradient id="linear-gradient-5" x1="100.81" y1="124.63" x2="135.4" y2="124.63" xlink:href="#linear-gradient-4"/><filter id="luminosity-noclip-6" x="63.23" y="126.75" width="44.51" height="6.24" filterUnits="userSpaceOnUse" color-interpolation-filters="sRGB"><feFlood flood-color="#fff" result="bg"/><feBlend in="SourceGraphic" in2="bg"/></filter><mask id="mask-6" x="63.23" y="126.75" width="44.51" height="6.24" maskUnits="userSpaceOnUse"><g style="mask:url(#mask-3);filter:url(#luminosity-noclip-6)"><path d="M107.06,128.47a1.62,1.62,0,0,0-.79-.19q-10-.59-20.12-.39a19.18,19.18,0,0,1-4.72-.28,18.23,18.23,0,0,0-3.82-.87c-1.64,0-3.18.85-4.8,1.17-3,.6-6.35-.64-9,1.21a1.24,1.24,0,0,0-.62,1,1.19,1.19,0,0,0,.31.72,4.35,4.35,0,0,0,3.22,1.25q5.38.46,10.77.69,9.56.41,19.13.1a59.3,59.3,0,0,1,8.34-.14,2,2,0,0,0,2-.67C107.71,131.16,108.22,129.2,107.06,128.47Z" style="mix-blend-mode:multiply;fill:url(#linear-gradient-3)"/></g></mask><linearGradient id="linear-gradient-6" x1="63.23" y1="129.87" x2="107.75" y2="129.87" xlink:href="#linear-gradient-4"/></defs><title>about</title><g style="isolation:isolate"><g id="Layer_2" data-name="Layer 2"><g id="object"><g style="mask:url(#mask-4)"><path d="M57.74,121.45a28.72,28.72,0,0,0-6-.41c-11.32,0-22.64,0-34,.14a42.48,42.48,0,0,0-10.6,1,4.8,4.8,0,0,0-2.56,1.35c-.95,1.21,0,2.89,1.53,3.65a12.74,12.74,0,0,0,5.24.89q13.89.38,27.78-.12,6.94-.25,13.86-.72c2.27-.15,7.52-.4,8.18-2.67C61.6,123.07,59.6,121.85,57.74,121.45Z" style="mix-blend-mode:multiply;fill:url(#linear-gradient-4)"/></g><g style="mask:url(#mask-5)"><path d="M134.28,123c-2.29-1.54-5.39-1.58-7.94-1.68a118.83,118.83,0,0,0-19.61.83,15.69,15.69,0,0,0-5,1.26,1.43,1.43,0,0,0-.83.82,1.6,1.6,0,0,0,.64,1.54,7.2,7.2,0,0,0,4,1.41,100.72,100.72,0,0,0,10.3.8c5.44.14,12,.67,17.28-1.23C134.82,126.05,136.63,124.52,134.28,123Z" style="mix-blend-mode:multiply;fill:url(#linear-gradient-5)"/></g><g style="mask:url(#mask-6)"><path d="M107.06,128.47a1.62,1.62,0,0,0-.79-.19q-10-.59-20.12-.39a19.18,19.18,0,0,1-4.72-.28,18.23,18.23,0,0,0-3.82-.87c-1.64,0-3.18.85-4.8,1.17-3,.6-6.35-.64-9,1.21a1.24,1.24,0,0,0-.62,1,1.19,1.19,0,0,0,.31.72,4.35,4.35,0,0,0,3.22,1.25q5.38.46,10.77.69,9.56.41,19.13.1a59.3,59.3,0,0,1,8.34-.14,2,2,0,0,0,2-.67C107.71,131.16,108.22,129.2,107.06,128.47Z" style="mix-blend-mode:multiply;fill:url(#linear-gradient-6)"/></g><path d="M70.08,1.91C69.24,1.43,66,1.18,65,1.16l-47,0a36.54,36.54,0,0,1-5.52.47c-1,0-.74.25-1,6.66-.2,6.1-.18,12.23-.21,18.34s0,12.21,0,18.32q0,4.4.1,8.79c0,2-.22,4.55,0,6.45a3,3,0,0,0,.67,2.55,4.48,4.48,0,0,0,2.64.66H15c1.45,0,3-.21,4-.22h5.74l40.32,0c.95,0,4.2,0,5-.92a2.14,2.14,0,0,0,.52-.94c.5-1.83.19-4.71.23-6.65h-.09c0-2.82-.08-5.87,0-8.21q.07-6.11.06-12.22,0-7.25-.12-14.49c-.07-4.33.22-10.7.33-15.37C71,2.42,71,2.42,70.08,1.91Z" style="fill:#d7dde5"/><path d="M20.28,55.86a.86.86,0,0,1,.25-.77A.85.85,0,0,1,21,55l16.74-.21A1.07,1.07,0,0,1,39,56.06a51.61,51.61,0,0,1,0,6.32c-3.7.3-7.42-.3-11.14-.3-1.33,0-2.65.07-4,.19-.81.07-2.38.58-3.07,0s-.46-1.74-.47-2.44Q20.32,57.83,20.28,55.86Z" style="fill:#c3d1dd"/><path d="M52.53,21.93a.55.55,0,0,1,.78-.6c1.18.17,2.35.45,3.53.63a42.37,42.37,0,0,0,5.74.35l4.52.07A2.1,2.1,0,0,0,68.65,22a166.3,166.3,0,0,0-.21,17c.2,5.19.64,10.37.43,15.56a.4.4,0,0,1-.47.49l-10,.49c-1.5.07-3.46.52-4.93.24-1.31-.24-.81-1.89-.75-2.89.35-6.61,0-13.23-.22-19.84C52.36,29.36,52.33,25.64,52.53,21.93Z" style="fill:#a4b1bc"/><path d="M45.73,34.68l22.51-1.4c.63,0,1.38,0,1.72.5a1.81,1.81,0,0,1,.21.95q.48,13.83-.38,27.65l-21.13.38c-1.22,0-2.46.38-3.09-.79s-.15-3.83-.18-5.09q-.11-5.31,0-10.63C45.37,45.29,45.56,34.68,45.73,34.68Z" style="fill:#bac3cc"/><path d="M46.44,62.09a1,1,0,0,0,.57-.18,1,1,0,0,0,.26-.62,56.51,56.51,0,0,0,.54-7.91l.15-7a1.49,1.49,0,0,0-1.83-1.86H36.2l.38,8.14a43.41,43.41,0,0,1,0,5.19c-.08,1-1.07,3.49-.42,4.38s3.6.33,4.63.28Q43.64,62.37,46.44,62.09Z" style="fill:#ced4d8"/><path d="M16.69,62a52.68,52.68,0,0,0,9.18-.08l.89-30c-2.7-.21-5.42-.34-8.13-.28-.94,0-1.74-.07-2.06.93s.08,2.79.11,3.87c.16,5.49.17,11,.12,16.46C16.8,53.64,16.62,62,16.69,62Z" style="fill:#bac3cc"/><path d="M34.33,35.33A257.2,257.2,0,0,0,16.38,54.55c-.07.09,0,.21.12.12q8.56-10,18.09-19.07C34.77,35.43,34.5,35.16,34.33,35.33Z" style="fill:#fff"/><path d="M28.49,46.84C25.31,50.61,22,54.28,18.66,57.9c-.08.09.05.22.13.13,3.35-3.62,6.65-7.28,10-10.91C28.94,46.93,28.65,46.65,28.49,46.84Z" style="fill:#fff"/><path d="M26.54,55.55l-1.39,1.67c-.13.16.09.38.23.23L26.8,55.8C27,55.63,26.69,55.36,26.54,55.55Z" style="fill:#fff"/><path d="M62.54,6,56.4,14.17c-.08.11.11.26.19.15l6.27-8.09A.2.2,0,1,0,62.54,6Z" style="fill:#fff"/><path d="M65.51,8A112.89,112.89,0,0,0,55.29,19.14c-.09.11.07.26.15.15a93.9,93.9,0,0,1,10.38-11C66,8.08,65.71,7.76,65.51,8Z" style="fill:#fff"/><path d="M65.11,12.52a56.06,56.06,0,0,0-4,4.93c-.1.13.13.31.23.18,1.3-1.67,2.71-3.22,4.11-4.81C65.58,12.61,65.3,12.32,65.11,12.52Z" style="fill:#fff"/><path d="M73.16.16C63-.24,36.54.26,26.36.08,20.88,0,15.39.25,9.91.34c.12.62-.43,1.23-.3,1.85,15.74,0,47.92,0,63.64-.23A2.51,2.51,0,0,0,73.16.16Z" style="fill:#e8e8e8"/><path d="M73.16,62c-10.2-.41-36.62.09-46.8-.08-5.48-.09-11,.17-16.44.26-.51.31-.43,1.23-.3,1.85,15.74,0,47.92,0,63.64-.23A2.51,2.51,0,0,0,73.16,62Z" style="fill:#e8e8e8"/><path d="M70.16,63.3a1.16,1.16,0,0,0,1.29-.09,13.1,13.1,0,0,0,.12-2c-.17-15,.49-44.44,0-59.42-.28-1.16-.93-.71-1.19.49a20.29,20.29,0,0,0-.26,4.21q.09,14,.05,28.08C70.19,39.14,70,58.8,70.16,63.3Z" style="fill:#e8e8e8"/><path d="M11.06,63.3a1.16,1.16,0,0,0,1.29-.09,13.1,13.1,0,0,0,.12-2c-.17-15,.49-44.44,0-59.42-.28-1.16-.93-.71-1.19.49A20.29,20.29,0,0,0,11,6.52q.09,14,.05,28.08C11.1,39.14,10.91,58.8,11.06,63.3Z" style="fill:#e8e8e8"/><path d="M62.75,38.89c0,.26.06.56.29.68a.72.72,0,0,0,.24.05q1,.11,2,.13a.79.79,0,0,0,.57-.14.8.8,0,0,0,.18-.54l.15-2a.11.11,0,0,0-.15-.15,21.53,21.53,0,0,0-2.79.29C62.42,37.44,62.71,38.17,62.75,38.89Z" style="fill:#c7cdd3"/><path d="M65.95,40.88a.34.34,0,0,1,.19,0,.29.29,0,0,1,.1.13,2.17,2.17,0,0,1,.15,1v1.67a15.87,15.87,0,0,1-2.73-.15c-.77-.14-.83-.74-.7-1.46C63.19,40.65,64.84,40.92,65.95,40.88Z" style="fill:#c7cdd3"/><path d="M65.76,44.95a7.79,7.79,0,0,1,.09,2.42.14.14,0,0,1-.17.16l-2.11.16c-.82.06-.83-1.73-.46-2.26A1.25,1.25,0,0,1,64,45,6.58,6.58,0,0,1,65.76,44.95Z" style="fill:#c7cdd3"/><path d="M65.89,49.21a6.54,6.54,0,0,1,0,2.82.19.19,0,0,1,0,.1.19.19,0,0,1-.13,0H63.79a.7.7,0,0,1-.85-.81L62.86,50c0-.55-.15-.65.37-.77A10.15,10.15,0,0,1,65.89,49.21Z" style="fill:#c7cdd3"/><path d="M40.46,47.33a22.8,22.8,0,0,1,2.39-.24.42.42,0,0,1,.37.15.44.44,0,0,1,0,.22q0,.4,0,.8a.3.3,0,0,1,0,.17c-.06.08-.18.09-.28.09l-2.23-.09a6.63,6.63,0,0,1-2.17-.09c-.45-.27-.12-.68.22-.86A4.21,4.21,0,0,1,40.46,47.33Z" style="fill:#dce0e2"/><path d="M42.82,49.24a.19.19,0,0,1,.13,0,.19.19,0,0,1,0,.13,5.49,5.49,0,0,1,0,1.18.19.19,0,0,1-.05.13.2.2,0,0,1-.14,0,34.29,34.29,0,0,0-4.19-.1c-.09,0-.19,0-.24-.08a.25.25,0,0,1,0-.13c0-.3-.12-.78.15-1s1.13-.1,1.44-.12C40.87,49.28,41.84,49.24,42.82,49.24Z" style="fill:#dce0e2"/><path d="M42.83,51.26a.1.1,0,0,1,.11.12,4.79,4.79,0,0,1,0,1.11l-3.95.14a.34.34,0,0,1-.19,0,.33.33,0,0,1-.12-.2c-.37-1.16.4-1.09,1.37-1.18A13.86,13.86,0,0,1,42.83,51.26Z" style="fill:#dce0e2"/><path d="M17.7,33.91c0,.08,0,.18.09.22l.08,0,.65,0a.25.25,0,0,0,.19,0,.26.26,0,0,0,.06-.17l0-.64a0,0,0,0,0,0,0h0a7,7,0,0,0-.9.09C17.6,33.44,17.69,33.68,17.7,33.91Z" style="fill:#cad1d8"/><path d="M18.74,34.55h.06a.09.09,0,0,1,0,0,.7.7,0,0,1,0,.32v.54a5.12,5.12,0,0,1-.88,0c-.25,0-.27-.24-.23-.47C17.85,34.48,18.38,34.57,18.74,34.55Z" style="fill:#cad1d8"/><path d="M18.68,35.87a2.51,2.51,0,0,1,0,.78.06.06,0,0,1,0,0h0l-.68.05c-.27,0-.27-.56-.15-.73a.4.4,0,0,1,.29-.15A2.12,2.12,0,0,1,18.68,35.87Z" style="fill:#cad1d8"/><path d="M18.72,37.24a2.11,2.11,0,0,1,0,.91.06.06,0,0,1,0,0H18a.22.22,0,0,1-.28-.26l0-.43c0-.18,0-.21.12-.25A3.28,3.28,0,0,1,18.72,37.24Z" style="fill:#cad1d8"/><path d="M17.7,39.14c0,.08,0,.18.09.22l.08,0,.65,0a.25.25,0,0,0,.19,0,.26.26,0,0,0,.06-.17l0-.64a0,0,0,0,0,0,0h0a6.94,6.94,0,0,0-.9.09C17.6,38.67,17.69,38.9,17.7,39.14Z" style="fill:#cad1d8"/><path d="M18.74,39.78h.06a.09.09,0,0,1,0,0,.7.7,0,0,1,0,.32v.54a5.12,5.12,0,0,1-.88,0c-.25,0-.27-.24-.23-.47C17.85,39.7,18.38,39.79,18.74,39.78Z" style="fill:#cad1d8"/><path d="M18.68,41.09a2.51,2.51,0,0,1,0,.78.06.06,0,0,1,0,0h0L18,42c-.27,0-.27-.56-.15-.73a.4.4,0,0,1,.29-.15A2.12,2.12,0,0,1,18.68,41.09Z" style="fill:#cad1d8"/><path d="M18.72,42.47a2.11,2.11,0,0,1,0,.91.06.06,0,0,1,0,0H18a.22.22,0,0,1-.28-.26l0-.43c0-.18,0-.21.12-.25A3.28,3.28,0,0,1,18.72,42.47Z" style="fill:#cad1d8"/><path d="M19.34,33.91c0,.08,0,.18.09.22l.08,0,.65,0a.25.25,0,0,0,.19,0A.26.26,0,0,0,20.4,34l0-.64a0,0,0,0,0,0,0h0a7,7,0,0,0-.9.09C19.23,33.44,19.33,33.68,19.34,33.91Z" style="fill:#cad1d8"/><path d="M20.37,34.55h.06l0,0a.7.7,0,0,1,0,.32v.54a5.12,5.12,0,0,1-.88,0c-.25,0-.27-.24-.23-.47C19.48,34.48,20,34.57,20.37,34.55Z" style="fill:#cad1d8"/><path d="M20.31,35.87a2.51,2.51,0,0,1,0,.78.06.06,0,0,1,0,0h0l-.68.05c-.27,0-.27-.56-.15-.73a.4.4,0,0,1,.29-.15A2.12,2.12,0,0,1,20.31,35.87Z" style="fill:#cad1d8"/><path d="M20.35,37.24a2.11,2.11,0,0,1,0,.91.06.06,0,0,1,0,0h-.66a.22.22,0,0,1-.28-.26l0-.43c0-.18,0-.21.12-.25A3.28,3.28,0,0,1,20.35,37.24Z" style="fill:#cad1d8"/><path d="M19.34,39.14c0,.08,0,.18.09.22l.08,0,.65,0a.25.25,0,0,0,.19,0,.26.26,0,0,0,.06-.17l0-.64a0,0,0,0,0,0,0h0a6.93,6.93,0,0,0-.9.09C19.23,38.67,19.33,38.9,19.34,39.14Z" style="fill:#cad1d8"/><path d="M20.37,39.78h.06l0,0a.7.7,0,0,1,0,.32v.54a5.12,5.12,0,0,1-.88,0c-.25,0-.27-.24-.23-.47C19.48,39.7,20,39.79,20.37,39.78Z" style="fill:#cad1d8"/><path d="M20.31,41.09a2.51,2.51,0,0,1,0,.78.06.06,0,0,1,0,0h0l-.68.05c-.27,0-.27-.56-.15-.73a.4.4,0,0,1,.29-.15A2.12,2.12,0,0,1,20.31,41.09Z" style="fill:#cad1d8"/><path d="M20.35,42.47a2.11,2.11,0,0,1,0,.91v0a.06.06,0,0,1-.05,0h-.62a.22.22,0,0,1-.28-.26l0-.43c0-.18,0-.21.12-.25A3.28,3.28,0,0,1,20.35,42.47Z" style="fill:#cad1d8"/><path d="M54.47,24c0,.13.07.29.37.35l.3,0q1.27.06,2.54.07a2.19,2.19,0,0,0,.73-.07.32.32,0,0,0,.22-.28l.18-1a0,0,0,0,0,0-.06.42.42,0,0,0-.15,0c-1.14,0-2.41,0-3.52.15S54.42,23.63,54.47,24Z" style="fill:#b8c2c9"/><path d="M58.51,25a1,1,0,0,1,.24,0,.31.31,0,0,1,.13.07.56.56,0,0,1,.18.51l0,.86c-1.13,0-2.34,0-3.45-.08s-1.05-.38-.89-.75C55,24.92,57.11,25.06,58.51,25Z" style="fill:#b8c2c9"/><path d="M58.28,27.14a1.72,1.72,0,0,1,.11,1.25.08.08,0,0,1-.06.06.52.52,0,0,1-.15,0l-2.66.09c-1,0-1-.9-.58-1.17a2.72,2.72,0,0,1,1.12-.25A20.24,20.24,0,0,1,58.28,27.14Z" style="fill:#b8c2c9"/><path d="M58.43,29.35a1.47,1.47,0,0,1,0,1.46.1.1,0,0,1-.06.05.53.53,0,0,1-.17,0H55.78a2.56,2.56,0,0,1-.82-.09.36.36,0,0,1-.26-.33l-.09-.68c0-.29-.19-.33.47-.4A31.14,31.14,0,0,1,58.43,29.35Z" style="fill:#b8c2c9"/><path d="M54.47,32.39c0,.13.07.29.37.35l.3,0q1.27.06,2.54.07a2.18,2.18,0,0,0,.73-.07.32.32,0,0,0,.22-.28l.18-1a0,0,0,0,0,0-.06.43.43,0,0,0-.15,0c-1.14,0-2.41,0-3.52.15S54.42,32,54.47,32.39Z" style="fill:#b8c2c9"/><path d="M60.86,24c0,.13.07.29.37.35l.3,0q1.27.06,2.54.07a2.18,2.18,0,0,0,.73-.07A.32.32,0,0,0,65,24.1l.18-1a0,0,0,0,0,0-.06A.42.42,0,0,0,65,23c-1.14,0-2.41,0-3.52.15S60.81,23.63,60.86,24Z" style="fill:#b8c2c9"/><path d="M64.9,25a1,1,0,0,1,.24,0,.31.31,0,0,1,.13.07.56.56,0,0,1,.18.51l0,.86c-1.13,0-2.34,0-3.45-.08s-1.05-.38-.89-.75C61.42,24.92,63.51,25.06,64.9,25Z" style="fill:#b8c2c9"/><path d="M64.67,27.14a1.72,1.72,0,0,1,.11,1.25.08.08,0,0,1-.06.06.52.52,0,0,1-.15,0l-2.66.09c-1,0-1-.9-.58-1.17a2.72,2.72,0,0,1,1.12-.25A20.24,20.24,0,0,1,64.67,27.14Z" style="fill:#b8c2c9"/><path d="M64.83,29.35a1.47,1.47,0,0,1,0,1.46.1.1,0,0,1-.06.05.52.52,0,0,1-.17,0H62.18a2.56,2.56,0,0,1-.82-.09.36.36,0,0,1-.26-.33L61,29.77c0-.29-.19-.33.47-.4A31.14,31.14,0,0,1,64.83,29.35Z" style="fill:#b8c2c9"/><path d="M60.86,32.39c0,.13.07.29.37.35l.3,0q1.27.06,2.54.07a2.18,2.18,0,0,0,.73-.07.32.32,0,0,0,.22-.28l.18-1a0,0,0,0,0,0-.06.43.43,0,0,0-.15,0c-1.14,0-2.41,0-3.52.15S60.81,32,60.86,32.39Z" style="fill:#b8c2c9"/><path d="M19.19,79.06a12.69,12.69,0,0,0,1.59,3.31,4.28,4.28,0,0,0,3.06,1.84,1.88,1.88,0,0,0,1.44-.46A9,9,0,0,0,27,81.68a18.91,18.91,0,0,0,.71-8c-.18-1.72-.56-3.11-.77-4.83a16.74,16.74,0,0,0-1.06-3.4,4.59,4.59,0,0,0-1.25.39,33.55,33.55,0,0,1,.62,8.66,11.26,11.26,0,0,1-.63,3.44A1.6,1.6,0,0,1,23.69,79a1.21,1.21,0,0,1-1.15-.41,3.57,3.57,0,0,1-.62-1.11l-2-5a2.27,2.27,0,0,0-.77-1.14,1.36,1.36,0,0,0-1.49.11,2.14,2.14,0,0,0-.78,1.33c-.08.4.26.69.42,1,.26.55.43,1.17.64,1.75Z" style="fill:#f7f7f7"/><path d="M26.48,66.16a1,1,0,0,0,.4-.39,1.17,1.17,0,0,0,.07-.52l-.06-3.32a16.15,16.15,0,0,0-.2-2.71,1.79,1.79,0,0,0-.54-1.12,2,2,0,0,0-1.25-.28,4.39,4.39,0,0,0-1.72.22.64.64,0,0,0-.26.17.68.68,0,0,0-.12.31,7,7,0,0,0-.06,1.32c0,.94,0,1.87.1,2.8A8,8,0,0,0,23.61,66c.27.49.78.46,1.28.5A2.69,2.69,0,0,0,26.48,66.16Z" style="fill:#bfbfbf"/><path d="M24,65.3a.42.42,0,0,0,.06.18.4.4,0,0,0,.31.12,3.88,3.88,0,0,0,1-.06,1.31,1.31,0,0,0,.87-.47,1.57,1.57,0,0,0,.18-.92,42.54,42.54,0,0,0-.27-4.9A.42.42,0,0,0,26,59a.38.38,0,0,0-.22-.09,4.19,4.19,0,0,0-1,0,1.47,1.47,0,0,0-1.06.39,1.42,1.42,0,0,0-.23.84A22.74,22.74,0,0,0,24,65.3Z" style="fill:#fff"/><path d="M25.11,65.85c.12-.06.35-.15.48-.08s.08.15,0,.2a.88.88,0,0,1-.36.07C25.07,66.06,24.91,66,25.11,65.85Z" style="fill:#fff"/><path d="M37.05,71.75a2.31,2.31,0,0,0-.12-1.84,2.31,2.31,0,0,0-1.77-.72q-1.14-.1-2.28-.11a1.37,1.37,0,0,0-.66.11c-.42.22-.5.79-.51,1.27A19.67,19.67,0,0,0,32,74.35a1.56,1.56,0,0,0,1.77,1.41,8.23,8.23,0,0,0,1.64.1c.53,0,.52-.41.68-.89A31.84,31.84,0,0,0,37.05,71.75Z" style="fill:#3f2b24"/><path d="M35,105.55c1.47,1.2,3.09,2.19,4.55,3.39a39.55,39.55,0,0,1,3.8,3.77l5.84,6.34c.19.21.44.44.72.39a.85.85,0,0,0,.44-.31,18.42,18.42,0,0,0,1.44-1.78,18.55,18.55,0,0,0-2.52-3.73c-.87-.93-2.32-3.75-3.24-4.63-3.17-3-4.14-5.5-7.22-8.63A26.05,26.05,0,0,0,34,96.83L28.1,93.07A1.52,1.52,0,0,0,27,92.73c-1.17.24-1.73,3.36-1.77,4.34a2.68,2.68,0,0,0,1.57,2.51c1.26.78,2.58,1.36,3.77,2.26C32.14,103,33.47,104.35,35,105.55Z" style="fill:#4d4d4d"/><path d="M39.64,96.51c-.69-1.3-2.3-1.76-3.73-2.1l-4.82-1.14-1.85,0q-.35,2.87-.59,5.76a.74.74,0,0,0,.73,1,4,4,0,0,1,2.33.91,3,3,0,0,1,.74,2.26,12.7,12.7,0,0,1-.48,2.39c-1,4.26-.9,7.19-1.74,12.72,1.59.27,2,.54,3.54.81a68.56,68.56,0,0,1,4.46-14.9A17,17,0,0,0,40,98.53,3.89,3.89,0,0,0,39.64,96.51Z" style="fill:#4d4d4d"/><path d="M33.88,118.84a.25.25,0,0,1,.14.07.24.24,0,0,1,0,.13,2.89,2.89,0,0,0,.18,1.29,1.58,1.58,0,0,0,.42.43c1.55,1.18,3.57,1.48,5.36,2.21a1.81,1.81,0,0,1,.73.46,1.69,1.69,0,0,1,.31.76,6,6,0,0,1,.12,1.36,13.81,13.81,0,0,1-4.41-.57c-1.7-.39-3.43-.69-5.15-1l-3.23-.57c.27-1.46.52-2.92.82-4.38.26-1.25,1.2-1,2.21-.77Z" style="fill:#442e1f"/><path d="M20.1,53.24a8.34,8.34,0,0,0-2.18,3.09,12.09,12.09,0,0,0-1.48,4.46c-.07,1.16.16,2.41-.37,3.45q3,1.14,5.86,2.53a22.1,22.1,0,0,0,5.42-10.61.73.73,0,0,0,0-.4.72.72,0,0,0-.31-.32A22.87,22.87,0,0,0,21.41,53a1.61,1.61,0,0,0-.63-.12A1.36,1.36,0,0,0,20.1,53.24Z" style="fill:#998578"/><path d="M24.45,93.95c-.46-4.27-.71-2.73-.66-7s-.19-8.6-.5-12.9q-.19-2.61-.43-5.22c-.06-.68-2-1.38-2.52-1.49a7.66,7.66,0,0,1-.86-.25l-.81-.3-4-1.54a1.13,1.13,0,0,0-.62-.11,1.05,1.05,0,0,0-.43.24c-2.51,2-3.19,5.31-3.87,8.3C7.29,84.21,6.23,85.07,7.16,95.85c6,1,12.33,5.54,18.4,5.85C25.23,101.68,24.53,94.67,24.45,93.95Z" style="fill:#f7f7f7"/><path d="M62.36,118.64a3.68,3.68,0,0,0-1.45-1.15,2,2,0,0,0-.71-.19,3,3,0,0,0-1.19.3,21.26,21.26,0,0,1-4.34,1.2,2.37,2.37,0,0,1-1.63-.14c-.45-.28-.67-.8-1-1.21a.36.36,0,0,0-.23-.15.38.38,0,0,0-.19.06l-2.36,1.18c-.42.21-1,.43-1.06.94a2.76,2.76,0,0,0,.5,1.57,7.64,7.64,0,0,0,2.48,2.77.84.84,0,0,0,.3.15.89.89,0,0,0,.43-.06,45.54,45.54,0,0,0,8.52-3.72,9.74,9.74,0,0,0,1.92-1.32.14.14,0,0,0,0-.22Z" style="fill:#442e1f"/><path d="M24.15,83.26a23.65,23.65,0,0,1-.72-2.87,38.46,38.46,0,0,1-.56-5.19c0-.87-.07-1.75-.09-2.62,0-.32,0-.69,0-1a9.12,9.12,0,0,0,.78-.71,6.51,6.51,0,0,1-.87-1.56s-.62.47-.67.51c-.23.19-.38.27-.37.55a3,3,0,0,0,.51,1.22q-.32,2.71-.86,5.39a21.07,21.07,0,0,0-.48,3,19.17,19.17,0,0,1-.2,3.55,1,1,0,0,0,0,.72.94.94,0,0,0,.29.26,5,5,0,0,1,1.65,1.92,4.36,4.36,0,0,1,1.37-2.12,1,1,0,0,0,.27-.29A.91.91,0,0,0,24.15,83.26Z" style="fill:#0071bc"/><path d="M37.25,71.06c-.08-.14-.21-.3-.41-.27s-.39.42-.66.48a1,1,0,0,0-.24-.49.5.5,0,0,0-.59,0c0,.34.28.63.2,1s-.62.73-.92,1.11a2.42,2.42,0,0,0-.4,1c-.12.59.41.87,1,.61a5.85,5.85,0,0,0,1.9-1.56,1.92,1.92,0,0,0,.4-.66A1.53,1.53,0,0,0,37.25,71.06Z" style="fill:#998578"/><path d="M23.86,82.23c1.12,1.14,2.52,2.33,4.1,2.11a4.87,4.87,0,0,0,2.62-1.62,26.29,26.29,0,0,0,3.85-4.95c.68-1.14,1.27-2.64.5-3.72a.82.82,0,0,0-.48-.36c-.47-.09-.8.43-1,.86a12.89,12.89,0,0,1-4.62,5.2,2.12,2.12,0,0,1-.8.36c-.76.12-1.41-.52-1.91-1.11q-3-3.5-5.58-7.27a4.66,4.66,0,0,0-1.17-1.31,2.32,2.32,0,0,0-2.58.06c-2.41,1.75.46,4.3,1.66,5.75Q21,79.35,23.86,82.23Z" style="fill:#efefef"/><path d="M28.62,54.22a.67.67,0,0,0-.73-.55c.28-.3.57-.74.33-1.07s-.73-.21-1.05-.42a.76.76,0,0,0-.69-1.35.91.91,0,0,0-1.22-1.26.89.89,0,0,0-1-1,.58.58,0,0,1-.35,0c-.13-.06-.17-.22-.22-.35a1,1,0,0,0-.84-.59c-.25,0-.53.07-.73-.09a1,1,0,0,1-.21-.34,1.26,1.26,0,0,0-1.78-.4c-.18-.36-.67-.38-1.07-.34l-1.21.1a1.76,1.76,0,0,1-.54,0,5.89,5.89,0,0,0-.66-.22c-.56-.06-1.16.55-1.62.22-.08-.06-.14-.14-.23-.16s-.31.15-.44.26a1.93,1.93,0,0,1-1.1.24,4.34,4.34,0,0,0-1.39.48,5.49,5.49,0,0,0-.75.41,5.5,5.5,0,0,0-.67.57,3,3,0,0,0-.71.88,1.18,1.18,0,0,1-.28.49c-.09.07-.2.1-.3.16-.34.22-.3.72-.44,1.11a4.72,4.72,0,0,1-.46.77,2.18,2.18,0,0,0-.18,1.8.6.6,0,0,0-.42.72,3.09,3.09,0,0,0,.39.85.53.53,0,0,1,.08.31c0,.15-.15.25-.24.37a1,1,0,0,0,0,1.19,1.1,1.1,0,0,1,.22.31,1,1,0,0,1,0,.46,1.32,1.32,0,0,0,1.2,1.48.65.65,0,0,0-.11.86,5.9,5.9,0,0,0,.63.72c.17.21.3.45.49.65a.7.7,0,0,0,.73.21,1,1,0,0,0,.88.74.67.67,0,0,0,.33.69,2,2,0,0,0,.77.24.37.37,0,0,0,.18.45,1.07,1.07,0,0,0,.51.1L15.2,64c.08,0,.17,0,.22-.07a.09.09,0,0,0,0-.11.8.8,0,0,0,.6-.27.41.41,0,0,0-.13-.63.69.69,0,0,0,.88-.83.74.74,0,0,0,.37-.78c0-.31-.14-.6-.15-.91,0-.66.51-1.25.45-1.9,0-.43.92-1.2,1.21-1.54.11-.13.21-.34.08-.44a1.47,1.47,0,0,0,1.37-.79.92.92,0,0,0,1.27-.55,1.05,1.05,0,0,0,1.41,0,1.16,1.16,0,0,0,1.46,0,.19.19,0,0,0,0,.15.49.49,0,0,0,.39.12,3.63,3.63,0,0,0,1.13-.19c-.13,0,0,.21.14.22a10.07,10.07,0,0,0,2.51-.07.42.42,0,0,0-.33-.44A.67.67,0,0,0,28.62,54.22Z" style="fill:#333"/><path d="M19.69,89.76A8.18,8.18,0,0,1,24,89.69c1.94.71,3.28,2.85,5.27,3.37a13,13,0,0,1,1.82.39,3.42,3.42,0,0,1,1.68,1.8,9.31,9.31,0,0,1,.64,2.53,4.89,4.89,0,0,1-.13,2.59A3,3,0,0,1,31,102a9.28,9.28,0,0,1-2.89-.18,40.56,40.56,0,0,0-4.4-.45c-2.08-.1-4.17,0-6.23-.28-1.62-.19-3.22-.57-4.84-.66s-3.18.07-4.51-.77a2.41,2.41,0,0,1-1-1.2,3.89,3.89,0,0,1-.16-1.05l-.26-4.17c0-.43-.21-1.13.12-1.47s.87-.25,1.22-.29q3.76-.41,7.49-1l2.15-.37A12.53,12.53,0,0,1,19.69,89.76Z" style="fill:#4d4d4d"/><path d="M4.29,90.89a4.4,4.4,0,0,1,2.17,0c2.75.38,5.59,0,8.27.72a10.29,10.29,0,0,1,3.92,2.05,1.69,1.69,0,0,1,.5.59,1.84,1.84,0,0,1,.08.85l-.36,5.39c0,.56.15,2.16-.21,2.59s-1.42.14-1.86,0l.73-7.63a2.19,2.19,0,0,0-.06-1c-.27-.68-1.09-.91-1.81-1a55.28,55.28,0,0,0-12.15-.77C3.1,92,3.6,91.15,4.29,90.89Z" style="fill:#3f3e3e"/><path d="M16.92,120.59a2.93,2.93,0,0,0-.65-1,1.78,1.78,0,0,0-1.93-.29c-.12.06-.25.16-.22.29a.35.35,0,0,0,.16.18A4.42,4.42,0,0,1,16,123.48s.91,0,1,0c.62-.16.44.14.57-.5A5.41,5.41,0,0,0,16.92,120.59Z" style="fill:#3f3e3e"/><path d="M16.29,111.36c-.06-2.26.13-4.53,0-6.78-.06-1.5-1.9-2.73-2.17-.75-.62,4.5-.28,9.42,0,13.94a1.62,1.62,0,0,0,.33,1.06c.53.54,1.43.05,2.16.22C16.32,119,16.31,112.09,16.29,111.36Z" style="fill:#3f3e3e"/><path d="M8.16,100.53a1.89,1.89,0,0,1-.88-.26A1.91,1.91,0,0,1,6.68,99C5.36,91.43,4,83.87,3.39,76.25a.89.89,0,0,0-.18-.55.9.9,0,0,0-.67-.19H.67a.7.7,0,0,0-.5.13A.68.68,0,0,0,0,76.1a25.6,25.6,0,0,0,.16,3.77l.4,4.37c.16,1.79.33,3.57.61,5.34.24,1.52.57,3,.9,4.52q.82,3.76,1.65,7.53A2.41,2.41,0,0,0,4.35,103a2.41,2.41,0,0,0,1.39.45c6,.61,12,1,18,1.35,1.07.06,2.33,0,3-.82a1.67,1.67,0,0,0,.11-1.84c-.39-.42-1.19-.23-1.73-.25-1.88,0-3.76-.16-5.64-.28Q13.82,101.21,8.16,100.53Z" style="fill:#e8e8e8"/><path d="M23.27,122.71a4.15,4.15,0,0,0-.72-2.2,4.09,4.09,0,0,0-2.42-1.11q-2.46-.5-4.94-.89c-1.67-.26-3.48-.46-5,.34-1.77,1-2.56,3-3.08,5l1.56.27c.53-1.41,1.18-2.93,2.53-3.6a6.08,6.08,0,0,1,2.65-.42l3.46,0a4.84,4.84,0,0,1,3.47.87c.93.89,1,2.32,1,3.6C23.59,125.21,23.43,124,23.27,122.71Z" style="fill:#3f3e3e"/><path d="M24.25,125.17a1.69,1.69,0,0,0-.13-.69,2.33,2.33,0,0,0-2.83-.4c-.66.64-.2,2.35.58,2.73a1.94,1.94,0,0,0,2.25-.63A2,2,0,0,0,24.25,125.17Z" style="fill:#686868"/><path d="M8.79,123.2c-1.88-.66-4.35,1.63-2,2.91a2.47,2.47,0,0,0,1.74.19,1.89,1.89,0,0,0,1.23-.83A1.69,1.69,0,0,0,8.79,123.2Z" style="fill:#686868"/><path d="M18.35,123.13a1,1,0,0,0-.54-.66,1.34,1.34,0,0,0-.52-.09,3.77,3.77,0,0,0-1.5.28,1.2,1.2,0,0,0-.79,1.46,1.53,1.53,0,0,0,1,.91,2,2,0,0,0,1.77-.25A1.57,1.57,0,0,0,18.35,123.13Z" style="fill:#686868"/><path d="M36.8,70.89a1.2,1.2,0,0,1,.27.61,5.77,5.77,0,0,1,0,2.3,2.12,2.12,0,0,1-.27.74,1,1,0,0,1-.63.44.49.49,0,0,1-.39-.09.3.3,0,0,1-.08-.37.51.51,0,0,0,.58-.21,1.37,1.37,0,0,0,.19-.63,11.45,11.45,0,0,0,.08-1.76.78.78,0,0,0-.19-.59c-.15-.14-.43-.24-.26-.5S36.66,70.75,36.8,70.89Z" style="fill:#3f2b24"/><path d="M105.55,80.41a6.17,6.17,0,0,0,1.76-1c1.44-1.18,2-3.11,2.89-4.72a2.26,2.26,0,0,1,1.41-1.23,1.73,1.73,0,0,1,1.78,1.38,5.05,5.05,0,0,1-.17,2.44l-.35,1.48a4.33,4.33,0,0,1-1.11,2.36,3.89,3.89,0,0,1-2.11.75c-2.62.33-5.29.12-7.9.54a3,3,0,0,1-1.2,0,1.43,1.43,0,0,1-1-1.15c-.07-.44,0-.43.37-.4s.77.11,1.17.13A10.9,10.9,0,0,0,105.55,80.41Z" style="fill:#7b90ad"/><path d="M89.4,120a.47.47,0,0,1,.55.57q-.08,2.22-.31,4.43a.37.37,0,0,1-.06.19.36.36,0,0,1-.19.1,6.79,6.79,0,0,1-.89.2.25.25,0,0,1-.21,0c-.09-.08,0-.21,0-.33a.45.45,0,0,0-.3-.4.81.81,0,0,0-.52,0,6.32,6.32,0,0,0-.91.47,5.14,5.14,0,0,1-2.6.31l-1-.05a.32.32,0,0,1-.38-.29l-.4-1.5a1.08,1.08,0,0,1,0-.61.91.91,0,0,1,.55-.49,7.71,7.71,0,0,1,2-.36,2.79,2.79,0,0,0,1.82-.8c.34-.4.26-1.14.73-1.4A4.42,4.42,0,0,1,89.4,120Z" style="fill:#333"/><path d="M116.48,118.94a1.78,1.78,0,0,0-1.93.29,2.93,2.93,0,0,0-.65,1,5.41,5.41,0,0,0-.67,2.4c.13.64,0,.34.57.5.07,0,1,0,1,0a4.42,4.42,0,0,1,1.76-3.72.34.34,0,0,0,.16-.18C116.73,119.1,116.6,119,116.48,118.94Z" style="fill:#3f3e3e"/><path d="M116.65,103.49c-.27-2-2.11-.75-2.17.75-.09,2.25.11,4.53,0,6.78,0,.72,0,7.61-.38,7.69.73-.17,1.63.31,2.16-.22a1.62,1.62,0,0,0,.33-1.06C116.92,112.91,117.26,108,116.65,103.49Z" style="fill:#3f3e3e"/><path d="M130.79,75.76a.68.68,0,0,0-.15-.46.7.7,0,0,0-.5-.13h-1.87a.67.67,0,0,0-.85.74c-.66,7.63-2,15.18-3.29,22.72a1.91,1.91,0,0,1-.6,1.31,1.89,1.89,0,0,1-.88.26q-5.66.68-11.35,1c-1.88.12-3.76.23-5.64.28-.54,0-1.34-.18-1.73.25a1.67,1.67,0,0,0,.11,1.84c.65.85,1.91.88,3,.82,6-.32,12-.74,18-1.35a1.81,1.81,0,0,0,2-1.78q.84-3.76,1.65-7.53c.33-1.5.65-3,.9-4.52.28-1.77.45-3.56.61-5.34l.4-4.37A25.6,25.6,0,0,0,130.79,75.76Z" style="fill:#e8e8e8"/><path d="M120.6,118.52c-1.49-.8-3.3-.6-5-.34s-3.3.56-4.94.89a4.09,4.09,0,0,0-2.42,1.11,4.15,4.15,0,0,0-.72,2.2c-.16,1.26-.33,2.49,1.46,1.83,0-1.28.07-2.72,1-3.6a4.84,4.84,0,0,1,3.47-.87l3.46,0a6.08,6.08,0,0,1,2.65.42c1.35.66,2,2.19,2.53,3.6l1.56-.27C123.17,121.56,122.37,119.48,120.6,118.52Z" style="fill:#3f3e3e"/><path d="M109.53,123.73a2.33,2.33,0,0,0-2.83.4,1.69,1.69,0,0,0-.13.69,2,2,0,0,0,.14,1,1.94,1.94,0,0,0,2.25.63C109.73,126.08,110.19,124.37,109.53,123.73Z" style="fill:#686868"/><path d="M122,122.87a1.69,1.69,0,0,0-1,2.27,1.89,1.89,0,0,0,1.23.83,2.47,2.47,0,0,0,1.74-.19C126.37,124.5,123.91,122.21,122,122.87Z" style="fill:#686868"/><path d="M115,122.32a3.77,3.77,0,0,0-1.5-.28,1.34,1.34,0,0,0-.52.09,1,1,0,0,0-.53.66,1.57,1.57,0,0,0,.58,1.65,2,2,0,0,0,1.77.25,1.53,1.53,0,0,0,1-.91A1.2,1.2,0,0,0,115,122.32Z" style="fill:#686868"/><path d="M92.78,82.53c2.56,0,5.12,0,7.68-.06,1.34,0,2.69-.06,4,0a.44.44,0,0,1,.18,0,.06.06,0,0,1,0,.06l0,.37c-1.24,0-2.49,0-3.73,0l-7.7,0c-.27,0-.42,0-.44-.13S92.85,82.53,92.78,82.53Z" style="fill:#3f3e3e"/><path d="M98.74,77.67c.08-.11.34-.41.47-.37a.67.67,0,0,1,.3.26L95.36,82.1c-.19.21-.45.45-.73.37C96,80.8,97.4,79.43,98.74,77.67Z" style="fill:#3f3e3e"/><path d="M110.82,96.25a7.4,7.4,0,0,0-4-.77c-6.6.17-12.94,4-15.78,9.49a24.07,24.07,0,0,0-1.51,3.78,48.53,48.53,0,0,0-2,9.6c-.09.83-.7,4.11,1.38,3.13.77-.36.8-3,1-3.8,1.17-4.27,2.67-10.78,6.32-13.62,3.4-2.65,8-1.34,12.33-2.33,1.48-.34,3.16-.89,3.67-2.22A2.83,2.83,0,0,0,110.82,96.25Z" style="fill:#704343"/><path d="M96.77,112.75A26.86,26.86,0,0,0,94.37,114c-.24.14-.5.31-.54.59a.92.92,0,0,0,.06.4c.27.85.58,1.21-.2,1.76s-1.48,1-2.22,1.57a.8.8,0,0,0-.35.41.79.79,0,0,0,.16.57l.58,1a.74.74,0,0,0,.29.32.75.75,0,0,0,.56-.05,36.54,36.54,0,0,0,3.83-1.66.47.47,0,0,0,.26-.23.46.46,0,0,0,0-.25l-.36-1.49a.78.78,0,0,1,1,0,1.61,1.61,0,0,1,.52.9,2.34,2.34,0,0,0,1-.58Z" style="fill:#333"/><path d="M97.39,92.61a10.42,10.42,0,0,0-4.33,1.88,8.37,8.37,0,0,0-2.64,6.83,24.68,24.68,0,0,0,1.84,7.32l1.85,5.08a.78.78,0,0,0,.27.42.73.73,0,0,0,.39.08,4.6,4.6,0,0,0,2-.47,30.89,30.89,0,0,1-2.87-10.6,6,6,0,0,1,0-1.82c.38-1.67,2-2.81,3.62-3.37s3.39-.73,5-1.36a1.23,1.23,0,0,0,.59-.39,1.18,1.18,0,0,0,.16-.63,4.14,4.14,0,0,0-.6-2.52C101.56,91.28,99.12,92.21,97.39,92.61Z" style="fill:#704343"/><path d="M114.79,65.22A4.76,4.76,0,0,1,112,68.7a4.43,4.43,0,0,1-3.57-.42,3.58,3.58,0,0,1-1.22-1,5.15,5.15,0,0,1-.66-1.67l-1-3.86a4.34,4.34,0,0,1-.19-2.16,2.75,2.75,0,0,1,1.5-1.71,5.57,5.57,0,0,1,2.28-.47,11.65,11.65,0,0,1,3.06.32,4.51,4.51,0,0,1,1.85.82,3,3,0,0,1,.88,2.65A16.37,16.37,0,0,1,114.79,65.22Z" style="fill:#e2cfc5"/><path d="M117.61,72.24q-.6-1.22-1.24-2.41a8.86,8.86,0,0,0-2.61-1.48c-.55-.23-1.36.69-1.9.9a3.81,3.81,0,0,1-2.35.16,46.52,46.52,0,0,1,.13,17c-.91,5.63-.37,2.72-2.19,8.12L122,100.11a3,3,0,0,0,.72-1,3,3,0,0,0,.14-1C123.25,85.71,123.12,83.39,117.61,72.24Z" style="fill:#0071bc"/><path d="M120.57,97.22A12.08,12.08,0,0,0,118,95.38l-3.81-2.29a5.52,5.52,0,0,0-2.77-1c-1.07,0-2.66-1.69-3.62-1.19a11.9,11.9,0,0,1-5.93,1.32c-.68,0-1.79-.44-2.33,0-1.14.92-1.39-2.31-.14,5a12.62,12.62,0,0,0,2.32,5.42.93.93,0,0,0,.31.3.91.91,0,0,0,.46,0q9.06-.62,18.08-1.76a1.42,1.42,0,0,0,1.15-.55,1.23,1.23,0,0,0,.11-.61A4.29,4.29,0,0,0,120.57,97.22Z" style="fill:#0071bc"/><path d="M126.53,90.55a4.4,4.4,0,0,0-2.17,0c-2.75.38-5.59,0-8.27.72a10.29,10.29,0,0,0-3.92,2.05,1.69,1.69,0,0,0-.5.59,1.84,1.84,0,0,0-.08.85l.36,5.39c0,.56-.15,2.16.21,2.59s1.42.14,1.86,0l-.73-7.63a2.19,2.19,0,0,1,.06-1c.27-.68,1.09-.91,1.81-1a55.28,55.28,0,0,1,12.15-.77C127.71,91.69,127.21,90.81,126.53,90.55Z" style="fill:#3f3e3e"/><path d="M103.34,59a2.53,2.53,0,0,1,1.55-2.84,16.08,16.08,0,0,0,1.77-.48c.77-.39,1.22-1.27,2-1.62a.74.74,0,0,1,.43-.07,1.33,1.33,0,0,1,.44.24c1.33.86,3.21-.64,4.63.05a3.34,3.34,0,0,1,1.33,1.64,13.59,13.59,0,0,1,.92,2.13,9,9,0,0,0,.73,2.2c.2.33.47.61.66.94a2.47,2.47,0,0,1-.87,3.25,4,4,0,0,0-.83.5,4.36,4.36,0,0,0-.66,1.34c-.22.45-2.6,2.47-3,2.19a4.32,4.32,0,0,0-.37-2.43,7.4,7.4,0,0,1-.41-.64,1.39,1.39,0,0,1,.19-1.45l-1.56.27c0-.76-.13-1.65-.78-2A2.33,2.33,0,0,0,108,62C105.81,62.24,104.29,61.81,103.34,59Z" style="fill:#333"/><path d="M99.76,81.31c0-.23,0-.17-.2-.21s-.68,0-1,0a7.09,7.09,0,0,1-1.85-.48,3.08,3.08,0,0,0-1.63-.41,1.55,1.55,0,0,0-1.18,1.31,1,1,0,0,0,0,.4.92.92,0,0,0,.43.51,2.72,2.72,0,0,0,1.37.29,12.18,12.18,0,0,0,3.8-.54.29.29,0,0,0,.25-.33A2.34,2.34,0,0,0,99.76,81.31Z" style="fill:#e2cfc5"/><path d="M116,73.43a1.6,1.6,0,0,0-1.2-.92,1.58,1.58,0,0,0-1.28.66c-1.16,1.42-.78,3.76-2.14,5a4.87,4.87,0,0,1-1.75.88,23.5,23.5,0,0,1-4.61,1.23c-1.93.24-3.94,0-5.8.58A.63.63,0,0,0,99,81a.62.62,0,0,0-.13.38c-.08.93,0,1.34.92,1.38s1.93.06,2.89.07q2.92,0,5.84-.21,1.6-.12,3.2-.31a6.08,6.08,0,0,0,2-.48,4.18,4.18,0,0,0,1.88-2.12,11,11,0,0,0,.69-2.8A5.62,5.62,0,0,0,116,73.43Z" style="fill:#7b90ad"/><path d="M124.63,71.51c-.09-.5-.54-.82-.88-1.2-1.23-1.39-1-3.79-2.48-4.88a12.17,12.17,0,0,1-1.13-.72,5.19,5.19,0,0,1-1-1.72,4.9,4.9,0,0,0-2.89-2.53c-.72-.23-1.59-.36-2-1-.25-.44-.26-1.09-.72-1.28a1,1,0,0,0-.91.19A4.13,4.13,0,0,0,111,62.81l-.46,1.13a4.39,4.39,0,0,0-1.17,2.8,12.8,12.8,0,0,1,0,2.16,5.15,5.15,0,0,1-1.84,2.55A5.48,5.48,0,0,0,105.59,74c-.26,1,.38,2.36,1.45,2.37s1.73-1.25,2.44-2.11a3.54,3.54,0,0,1,2.17-1.31,2.47,2.47,0,0,1,2.31.88c.35.47.49,1.08.84,1.56a2.33,2.33,0,0,0,3.63,0,3.21,3.21,0,0,1,.41-.56,1.58,1.58,0,0,1,1.57-.14,5,5,0,0,0,1.58.45,2.16,2.16,0,0,0,1.6-.88,6.38,6.38,0,0,0,.86-1.68A1.87,1.87,0,0,0,124.63,71.51Z" style="fill:#333"/><path d="M61.51,71.24A9.87,9.87,0,0,0,61.38,70a11.82,11.82,0,0,1-1.95.1,21.46,21.46,0,0,1,0,2.45c0,1.64,0,2.81,0,4.77,0,.75,0,1.49,0,2.23,0,.28-.24,1.26,0,1.38a2.41,2.41,0,0,0,.8,0l.8,0a.35.35,0,0,0,.19,0,.31.31,0,0,0,.1-.14,2.79,2.79,0,0,0,.15-1C61.58,76.86,61.67,74,61.51,71.24Zm-.83-.42a.23.23,0,0,1-.43,0,.24.24,0,0,1,.11-.29.19.19,0,0,1,.09-.06.2.2,0,0,1,.24.1A.38.38,0,0,1,60.69,70.81Z" style="fill:#afafaf"/><path d="M61.41,71.77a4.42,4.42,0,0,0-1.08.15c-.05,0,0,.11,0,.1.36,0,.71,0,1.07-.08A.09.09,0,0,0,61.41,71.77Z" style="fill:#3f3e3e"/><path d="M61.31,73.73c-.28,0-.56.05-.84.07-.07,0-.07.11,0,.11.28,0,.56,0,.84,0C61.42,73.89,61.42,73.73,61.31,73.73Z" style="fill:#3f3e3e"/><path d="M61.46,76.24a6,6,0,0,0-1,.08c-.08,0,0,.13,0,.12a5.56,5.56,0,0,1,.92,0A.08.08,0,0,0,61.46,76.24Z" style="fill:#3f3e3e"/><path d="M61.43,78.88a5.29,5.29,0,0,0-1,.07c-.08,0-.08.13,0,.12.32,0,.64,0,1,0A.09.09,0,0,0,61.43,78.88Z" style="fill:#3f3e3e"/><path d="M61.35,78.4l-.3,0c-.07,0-.06.14,0,.13l.31,0A.07.07,0,1,0,61.35,78.4Z" style="fill:#3f3e3e"/><path d="M61.33,77.83l-.23,0c-.08,0-.08.13,0,.13h.25C61.45,78,61.44,77.81,61.33,77.83Z" style="fill:#3f3e3e"/><path d="M61.25,77.27l-.19,0c-.07,0-.07.11,0,.11h.21C61.37,77.41,61.36,77.24,61.25,77.27Z" style="fill:#3f3e3e"/><path d="M61.39,76.7l-.33,0c-.09,0-.07.16,0,.15l.33,0A.08.08,0,0,0,61.39,76.7Z" style="fill:#3f3e3e"/><path d="M61.25,75.67a1.56,1.56,0,0,0-.31,0c-.09,0,0,.15,0,.13a.88.88,0,0,1,.27,0C61.35,75.84,61.36,75.67,61.25,75.67Z" style="fill:#3f3e3e"/><path d="M61.31,75a2.29,2.29,0,0,1-.35,0c-.09,0-.09.13,0,.14a2.28,2.28,0,0,0,.35,0C61.42,75.19,61.42,75,61.31,75Z" style="fill:#3f3e3e"/><path d="M61.33,74.5a1.17,1.17,0,0,0-.34.06.07.07,0,0,0,0,.13,2,2,0,0,1,.31,0A.09.09,0,0,0,61.33,74.5Z" style="fill:#3f3e3e"/><path d="M61.39,73.25a2.55,2.55,0,0,1-.38,0c-.06,0-.06.09,0,.1a1.47,1.47,0,0,0,.4,0C61.5,73.39,61.48,73.24,61.39,73.25Z" style="fill:#3f3e3e"/><path d="M61.35,72.71h-.29a.06.06,0,0,0,0,.13h.29A.07.07,0,0,0,61.35,72.71Z" style="fill:#3f3e3e"/><path d="M61.26,72.34l-.19,0a.07.07,0,0,0,0,.14l.19.06C61.31,72.53,61.35,72.36,61.26,72.34Z" style="fill:#3f3e3e"/><path d="M61.14,79.46h-.06a.08.08,0,0,0,0,.17h.06A.09.09,0,0,0,61.14,79.46Z" style="fill:#3f3e3e"/><path d="M61.3,79.91a1.54,1.54,0,0,0-.29-.05c-.11,0-.11.16,0,.18a1,1,0,0,1,.24.06C61.36,80.13,61.41,79.94,61.3,79.91Z" style="fill:#3f3e3e"/><path d="M58.5,72.78a1,1,0,0,1-.11-.44h0s0-.06,0-.06a1.42,1.42,0,0,0,.19-.06.54.54,0,0,1,.25,0,.1.1,0,0,1,.07.06.2.2,0,0,1,0,.08,2,2,0,0,0,0,.41C59,72.81,58.57,72.78,58.5,72.78Z" style="fill:#e8e8e8"/><path d="M58.84,78.83q-.05-1-.12-2c-.09-1.35-.17-2.71-.29-4.06,0-.07.06-.13.15-.14l.25,0c.08,0,.18.05.18.12-.1,1.3.2,2.6.23,3.89s0,2.58.15,3.87a.11.11,0,0,1,0,.1.08.08,0,0,1-.07.08h0a.2.2,0,0,1-.16.05h-.06a.16.16,0,0,1-.13-.09A6.3,6.3,0,0,1,58.84,78.83Z" style="fill:#4c4c4c"/><path d="M62.18,71.58a1.2,1.2,0,0,0,.1-.44,0,0,0,0,0,0,0l0,0c-.07,0-.16,0-.22-.05s-.09-.08-.14-.06a.09.09,0,0,0-.06.06.26.26,0,0,0,0,.08,2.5,2.5,0,0,1,0,.41C61.79,71.62,62.12,71.58,62.18,71.58Z" style="fill:#e8e8e8"/><path d="M61.75,79.37q.08-1.28.17-2.56c.12-1.75.24-3.51.4-5.25a.17.17,0,0,0-.15-.18l-.26,0a.17.17,0,0,0-.19.16c.07,1.68-.27,3.37-.33,5s-.11,3.34-.24,5a.17.17,0,0,0,0,.13.09.09,0,0,0,.07.1h0a.18.18,0,0,0,.17.06h.07a.18.18,0,0,0,.14-.11A10.1,10.1,0,0,0,61.75,79.37Z" style="fill:#3f4854"/><path d="M62.43,70.53c-.06-.09-.22-.1-.32-.13a.37.37,0,0,0-.3,0,.34.34,0,0,0-.14.24c0,.14-.05.28-.07.42a.17.17,0,0,0,.15.18l.09,0,.26.06a.23.23,0,0,0,.26-.07.68.68,0,0,0,.07-.33C62.46,70.77,62.5,70.62,62.43,70.53Z" style="fill:#3f4854"/><path d="M62.4,71.57a.06.06,0,0,1,.05,0,.06.06,0,0,1,0,0c0,.65-.06,1.3-.14,1.95h-.05c0-.19.05-.38.07-.58a9,9,0,0,1,.06-1.09l-.46-.05h0a.11.11,0,0,1,0,0c0-.07,0-.31.08-.31a1.6,1.6,0,0,1,.2,0Z" style="fill:#e8e8e8"/><path d="M61.93,83.1a.52.52,0,0,0,.09-.26L63.1,76.1a23.11,23.11,0,0,0-5.25-.29q.19,3.72.55,7.42l3.35-.07A.23.23,0,0,0,61.93,83.1Z" style="fill:#3f3e3e"/><path d="M39.8,83v-2.9l15.49-1.18a11.06,11.06,0,0,1,.46,4Z" style="fill:#545a7d"/><path d="M40.25,80.06q0-1.45,0-2.9L52.51,76a13.83,13.83,0,0,1,.37,4Z" style="fill:#686d8a"/><path d="M77.54,73.18A1,1,0,0,0,76.35,73a2.32,2.32,0,0,0-.82.83,9.1,9.1,0,0,0-.06-1.24,2.94,2.94,0,0,0-.32-1.09,1.34,1.34,0,0,0-.88-.68,1.43,1.43,0,0,0-1.48,1,4.17,4.17,0,0,0-.09,1.92l.35,3.15c0,.15,0,.51.05.62s.69.23.88.26a1.64,1.64,0,0,0,1-.11.42.42,0,0,0,.14-.09.49.49,0,0,0,.09-.27l.07-.54,0,0a11.26,11.26,0,0,0,2.11-2.1,1.74,1.74,0,0,0,.29-.66A.93.93,0,0,0,77.54,73.18Z" style="fill:#a1b299"/><path d="M73.72,72c0-.15-.24-.19-.26,0a2.24,2.24,0,0,0,0,.63c0,.19.31.21.31,0S73.71,72.19,73.72,72Z" style="fill:#85997a"/><path d="M74.66,73a.13.13,0,0,0-.25,0v.34a.13.13,0,0,0,.26,0Z" style="fill:#85997a"/><path d="M73.87,74.26a.13.13,0,0,0-.24-.07,1,1,0,0,0,0,.34c0,.17.28.17.27,0A.73.73,0,0,1,73.87,74.26Z" style="fill:#85997a"/><path d="M73.9,76.63a1.55,1.55,0,0,1,0-.39c0-.19-.27-.18-.29,0a1.87,1.87,0,0,0,0,.47C73.65,76.9,73.95,76.82,73.9,76.63Z" style="fill:#85997a"/><path d="M75.13,75.26l-.15.16a.14.14,0,0,0,.2.2l.16-.15C75.5,75.35,75.26,75.11,75.13,75.26Z" style="fill:#85997a"/><path d="M76.56,73.84l-.15.19c-.11.14.08.35.21.21l.16-.18C76.91,73.91,76.68,73.69,76.56,73.84Z" style="fill:#85997a"/><path d="M72,82.89a.3.3,0,0,0,.29.1c1.43-.06,2.85.08,4.28,0a50.07,50.07,0,0,0,.4-5.53H72.49c-.29,0-1.1,0-1.13.12a5,5,0,0,0,.09,1.15l.16,1.32c.1.85.21,1.69.3,2.54A.56.56,0,0,0,72,82.89Z" style="fill:#c7b299"/><path d="M75.73,80.24a6.37,6.37,0,0,1-1.53.14c-.61,0-1.22.09-1.83.12a.31.31,0,0,0,0,.62,8.84,8.84,0,0,0,3.63.1C76.61,81,76.36,80,75.73,80.24Z" style="fill:#dddbba"/><path d="M72.49,81.78a.25.25,0,0,0,0,.51A.25.25,0,0,0,72.49,81.78Z" style="fill:#dddbba"/><path d="M73.88,81.94a.15.15,0,0,0,0,.3A.15.15,0,0,0,73.88,81.94Z" style="fill:#dddbba"/><path d="M75.78,81.93h0a.29.29,0,1,0,0,.41h0A.27.27,0,0,0,75.78,81.93Z" style="fill:#dddbba"/><path d="M102.84,84.74c-1.46,0-7.14,0-8.8,0l-33.86,0c-6.93,0-13.88,0-20.8,0-2.86,0-6.66,0-9.55,0-1.76,0-1.28,0-1.65.34a1.3,1.3,0,0,0-.36.95,2.21,2.21,0,0,0,0,.95,2.67,2.67,0,0,0,.17.45c0,.1-.38.23,0,.33-.08.05,0,.1,1.15.13s2.73,0,4.57,0H94c1.64,0,7.26,0,8.74,0,.4,0,.72,0,.9,0,.86-.09.33-.24.4-.34h-.15c.06-.15-.13-.3-.08-.42a1.6,1.6,0,0,0,.11-.63,1.72,1.72,0,0,0-.21-.75c-.12-.22.38-.55.57-.79S104.37,84.76,102.84,84.74Z" style="fill:#3f3e3e"/><path d="M25.18,83.44c.21.85-.72,1.69-.51,2.54,26.58,0,54.26,0,80.81-.32a2.87,2.87,0,0,0-.16-2.47c-17.22-.56-35.18.13-52.37-.11C43.69,83,34.43,83.32,25.18,83.44Z" style="fill:#e8e8e8"/><path d="M98.12,87.6a.8.8,0,0,1,.24-.69,1.22,1.22,0,0,1,.74-.14l2.83.05A68.14,68.14,0,0,0,101.25,99c.14,4.24.68,8.49.25,12.71-.31,3-1.13,15.88-.58,18.85,0,.09-2.44,0-2.82-.86-.51-1.08,0-13.14,0-14.32q0-4.66,0-9.32Z" style="fill:#3f3e3e"/><path d="M75.11,81.06a1.94,1.94,0,0,0,.17,1.46,1.79,1.79,0,0,0,1.43.56,51.44,51.44,0,0,0,7.24-.1c.47-.06,1-.26,1.06-.73-2.49,0-5,.17-7.46-.07a1.48,1.48,0,0,1-1.08-.42,1.3,1.3,0,0,1-.21-.54,9.7,9.7,0,0,1,.48-4.6c.67-2.27,1.58-4.46,2.47-6.65a2.87,2.87,0,0,0,.31-1.8c-.19-.68-1.07-1.12-1.46-.45a13.73,13.73,0,0,0-.88,3.2q-.82,3.19-1.44,6.43Q75.39,79.2,75.11,81.06Z" style="fill:#e8e8e8"/><path d="M80.5,78.36c.12.51.31,1.11.81,1.26a1.51,1.51,0,0,0,.83-.07l1.3-.36c0-2.34-.77-4.68-1.28-7C80.37,64.3,79.24,58.58,78,51.6c-3.14-.16-2.3,1.87-1.93,4.14q.63,3.83,1.34,7.65Q78.78,70.91,80.5,78.36Z" style="fill:#f2f2f2"/><path d="M62.81,81a2.17,2.17,0,0,1-.19,1.63,2,2,0,0,1-1.6.63,57.53,57.53,0,0,1-8.09-.11c-.52-.06-1.17-.29-1.18-.82,2.79,0,5.57.19,8.34-.08a1.65,1.65,0,0,0,1.21-.47,1.45,1.45,0,0,0,.23-.6A10.85,10.85,0,0,0,61,76c-.75-2.54-1.77-5-2.77-7.44a3.21,3.21,0,0,1-.34-2c.21-.76,1.2-1.25,1.63-.51a15.34,15.34,0,0,1,1,3.58q.92,3.57,1.61,7.19Q62.49,78.9,62.81,81Z" style="fill:#e8e8e8"/><path d="M56.78,78c-.13.57-.35,1.24-.91,1.41a1.69,1.69,0,0,1-.93-.08l-1.45-.4c0-2.62.86-5.24,1.43-7.79,2-8.85,3.25-15.25,4.68-23.06,3.51-.18,2.57,2.09,2.16,4.63q-.7,4.29-1.5,8.56Q58.69,69.63,56.78,78Z" style="fill:#f2f2f2"/><path d="M30.48,130.46a9.28,9.28,0,0,0,3.19-.06A2.84,2.84,0,0,0,34,129c-.41-10.57,1.2-31.25.06-41.79-.7-.82-2.29-.5-3,.34a4.45,4.45,0,0,0-.64,3c.14,6.58.16,13.17.13,19.75C30.57,113.47,30.1,127.3,30.48,130.46Z" style="fill:#3f3e3e"/><path d="M97.13,90.25a50.78,50.78,0,0,0-6.93-.51l-17,0c-2.26.24-5.24.26-7.52.32-1.39,0-1,.17-1.3,4.48-.27,4.1-.24,8.23-.29,12.34s0,8.22,0,12.33q0,3,.13,5.91c0,1.36-.3,3.06,0,4.34a1.43,1.43,0,0,0,.91,1.72,11.26,11.26,0,0,0,3.6.45H69c2,0,4.11-.14,5.38-.14h7.82c12,0-4.08,0,7.94,0,1.29,0,5.72,0,6.88-.62a1.63,1.63,0,0,0,.71-.63c.68-1.23.26-3.17.32-4.47H98c0-1.9-.1-4-.07-5.53q.1-4.11.09-8.22,0-4.88-.16-9.75c-.09-2.91.3-7.2.45-10.34C98.33,90.59,98.33,90.59,97.13,90.25Z" style="fill:#4c4c4c"/><path d="M99.08,88.15c-13.56-.58-1.7.13-15.24-.12-7.29-.13-14.58.25-21.87.37.16.88-.57,1.76-.4,2.65,20.94,0,16.72,0,37.64-.33A3.86,3.86,0,0,0,99.08,88.15Z" style="fill:#e8e8e8"/><path d="M67.56,120.24a11.1,11.1,0,0,0,1.14,0h3.81c6.65,0,13,0,19.48,0a11.28,11.28,0,0,0,2.24-.12c.26-.07.24-.16.21-.24s0,0-.08,0a2.66,2.66,0,0,0-.46,0c-2.93,0-6-.09-8.93-.06s-5.54,0-8.36,0c-1.41,0-2.82,0-4.24,0s-2.78,0-4.17,0C67.06,119.83,66.57,120.13,67.56,120.24Z" style="fill:#969696"/><path d="M67.56,112a11.1,11.1,0,0,0,1.14,0h3.81c6.65,0,13,0,19.48,0a11.27,11.27,0,0,0,2.24-.12c.26-.07.24-.16.21-.24s0,0-.08,0a2.66,2.66,0,0,0-.46,0c-2.93,0-6-.09-8.93-.06s-5.54,0-8.36,0c-1.41,0-2.82,0-4.24,0s-2.78,0-4.17,0C67.06,111.56,66.57,111.86,67.56,112Z" style="fill:#969696"/><path d="M67.56,103.53a11.1,11.1,0,0,0,1.14,0h3.81c6.65,0,13,0,19.48,0a11.28,11.28,0,0,0,2.24-.12c.26-.07.24-.16.21-.24s0,0-.08,0a2.66,2.66,0,0,0-.46,0c-2.93,0-6-.09-8.93-.06s-5.54,0-8.36,0c-1.41,0-2.82,0-4.24,0s-2.78,0-4.17,0C67.06,103.12,66.57,103.43,67.56,103.53Z" style="fill:#969696"/><path d="M94.77,128.51c-.35,0-.78,0-1.18,0H89.64c-6.89,0-13.44,0-20.17,0a12.08,12.08,0,0,1-2.32-.12c-.27-.07-.25-.16-.22-.24s0,0,.08,0a2.84,2.84,0,0,1,.47,0c3,0,6.2-.09,9.25-.06s5.74,0,8.66,0c1.46,0,2.92,0,4.39,0s2.88,0,4.32,0C95.29,128.1,95.8,128.4,94.77,128.51Z" style="fill:#969696"/><path d="M83.13,97.17a.69.69,0,0,0,.35-.05c.29-.15.37-.64.36-1.06a1.13,1.13,0,0,0-.05-.38c-.13-.33-.46-.36-.74-.35l-3.77.14a2.39,2.39,0,0,0-.91.16c-.29.13-.46.14-.56.52-.4,1.5,1.35,1.11,1.87,1.08Q81.4,97.12,83.13,97.17Z" style="fill:#e8e8e8"/><path d="M82.42,107.1a1.19,1.19,0,0,1,.75.14.79.79,0,0,1,.29.84.57.57,0,0,1-.36.36,1.19,1.19,0,0,1-.46,0c-1.46-.09-3,.14-4.42.13a.74.74,0,0,1-.58-.87.9.9,0,0,1,.69-.54c.86-.1,1.76,0,2.61,0Z" style="fill:#e8e8e8"/><path d="M82.94,115.38a.55.55,0,0,1,.57.26.66.66,0,0,1-.19.71,1,1,0,0,1-.61.17l-2.32.1a15.38,15.38,0,0,1-2.21,0,.41.41,0,0,1-.31-.13c-.18-.23-.24-.81,0-1s.72-.07,1-.07l2.61,0Z" style="fill:#e8e8e8"/><path d="M82.75,123.47a.63.63,0,0,0-.37-.07c-1,0-1.95,0-2.92.09l-1.5.07c-.13,0-.33,0-.41.14a2.22,2.22,0,0,0,0,.81.66.66,0,0,0,.06.28.35.35,0,0,0,.3.14,32.54,32.54,0,0,0,4.89,0,.23.23,0,0,0,.14,0c.08-.07.09-.22.09-.35C83.06,124.12,83,123.64,82.75,123.47Z" style="fill:#e8e8e8"/><path d="M86.94,82.86a.33.33,0,0,1-.07-.2,42.21,42.21,0,0,1-.32-5.45q1.79.2,3.6.25a25.83,25.83,0,0,1-.76,5.45,10.52,10.52,0,0,1-2.29,0A.25.25,0,0,1,86.94,82.86Z" style="fill:#ddcebf"/><path d="M89.68,79.76a.13.13,0,0,1,.07.05.14.14,0,0,1,0,.08l-.09.78-2.78-.05a6.51,6.51,0,0,1,0-1.19,7.52,7.52,0,0,0,2.17.26A1.54,1.54,0,0,1,89.68,79.76Z" style="fill:#517267"/><path d="M86.19,77.7q0-.34,0-.69,2.14,0,4.28.13l-.06.54a.09.09,0,0,1-.1.1A18.12,18.12,0,0,1,86.19,77.7Z" style="fill:#736357"/><path d="M31.41,82.63q6.54.15,13.08-.22a3.63,3.63,0,0,1,0,.93,59.14,59.14,0,0,1-7,.15l-3.77-.07a16.79,16.79,0,0,1-1.89,0c-.16,0-.38,0-.49-.11A1.51,1.51,0,0,1,31.41,82.63Z" style="fill:#d6d6d6"/><path d="M42.52,82.16a6.27,6.27,0,0,1,2-.37,4.17,4.17,0,0,1,1.68.18,1.61,1.61,0,0,1,1,1c0,.08,0,.17-.06.22a.5.5,0,0,1-.18,0q-2.54.16-5.1.17C40.75,83.44,42.13,82.32,42.52,82.16Z" style="fill:#f2f2f2"/><path d="M134.53,47.36c-8.19-.41-29.4.09-37.57-.08-4.4-.09-8.8.17-13.2.26-.41.31-.34,1.23-.24,1.85,12.64,0,38.47,0,51.09-.23A3.09,3.09,0,0,0,134.53,47.36Z" style="fill:#e8e8e8"/><path d="M98.51,47.39a14.92,14.92,0,0,0,1.5,0,.27.27,0,0,0,.19-.07.49.49,0,0,0,.09-.21,10.49,10.49,0,0,0,.17-2.83,51.73,51.73,0,0,1,.22-6c0-.38,0-.86-.22-1a.48.48,0,0,0-.26-.06c-.42,0-1-.17-1.11.49S99,39.28,98.91,40c-.13,1.57-.25,3.15-.32,4.73C98.58,45,98.49,47.39,98.51,47.39Z" style="fill:#737373"/><path d="M100.68,37.41q.72,0,1.43,0,0,1.67.07,3.34c0,1.1,0,2.2,0,3.3a29.64,29.64,0,0,0-.16,3.39c0-.14-1.56.18-1.67,0a5,5,0,0,1,0-1.17q0-.6,0-1.2.08-2.44.18-4.88Q100.62,38.81,100.68,37.41Z" style="fill:#7f8283"/><path d="M102.12,45.58l.09-2.83c0-1,.07-2,.09-3a7.74,7.74,0,0,0-.19-2.31,3.91,3.91,0,0,1,1.21-.17.33.33,0,0,1,.16,0c.14.08.19.31.21.52,0,.41,0,.83,0,1.25,0,2.65,0,5.29-.08,7.93a.71.71,0,0,1,0,.28.35.35,0,0,1-.35.17c-.25,0-1.13.21-1.24-.12a2.86,2.86,0,0,1,0-.81C102.09,46.23,102.11,45.9,102.12,45.58Z" style="fill:#9aa1a6"/><path d="M104,37.41q.72,0,1.43,0,0,1.67.07,3.34c0,1.1,0,2.2,0,3.3a29.66,29.66,0,0,0-.16,3.39c0-.14-1.56.18-1.67,0a5,5,0,0,1,0-1.17q0-.6,0-1.2.08-2.44.18-4.88Q103.9,38.81,104,37.41Z" style="fill:#7a7d80"/><path d="M105.39,45.58l.09-2.83c0-1,.07-2,.09-3a7.74,7.74,0,0,0-.19-2.31,3.91,3.91,0,0,1,1.21-.17.33.33,0,0,1,.16,0c.14.08.19.31.21.52,0,.41,0,.83,0,1.25,0,2.65,0,5.29-.08,7.93a.71.71,0,0,1,0,.28.35.35,0,0,1-.35.17c-.25,0-1.13.21-1.24-.12a2.86,2.86,0,0,1,0-.81C105.37,46.23,105.38,45.9,105.39,45.58Z" style="fill:#cfcfcf"/><path d="M134.53,19.89c-8.19-.41-29.4.09-37.57-.08-4.4-.09-8.8.17-13.2.26-.41.31-.34,1.23-.24,1.85,12.64,0,38.47,0,51.09-.23A3.09,3.09,0,0,0,134.53,19.89Z" style="fill:#e8e8e8"/><path d="M134.53,34.4c-8.19-.41-29.4.09-37.57-.08-4.4-.09-8.8.17-13.2.26-.41.31-.34,1.23-.24,1.85,12.64,0,38.47,0,51.09-.23A3.09,3.09,0,0,0,134.53,34.4Z" style="fill:#e8e8e8"/><path d="M122.28,47.14c-2.72-.14-5.5.44-8.15-.18,0-1.46.14-2.81.14-4.27-.06,0-.08-.09,0-.14a.23.23,0,0,1,.17,0h8A17.92,17.92,0,0,1,122.28,47.14Z" style="fill:#9ea79a"/><path d="M124.75,47.22q.1-3.2,0-6.41a26.37,26.37,0,0,0,7.88.29,1.32,1.32,0,0,1,1,.09q0-.53,0-1.05a72.12,72.12,0,0,1-9.58,0l-.22,7Z" style="fill:#757575"/><path d="M125.85,38.79a.28.28,0,0,0-.06.17,28.48,28.48,0,0,0,0,4.5.17.17,0,0,0,.21.19h1.2q0-2.46.2-4.91h-1.33A.28.28,0,0,0,125.85,38.79Z" style="fill:#2e3192"/><path d="M128.05,38.73a.28.28,0,0,0-.06.17,28.5,28.5,0,0,0,0,4.5.17.17,0,0,0,.21.19h1.2q0-2.46.2-4.91h-1.33A.28.28,0,0,0,128.05,38.73Z" style="fill:#0071bc"/><path d="M130.51,38.66a.28.28,0,0,0-.06.17,28.5,28.5,0,0,0,0,4.5.17.17,0,0,0,.21.19h1.2q0-2.46.2-4.91h-1.33A.28.28,0,0,0,130.51,38.66Z" style="fill:#d7d8c6"/><path d="M90.4,47.39a14.92,14.92,0,0,0,1.5,0,.27.27,0,0,0,.19-.07.49.49,0,0,0,.09-.21,10.49,10.49,0,0,0,.17-2.83,51.75,51.75,0,0,1,.22-6c0-.38,0-.86-.22-1a.48.48,0,0,0-.26-.06c-.42,0-1-.17-1.11.49s-.14,1.57-.2,2.32c-.13,1.57-.25,3.15-.32,4.73C90.46,45,90.38,47.39,90.4,47.39Z" style="fill:#606060"/><path d="M92.57,37.41q.72,0,1.43,0,0,1.67.07,3.34c0,1.1,0,2.2,0,3.3a29.64,29.64,0,0,0-.16,3.39c0-.14-1.56.18-1.67,0a5,5,0,0,1,0-1.17l0-1.2q.08-2.44.18-4.88Q92.51,38.81,92.57,37.41Z" style="fill:#6d6f70"/><path d="M94,45.58l.09-2.83c0-1,.07-2,.09-3A7.74,7.74,0,0,0,94,37.47a3.91,3.91,0,0,1,1.21-.17.33.33,0,0,1,.16,0c.14.08.19.31.21.52,0,.41,0,.83,0,1.25,0,2.65,0,5.29-.08,7.93a.71.71,0,0,1,0,.28.35.35,0,0,1-.35.17c-.25,0-1.13.21-1.24-.12a2.86,2.86,0,0,1,0-.81C94,46.23,94,45.9,94,45.58Z" style="fill:#898f93"/><path d="M95.85,37.41q.72,0,1.43,0,0,1.67.07,3.34c0,1.1,0,2.2,0,3.3a29.64,29.64,0,0,0-.16,3.39c0-.14-1.56.18-1.67,0a5,5,0,0,1,0-1.17l0-1.2q.08-2.44.18-4.88Q95.79,38.81,95.85,37.41Z" style="fill:#2e3192"/><path d="M97.28,45.58l.09-2.83c0-1,.07-2,.09-3a7.74,7.74,0,0,0-.19-2.31,3.91,3.91,0,0,1,1.21-.17.33.33,0,0,1,.16,0c.14.08.19.31.21.52,0,.41,0,.83,0,1.25,0,2.65,0,5.29-.08,7.93a.71.71,0,0,1,0,.28.35.35,0,0,1-.35.17c-.25,0-1.13.21-1.24-.12a2.86,2.86,0,0,1,0-.81C97.26,46.23,97.27,45.9,97.28,45.58Z" style="fill:#bcbcbc"/><path d="M86.19,46.93a.18.18,0,0,1,.12,0l2.85-.14a.35.35,0,0,0,.43-.39l.29-3.43a8.67,8.67,0,0,0,0-1.53.18.18,0,0,1,0-.11c0-.05.11-.06.17-.06h.39a.17.17,0,0,1,.19.2,31.29,31.29,0,0,1-.34,5.91.09.09,0,0,1-.12.09q-1.25-.06-2.5,0a9.29,9.29,0,0,1-1.25.06C86.25,47.47,86,47.15,86.19,46.93Z" style="fill:#c7b299"/><path d="M107.5,46.35l3.29,0a.11.11,0,0,1,.13.13l0,1.06q-2-.15-4-.12a19.53,19.53,0,0,1,0-3.81,11.66,11.66,0,0,1,.17-1.6c0-.13.23-.8.43-.78s.15,2.77.13,3.11A18.21,18.21,0,0,1,107.5,46.35Z" style="fill:#c7b299"/><path d="M90,6.15c-.12-.14-.33.06-.21.21,1.72,2,2.09,5.34,2.44,7.87,0,.18.34.14.31,0C92.19,11.58,91.78,8.21,90,6.15Z" style="fill:#97b299"/><path d="M91,9.36a1.79,1.79,0,0,0-.82-.9,1.81,1.81,0,0,0-1.49-.3.69.69,0,0,0,0,1.33,9.48,9.48,0,0,1,1,.23,3.91,3.91,0,0,0,.89.25A.48.48,0,0,0,91,9.36Z" style="fill:#97b299"/><path d="M89.55,5.78a1.79,1.79,0,0,0-.82-.9,1.81,1.81,0,0,0-1.49-.3.69.69,0,0,0,0,1.33,9.51,9.51,0,0,1,1,.23,3.91,3.91,0,0,0,.89.25A.48.48,0,0,0,89.55,5.78Z" style="fill:#97b299"/><path d="M93.39,7.73a2.06,2.06,0,0,0-1.07.78A1.47,1.47,0,0,0,92,9.8a.44.44,0,0,0,.85,0,.93.93,0,0,1,.34-.55c.24-.22.59-.23.82-.48A.63.63,0,0,0,93.39,7.73Z" style="fill:#97b299"/><path d="M91.74,4.64a2.06,2.06,0,0,0-.87,1,1.47,1.47,0,0,0,0,1.33.44.44,0,0,0,.83-.18.93.93,0,0,1,.21-.61c.19-.26.53-.35.69-.65A.63.63,0,0,0,91.74,4.64Z" style="fill:#97b299"/><path d="M89.27,19.64a.44.44,0,0,0,.3.54,13.92,13.92,0,0,0,4.85,0,.31.31,0,0,0,.19-.07.39.39,0,0,0,0-.34q-.71-4-1.48-7.91a13.24,13.24,0,0,1-2.54.06C90.16,15,89.78,17.39,89.27,19.64Z" style="fill:#7b90ad"/><path d="M128,19.84a11.81,11.81,0,0,0,1.5,0,.24.24,0,0,0,.19-.09.7.7,0,0,0,.09-.27,16.68,16.68,0,0,0,.17-3.57c0-2.52,0-5,.22-7.54,0-.48,0-1.09-.22-1.29a.4.4,0,0,0-.26-.07c-.42,0-1-.21-1.11.61s-.14,2-.2,2.93c-.13,2-.25,4-.32,6C128.05,16.77,128,19.84,128,19.84Z" style="fill:#929292"/><path d="M130.16,7.23q.72,0,1.43,0,0,2.11.07,4.22c0,1.39,0,2.78,0,4.17s-.22,2.85-.16,4.28c0-.18-1.56.23-1.67,0a8,8,0,0,1,0-1.48q0-.76,0-1.52.08-3.08.18-6.17Q130.1,9,130.16,7.23Z" style="fill:#9da0a2"/><path d="M131.59,17.55l.09-3.58c0-1.25.07-2.5.09-3.75a12.29,12.29,0,0,0-.19-2.92,3.16,3.16,0,0,1,1.21-.22.27.27,0,0,1,.16,0c.14.1.19.4.21.65,0,.52,0,1.05,0,1.58,0,3.34,0,6.69-.08,10a1.11,1.11,0,0,1,0,.35.33.33,0,0,1-.35.22c-.25,0-1.13.27-1.24-.15a4.56,4.56,0,0,1,0-1C131.57,18.37,131.58,18,131.59,17.55Z" style="fill:#c7d0d6"/><path d="M133.43,7.23q.72,0,1.43,0,0,2.11.07,4.22c0,1.39,0,2.78,0,4.17s-.22,2.85-.16,4.28c0-.18-1.56.23-1.67,0a8,8,0,0,1,0-1.48q0-.76,0-1.52.08-3.08.18-6.17Q133.38,9,133.43,7.23Z" style="fill:#979b9f"/><path d="M134.87,17.55,135,14c0-1.25.07-2.5.09-3.75a12.29,12.29,0,0,0-.19-2.92,3.16,3.16,0,0,1,1.21-.22.27.27,0,0,1,.16,0c.14.1.19.4.21.65,0,.52,0,1.05,0,1.58,0,3.34,0,6.69-.08,10a1.11,1.11,0,0,1,0,.35.33.33,0,0,1-.35.22c-.25,0-1.13.27-1.24-.15a4.55,4.55,0,0,1,0-1C134.85,18.37,134.86,18,134.87,17.55Z" style="fill:#eee"/><path d="M119,19.84a11.81,11.81,0,0,0,1.5,0,.24.24,0,0,0,.19-.09.71.71,0,0,0,.09-.27,16.69,16.69,0,0,0,.17-3.57c0-2.52,0-5,.22-7.54,0-.48,0-1.09-.22-1.29a.4.4,0,0,0-.26-.07c-.42,0-1-.21-1.11.61s-.14,2-.2,2.93c-.13,2-.25,4-.32,6C119.08,16.77,119,19.84,119,19.84Z" style="fill:#7f7f7f"/><path d="M121.38,7.23q1.06,0,2.12,0,.06,2.11.1,4.22c0,1.39.05,2.78,0,4.17a32,32,0,0,0-.24,4.28c0-.18-2.31.23-2.48,0a5.38,5.38,0,0,1,0-1.48q0-.76.06-1.52.12-3.08.26-6.17Q121.29,9,121.38,7.23Z" style="fill:#29abe2"/><path d="M123.48,17.55l.09-3.58c0-1.25.07-2.5.09-3.75a12.29,12.29,0,0,0-.19-2.92,3.16,3.16,0,0,1,1.21-.22.27.27,0,0,1,.16,0c.14.1.19.4.21.65,0,.52,0,1.05,0,1.58,0,3.34,0,6.69-.08,10a1.11,1.11,0,0,1,0,.35.33.33,0,0,1-.35.22c-.25,0-1.13.27-1.24-.15a4.55,4.55,0,0,1,0-1C123.46,18.37,123.47,18,123.48,17.55Z" style="fill:#a6adb2"/><path d="M125.32,7.23q.72,0,1.43,0,0,2.11.07,4.22c0,1.39,0,2.78,0,4.17s-.22,2.85-.16,4.28c0-.18-1.56.23-1.67,0a8,8,0,0,1,0-1.48q0-.76,0-1.52.08-3.08.18-6.17Q125.26,9,125.32,7.23Z" style="fill:#85898c"/><path d="M126.76,17.55l.09-3.58c0-1.25.07-2.5.09-3.75a12.29,12.29,0,0,0-.19-2.92A3.16,3.16,0,0,1,128,7.08a.27.27,0,0,1,.16,0c.14.1.19.4.21.65,0,.52,0,1.05,0,1.58,0,3.34,0,6.69-.08,10a1.11,1.11,0,0,1,0,.35.33.33,0,0,1-.35.22c-.25,0-1.13.27-1.24-.15a4.55,4.55,0,0,1,0-1C126.73,18.37,126.75,18,126.76,17.55Z" style="fill:#dbdbdb"/><path d="M106.4,19.75a11.48,11.48,0,0,1-1.48,0,.24.24,0,0,1-.19-.09.71.71,0,0,1-.09-.27,16.93,16.93,0,0,1-.17-3.57c0-2.52,0-5-.22-7.54,0-.48,0-1.09.21-1.29a.39.39,0,0,1,.25-.07c.41,0,1-.21,1.09.61s.14,2,.2,2.93c.13,2,.25,4,.32,6C106.34,16.68,106.42,19.75,106.4,19.75Z" style="fill:#929292"/><path d="M104.06,7.14q-1.07,0-2.15,0-.06,2.11-.1,4.22c0,1.39-.05,2.78,0,4.17a31.61,31.61,0,0,1,.24,4.28c0-.18,2.33.23,2.51,0a5.32,5.32,0,0,0,0-1.48q0-.76-.06-1.52-.12-3.08-.27-6.17Q104.15,8.9,104.06,7.14Z" style="fill:#29abe2"/><path d="M102,17.46l-.09-3.58c0-1.25-.07-2.5-.09-3.75A12.46,12.46,0,0,1,102,7.2a3.07,3.07,0,0,0-1.2-.22.27.27,0,0,0-.16,0c-.14.1-.18.4-.2.65,0,.52,0,1.05,0,1.58,0,3.34,0,6.69.08,10a1.13,1.13,0,0,0,0,.35.33.33,0,0,0,.34.22c.24,0,1.12.27,1.22-.15a4.61,4.61,0,0,0,0-1C102,18.27,102,17.87,102,17.46Z" style="fill:#c7d0d6"/><path d="M116.38,7.23q.72,0,1.43,0,0,2.11.07,4.22c0,1.39,0,2.78,0,4.17s-.22,2.85-.16,4.28c0-.18-1.56.23-1.67,0a8,8,0,0,1,0-1.48q0-.76,0-1.52.08-3.08.18-6.17Q116.32,9,116.38,7.23Z" style="fill:#979b9f"/><path d="M117.82,17.55l.09-3.58c0-1.25.07-2.5.09-3.75a12.29,12.29,0,0,0-.19-2.92A3.15,3.15,0,0,1,119,7.08a.27.27,0,0,1,.16,0c.14.1.19.4.21.65,0,.52,0,1.05,0,1.58,0,3.34,0,6.69-.08,10a1.11,1.11,0,0,1,0,.35.33.33,0,0,1-.35.22c-.25,0-1.13.27-1.24-.15a4.55,4.55,0,0,1,0-1C117.79,18.37,117.81,18,117.82,17.55Z" style="fill:#eee"/><path d="M116.29,19.75q-1.08,0-2.17,0a.43.43,0,0,1-.28-.09.58.58,0,0,1-.14-.27,11.64,11.64,0,0,1-.25-3.57,57.33,57.33,0,0,0-.32-7.54c-.05-.48-.05-1.09.31-1.29a.77.77,0,0,1,.37-.07c.6,0,1.88-.21,2.06.61a26.55,26.55,0,0,1,.29,2.93c.19,2-.1,4,0,6C116.19,16.68,116.32,19.75,116.29,19.75Z" style="fill:#0071bc"/><path d="M113,7.14q-1.06,0-2.11,0-.06,2.11-.1,4.22c0,1.39-.05,2.78,0,4.17a32.17,32.17,0,0,1,.24,4.28c0-.18,2.29.23,2.46,0a5.42,5.42,0,0,0,0-1.48q0-.76-.06-1.52-.12-3.08-.26-6.17Q113.08,8.9,113,7.14Z" style="fill:#8b8d8f"/><path d="M110.84,17.46l-.09-3.58c0-1.25-.06-2.5-.09-3.75a12.46,12.46,0,0,1,.18-2.92,3.07,3.07,0,0,0-1.2-.22.27.27,0,0,0-.16,0c-.14.1-.18.4-.2.65,0,.52,0,1.05,0,1.58,0,3.34,0,6.69.08,10a1.12,1.12,0,0,0,0,.35.33.33,0,0,0,.34.22c.24,0,1.12.27,1.22-.15a4.62,4.62,0,0,0,0-1C110.87,18.27,110.85,17.87,110.84,17.46Z" style="fill:#a6adb2"/><path d="M109,7.14q-.71,0-1.41,0,0,2.11-.07,4.22c0,1.39,0,2.78,0,4.17s.22,2.85.16,4.28c0-.18,1.53.23,1.65,0a8.07,8.07,0,0,0,0-1.48q0-.76,0-1.52-.08-3.08-.17-6.17Q109.09,8.9,109,7.14Z" style="fill:#85898c"/><path d="M107.62,17.46l-.09-3.58c0-1.25-.06-2.5-.09-3.75a12.46,12.46,0,0,1,.18-2.92,3.07,3.07,0,0,0-1.2-.22.27.27,0,0,0-.16,0c-.14.1-.18.4-.2.65,0,.52,0,1.05,0,1.58,0,3.34,0,6.69.08,10a1.12,1.12,0,0,0,0,.35.33.33,0,0,0,.34.22c.24,0,1.12.27,1.23-.15a4.61,4.61,0,0,0,0-1C107.64,18.27,107.62,17.87,107.62,17.46Z" style="fill:#dbdbdb"/><path d="M97.88,23.78a.39.39,0,0,1,.12.16,3.72,3.72,0,0,1,0,1.17q-.08,2.61-.11,5.22,0,1.65,0,3.3c0,.72.06.79-.67.79H87.54L87.48,28c0-1.41,0-2.83,0-4.24,0,0,3.91-.18,4.21-.18q1.63,0,3.26,0c.78,0,1.55.19,2.34.18C97.52,23.76,97.73,23.67,97.88,23.78Z" style="fill:#aeaeaf"/><path d="M89.14,25.83l.06.93q3.69,0,7.38-.19a2.51,2.51,0,0,0,0-.83,27.16,27.16,0,0,0-4.82,0Z" style="fill:#4f4f56"/><path d="M108.7,23.78a.39.39,0,0,1,.12.16,3.72,3.72,0,0,1,0,1.17q-.08,2.61-.11,5.22,0,1.65,0,3.3c0,.72.06.79-.67.79H98.37L98.31,28c0-1.41,0-2.83,0-4.24,0,0,3.91-.18,4.21-.18q1.63,0,3.26,0c.78,0,1.55.19,2.34.18C108.35,23.76,108.55,23.67,108.7,23.78Z" style="fill:#aeaeaf"/><path d="M100,25.83l.06.93q3.69,0,7.38-.19a2.51,2.51,0,0,0,0-.83,27.16,27.16,0,0,0-4.82,0Z" style="fill:#4f4f56"/><path d="M119.54,23.78a.39.39,0,0,1,.12.16,3.72,3.72,0,0,1,0,1.17q-.08,2.61-.11,5.22,0,1.65,0,3.3c0,.72.06.79-.68.79h-9.62L109.15,28c0-1.41,0-2.83,0-4.24,0,0,3.91-.18,4.21-.18q1.63,0,3.26,0c.78,0,1.55.19,2.34.18C119.19,23.76,119.39,23.67,119.54,23.78Z" style="fill:#aeaeaf"/><path d="M110.81,25.83l.06.93q3.69,0,7.38-.19a2.51,2.51,0,0,0,0-.83,27.16,27.16,0,0,0-4.82,0Z" style="fill:#4f4f56"/><path d="M127,29.37l2.17-.16c0,.92,0,1.83,0,2.74a6,6,0,0,0-2.12.33Z" style="fill:#29abe2"/><path d="M128.09,29.37l2.17-.16c0,.92,0,1.83,0,2.74a6,6,0,0,0-2.12.33Z" style="fill:#778e81"/><path d="M129.24,29.37l2.17-.16c0,.92,0,1.83,0,2.74a6,6,0,0,0-2.12.33Z" style="fill:#b3ac90"/><path d="M125.7,31.25l7-.16a23.8,23.8,0,0,1-.11,2.74,59.68,59.68,0,0,0-6.86.33Z" style="fill:#b3aeaa"/><path d="M122,26.69a1.4,1.4,0,0,0-.76.23,1.45,1.45,0,0,0-.42.91,13.23,13.23,0,0,0,0,4.85,1.52,1.52,0,0,0,.51,1,1.6,1.6,0,0,0,.83.2l1.71.1a1.79,1.79,0,0,0,1.06-.16,1.75,1.75,0,0,0,.6-1.37,28.22,28.22,0,0,0,.1-4.29,1.42,1.42,0,0,0-.4-1.1,1.33,1.33,0,0,0-.53-.2A9,9,0,0,0,122,26.69Z" style="fill:#b3a090"/><path d="M121.85,26.49a5,5,0,0,0-.79.06.62.62,0,0,0-.44.24,1,1,0,0,0,0,1.28.72.72,0,0,0,.53.27,5.92,5.92,0,0,0,.86.05l1.78,0a6.9,6.9,0,0,0,1.11,0c.46-.07.57-.23.62-.36a2,2,0,0,0,.1-1.13c0-.11-.08-.23-.42-.29a4.43,4.43,0,0,0-.55-.05C123.74,26.48,122.79,26.47,121.85,26.49Z" style="fill:#654e3d"/></g></g></g></svg>