<svg xmlns="http://www.w3.org/2000/svg" viewBox="0 0 739.95 239.73"><title>Con2Cus</title><g id="Layer_2" data-name="Layer 2"><g id="Layer_1-2" data-name="Layer 1"><path d="M3.07,107.46A38.68,38.68,0,0,1,23.67,86.91a38,38,0,0,1,15.21-3.07A38.26,38.26,0,0,1,50.17,85.5a37.1,37.1,0,0,1,9.94,4.72,41.69,41.69,0,0,1,8.16,7.24,40.07,40.07,0,0,1,5.95,9.08L67.34,111a32.59,32.59,0,0,0-4.72-7.48,34,34,0,0,0-6.56-6,30.13,30.13,0,0,0-8-4,29.45,29.45,0,0,0-20.91,1.1,32.36,32.36,0,0,0-9.81,6.68A31.66,31.66,0,0,0,10.67,111a28.51,28.51,0,0,0-2.45,11.59,27.93,27.93,0,0,0,2.45,11.59,32.06,32.06,0,0,0,6.62,9.63A31.62,31.62,0,0,0,27,150.45a29.07,29.07,0,0,0,11.84,2.45,29.94,29.94,0,0,0,8.34-1.17,31.78,31.78,0,0,0,7.54-3.25,32.57,32.57,0,0,0,6.38-5A28.61,28.61,0,0,0,66,137.08l5.89,6A39.53,39.53,0,0,1,58.2,156.15a37.66,37.66,0,0,1-19.32,5,38,38,0,0,1-15.21-3.07A38.68,38.68,0,0,1,3.07,137.51a38.34,38.34,0,0,1,0-30.05Z" style="fill:#29abe2"/><path d="M90,107.46a38.68,38.68,0,0,1,20.61-20.54,39.25,39.25,0,0,1,30.42,0,38.68,38.68,0,0,1,20.61,20.54,38.34,38.34,0,0,1,0,30.05,38.68,38.68,0,0,1-20.61,20.54,39.25,39.25,0,0,1-30.42,0A38.68,38.68,0,0,1,90,137.51a38.34,38.34,0,0,1,0-30.05Zm7.6,26.74a32.06,32.06,0,0,0,6.62,9.63,31.62,31.62,0,0,0,9.75,6.62,29.78,29.78,0,0,0,23.67,0,32.42,32.42,0,0,0,9.81-6.62,31.56,31.56,0,0,0,6.69-9.63,28,28,0,0,0,2.45-11.59A28.53,28.53,0,0,0,154.18,111a31.73,31.73,0,0,0-6.62-9.75,32.62,32.62,0,0,0-9.75-6.68A28.51,28.51,0,0,0,126,92.07a28.92,28.92,0,0,0-11.9,2.51,32.36,32.36,0,0,0-9.81,6.68A31.66,31.66,0,0,0,97.63,111a28.51,28.51,0,0,0-2.45,11.59A27.93,27.93,0,0,0,97.63,134.2Z" style="fill:#29abe2"/><path d="M180.3,160.75V84.22h14.35l48.45,69.3V84.22h8.59v76.54H238.19L188.89,91.33v69.42Z" style="fill:#29abe2"/><path d="M495.07,107.09a38.68,38.68,0,0,1,20.61-20.54,39.26,39.26,0,0,1,26.49-1.41,37.08,37.08,0,0,1,9.94,4.72,41.66,41.66,0,0,1,8.16,7.24,40.07,40.07,0,0,1,5.95,9.08l-6.87,4.42a32.58,32.58,0,0,0-4.72-7.48,34,34,0,0,0-6.56-6,30.13,30.13,0,0,0-8-4,29.45,29.45,0,0,0-20.91,1.1,32.37,32.37,0,0,0-9.81,6.68,31.65,31.65,0,0,0-6.62,9.75,28.5,28.5,0,0,0-2.45,11.59,27.92,27.92,0,0,0,2.45,11.59,32.05,32.05,0,0,0,6.62,9.63,31.62,31.62,0,0,0,9.75,6.62,29.07,29.07,0,0,0,11.84,2.45,29.94,29.94,0,0,0,8.34-1.17,31.75,31.75,0,0,0,7.54-3.25,32.56,32.56,0,0,0,6.38-5,28.64,28.64,0,0,0,4.84-6.44l5.89,6a39.53,39.53,0,0,1-13.68,13.06,39.7,39.7,0,0,1-34.53,1.9,38.68,38.68,0,0,1-20.61-20.54,38.34,38.34,0,0,1,0-30.05Z" style="fill:#29abe2"/><path d="M582.4,83.85H591v42.32a28.39,28.39,0,0,0,3.43,10.3,32.72,32.72,0,0,0,6.75,8.4,30.48,30.48,0,0,0,40.48,0,31.75,31.75,0,0,0,6.68-8.4,29.12,29.12,0,0,0,3.37-10.3V83.85h8.59v38.51a36.86,36.86,0,0,1-3.07,15,39.55,39.55,0,0,1-8.28,12.2,39.59,39.59,0,0,1-42.75,8.22,38.69,38.69,0,0,1-20.73-20.42,36.83,36.83,0,0,1-3.07-15Z" style="fill:#29abe2"/><path d="M740,138.3a23.77,23.77,0,0,1-1.53,8.71,20.8,20.8,0,0,1-4.11,6.69,18.39,18.39,0,0,1-6,4.29,17.59,17.59,0,0,1-7.24,1.53H673.84V151.8h44q6.63,0,9.94-3.81a14.19,14.19,0,0,0,3.31-9.69,14.68,14.68,0,0,0-2.33-8.52c-1.55-2.25-4.05-3.7-7.48-4.35l-30.05-.25a15.54,15.54,0,0,1-7.18-1.72,20.66,20.66,0,0,1-6-4.53,21,21,0,0,1-4-6.63,22,22,0,0,1-1.48-8.09,24.46,24.46,0,0,1,1.48-8.71,20,20,0,0,1,4-6.69,18.39,18.39,0,0,1,6-4.29A17.9,17.9,0,0,1,691.5,83h47.22v7.72h-44c-4.41,0-7.73,1.27-9.93,3.81a14.2,14.2,0,0,0-3.32,9.69,14.9,14.9,0,0,0,2.34,8.58q2.32,3.44,7.48,4.42l30.05.12a15.53,15.53,0,0,1,7.17,1.72,20.57,20.57,0,0,1,10,11.22A22.44,22.44,0,0,1,740,138.3Z" style="fill:#29abe2"/><line x1="326.56" y1="63.9" x2="425.35" y2="152.08" style="fill:#666"/><circle cx="389.45" cy="119.87" r="91.1" style="fill:#666"/><path d="M455.87,181.38,479,201.76q-42.43,38-89.77,38-50.64,0-86.34-35t-35.7-84.75q0-49.56,35.7-84.75T389.25,0Q436.6,0,479,38L455.87,58.65q-32-27.86-66.62-27.86-37.5,0-64.16,26.1t-26.66,63q0,37.1,26.66,63.2t64.16,26.1Q423.9,209.24,455.87,181.38Z" style="fill:#29abe2"/><path d="M446.93,61.89q-24.4-24-59-24-32.36,0-61.36,26l15.82,13.93q21.85-19,45.53-19a60.42,60.42,0,0,1,43.85,17.84Q450,94.46,450,119.82t-18.23,43.09a60.42,60.42,0,0,1-43.85,17.84,59.41,59.41,0,0,1-22.6-4.51,80.94,80.94,0,0,1-21.83-13.59L327,175.44l-.45.4.45.4q28.79,25.55,60.9,25.56,34.61,0,59-24.05t24.4-57.93Q471.33,85.84,446.93,61.89Z" style="fill:#29abe2"/><path d="M425.75,154.72l-6.86-6.24H372.83l2.31-1.78,22.6-17.47L402,126q5.54-4.31,9.62-7.9a67.11,67.11,0,0,0,8.86-9,21.71,21.71,0,0,0,4.76-13.39,19.59,19.59,0,0,0-5-13,30.89,30.89,0,0,0-5-4.6q-10-7.48-26.13-7.48-16.3,0-27.39,8a29.84,29.84,0,0,0-7.35,7.35,24.53,24.53,0,0,0-1.41,2.33l7,6.1a23.81,23.81,0,0,1,1.42-2.34,29.87,29.87,0,0,1,7.36-7.36c.46-.33.93-.66,1.41-1h0a25.89,25.89,0,0,1,4.17-2.38,34,34,0,0,1,14.17-2.77q10.66,0,18,5.11a19.84,19.84,0,0,1,4.95,4.74,12.64,12.64,0,0,1,2.41,7.46,16.69,16.69,0,0,1-4.09,10.66,59.14,59.14,0,0,1-6.86,6.75q-4.33,3.77-10.83,8.76l-1.27,1-42.53,33,.68.68h77.87v-.92Z" style="fill:#fff"/></g></g></svg>