<?xml version="1.0" encoding="utf-8"?>
<!-- Generator: Adobe Illustrator 21.0.2, SVG Export Plug-In . SVG Version: 6.00 Build 0)  -->
<svg version="1.1" id="Layer_1" xmlns="http://www.w3.org/2000/svg" xmlns:xlink="http://www.w3.org/1999/xlink" x="0px" y="0px"
	 viewBox="0 0 1223.6 1131.2" style="enable-background:new 0 0 1223.6 1131.2;" xml:space="preserve">
<style type="text/css">
	.st0{fill:#29ABE2;}
	.st1{fill:#EFEFEF;}
	.st2{fill:#154F77;}
	.st3{fill:#0D3858;}
	.st4{fill:#FFFEFE;}
	.st5{opacity:0.1;enable-background:new    ;}
	.st6{fill:#FFFFFF;}
	.st7{fill:#BCDEDE;}
	.st8{fill:#6BB5CE;}
	.st9{fill:#00D0E5;}
	.st10{fill:#FF81ED;}
	.st11{fill:#00C982;}
	.st12{opacity:0.7;enable-background:new    ;}
	.st13{opacity:0.4;enable-background:new    ;}
	.st14{fill:#0B2E44;}
	.st15{opacity:0.8;fill:#FFFFFF;enable-background:new    ;}
	.st16{fill:#424242;}
	.st17{opacity:0.2;fill:#FFFFFF;enable-background:new    ;}
	.st18{opacity:0.1;fill:#FFFFFF;enable-background:new    ;}
	.st19{fill:#D0EDFA;}
	.st20{fill:#0051C4;}
	.st21{fill:#808080;}
	.st22{fill:#0071BC;}
	.st23{opacity:0.2;enable-background:new    ;}
	.st24{fill:#4C4C4B;}
	.st25{fill:#6CD2EA;}
	.st26{fill:#FFF064;}
	.st27{fill:#4F4E4F;}
	.st28{fill:#1E2F47;}
	.st29{opacity:0.4;fill:#FFFFFF;enable-background:new    ;}
	.st30{fill:#BABABA;}
	.st31{fill:#CCCCCC;}
	.st32{opacity:0.5;fill:#FFFFFF;enable-background:new    ;}
	.st33{fill:#1C75BC;}
	.st34{fill:url(#SVGID_1_);}
	.st35{fill:#225FBC;}
</style>
<title>Development</title>
<g id="Layer_2">
	<g id="Web_and_Development">
		<circle id="Background_2" class="st0" cx="576.1" cy="532" r="532"/>
		<g id="Application_Development">
			<g id="Line">
				<polygon class="st1" points="498.5,662.5 323.7,662.5 323.7,562.5 124.2,562.5 124.2,554.5 331.7,554.5 331.7,654.5 
					498.5,654.5 				"/>
				<polygon class="st1" points="557.1,621.8 549.1,621.8 549.1,516.5 472,516.5 472,328 480,328 480,508.5 557.1,508.5 				"/>
				<polygon class="st1" points="687.8,648 687.8,486.7 1065.7,486.7 1065.7,494.7 695.8,494.7 696,641.6 781.9,641.6 781.9,648 
									"/>
				<polygon class="st1" points="1000.9,832.8 828.1,832.8 828.1,773.7 765.2,727.2 687.8,727.2 687.8,644.8 695.8,644.8 
					695.8,719.2 767.9,719.2 836.1,769.6 836.1,824.8 1000.9,824.8 				"/>
				<rect x="565.8" y="641.6" class="st1" width="122.1" height="6.4"/>
			</g>
			<g id="Coding">
				<path class="st2" d="M336.1,33.8h461.6c12.7,0,23.1,10.3,23.1,23.1v285.6c0,12.7-10.3,23.1-23.1,23.1H336.1
					c-12.7,0-23.1-10.3-23.1-23.1V56.9C313,44.1,323.3,33.8,336.1,33.8z"/>
				<rect x="335.7" y="55.7" class="st3" width="464.4" height="286.7"/>
				<path class="st4" d="M213.7,363.9c-0.3,2.1-0.5,4.2-0.5,6.3c0,18.2,11.1,33,24.7,33h659.9c13.7,0,24.7-14.8,24.7-33
					c0-2.1-0.2-4.2-0.5-6.3H213.7z"/>
				<path class="st5" d="M215.4,383.6c3.8,11.6,12.5,19.7,22.6,19.7h659.9c10.1,0,18.8-8.1,22.6-19.7H215.4z"/>
				<rect x="359.7" y="82.5" class="st0" width="116.3" height="5.8"/>
				<rect x="359.7" y="99.9" class="st6" width="116.3" height="5.8"/>
				<rect x="359.7" y="115.9" class="st6" width="116.3" height="5.8"/>
				<rect x="359.7" y="265.2" class="st6" width="116.3" height="5.8"/>
				<rect x="359.7" y="246.1" class="st0" width="116.3" height="5.8"/>
				<rect x="359.7" y="284.9" class="st0" width="116.3" height="5.8"/>
				<rect x="498.5" y="152.5" class="st6" width="116.3" height="5.8"/>
				<rect x="375.8" y="152.5" class="st0" width="116.3" height="5.8"/>
				<rect x="375.8" y="168.6" class="st0" width="116.3" height="5.8"/>
				<rect x="498.5" y="168.6" class="st6" width="54.6" height="5.8"/>
				<rect x="375.8" y="199.7" class="st0" width="116.3" height="5.8"/>
				<rect x="498.5" y="199.7" class="st6" width="54.6" height="5.8"/>
				<rect x="637.3" y="184" class="st0" width="54.6" height="5.8"/>
				<rect x="375.8" y="133.9" class="st7" width="251.2" height="5.8"/>
				<rect x="375.8" y="184" class="st7" width="251.2" height="5.8"/>
				<rect x="637.3" y="218.1" class="st0" width="54.6" height="5.8"/>
				<rect x="375.8" y="218.1" class="st0" width="251.2" height="5.8"/>
				<rect x="621.2" y="300.9" class="st6" width="54.6" height="5.8"/>
				<rect x="359.7" y="300.9" class="st8" width="251.2" height="5.8"/>
				<circle class="st9" cx="361.3" cy="373.7" r="4.6"/>
				<circle class="st10" cx="332.3" cy="373.7" r="4.6"/>
				<circle class="st11" cx="346.5" cy="373.7" r="4.6"/>
				<path class="st12" d="M320.9,373.7c0,2.3-1.9,4.2-4.2,4.2c0,0,0,0,0,0h-35.7c-2.3,0-4.2-1.9-4.2-4.2l0,0c0-2.3,1.9-4.2,4.2-4.2
					h0h35.6C319.1,369.5,320.9,371.4,320.9,373.7C320.9,373.7,320.9,373.7,320.9,373.7L320.9,373.7z"/>
				<circle class="st13" cx="567.9" cy="44.6" r="6.8"/>
			</g>
			<g id="Phone">
				<path class="st14" d="M13,510h193.9c7.2,0,13,5.8,13,13v356.5c0,7.2-5.8,13-13,13H13c-7.2,0-13-5.8-13-13V523
					C0,515.8,5.8,510,13,510z"/>
				<rect x="20.3" y="555.4" class="st15" width="179.2" height="261.4"/>
				<g id="Setting">
					<circle class="st16" cx="64.8" cy="684.6" r="30.1"/>
					<path class="st0" d="M92.7,682.8c0,16.6-13.5,30.1-30.1,30.1c-16.6,0-30.1-13.5-30.1-30.1c0-16.6,13.5-30.1,30.1-30.1
						C79.2,652.7,92.7,666.2,92.7,682.8C92.7,682.8,92.7,682.8,92.7,682.8z"/>
					<path class="st14" d="M64.7,662.9h-4.1c-0.2,0-0.4,0.2-0.4,0.4v2.1c-2.5,0.4-5,1.3-7.1,2.8l-2-2c-0.1-0.2-0.4-0.2-0.6,0
						c0,0,0,0,0,0l-2.9,2.9c-0.2,0.2-0.2,0.4,0,0.6l1.9,1.9c-1.4,1.7-2.4,3.7-3.1,5.8l-2.7-0.5c-0.2,0-0.4,0.1-0.5,0.3l-0.7,4
						c0,0.2,0.1,0.4,0.3,0.5c0,0,0,0,0,0l2.8,0.5c0,0.2,0,0.4,0,0.6c0,1.6,0.2,3.2,0.6,4.7l-2.5,1.2c-0.2,0.1-0.3,0.3-0.2,0.5
						l1.7,3.7c0.1,0.2,0.3,0.3,0.5,0.2l2.3-1.1c1,1.6,2.2,3.1,3.6,4.3l-1.2,2c-0.1,0.2,0,0.4,0.1,0.5l3.5,2c0.2,0.1,0.4,0,0.5-0.1
						L56,699c1.8,0.8,3.7,1.3,5.7,1.4l0.2,2c0,0.2,0.2,0.4,0.4,0.4l4.1-0.4c0.2,0,0.4-0.2,0.4-0.4c0,0,0,0,0,0l-0.2-2.1
						c1.9-0.5,3.6-1.3,5.2-2.4l1.5,1.8c0.1,0.2,0.4,0.2,0.6,0l3.1-2.6c0.2-0.1,0.2-0.4,0.1-0.6l-1.7-2c1.1-1.4,2.1-3,2.7-4.7
						l2.8,0.8c0.2,0.1,0.4-0.1,0.5-0.3l1-3.9c0.1-0.2-0.1-0.4-0.3-0.5c0,0,0,0,0,0l-2.9-0.8c0.1-0.6,0.1-1.3,0.1-1.9
						c0-1.1-0.1-2.2-0.3-3.3l2.8-1c0.2-0.1,0.3-0.3,0.2-0.5l-1.4-3.8c-0.1-0.2-0.3-0.3-0.5-0.2l-2.7,1c-0.8-1.6-1.8-3.1-3.1-4.5
						l1.5-2.2c0.1-0.2,0.1-0.4-0.1-0.5l-3.3-2.3c-0.2-0.1-0.4-0.1-0.5,0.1c0,0,0,0,0,0l-1.3,1.9c-1.7-1-3.5-1.6-5.4-1.9v-2.2
						C65.1,663.1,64.9,662.9,64.7,662.9C64.7,662.9,64.7,662.9,64.7,662.9L64.7,662.9z M62.5,674.3c4.7,0,8.5,3.8,8.6,8.5
						s-3.8,8.5-8.5,8.6s-8.5-3.8-8.6-8.5c0,0,0,0,0,0C54,678.1,57.8,674.3,62.5,674.3L62.5,674.3z"/>
					<path class="st17" d="M62.5,671c6.5,0,11.8,5.3,11.8,11.8c0,6.5-5.3,11.8-11.8,11.8c-6.5,0-11.8-5.3-11.8-11.8c0,0,0,0,0,0
						C50.7,676.3,56,671,62.5,671z M62.5,674.3c4.7,0,8.5,3.8,8.6,8.5s-3.8,8.5-8.5,8.6s-8.5-3.8-8.6-8.5c0,0,0,0,0,0
						C54,678.1,57.8,674.3,62.5,674.3L62.5,674.3z"/>
					<path class="st18" d="M82,685.5l-2.9-0.8c0.1-0.6,0.1-1.3,0.1-1.9c0-1.1-0.1-2.2-0.3-3.3l2.8-1c0.2-0.1,0.3-0.3,0.2-0.5
						l-1.4-3.8c-0.1-0.2-0.3-0.3-0.5-0.2l-2.7,1c-0.8-1.6-1.8-3.1-3.1-4.5l1.5-2.2c0.1-0.2,0.1-0.4-0.1-0.5l-3.3-2.3
						c-0.2-0.1-0.4-0.1-0.5,0.1c0,0,0,0,0,0l-1.3,1.9c-1.7-1-3.5-1.6-5.4-1.9v-2.2c0-0.2-0.2-0.4-0.4-0.4c0,0,0,0,0,0h-2.1v11.4
						c4.7,0,8.5,3.8,8.5,8.5c0,4.7-3.8,8.5-8.5,8.5v11.3l3.8-0.3c0.2,0,0.4-0.2,0.4-0.4c0,0,0,0,0,0l-0.2-2.1
						c1.9-0.5,3.6-1.3,5.2-2.4l1.5,1.8c0.1,0.2,0.4,0.2,0.6,0l3.1-2.6c0.2-0.1,0.2-0.4,0.1-0.6l-1.7-2c1.1-1.4,2.1-3,2.7-4.7
						l2.8,0.8c0.2,0.1,0.4-0.1,0.5-0.3l1.1-3.9C82.4,685.8,82.2,685.6,82,685.5C82,685.5,82,685.5,82,685.5z"/>
				</g>
				<g id="Game">
					<circle class="st16" cx="128.6" cy="651.9" r="30.1"/>
					<circle class="st19" cx="126.3" cy="649.8" r="30.1"/>
					<g id="Rocket">
						<path class="st0" d="M138.8,636.9c0,0-17.6-4.6-27.6,11.6l3.4,5l3.5,5C136.8,655,138.8,636.9,138.8,636.9z"/>
						<path class="st20" d="M114.9,653.9l-0.1-0.1l-3.6-5.3c0,0-0.8,2.5-0.4,3.9l1.9,2.8l0.1,0.1l1.7,2.5c1,0.8,3.6,0.7,3.6,0.7
							L114.9,653.9z"/>
						
							<rect x="110.9" y="652.3" transform="matrix(0.8234 -0.5674 0.5674 0.8234 -352.1973 179.1703)" class="st21" width="1.8" height="6.3"/>
						<polygon class="st0" points="111.8,658.5 108.9,654.4 109.6,653.9 112.5,658 						"/>
						<polygon class="st6" points="118.6,642.3 107.7,642.1 112.9,649.1 						"/>
						<polygon class="st6" points="126.7,653 123,663.3 118.3,655.9 						"/>
						<path class="st6" d="M137.2,642.7c0.8-1.9,1.3-3.8,1.6-5.8c-2-0.4-4-0.6-6-0.6L137.2,642.7z"/>
						<polygon class="st0" points="104.3,660.6 108.5,660.3 112.7,660 110.3,656.5 107.9,653 106.2,656.8 						"/>
						<polygon class="st22" points="106.1,659.3 109.1,659.1 112,659 110.3,656.4 108.5,653.8 107.3,656.6 						"/>
						<polygon class="st6" points="108.3,657.8 109.8,657.9 111.5,658.1 110.3,656.4 109.1,654.6 108.7,656.2 						"/>
						<path class="st23" d="M137.2,642.7L137.2,642.7c0.7-1.8,1.2-3.6,1.5-5.5l0,0c0-0.1,0-0.2,0-0.2l0,0l0,0l0,0h-0.1l-34.2,23.6
							l-0.1,0.2l4.2-0.3l4.2-0.3l-0.7-1l-0.3-0.4l0.7-0.5l0.4,0.5l1.5-1l0.2,0.2c1,0.8,3.6,0.7,3.6,0.7l0,0c0.6-0.1,1.1-0.2,1.7-0.4
							l3.3,5.1l2.6-7.3C131,653.1,135.1,648.4,137.2,642.7z"/>
					</g>
					<path class="st24" d="M123.6,665.4c-0.2,0-0.3,0-0.5,0.1c-0.4-2.1-2.1-3.7-4.3-3.8c-1.5,0-2.9,0.9-3.6,2.2
						c-0.5-0.3-1.1-0.4-1.7-0.4c-2.1,0-3.8,1.7-3.8,3.7c0,0.3,0,0.6,0.1,0.9h15.9c0-0.2,0.1-0.3,0.1-0.5
						C125.7,666.4,124.8,665.4,123.6,665.4z"/>
					<path class="st25" d="M122.5,665.4c-0.2,0-0.3,0-0.5,0.1c-0.4-2.1-2.1-3.7-4.3-3.8c-1.5,0-2.9,0.9-3.6,2.2
						c-0.5-0.3-1.1-0.4-1.7-0.4c-2.1,0-3.8,1.7-3.8,3.8c0,0,0,0,0,0c0,0.3,0,0.6,0.1,0.9h15.9c0-0.2,0.1-0.3,0.1-0.5
						C124.7,666.4,123.7,665.4,122.5,665.4C122.5,665.4,122.5,665.4,122.5,665.4z"/>
					<path class="st23" d="M122.5,665.4c-0.2,0-0.3,0-0.5,0.1c-0.4-2.1-2.1-3.7-4.3-3.8h-0.2v6.5h7.1c0-0.2,0.1-0.3,0.1-0.5
						C124.7,666.4,123.7,665.4,122.5,665.4z"/>
					<path class="st24" d="M129.5,630.3c-0.3,0-0.5,0-0.8,0.1c-0.8-3.3-3.4-5.8-6.4-5.8c-2.3,0.1-4.4,1.4-5.5,3.4
						c-0.8-0.4-1.7-0.6-2.5-0.6c-3.1,0-5.7,2.5-5.7,5.6c0,0.5,0,0.9,0.2,1.4h24c0.1-0.2,0.1-0.5,0.1-0.8
						C132.8,631.8,131.3,630.3,129.5,630.3z"/>
					<path class="st25" d="M127.9,630.3c-0.3,0-0.5,0-0.8,0.1c-0.8-3.3-3.4-5.8-6.4-5.8c-2.3,0.1-4.4,1.4-5.5,3.4
						c-0.8-0.4-1.7-0.6-2.6-0.6c-3.1,0-5.7,2.5-5.7,5.6c0,0.5,0,0.9,0.2,1.4h24c0.1-0.2,0.1-0.5,0.1-0.8
						C131.2,631.8,129.7,630.3,127.9,630.3z"/>
					<path class="st23" d="M127.9,630.3c-0.3,0-0.5,0-0.8,0.1c-0.8-3.3-3.4-5.8-6.4-5.8h-0.3v9.8h10.7c0.1-0.2,0.1-0.5,0.1-0.8
						C131.2,631.7,129.7,630.3,127.9,630.3z"/>
					<path class="st24" d="M152.1,654.3c-0.2,0-0.4,0-0.7,0.1c-0.7-2.9-2.9-5-5.5-5c-2,0.1-3.7,1.2-4.7,2.9
						c-0.7-0.3-1.4-0.5-2.2-0.5c-2.7,0-4.9,2.1-4.9,4.8c0,0.4,0,0.8,0.1,1.2h20.6c0.4-1.5-0.6-3-2.1-3.4
						C152.6,654.3,152.4,654.2,152.1,654.3L152.1,654.3z"/>
					<path class="st25" d="M150.8,654.3c-0.2,0-0.4,0-0.7,0.1c-0.7-2.9-2.9-5-5.5-5c-2,0.1-3.7,1.2-4.7,2.9
						c-0.7-0.3-1.4-0.5-2.2-0.5c-2.7,0-4.9,2.1-4.9,4.8c0,0.4,0,0.8,0.1,1.2h20.6c0.4-1.5-0.6-3-2.1-3.4
						C151.2,654.3,151,654.2,150.8,654.3L150.8,654.3z"/>
					<path class="st23" d="M150.8,654.3c-0.2,0-0.4,0-0.7,0.1c-0.7-2.9-2.9-5-5.5-5h-0.2v8.4h9.2c0.4-1.5-0.6-3-2.1-3.4
						C151.2,654.2,151,654.2,150.8,654.3L150.8,654.3z"/>
				</g>
				<g id="Idea">
					<circle class="st16" cx="119.9" cy="724" r="30.1"/>
					<circle class="st0" cx="117.3" cy="722.3" r="30.1"/>
					<g id="Lamp">
						<path class="st26" d="M117.4,715.4c-1,0-9.7,0-9.7,9.8c0,3.8,5.3,11.8,5.3,11.8h8.8c0,0,5.3-8,5.3-11.8
							C127.1,715.4,118.4,715.4,117.4,715.4z"/>
						<path class="st27" d="M118.6,737.3c-0.3-1.7-0.4-3.5-0.4-5.2c0-0.7,0-1.5,0.2-2.2c-0.2,0-0.5,0-0.7,0c-0.2,0-0.3-0.1-0.4-0.2
							c-0.3,0.2-0.5,0.3-0.8,0.3l0.1,0.1c0.7,1.1,0.3,6.9,0.2,7.1h-0.3c0.1-1.7,0.3-6.1-0.2-7l-0.2-0.3h-0.2c-0.6,0-0.6-0.2-0.6-0.2
							c0-0.2,0.1-0.3,0.2-0.4c0.2-0.1,0.4,0,0.7,0.3c0.2,0,0.4-0.1,0.6-0.1c0.1,0,0.2-0.1,0.3-0.2l0,0c0-0.3,0-0.5,0.3-0.7
							c0.1,0,0.1,0,0.2,0c0.1,0.1,0.1,0.2,0,0.5c0,0.1-0.1,0.2-0.2,0.3c0.1,0.1,0.2,0.1,0.3,0.1c0.3,0.1,0.6,0.1,0.8,0
							c0.1-0.2,0.2-0.3,0.3-0.4c0.2-0.1,0.4-0.1,0.5,0l0.2,0.1l-0.1,0.1c-0.2,0.2-0.4,0.3-0.7,0.4c-0.2,0.7-0.3,1.5-0.3,2.3
							c0,1.7,0.1,3.4,0.4,5.1L118.6,737.3z M115.6,729.7c0.1,0,0.2,0,0.2,0C115.8,729.6,115.7,729.6,115.6,729.7L115.6,729.7z"/>
						<path class="st28" d="M113,737v4.6c0,0.6,0.4,1.1,1,1.1h6.7c0.6,0,1-0.5,1-1.1V737H113z"/>
						<path class="st18" d="M121.8,737.7c0,0.2-0.2,0.3-0.3,0.3c0,0,0,0,0,0h-8.1c-0.2,0-0.3-0.1-0.3-0.3c0,0,0,0,0,0l0,0
							c0-0.2,0.2-0.3,0.3-0.3h8.1C121.7,737.4,121.8,737.5,121.8,737.7z"/>
						<path class="st18" d="M121.8,738.9c0,0.2-0.2,0.3-0.3,0.3c0,0,0,0,0,0h-8.1c-0.2,0-0.3-0.1-0.3-0.3c0,0,0,0,0,0l0,0
							c0-0.2,0.2-0.3,0.3-0.3h8.1C121.7,738.6,121.8,738.7,121.8,738.9C121.8,738.9,121.8,738.9,121.8,738.9z"/>
						<path class="st18" d="M121.8,740.1c0,0.2-0.1,0.3-0.3,0.3c0,0,0,0,0,0h-8.1c-0.2,0-0.3-0.1-0.3-0.3l0,0c0-0.2,0.2-0.3,0.3-0.3
							h8.1C121.7,739.8,121.8,739.9,121.8,740.1z"/>
						<path class="st18" d="M121.8,741.3c0,0.2-0.2,0.3-0.3,0.3h-8.1c-0.2,0-0.3-0.1-0.3-0.3l0,0c0-0.2,0.2-0.3,0.3-0.3c0,0,0,0,0,0
							h8.1C121.7,741,121.8,741.1,121.8,741.3C121.8,741.3,121.8,741.3,121.8,741.3z"/>
						<path class="st5" d="M121.8,738.3c0,0.2-0.1,0.3-0.3,0.3c0,0,0,0,0,0h-8.1c-0.2,0-0.3-0.1-0.3-0.3l0,0c0-0.2,0.2-0.3,0.3-0.3
							h8.1C121.7,738,121.8,738.1,121.8,738.3z"/>
						<path class="st5" d="M121.8,739.5c0,0.2-0.2,0.3-0.3,0.3c0,0,0,0,0,0h-8.1c-0.2,0-0.3-0.1-0.3-0.3c0,0,0,0,0,0l0,0
							c0-0.2,0.2-0.3,0.3-0.3h8.1C121.7,739.2,121.8,739.3,121.8,739.5z"/>
						<path class="st5" d="M121.8,740.7c0,0.2-0.2,0.3-0.3,0.3h-8.1c-0.2,0-0.3-0.1-0.3-0.3l0,0c0-0.2,0.2-0.3,0.3-0.3h8.1
							C121.7,740.4,121.8,740.5,121.8,740.7z"/>
						<path class="st5" d="M121.8,741.9c0,0.2-0.1,0.3-0.3,0.3c0,0,0,0,0,0h-8.1c-0.2,0-0.3-0.1-0.3-0.3l0,0c0-0.2,0.2-0.3,0.3-0.3
							h8.1C121.7,741.6,121.8,741.7,121.8,741.9C121.8,741.9,121.8,741.9,121.8,741.9z"/>
						<path class="st5" d="M120.2,715.7c1.4,3.1,4.7,12.3-0.2,21.3h1.9c0,0,5.3-8,5.3-11.8C127.1,718.5,123,716.4,120.2,715.7z"/>
						
							<ellipse transform="matrix(0.9432 -0.3322 0.3322 0.9432 -234.1177 78.0962)" class="st29" cx="111.4" cy="723.9" rx="1.5" ry="1"/>
						
							<ellipse transform="matrix(0.9433 -0.3318 0.3318 0.9433 -232.4834 78.42)" class="st29" cx="113.4" cy="720" rx="2.9" ry="1.9"/>
						<polygon class="st26" points="102.5,707.1 102.8,706.8 111,715.1 110.7,715.4 						"/>
						<polygon class="st26" points="93.7,718.8 93.7,718.4 105.5,719.9 105.4,720.3 						"/>
						<polygon class="st26" points="94.1,730 94.1,729.6 105.7,727.3 105.8,727.7 						"/>
						<polygon class="st26" points="131.4,707.1 131.1,706.8 122.9,715.1 123.2,715.4 						"/>
						<polygon class="st26" points="141,719.4 141,719 129.2,720.5 129.3,721 						"/>
						<polygon class="st26" points="140.2,729 140.3,728.6 128.7,726.4 128.6,726.8 						"/>
						<polygon class="st26" points="117.7,713.2 117.3,713.2 117.1,701.9 117.5,701.9 						"/>
					</g>
				</g>
				<polygon class="st5" points="199.5,555.4 196.2,555.4 20.3,806.3 20.3,816.8 199.5,816.8 				"/>
			</g>
			<g id="Button">
				<circle class="st14" cx="537.7" cy="665" r="87"/>
				<circle class="st30" cx="537.7" cy="665" r="64.7"/>
				<circle class="st14" cx="537.7" cy="665" r="43.2"/>
			</g>
			<g id="Push">
				<path class="st31" d="M443.7,875.6l0.9,128.3c0,0,55.5,56.3,72.4,86c16.8,29.7,47.8,41.3,49.1,41.3h183.5
					c0,0,45.2-12.9,46.5-74.9V845.7c0,0-27.6-52.8-54.3,0h-16.8v-32.3c0,0-32.3-50.4-60.7,0v29.7h-16.8V791c0,0-32.3-56-59.4,0v52.1
					h-18.1V685.5c0,0-28.4-60.7-56.8,0v310.2c0,0-8-7.8-13.1-25.8l-5-60.9C494.9,909,479.8,846.8,443.7,875.6z"/>
				<path class="st5" d="M532.4,660.7c-6.2,3.3-12.8,10.8-19.4,24.8v313.9l19.4-0.7V660.7z"/>
				<path class="st5" d="M594.1,780.4c-2.3,3.4-4.4,6.9-6.1,10.6v52.1h-18.1V685.5c-1.2-2.5-2.6-4.9-4.1-7.3V851h28.3L594.1,780.4z"
					/>
				<path class="st5" d="M668.1,807.1c-1.3,1.9-2.7,4-4,6.3v29.7h-16.8V791c-1.8-3-3.9-5.9-6.1-8.7v64.5h26.9L668.1,807.1z"/>
				<path class="st5" d="M741.7,845.7h-16.8v-32.3c-1.6-2.4-3.3-4.6-5.2-6.8V851h27.6v-14.8C745.2,839.2,743.3,842.4,741.7,845.7z"
					/>
				<path class="st29" d="M455.3,897.5c-1.3-16.2-11.6-18.1-11.6-18.1l0.2,31.7h11.4V897.5z"/>
				<path class="st32" d="M541.1,670c-9.5,0-17.2,9.2-17.2,20.5h34.4C558.3,679.2,550.6,670,541.1,670z"/>
			</g>
			<g id="Setting-2">
				<path class="st16" d="M996.3,651.2c0,59.2-48,107.2-107.2,107.3s-107.2-48-107.3-107.2c0-59.2,48-107.2,107.2-107.3c0,0,0,0,0,0
					C948.3,544,996.3,592,996.3,651.2z"/>
				<path class="st6" d="M988.4,644.8c0,59.2-48,107.2-107.2,107.2s-107.2-48-107.2-107.2c0-59.2,48-107.2,107.2-107.2l0,0
					C940.3,537.6,988.4,585.6,988.4,644.8z"/>
				<path class="st14" d="M889,573.9h-14.5c-0.8,0-1.4,0.6-1.4,1.4c0,0,0,0,0,0v7.5c-9.1,1.3-17.7,4.7-25.2,10l-7.1-7.1
					c-0.6-0.5-1.4-0.5-2,0L828.6,596c-0.5,0.6-0.5,1.4,0,2l6.8,6.8c-4.9,6.2-8.6,13.2-10.9,20.8l-9.7-1.7c-0.8-0.1-1.5,0.4-1.6,1.1
					l-2.5,14.3c-0.1,0.8,0.4,1.5,1.1,1.6l9.9,1.7c0,0.8,0,1.5,0,2.3c0,5.7,0.7,11.3,2.2,16.8l-8.9,4.2c-0.7,0.3-1,1.2-0.7,1.9
					l6.1,13.1c0.3,0.7,1.2,1,1.9,0.7l8.3-3.8c3.4,5.8,7.7,11,12.7,15.3l-4.1,7.2c-0.4,0.7-0.2,1.5,0.5,1.9c0,0,0,0,0,0l12.5,7.3
					c0.7,0.4,1.5,0.2,1.9-0.5l3.7-6.5c6.4,2.9,13.2,4.6,20.2,5l0.6,7.2c0.1,0.8,0.8,1.3,1.5,1.3l14.4-1.3c0.8-0.1,1.3-0.8,1.3-1.5
					l-0.6-7.3c6.7-1.7,13-4.6,18.6-8.5l5.3,6.4c0.5,0.6,1.4,0.7,2,0.2l11.1-9.3c0.6-0.5,0.7-1.4,0.2-2c0,0,0,0,0,0l-5.9-7.1
					c4.1-5,7.3-10.7,9.7-16.7l9.9,2.7c0.7,0.2,1.5-0.2,1.7-1c0,0,0,0,0,0l3.8-14c0.2-0.7-0.2-1.5-1-1.7c0,0,0,0,0,0l-10.3-2.8
					c0.6-6.2,0.4-12.6-0.7-18.7l10.1-3.7c0.7-0.3,1.1-1.1,0.8-1.8l-5-13.6c-0.3-0.7-1.1-1.1-1.8-0.8l-9.5,3.5
					c-2.8-5.8-6.5-11.2-11-15.9l5.3-7.6c0.5-0.6,0.3-1.5-0.3-2c0,0,0,0,0,0l-11.9-8.3c-0.6-0.4-1.5-0.3-1.9,0.3c0,0,0,0,0,0
					l-4.8,6.8c-5.9-3.4-12.4-5.7-19.2-6.8v-7.7C890.4,574.5,889.8,573.9,889,573.9L889,573.9z M881.1,614.4
					c16.8,0,30.4,13.6,30.4,30.4c0,16.8-13.6,30.4-30.4,30.4c-16.8,0-30.4-13.6-30.4-30.4C850.7,628,864.3,614.4,881.1,614.4
					C881.1,614.4,881.1,614.4,881.1,614.4z"/>
				<path class="st17" d="M881.1,602.7c23.3,0,42.1,18.9,42.1,42.1c0,23.3-18.9,42.1-42.1,42.1c-23.3,0-42.1-18.9-42.1-42.1
					c0,0,0,0,0,0C839,621.6,857.8,602.7,881.1,602.7C881.1,602.7,881.1,602.7,881.1,602.7L881.1,602.7z M881.1,614.4
					c16.8,0,30.4,13.6,30.4,30.4c0,16.8-13.6,30.4-30.4,30.4c-16.8,0-30.4-13.6-30.4-30.4C850.7,628,864.3,614.4,881.1,614.4
					C881.1,614.4,881.1,614.4,881.1,614.4z"/>
				<path class="st18" d="M950.6,654.5l-10.3-2.8c0.6-6.2,0.4-12.6-0.7-18.7l10.1-3.7c0.7-0.3,1.1-1.1,0.8-1.8l-5-13.6
					c-0.3-0.7-1.1-1.1-1.8-0.8l-9.5,3.5c-2.8-5.8-6.5-11.2-11-15.9l5.3-7.6c0.5-0.6,0.3-1.5-0.3-2c0,0,0,0,0,0l-11.9-8.3
					c-0.6-0.4-1.5-0.3-1.9,0.3c0,0,0,0,0,0l-4.8,6.8c-5.9-3.4-12.4-5.7-19.2-6.9v-7.7c0-0.8-0.6-1.4-1.4-1.4h-7.9v40.5
					c16.8,0,30.4,13.6,30.4,30.4c0,16.8-13.6,30.4-30.4,30.4v40.4l13.5-1.2c0.8-0.1,1.3-0.8,1.3-1.5l-0.6-7.3
					c6.7-1.7,13-4.6,18.6-8.5l5.3,6.4c0.5,0.6,1.4,0.7,2,0.2l11.1-9.3c0.6-0.5,0.7-1.4,0.2-2c0,0,0,0,0,0l-5.9-7.1
					c4.1-5,7.3-10.7,9.7-16.7l9.9,2.7c0.7,0.2,1.5-0.2,1.7-1c0,0,0,0,0,0l3.8-14C951.8,655.4,951.3,654.7,950.6,654.5z"/>
			</g>
			<g id="Game-2">
				<path class="st16" d="M1223.6,534.7c0,59.2-48,107.2-107.2,107.2s-107.2-48-107.2-107.2c0-59.2,48-107.2,107.2-107.2l0,0
					C1175.6,427.5,1223.6,475.5,1223.6,534.7z"/>
				<circle class="st19" cx="1108.1" cy="527.3" r="107.2"/>
			</g>
			<g id="Idea-2">
				<path class="st16" d="M1192.7,791.6c0,59.2-48,107.2-107.2,107.2s-107.2-48-107.2-107.2c0-59.2,48-107.2,107.2-107.2l0,0
					C1144.7,684.4,1192.7,732.4,1192.7,791.6C1192.7,791.6,1192.7,791.6,1192.7,791.6z"/>
				<path class="st33" d="M1183.6,785.4c0,59.2-48,107.2-107.2,107.3c-59.2,0-107.2-48-107.3-107.2c0-59.2,48-107.2,107.2-107.3
					c0,0,0,0,0,0C1135.5,678.2,1183.5,726.2,1183.6,785.4z"/>
				<g id="Lamp-2">
					<path class="st26" d="M1076.6,760.9c-3.5-0.1-34.5,0.1-34.5,34.9c0,13.7,18.9,42,18.9,42h31.3c0,0,18.9-28.3,18.9-42
						C1111,761,1080,760.8,1076.6,760.9z"/>
					<path class="st27" d="M1080.9,838.7c0-0.1-1.4-6.5-1.5-18.5c-0.1-2.6,0.2-5.3,0.8-7.9c-0.9,0.1-1.8,0.1-2.6,0
						c-0.6-0.1-1.1-0.3-1.5-0.8c-0.9,0.6-1.9,1-3,1.1c0.1,0.2,0.2,0.3,0.3,0.5c2.4,3.8,0.9,24.5,0.8,25.4l-1-0.1
						c0.5-5.9,1.2-21.9-0.7-24.8c-0.2-0.4-0.5-0.7-0.7-1h-0.7c-2-0.1-2.1-0.7-2.2-0.8c-0.1-0.6,0.2-1.1,0.8-1.3
						c0.6-0.2,1.4-0.1,2.5,1.2c0.7,0,1.4-0.2,2.1-0.4c0.4-0.2,0.8-0.4,1.2-0.7l0,0c-0.2-1,0.2-1.9,0.9-2.6c0.2-0.2,0.5-0.2,0.7,0
						c0.3,0.3,0.4,0.7,0.1,1.7c-0.1,0.4-0.3,0.8-0.6,1.2c0.3,0.3,0.6,0.4,1,0.5c1,0.2,2,0.1,2.9-0.1c0.3-0.5,0.7-1,1.2-1.3
						c0.6-0.4,1.3-0.4,1.9-0.1l0.6,0.3l-0.5,0.5c-0.7,0.7-1.6,1.2-2.5,1.5c-0.6,1.3-1.1,3.7-1,8.2c0.1,11.9,1.5,18.2,1.5,18.3
						L1080.9,838.7z M1070.1,811.7c0.3,0.1,0.6,0.1,0.9,0.2c-0.3-0.3-0.6-0.3-0.7-0.3C1070.2,811.6,1070.1,811.6,1070.1,811.7
						L1070.1,811.7z"/>
					<path class="st28" d="M1060.9,837.8v16.5c-0.1,2.1,1.6,3.9,3.7,3.9c0,0,0,0,0,0h23.8c2.1-0.1,3.8-1.8,3.7-3.9v-16.5H1060.9z"/>
					<path class="st18" d="M1092.2,840.3c0,0.6-0.6,1.1-1.2,1.1c0,0,0,0,0,0h-28.9c-0.6,0-1.2-0.4-1.2-1.1l0,0c0-0.6,0.6-1.1,1.2-1
						h28.9C1091.6,839.2,1092.1,839.7,1092.2,840.3z"/>
					<path class="st18" d="M1092.2,844.5c0,0.6-0.6,1.1-1.2,1.1h-28.9c-0.6,0-1.1-0.4-1.2-1.1l0,0c0-0.6,0.6-1.1,1.2-1.1h28.9
						C1091.6,843.4,1092.1,843.9,1092.2,844.5C1092.2,844.5,1092.2,844.5,1092.2,844.5z"/>
					<path class="st18" d="M1092.2,848.8c0,0.6-0.6,1.1-1.2,1.1c0,0,0,0,0,0h-28.9c-0.6,0-1.2-0.4-1.2-1.1l0,0
						c0-0.6,0.6-1.1,1.2-1.1h28.9C1091.6,847.7,1092.1,848.1,1092.2,848.8z"/>
					<path class="st18" d="M1092.2,853c-0.1,0.6-0.6,1-1.2,1h-28.9c-0.6,0-1.1-0.4-1.2-1l0,0c0-0.6,0.6-1.1,1.2-1.1h28.9
						C1091.6,851.9,1092.1,852.3,1092.2,853C1092.2,852.9,1092.2,852.9,1092.2,853L1092.2,853z"/>
					<path class="st5" d="M1092.2,842.4c0,0.6-0.6,1.1-1.2,1.1c0,0,0,0,0,0h-28.9c-0.6,0-1.2-0.4-1.2-1.1l0,0c0-0.6,0.6-1.1,1.2-1
						h28.9C1091.6,841.3,1092.1,841.8,1092.2,842.4z"/>
					<path class="st5" d="M1092.2,846.6c0,0.6-0.6,1.1-1.2,1h-28.9c-0.6,0-1.1-0.4-1.2-1l0,0c0-0.6,0.6-1.1,1.2-1h28.9
						C1091.6,845.5,1092.1,846,1092.2,846.6z"/>
					<path class="st5" d="M1092.2,850.9c0,0.6-0.6,1.1-1.2,1.1c0,0,0,0,0,0h-28.9c-0.6,0-1.2-0.4-1.2-1.1l0,0c0-0.6,0.6-1.1,1.2-1
						h28.9C1091.6,849.8,1092.1,850.3,1092.2,850.9z"/>
					<path class="st5" d="M1092.2,855.1c0,0.6-0.6,1.1-1.2,1.1c0,0,0,0,0,0h-28.9c-0.6,0-1.2-0.4-1.2-1.1l0,0c0-0.6,0.6-1.1,1.2-1.1
						h28.9C1091.6,854,1092.1,854.5,1092.2,855.1C1092.2,855.1,1092.2,855.1,1092.2,855.1z"/>
					<path class="st5" d="M1086.3,762c4.9,11,16.5,43.7-0.8,75.8h6.8c0,0,18.9-28.3,18.9-42C1111.1,772,1096.6,764.4,1086.3,762z"/>
					
						<ellipse transform="matrix(0.9434 -0.3317 0.3317 0.9434 -202.6171 394.6863)" class="st29" cx="1055" cy="791" rx="5.4" ry="3.5"/>
					
						<ellipse transform="matrix(0.9433 -0.3318 0.3318 0.9433 -197.7288 396.4407)" class="st29" cx="1062" cy="777.2" rx="10.4" ry="6.8"/>
					<polygon class="st26" points="1023.5,731.2 1024.6,730.3 1053.8,759.9 1052.7,760.8 					"/>
					<polygon class="st26" points="992,773 992.2,771.6 1034.1,777 1033.9,778.4 					"/>
					<polygon class="st26" points="993.7,812.7 993.4,811.3 1034.8,803.2 1035.1,804.6 					"/>
					<polygon class="st26" points="1126.2,731.2 1125.1,730.3 1096,759.9 1097.1,760.8 					"/>
					<polygon class="st26" points="1160.6,775.2 1160.4,773.8 1118.5,779.2 1118.7,780.6 					"/>
					<polygon class="st26" points="1157.8,809.4 1158.1,808 1116.6,799.9 1116.3,801.3 					"/>
					<polygon class="st26" points="1077.5,752.9 1076.1,753 1075.2,712.7 1076.7,712.7 					"/>
				</g>
			</g>
		</g>
		
			<linearGradient id="SVGID_1_" gradientUnits="userSpaceOnUse" x1="1116.34" y1="556.14" x2="1116.34" y2="638.22" gradientTransform="matrix(1 0 0 -1 0 1132)">
			<stop  offset="0" style="stop-color:#225FBC"/>
			<stop  offset="1" style="stop-color:#1FB2F0"/>
		</linearGradient>
		<polyline class="st34" points="1033.4,575.7 1117.2,575.7 1199.3,493.7 1033.4,493.7 1033.4,575.7 		"/>
		<path class="st6" d="M1131.8,509.1h-16.3v38.8l-14.3-38.8h-14.1l-12.2,32.5c-1.3-8.2-9.8-11-16.4-13.1c-4.4-1.4-9.1-3.5-9-5.8
			c0-1.9,2.5-3.6,7.4-3.4c3.3,0.2,6.2,0.4,11.9,3.2l5.7-9.9c-5.8-2.8-12.1-4.3-18.5-4.4l0,0c-6.9,0-12.8,2.3-16.3,6
			c-2.5,2.5-3.9,6-3.9,9.5c-0.3,4.5,1.8,8.9,5.6,11.4c3.4,2.3,7.2,4,11.1,5.1c4.5,1.4,8.2,2.6,8.2,5.2c0,1-0.4,1.9-1.1,2.5
			c-1.1,1.2-2.9,1.6-5.3,1.7c-4.6,0.1-8.1-0.6-13.5-3.9l-5,10c5.6,3.2,12,4.9,18.5,4.9h0.8c5,0,10-1.6,13.9-4.7
			c0.2-0.2,0.4-0.3,0.6-0.5l-1.6,4.4h14.8l2.5-7.6c5.6,1.8,11.6,1.8,17.2,0.1l2.4,7.5h24.2v-15.7h5.3c12.8,0,20.3-6.5,20.3-17.4
			C1154.8,514.7,1147.4,509.1,1131.8,509.1z M1094.1,542.3c-1.8,0-3.6-0.3-5.2-0.9l5.2-16.3h0.1l5.1,16.4
			C1097.6,542,1095.8,542.3,1094.1,542.3z M1132.8,532.9h-3.6v-13.2h3.6c4.8,0,8.6,1.6,8.6,6.5
			C1141.4,531.4,1137.6,532.9,1132.8,532.9"/>
		<path class="st35" d="M1137.3,570.4c0.1-2.4,2.1-4.3,4.4-4.2s4.3,2.1,4.2,4.4c-0.1,2.3-2,4.2-4.3,4.2c-2.4,0-4.3-1.9-4.3-4.3
			C1137.3,570.5,1137.3,570.5,1137.3,570.4z M1141.6,575.8c2.9,0,5.3-2.5,5.2-5.4c0-2.9-2.5-5.3-5.4-5.2c-2.9,0-5.2,2.4-5.2,5.3
			c0,2.9,2.4,5.3,5.3,5.3C1141.6,575.8,1141.6,575.8,1141.6,575.8L1141.6,575.8z M1140.5,570.8h1.1l1.6,2.7h1l-1.8-2.7
			c0.9,0,1.6-0.7,1.6-1.6c0,0,0-0.1,0-0.1c0-1.2-0.7-1.8-2.2-1.8h-2.3v6.1h0.9L1140.5,570.8z M1140.5,570.1v-1.9h1.3
			c0.6,0,1.3,0.1,1.3,0.9c0,1-0.7,1-1.5,1H1140.5z"/>
	</g>
</g>
</svg>
