<svg xmlns="http://www.w3.org/2000/svg" xmlns:xlink="http://www.w3.org/1999/xlink" viewBox="0 0 1223.58 1131.22"><defs><linearGradient id="linear-gradient" x1="1116.34" y1="575.86" x2="1116.34" y2="493.78" gradientUnits="userSpaceOnUse"><stop offset="0" stop-color="#225fbc"/><stop offset="1" stop-color="#1fb2f0"/></linearGradient></defs><title>Development</title><g id="Layer_2" data-name="Layer 2"><g id="Web_and_Development" data-name="Web and Development"><circle id="Background_2" data-name="Background 2" cx="576.14" cy="532" r="532" style="fill:#00aeef"/><g id="Application_Development" data-name="Application Development"><g id="Line"><polygon points="498.49 662.51 323.68 662.51 323.68 562.45 124.22 562.45 124.22 554.45 331.68 554.45 331.68 654.51 498.49 654.51 498.49 662.51" style="fill:#efefef"/><polygon points="557.1 621.82 549.1 621.82 549.1 516.49 472.01 516.49 472.01 328 480.01 328 480.01 508.49 557.1 508.49 557.1 621.82" style="fill:#efefef"/><polygon points="687.85 648.01 687.85 486.68 1065.71 486.68 1065.71 494.68 695.85 494.68 695.95 641.61 781.88 641.61 781.88 648.01 687.85 648.01" style="fill:#efefef"/><polygon points="1000.91 832.82 828.14 832.82 828.14 773.65 765.23 727.2 687.85 727.2 687.85 644.82 695.85 644.82 695.85 719.2 767.86 719.2 836.14 769.62 836.14 824.82 1000.91 824.82 1000.91 832.82" style="fill:#efefef"/><rect x="565.75" y="641.61" width="122.09" height="6.4" style="fill:#efefef"/></g><g id="Coding"><rect x="312.99" y="33.78" width="507.8" height="331.8" rx="23.08" ry="23.08" style="fill:#154f77"/><rect x="335.68" y="55.66" width="464.38" height="286.74" style="fill:#0d3858"/><path d="M213.69,363.89a44,44,0,0,0-.47,6.31c0,18.24,11.07,33,24.71,33H897.81c13.65,0,24.71-14.78,24.71-33a43.48,43.48,0,0,0-.46-6.31Z" style="fill:#fffefe;fill-rule:evenodd"/><path d="M215.35,383.56c3.84,11.58,12.5,19.66,22.59,19.66H897.81c10.09,0,18.75-8.09,22.59-19.66Z" style="opacity:0.1"/><rect x="359.74" y="82.52" width="116.27" height="5.78" style="fill:#aec647"/><rect x="359.74" y="99.86" width="116.27" height="5.78" style="fill:#f3ae1b"/><rect x="359.74" y="115.92" width="116.27" height="5.78" style="fill:#df3f11"/><rect x="359.74" y="265.17" width="116.27" height="5.78" style="fill:#aec647"/><rect x="359.74" y="246.11" width="116.27" height="5.78" style="fill:#aec647"/><rect x="359.74" y="284.86" width="116.27" height="5.78" style="fill:#aec647"/><rect x="498.5" y="152.54" width="116.27" height="5.78" style="fill:#f3ae1b"/><rect x="375.8" y="152.54" width="116.27" height="5.78" style="fill:#aec647"/><rect x="375.8" y="168.6" width="116.27" height="5.78" style="fill:#f3ae1b"/><rect x="498.5" y="168.6" width="54.6" height="5.78" style="fill:#aec647"/><rect x="375.8" y="199.67" width="116.27" height="5.78" style="fill:#aec647"/><rect x="498.5" y="199.67" width="54.6" height="5.78" style="fill:#f3ae1b"/><rect x="637.25" y="184.02" width="54.6" height="5.78" style="fill:#f3ae1b"/><rect x="375.8" y="133.91" width="251.17" height="5.78" style="fill:#bcdede"/><rect x="375.8" y="184.02" width="251.17" height="5.78" style="fill:#bcdede"/><rect x="637.25" y="218.06" width="54.6" height="5.78" style="fill:#aec647"/><rect x="375.8" y="218.06" width="251.17" height="5.78" style="fill:#aec647"/><rect x="621.19" y="300.92" width="54.6" height="5.78" style="fill:#c84119"/><rect x="359.74" y="300.92" width="251.17" height="5.78" style="fill:#6bb5ce"/><circle cx="361.33" cy="373.72" r="4.58" style="fill:#00d0e5"/><circle cx="332.26" cy="373.72" r="4.58" style="fill:#ff81ed"/><circle cx="346.55" cy="373.72" r="4.58" style="fill:#00c982"/><path d="M320.94,373.72a4.17,4.17,0,0,1-4.18,4.17H281.11a4.18,4.18,0,0,1-4.17-4.17h0a4.17,4.17,0,0,1,4.17-4.17h35.65a4.17,4.17,0,0,1,4.18,4.17Z" style="opacity:0.7000000000000001"/><circle cx="567.87" cy="44.62" r="6.76" style="opacity:0.4"/></g><g id="Phone"><rect y="510.03" width="219.78" height="382.4" rx="12.96" ry="12.96" style="fill:#0b2e44"/><rect x="20.27" y="555.4" width="179.23" height="261.41" style="fill:#fff;opacity:0.8"/><g id="Setting"><circle cx="64.77" cy="684.6" r="30.12" style="fill:#424242"/><path d="M92.65,682.81a30.12,30.12,0,1,1-30.12-30.13A30.12,30.12,0,0,1,92.65,682.81Z" style="fill:#f3ae1b"/><path d="M64.74,662.88H60.67a.4.4,0,0,0-.39.4v2.11a16.21,16.21,0,0,0-7.07,2.82l-2-2a.39.39,0,0,0-.56,0l-2.88,2.88a.4.4,0,0,0,0,.56l1.9,1.89a17.94,17.94,0,0,0-3.07,5.83l-2.73-.49a.41.41,0,0,0-.46.32l-.7,4a.39.39,0,0,0,.32.46l2.77.49c0,.21,0,.42,0,.64a18.37,18.37,0,0,0,.61,4.73l-2.5,1.17a.4.4,0,0,0-.19.52l1.72,3.68a.4.4,0,0,0,.52.2L48.29,692a17.47,17.47,0,0,0,3.59,4.32l-1.16,2a.4.4,0,0,0,.14.54l3.53,2a.4.4,0,0,0,.54-.14L56,699a16,16,0,0,0,5.68,1.38l.17,2a.4.4,0,0,0,.43.36l4.05-.36a.39.39,0,0,0,.36-.43l-.18-2.06a16.35,16.35,0,0,0,5.23-2.39l1.5,1.79a.4.4,0,0,0,.56.05l3.12-2.62a.4.4,0,0,0,.05-.56l-1.67-2a17.66,17.66,0,0,0,2.72-4.7l2.79.75a.4.4,0,0,0,.48-.28L82.32,686a.39.39,0,0,0-.28-.48l-2.9-.77a19.08,19.08,0,0,0,.1-1.94,18.54,18.54,0,0,0-.3-3.33l2.84-1a.39.39,0,0,0,.23-.5l-1.39-3.83a.4.4,0,0,0-.51-.23l-2.68,1a17.65,17.65,0,0,0-3.09-4.47l1.5-2.15a.4.4,0,0,0-.1-.55l-3.34-2.34a.39.39,0,0,0-.55.1l-1.35,1.92a16.13,16.13,0,0,0-5.39-1.93v-2.17a.4.4,0,0,0-.4-.4Zm-2.22,11.39A8.54,8.54,0,1,1,54,682.81a8.54,8.54,0,0,1,8.54-8.54Z" style="fill:#0b2e44;fill-rule:evenodd"/><path d="M62.52,671A11.83,11.83,0,1,1,50.7,682.81,11.83,11.83,0,0,1,62.52,671Zm0,3.29A8.54,8.54,0,1,1,54,682.81a8.54,8.54,0,0,1,8.54-8.54Z" style="fill:#fff;fill-rule:evenodd;opacity:0.2"/><path d="M82,685.52l-2.9-.77a19.08,19.08,0,0,0,.1-1.94,18.54,18.54,0,0,0-.3-3.33l2.84-1a.39.39,0,0,0,.23-.5l-1.39-3.83a.4.4,0,0,0-.51-.23l-2.68,1a17.65,17.65,0,0,0-3.09-4.47l1.5-2.15a.4.4,0,0,0-.1-.55l-3.34-2.34a.39.39,0,0,0-.55.1l-1.35,1.92a16.13,16.13,0,0,0-5.39-1.93v-2.17a.4.4,0,0,0-.4-.4H62.52v11.39a8.54,8.54,0,0,1,0,17.08V702.7l3.78-.33a.39.39,0,0,0,.36-.43l-.18-2.06a16.35,16.35,0,0,0,5.23-2.39l1.5,1.79a.4.4,0,0,0,.56.05l3.12-2.62a.4.4,0,0,0,.05-.56l-1.67-2a17.66,17.66,0,0,0,2.72-4.7l2.79.75a.4.4,0,0,0,.48-.28L82.32,686A.39.39,0,0,0,82,685.52Z" style="fill:#fff;opacity:0.1"/></g><g id="Game"><circle cx="128.6" cy="651.88" r="30.12" style="fill:#424242"/><circle cx="126.29" cy="649.8" r="30.12" style="fill:#d0edfa"/><g id="Rocket"><path d="M138.78,636.91s-17.61-4.56-27.61,11.62l3.45,5,3.46,5C136.76,655,138.78,636.91,138.78,636.91Z" style="fill:#ff651f"/><path d="M114.88,653.92l-.08-.11-3.64-5.28s-.78,2.51-.36,3.88l1.94,2.82.08.11,1.7,2.46c1,.75,3.55.74,3.55.74Z" style="fill:#0051c4"/><rect x="110.89" y="652.31" width="1.83" height="6.34" transform="translate(-352.2 179.19) rotate(-34.57)" style="fill:#e46400"/><polygon points="111.76 658.54 108.92 654.42 109.63 653.93 112.47 658.05 111.76 658.54" style="fill:#c0003b"/><polygon points="118.59 642.33 107.69 642.14 112.88 649.13 118.59 642.33" style="fill:#ffea50"/><polygon points="126.7 653.03 123 663.27 118.31 655.93 126.7 653.03" style="fill:#ffea50"/><path d="M137.2,642.7a25.36,25.36,0,0,0,1.58-5.79,25.35,25.35,0,0,0-6-.59Z" style="fill:#ff2c0d"/><polygon points="104.34 660.62 108.53 660.28 112.73 659.95 110.34 656.48 107.95 653.01 106.15 656.82 104.34 660.62" style="fill:#ff1a2c"/><polygon points="106.07 659.3 109.06 659.13 112.04 658.96 110.28 656.4 108.53 653.84 107.3 656.57 106.07 659.3" style="fill:#ff2c4d"/><polygon points="108.25 657.75 109.85 657.93 111.46 658.11 110.26 656.37 109.06 654.62 108.66 656.18 108.25 657.75" style="fill:#ffd74c"/><path d="M137.2,642.7h0a26.58,26.58,0,0,0,1.54-5.54h0c0-.1,0-.18,0-.21h0a0,0,0,0,1,0,0h0l-.11,0-34.21,23.56-.08.18,4.19-.34,4.2-.33-.68-1-.28-.42.71-.49.38.55,1.51-1,.16.23c1,.75,3.55.74,3.55.74v0c.57-.11,1.13-.23,1.67-.37l3.25,5.08,2.64-7.31A25,25,0,0,0,137.2,642.7Z" style="opacity:0.2"/></g><path d="M123.56,665.4a2.15,2.15,0,0,0-.51.06,4.63,4.63,0,0,0-4.26-3.85,4.27,4.27,0,0,0-3.62,2.23,3.84,3.84,0,0,0-1.69-.38,3.77,3.77,0,0,0-3.7,4.62h15.92a2.15,2.15,0,0,0,.06-.5A2.2,2.2,0,0,0,123.56,665.4Z" style="fill:#4c4c4b"/><path d="M122.51,665.4a2.22,2.22,0,0,0-.51.06,4.62,4.62,0,0,0-4.25-3.85,4.27,4.27,0,0,0-3.62,2.23,3.85,3.85,0,0,0-1.69-.38,3.78,3.78,0,0,0-3.8,3.76,4,4,0,0,0,.1.87h15.93a2.15,2.15,0,0,0,.06-.5A2.2,2.2,0,0,0,122.51,665.4Z" style="fill:#6cd2ea"/><path d="M122.51,665.4a2.22,2.22,0,0,0-.51.06,4.62,4.62,0,0,0-4.25-3.85h-.19v6.46h7.11a2.15,2.15,0,0,0,.06-.5A2.2,2.2,0,0,0,122.51,665.4Z" style="opacity:0.2"/><path d="M129.47,630.29a3.33,3.33,0,0,0-.77.08c-.79-3.34-3.37-5.8-6.42-5.8a6.43,6.43,0,0,0-5.46,3.37,5.83,5.83,0,0,0-2.54-.59,5.68,5.68,0,0,0-5.59,7h24a3.25,3.25,0,0,0,.09-.76A3.31,3.31,0,0,0,129.47,630.29Z" style="fill:#4c4c4b"/><path d="M127.88,630.29a3.34,3.34,0,0,0-.77.08c-.79-3.34-3.36-5.8-6.42-5.8a6.43,6.43,0,0,0-5.46,3.37,5.83,5.83,0,0,0-2.55-.59,5.68,5.68,0,0,0-5.59,7h24a3.25,3.25,0,0,0,.09-.76A3.31,3.31,0,0,0,127.88,630.29Z" style="fill:#6cd2ea"/><path d="M127.88,630.29a3.34,3.34,0,0,0-.77.08c-.79-3.34-3.36-5.8-6.42-5.8h-.28v9.75h10.72a3.25,3.25,0,0,0,.09-.76A3.31,3.31,0,0,0,127.88,630.29Z" style="opacity:0.2"/><path d="M152.14,654.25a3.12,3.12,0,0,0-.66.07c-.68-2.87-2.89-5-5.51-5a5.51,5.51,0,0,0-4.68,2.89,5,5,0,0,0-2.18-.5,4.87,4.87,0,0,0-4.79,6h20.62a2.83,2.83,0,0,0-2.79-3.48Z" style="fill:#4c4c4b"/><path d="M150.77,654.25a3.12,3.12,0,0,0-.66.07c-.67-2.87-2.89-5-5.51-5a5.5,5.5,0,0,0-4.68,2.89,5,5,0,0,0-2.18-.5,4.87,4.87,0,0,0-4.8,6h20.62a2.83,2.83,0,0,0-2.79-3.48Z" style="fill:#6cd2ea"/><path d="M150.77,654.25a3.12,3.12,0,0,0-.66.07c-.67-2.87-2.89-5-5.51-5h-.24v8.37h9.2a2.83,2.83,0,0,0-2.79-3.48Z" style="opacity:0.2"/></g><g id="Idea"><circle cx="119.91" cy="724.04" r="30.12" style="fill:#424242"/><circle cx="117.35" cy="722.3" r="30.12" style="fill:#f7674f"/><g id="Lamp"><path d="M117.42,715.4c-1,0-9.69,0-9.7,9.8C107.71,729,113,737,113,737h8.78s5.32-8,5.31-11.8C127.11,715.44,118.4,715.37,117.42,715.4Z" style="fill:#fff064"/><path d="M118.64,737.27a28.15,28.15,0,0,1-.43-5.19,7.38,7.38,0,0,1,.24-2.21,2,2,0,0,1-.73,0,.72.72,0,0,1-.42-.21,1.86,1.86,0,0,1-.85.31l.1.14c.69,1.07.25,6.89.23,7.14l-.28,0c.13-1.65.34-6.14-.19-7l-.19-.27h-.2c-.57,0-.6-.19-.61-.24a.34.34,0,0,1,.21-.37c.15-.06.39,0,.71.33a2.15,2.15,0,0,0,.59-.12,1.33,1.33,0,0,0,.34-.19h0a.81.81,0,0,1,.25-.73.17.17,0,0,1,.21,0c.09.07.1.2,0,.46a.92.92,0,0,1-.17.34.48.48,0,0,0,.27.14,1.87,1.87,0,0,0,.82,0,1,1,0,0,1,.33-.38.56.56,0,0,1,.54,0l.16.09-.13.13a1.92,1.92,0,0,1-.71.42,5.88,5.88,0,0,0-.29,2.29,27.58,27.58,0,0,0,.42,5.13Zm-3-7.6a1.2,1.2,0,0,0,.24,0c-.1-.07-.17-.08-.21-.07Z" style="fill:#4f4e4f"/><path d="M113,737v4.63a1.08,1.08,0,0,0,1,1.1h6.69a1.08,1.08,0,0,0,1-1.1V737Z" style="fill:#1e2f47"/><path d="M121.81,737.71a.31.31,0,0,1-.33.29h-8.12a.31.31,0,0,1-.33-.29h0a.32.32,0,0,1,.33-.3h8.12a.32.32,0,0,1,.33.3Z" style="fill:#fff;opacity:0.1"/><path d="M121.81,738.9a.31.31,0,0,1-.33.29h-8.12a.31.31,0,0,1-.33-.29h0a.32.32,0,0,1,.33-.3h8.12a.31.31,0,0,1,.33.3Z" style="fill:#fff;opacity:0.1"/><path d="M121.81,740.08a.31.31,0,0,1-.33.3h-8.12a.32.32,0,0,1-.33-.3h0a.32.32,0,0,1,.33-.3h8.12a.32.32,0,0,1,.33.3Z" style="fill:#fff;opacity:0.1"/><path d="M121.81,741.28a.32.32,0,0,1-.33.3h-8.12a.32.32,0,0,1-.33-.3h0a.31.31,0,0,1,.33-.29h8.12a.31.31,0,0,1,.33.29Z" style="fill:#fff;opacity:0.1"/><path d="M121.81,738.3a.31.31,0,0,1-.33.3h-8.12a.32.32,0,0,1-.33-.3h0a.32.32,0,0,1,.33-.3h8.12a.32.32,0,0,1,.33.3Z" style="opacity:0.1"/><path d="M121.81,739.49a.31.31,0,0,1-.33.29h-8.12a.31.31,0,0,1-.33-.29h0a.32.32,0,0,1,.33-.3h8.12a.32.32,0,0,1,.33.3Z" style="opacity:0.1"/><path d="M121.81,740.68a.32.32,0,0,1-.33.3h-8.12a.32.32,0,0,1-.33-.3h0a.32.32,0,0,1,.33-.3h8.12a.32.32,0,0,1,.33.3Z" style="opacity:0.1"/><path d="M121.81,741.87a.31.31,0,0,1-.33.3h-8.12a.32.32,0,0,1-.33-.3h0a.32.32,0,0,1,.33-.29h8.12a.31.31,0,0,1,.33.29Z" style="opacity:0.1"/><path d="M120.15,715.72c1.39,3.11,4.65,12.27-.24,21.29h1.89s5.32-8,5.31-11.8C127.11,718.54,123,716.4,120.15,715.72Z" style="opacity:0.1"/><ellipse cx="111.36" cy="723.88" rx="1.51" ry="0.99" transform="translate(-234.1 78.08) rotate(-19.4)" style="fill:#fff;opacity:0.4"/><ellipse cx="113.33" cy="720" rx="2.91" ry="1.92" transform="translate(-232.44 78.37) rotate(-19.38)" style="fill:#fff;opacity:0.4"/><polygon points="102.53 707.07 102.83 706.8 111.02 715.12 110.71 715.4 102.53 707.07" style="fill:#fff064"/><polygon points="93.67 718.82 93.72 718.42 105.5 719.93 105.45 720.33 93.67 718.82" style="fill:#fff064"/><polygon points="94.14 729.95 94.05 729.56 105.7 727.3 105.78 727.69 94.14 729.95" style="fill:#fff064"/><polygon points="131.36 707.07 131.06 706.8 122.88 715.12 123.18 715.4 131.36 707.07" style="fill:#fff064"/><polygon points="141.04 719.43 140.98 719.04 129.21 720.55 129.26 720.95 141.04 719.43" style="fill:#fff064"/><polygon points="140.24 729.02 140.32 728.63 128.68 726.37 128.6 726.76 140.24 729.02" style="fill:#fff064"/><polygon points="117.69 713.17 117.28 713.18 117.05 701.88 117.47 701.88 117.69 713.17" style="fill:#fff064"/></g></g><polygon points="199.5 555.4 196.18 555.4 20.27 806.27 20.27 816.82 199.5 816.82 199.5 555.4" style="fill-rule:evenodd;opacity:0.1"/></g><g id="Button"><circle cx="537.71" cy="665.01" r="87.05" style="fill:#0b2e44"/><circle cx="537.71" cy="665.01" r="64.65" style="fill:#bababa"/><circle cx="537.71" cy="665.01" r="43.19" style="fill:#0b2e44"/></g><g id="Push"><path d="M443.67,875.56l.86,128.33s55.55,56.27,72.35,86,47.8,41.34,49.1,41.34H749.43s45.21-12.92,46.51-74.94V845.7s-27.57-52.83-54.26,0h-16.8v-32.3s-32.29-50.38-60.72,0v29.71h-16.8V791s-32.3-56-59.43,0v52.11H569.85V685.5s-28.43-60.72-56.85,0V995.71s-8-7.75-13.13-25.83l-5-60.87S479.84,846.82,443.67,875.56Z" style="fill:#f9b946"/><path d="M532.38,660.66c-6.23,3.3-12.8,10.79-19.38,24.84V999.44l19.38-.72Z" style="opacity:0.1"/><path d="M594.07,780.37A80.68,80.68,0,0,0,587.94,791v52.11H569.85V685.5a75.15,75.15,0,0,0-4.1-7.29V851h28.31Z" style="opacity:0.1"/><path d="M668.13,807.09c-1.33,1.92-2.66,4-4,6.32v29.71h-16.8V791a75.2,75.2,0,0,0-6.11-8.66v64.47h26.88Z" style="opacity:0.1"/><path d="M741.68,845.7h-16.8v-32.3a66.31,66.31,0,0,0-5.22-6.78V851h27.62V836.18A81.46,81.46,0,0,0,741.68,845.7Z" style="opacity:0.1"/><path d="M455.3,897.53c-1.29-16.15-11.59-18.08-11.6-18.09l.21,31.65H455.3Z" style="fill:#fff;opacity:0.4"/><path d="M541.14,670c-9.5,0-17.2,9.17-17.2,20.5h34.4C558.34,679.17,550.64,670,541.14,670Z" style="fill:#fff;opacity:0.5"/></g><g id="Setting-2" data-name="Setting"><path d="M996.35,651.22A107.24,107.24,0,1,1,889.11,544,107.24,107.24,0,0,1,996.35,651.22Z" style="fill:#424242"/><path d="M988.36,644.82A107.24,107.24,0,1,1,881.12,537.58,107.24,107.24,0,0,1,988.36,644.82Z" style="fill:#fff"/><path d="M889,573.89H874.53a1.4,1.4,0,0,0-1.41,1.41v7.52a57.6,57.6,0,0,0-25.16,10l-7.08-7.08a1.43,1.43,0,0,0-2,0L828.64,596a1.42,1.42,0,0,0,0,2l6.75,6.75a63.82,63.82,0,0,0-10.91,20.75l-9.73-1.73a1.43,1.43,0,0,0-1.63,1.14l-2.5,14.28a1.4,1.4,0,0,0,1.12,1.63l9.88,1.73c0,.76,0,1.5,0,2.27a65.91,65.91,0,0,0,2.17,16.83l-8.91,4.17a1.41,1.41,0,0,0-.68,1.86l6.13,13.14a1.42,1.42,0,0,0,1.87.68l8.25-3.85A61.82,61.82,0,0,0,843.2,693l-4.13,7.16a1.39,1.39,0,0,0,.51,1.91l12.55,7.25a1.42,1.42,0,0,0,1.93-.51l3.72-6.46A56.91,56.91,0,0,0,878,707.3l.63,7.17a1.41,1.41,0,0,0,1.52,1.27l14.44-1.26a1.41,1.41,0,0,0,1.27-1.52l-.64-7.34a58.12,58.12,0,0,0,18.63-8.52l5.35,6.39a1.42,1.42,0,0,0,2,.18l11.11-9.32a1.39,1.39,0,0,0,.17-2l-5.92-7.08a63.44,63.44,0,0,0,9.7-16.73l9.92,2.65a1.39,1.39,0,0,0,1.71-1l3.75-14a1.4,1.4,0,0,0-1-1.72l-10.31-2.76a67.34,67.34,0,0,0-.7-18.74l10.1-3.67a1.42,1.42,0,0,0,.83-1.8l-5-13.61a1.41,1.41,0,0,0-1.8-.85l-9.53,3.47a62.77,62.77,0,0,0-11-15.92l5.35-7.64a1.42,1.42,0,0,0-.35-2l-11.88-8.31a1.38,1.38,0,0,0-1.94.35l-4.8,6.84A57.2,57.2,0,0,0,890.41,583v-7.72a1.42,1.42,0,0,0-1.41-1.41Zm-7.9,40.54a30.39,30.39,0,1,1-30.4,30.4,30.39,30.39,0,0,1,30.4-30.4Z" style="fill:#0b2e44;fill-rule:evenodd"/><path d="M881.11,602.71A42.11,42.11,0,1,1,839,644.82a42.1,42.1,0,0,1,42.1-42.12Zm0,11.72a30.39,30.39,0,1,1-30.4,30.4,30.39,30.39,0,0,1,30.4-30.4Z" style="fill:#fff;fill-rule:evenodd;opacity:0.2"/><path d="M950.6,654.49l-10.31-2.76a67.34,67.34,0,0,0-.7-18.74l10.1-3.67a1.42,1.42,0,0,0,.83-1.8l-5-13.61a1.41,1.41,0,0,0-1.8-.85l-9.53,3.47a62.77,62.77,0,0,0-11-15.92l5.35-7.64a1.42,1.42,0,0,0-.35-2l-11.88-8.31a1.38,1.38,0,0,0-1.94.35l-4.8,6.84A57.2,57.2,0,0,0,890.41,583v-7.72a1.42,1.42,0,0,0-1.41-1.41h-7.89v40.54a30.39,30.39,0,0,1,0,60.79v40.44l13.45-1.17a1.41,1.41,0,0,0,1.27-1.52l-.64-7.34a58.12,58.12,0,0,0,18.63-8.52l5.35,6.39a1.42,1.42,0,0,0,2,.18l11.11-9.32a1.39,1.39,0,0,0,.17-2l-5.92-7.08a63.44,63.44,0,0,0,9.7-16.73l9.92,2.65a1.39,1.39,0,0,0,1.71-1l3.75-14A1.4,1.4,0,0,0,950.6,654.49Z" style="fill:#fff;opacity:0.1"/></g><g id="Game-2" data-name="Game"><path d="M1223.58,534.71a107.24,107.24,0,1,1-107.24-107.24A107.24,107.24,0,0,1,1223.58,534.71Z" style="fill:#424242"/><circle cx="1108.14" cy="527.31" r="107.24" style="fill:#d0edfa"/></g><g id="Idea-2" data-name="Idea"><path d="M1192.67,791.64A107.24,107.24,0,1,1,1085.43,684.4,107.23,107.23,0,0,1,1192.67,791.64Z" style="fill:#424242"/><path d="M1183.55,785.44a107.24,107.24,0,1,1-107.24-107.23A107.24,107.24,0,0,1,1183.55,785.44Z" style="fill:#1c75bc"/><g id="Lamp-2" data-name="Lamp"><path d="M1076.55,760.86c-3.5-.09-34.49.12-34.54,34.87,0,13.68,18.89,42,18.89,42h31.28s18.92-28.34,18.9-42C1111,761,1080,760.77,1076.55,760.86Z" style="fill:#fff064"/><path d="M1080.91,838.7c0-.06-1.43-6.48-1.53-18.45a25.37,25.37,0,0,1,.85-7.86,7.79,7.79,0,0,1-2.63,0,2.51,2.51,0,0,1-1.48-.76,6.59,6.59,0,0,1-3,1.13c.12.16.23.33.35.51,2.45,3.79.91,24.51.83,25.39l-1-.07c.46-5.91,1.21-21.87-.68-24.79-.24-.37-.47-.69-.68-1h-.7c-2-.09-2.14-.66-2.16-.85a1.23,1.23,0,0,1,.77-1.3c.55-.21,1.38-.12,2.53,1.16a7.75,7.75,0,0,0,2.09-.43,3.93,3.93,0,0,0,1.2-.68.15.15,0,0,0,0,0,2.88,2.88,0,0,1,.89-2.59.64.64,0,0,1,.74,0c.33.25.38.73.14,1.65a3.22,3.22,0,0,1-.59,1.2,1.55,1.55,0,0,0,1,.48,6.48,6.48,0,0,0,2.92-.12,3.27,3.27,0,0,1,1.18-1.34,2,2,0,0,1,1.91-.11l.57.31-.46.46a7,7,0,0,1-2.52,1.48c-.57,1.28-1.07,3.69-1,8.16.11,11.86,1.49,18.18,1.51,18.25Zm-10.83-27a3.82,3.82,0,0,0,.86.15c-.35-.25-.6-.29-.74-.25A.25.25,0,0,0,1070.07,811.67Z" style="fill:#4f4e4f"/><path d="M1060.91,837.75v16.51a3.82,3.82,0,0,0,3.73,3.91h23.82a3.82,3.82,0,0,0,3.72-3.91V837.75Z" style="fill:#1e2f47"/><path d="M1092.18,840.28a1.12,1.12,0,0,1-1.18,1.06H1062.1a1.13,1.13,0,0,1-1.19-1.06h0a1.13,1.13,0,0,1,1.19-1.05H1091a1.12,1.12,0,0,1,1.18,1.05Z" style="fill:#fff;opacity:0.1"/><path d="M1092.18,844.52a1.13,1.13,0,0,1-1.18,1.06H1062.1a1.14,1.14,0,0,1-1.19-1.06h0a1.13,1.13,0,0,1,1.19-1.06H1091a1.12,1.12,0,0,1,1.18,1.06Z" style="fill:#fff;opacity:0.1"/><path d="M1092.18,848.75a1.12,1.12,0,0,1-1.18,1.06H1062.1a1.13,1.13,0,0,1-1.19-1.06h0a1.14,1.14,0,0,1,1.19-1.06H1091a1.13,1.13,0,0,1,1.18,1.06Z" style="fill:#fff;opacity:0.1"/><path d="M1092.18,853A1.12,1.12,0,0,1,1091,854H1062.1a1.13,1.13,0,0,1-1.19-1.05h0a1.13,1.13,0,0,1,1.19-1.06H1091a1.12,1.12,0,0,1,1.18,1.06Z" style="fill:#fff;opacity:0.1"/><path d="M1092.18,842.4a1.12,1.12,0,0,1-1.18,1.06H1062.1a1.13,1.13,0,0,1-1.19-1.06h0a1.13,1.13,0,0,1,1.19-1.05H1091a1.12,1.12,0,0,1,1.18,1.05Z" style="opacity:0.1"/><path d="M1092.18,846.63a1.12,1.12,0,0,1-1.18,1.05H1062.1a1.13,1.13,0,0,1-1.19-1.05h0a1.13,1.13,0,0,1,1.19-1.05H1091a1.12,1.12,0,0,1,1.18,1.05Z" style="opacity:0.1"/><path d="M1092.18,850.87a1.12,1.12,0,0,1-1.18,1.06H1062.1a1.13,1.13,0,0,1-1.19-1.06h0a1.13,1.13,0,0,1,1.19-1.05H1091a1.12,1.12,0,0,1,1.18,1.05Z" style="opacity:0.1"/><path d="M1092.18,855.1a1.12,1.12,0,0,1-1.18,1.06H1062.1a1.13,1.13,0,0,1-1.19-1.06h0a1.13,1.13,0,0,1,1.19-1.06H1091a1.12,1.12,0,0,1,1.18,1.06Z" style="opacity:0.1"/><path d="M1086.28,762c4.94,11.05,16.54,43.67-.85,75.81h6.76s18.92-28.35,18.9-42C1111.05,772,1096.57,764.43,1086.28,762Z" style="opacity:0.1"/><ellipse cx="1054.99" cy="791.05" rx="5.38" ry="3.54" transform="translate(-202.62 394.59) rotate(-19.37)" style="fill:#fff;opacity:0.4"/><ellipse cx="1061.99" cy="777.22" rx="10.38" ry="6.84" transform="translate(-197.73 396.43) rotate(-19.38)" style="fill:#fff;opacity:0.4"/><polygon points="1023.54 731.21 1024.62 730.25 1053.76 759.89 1052.68 760.85 1023.54 731.21" style="fill:#fff064"/><polygon points="992 773.04 992.2 771.63 1034.13 777.01 1033.93 778.42 992 773.04" style="fill:#fff064"/><polygon points="993.65 812.68 993.36 811.3 1034.82 803.23 1035.11 804.62 993.65 812.68" style="fill:#fff064"/><polygon points="1126.19 731.21 1125.11 730.25 1095.97 759.89 1097.05 760.85 1126.19 731.21" style="fill:#fff064"/><polygon points="1160.63 775.24 1160.44 773.84 1118.5 779.21 1118.7 780.62 1160.63 775.24" style="fill:#fff064"/><polygon points="1157.8 809.37 1158.1 807.98 1116.64 799.91 1116.34 801.3 1157.8 809.37" style="fill:#fff064"/><polygon points="1077.54 752.94 1076.05 752.96 1075.24 712.74 1076.74 712.72 1077.54 752.94" style="fill:#fff064"/></g></g></g><polyline points="1033.38 575.74 1117.23 575.74 1199.3 493.66 1033.38 493.66 1033.38 575.74" style="fill-rule:evenodd;fill:url(#linear-gradient)"/><path d="M1131.84,509.09h-16.33v38.83l-14.27-38.83H1087.1l-12.18,32.47c-1.29-8.18-9.76-11-16.43-13.14-4.41-1.41-9.06-3.49-9-5.79,0-1.88,2.51-3.64,7.39-3.37,3.28.18,6.19.44,11.95,3.22l5.69-9.88a44.22,44.22,0,0,0-18.5-4.38h0c-6.95,0-12.75,2.26-16.33,6a13.79,13.79,0,0,0-3.91,9.52,12.79,12.79,0,0,0,5.61,11.41,38.32,38.32,0,0,0,11.1,5.08c4.53,1.4,8.23,2.62,8.19,5.22a3.75,3.75,0,0,1-1.07,2.55c-1.13,1.17-2.87,1.61-5.26,1.65-4.63.09-8.06-.63-13.52-3.86l-5,10a37.73,37.73,0,0,0,18.49,4.92h.85A22.34,22.34,0,0,0,1069.1,556c.2-.16.4-.34.59-.51l-1.63,4.38h14.83l2.49-7.57a28.32,28.32,0,0,0,17.23.07l2.4,7.5h24.19V544.16h5.28c12.75,0,20.31-6.49,20.31-17.38C1154.79,514.66,1147.45,509.09,1131.84,509.09Zm-37.74,33.23a14.81,14.81,0,0,1-5.23-.92l5.18-16.33h.11l5.07,16.38A15.09,15.09,0,0,1,1094.1,542.32Zm38.71-9.39h-3.6V519.77h3.6c4.8,0,8.62,1.59,8.62,6.51,0,5.07-3.82,6.66-8.62,6.66" style="fill:#fff;fill-rule:evenodd"/><path d="M1137.29,570.42a4.32,4.32,0,1,1,4.34,4.45A4.31,4.31,0,0,1,1137.29,570.42Zm4.34,5.34a5.32,5.32,0,1,0-5.41-5.34A5.32,5.32,0,0,0,1141.63,575.75Zm-1.13-4.92h1.07l1.62,2.66h1l-1.75-2.7a1.59,1.59,0,0,0,1.59-1.69c0-1.21-.72-1.75-2.16-1.75h-2.34v6.13h.93Zm0-.79v-1.9h1.27c.64,0,1.32.14,1.32.9,0,.95-.7,1-1.48,1Z" style="fill:#225fbc"/></g></g></svg>