<?xml version="1.0" encoding="utf-8"?>
<!-- Generator: Adobe Illustrator 21.0.2, SVG Export Plug-In . SVG Version: 6.00 Build 0)  -->
<svg version="1.1" id="Layer_1" xmlns="http://www.w3.org/2000/svg" xmlns:xlink="http://www.w3.org/1999/xlink" x="0px" y="0px"
	 viewBox="0 0 2802 2594.6" style="enable-background:new 0 0 2802 2594.6;" xml:space="preserve">
<style type="text/css">
	.st0{fill:#808080;}
	.st1{fill:#29ABE2;}
	.st2{opacity:0.4;enable-background:new    ;}
	.st3{opacity:0.4;fill:#FFFFFF;enable-background:new    ;}
	.st4{opacity:0.5;enable-background:new    ;}
	.st5{fill:#E6E6E6;}
	.st6{fill:#34495E;}
	.st7{opacity:0.2;enable-background:new    ;}
	.st8{opacity:0.1;enable-background:new    ;}
	.st9{fill:#595959;}
	.st10{opacity:0.5;fill:#FFFFFF;enable-background:new    ;}
	.st11{fill:#003333;}
	.st12{fill:#336666;}
	.st13{opacity:0.8;fill:#FFFFFF;enable-background:new    ;}
	.st14{fill:#CECECE;}
	.st15{opacity:0.3;enable-background:new    ;}
	.st16{fill:#333333;}
	.st17{fill:#A5A5A5;}
	.st18{opacity:0.6;fill:#0F0F0F;enable-background:new    ;}
	.st19{fill:#E8E8E6;}
	.st20{opacity:0.4;}
	.st21{opacity:0.7;enable-background:new    ;}
	.st22{fill:#EAEAEA;}
	.st23{fill:#FFFFFF;}
	.st24{opacity:0.5;fill:#4B4C4B;enable-background:new    ;}
	.st25{fill:#4B4C4B;}
	.st26{fill:#213B51;}
	.st27{fill:#3A3939;}
	.st28{opacity:0.3;fill:#FFFFFF;enable-background:new    ;}
	.st29{fill:#CCCCCC;}
	.st30{fill:#223666;}
	.st31{fill:#E2E2E2;}
	.st32{fill:#0071BC;}
	.st33{fill:#144F7F;}
	.st34{fill:#B3B3B3;}
	.st35{opacity:0.1;fill:#231F20;enable-background:new    ;}
	.st36{fill:#008AAC;}
	.st37{fill:#3F3F3F;}
	.st38{fill:#4C4C4C;}
	.st39{fill:#16778E;}
	.st40{fill:#A0E1E6;}
	.st41{fill:#E8E8E8;}
	.st42{fill:#0F3854;}
	.st43{fill:#00B09E;}
	.st44{opacity:0.8;fill:#0F3854;enable-background:new    ;}
	.st45{opacity:0.7;fill:#0F3854;enable-background:new    ;}
	.st46{fill:#EFEFEF;}
	.st47{fill:#00A99D;}
	.st48{fill:#44BACA;}
	.st49{fill:#42536C;}
	.st50{fill:#666666;}
	.st51{opacity:0.1;fill:#020202;enable-background:new    ;}
	.st52{fill:#E6E8E8;}
	.st53{fill:#E74C3C;}
	.st54{fill:#354666;}
	.st55{fill:#F4F4F4;}
	.st56{fill:#F2F2F2;}
	.st57{fill:#4D4D4D;}
	.st58{fill:#0E8FFF;}
	.st59{fill:#757575;}
	.st60{opacity:0.3;fill:#757575;enable-background:new    ;}
	.st61{fill:#1ABC9C;}
	.st62{opacity:0.1;fill:#FFFFFF;enable-background:new    ;}
	.st63{fill:#232700;}
	.st64{opacity:0.1;fill:#757575;enable-background:new    ;}
	.st65{fill:#344F84;}
	.st66{fill:#C6C6C6;}
	.st67{fill:#EA844B;}
	.st68{fill:#F6B98A;}
	.st69{fill:#999999;}
	.st70{fill:#33839E;}
	.st71{fill:#5E3B28;}
</style>
<title>Products</title>
<circle id="Background_2" class="st0" cx="2211.7" cy="1974.2" r="532"/>
<g id="Setting_System">
	<g id="Line">
		<path class="st1" d="M2710.9,2016.7l17,1.4l0.5-6.9l0.5-7c0.1-1.3,0.2-2.6,0.3-4s0.1-2.7,0.1-4.1c0.3-11,0.6-22,0.6-22h-17.1
			c0,0-0.3,10.6-0.5,21.3c0,1.3-0.1,2.7-0.1,4s-0.2,2.6-0.3,3.8c-0.2,2.5-0.4,4.8-0.5,6.8C2711.1,2014,2710.9,2016.7,2710.9,2016.7z
			"/>
		<path class="st1" d="M2701.6,2079.3l16.7,3.6l0.4-1.9c0.3-1.2,0.7-2.8,1.1-4.9c0.7-4.1,1.7-9.5,2.7-14.9c0.5-2.7,1-5.4,1.4-8
			s0.7-4.9,1-7c0.5-4.1,0.9-6.8,0.9-6.8l-16.9-2.2c0,0-0.3,2.6-0.8,6.6c-0.3,2-0.5,4.3-0.9,6.8s-0.9,5.1-1.4,7.7
			c-0.9,5.2-1.9,10.5-2.6,14.4c-0.4,2-0.8,3.6-1,4.7L2701.6,2079.3z"/>
		<path class="st1" d="M2684.2,2140.3l16.1,5.7c0,0,0.9-2.6,2.2-6.5s3.1-9.1,4.8-14.4l6-21.2l-16.5-4.3l-5.8,20.5
			c-1.6,5.1-3.4,10.1-4.6,13.9L2684.2,2140.3z"/>
		<path class="st1" d="M2659.1,2198.4l15.2,7.8l3.1-6.1c2-3.6,4.1-8.7,6.4-13.7s4.6-10,6.2-13.8s2.5-6.4,2.5-6.4l-15.8-6.4l-2.4,6.2
			c-1.6,3.7-3.8,8.5-6,13.4s-4.3,9.7-6.2,13.2L2659.1,2198.4z"/>
		<path class="st1" d="M2626.8,2252.9l14.1,9.6c0,0,1.6-2.2,3.8-5.7l8.2-12.8c3.1-4.6,5.7-9.4,7.8-13s3.4-6,3.4-6l-14.9-8.4
			l-3.3,5.8c-2,3.4-4.5,8.1-7.5,12.6l-7.9,12.3C2628.4,2250.8,2626.8,2252.9,2626.8,2252.9z"/>
		<path class="st1" d="M2587.7,2302.9l12.7,11.3l4.5-5.2l4.6-5.3c1.7-2,3.5-4,5.2-6.2l13.6-17.3l-13.7-10.2l-13.1,16.7
			c-1.6,2.1-3.4,4.1-5,6l-4.5,5.2L2587.7,2302.9z"/>
		<path class="st1" d="M2542.6,2347.3l11.2,12.9l5.2-4.5c3.2-2.6,7.1-6.5,11.1-10.3s8-7.6,10.9-10.5l4.8-5l-12.3-11.9l-4.6,4.8
			c-2.8,2.8-6.7,6.4-10.6,10.1s-7.6,7.4-10.7,9.9L2542.6,2347.3z"/>
		<path class="st1" d="M2492.3,2385.9l9.5,14.2l1.6-1c1-0.6,2.4-1.6,4.1-2.8l12.3-8.8c4.6-3.1,8.8-6.6,12.1-9.1l5.4-4.3l-10.6-13.3
			l-5.2,4.1c-3.1,2.4-7.3,5.8-11.7,8.8l-11.9,8.5c-1.6,1.1-3,2.1-4,2.8L2492.3,2385.9z"/>
		<path class="st1" d="M2437.4,2417.5l7.6,15.3l6.1-3.1l6.3-3.2c2.3-1.2,4.8-2.4,7.1-3.8l19.1-11l-8.9-14.6l-18.5,10.6
			c-2.3,1.4-4.7,2.5-6.9,3.7l-6.1,3.1L2437.4,2417.5z"/>
		<path class="st1" d="M2378.9,2441.9l5.5,16.1l6.5-2.2l3.2-1.1l3.5-1.4l7.5-3c5.1-2.1,10.3-4,14.1-5.6l6.3-2.8l-6.9-15.6l-6.1,2.7
			c-3.6,1.6-8.6,3.5-13.6,5.4l-7.3,2.9l-3.4,1.3l-3.1,1L2378.9,2441.9z"/>
		<path class="st1" d="M2317.8,2458.7l3.4,16.7l21.5-4.9c1.3-0.3,2.7-0.6,4-1l3.8-1.1l6.8-1.9l6.6-1.9l-4.8-16.4l-6.4,1.8l-6.6,1.9
			l-3.7,1c-1.3,0.3-2.6,0.6-3.9,0.9L2317.8,2458.7z"/>
		<path class="st1" d="M2255,2467.2l1.3,17l6.9-0.5l7-0.5c2.6-0.3,5.3-0.7,8-1l15-1.9c2.1-0.2,3.8-0.5,4.9-0.7l1.9-0.3l-2.7-16.8
			l-1.8,0.3c-1.1,0.2-2.8,0.5-4.8,0.7l-14.5,1.9c-2.6,0.3-5.3,0.7-7.8,1l-6.8,0.5L2255,2467.2z"/>
		<path class="st1" d="M2191.6,2467.9l-0.9,17c0,0,0.7,0.1,1.9,0.1l5,0.1l15.1,0.4c5.5,0.3,11,0,15.1-0.1l6.9-0.2l-0.5-17.1
			l-6.6,0.2c-4,0.1-9.3,0.4-14.6,0.1l-14.6-0.4l-4.8-0.1C2192.3,2468,2191.6,2467.9,2191.6,2467.9z"/>
		<path class="st1" d="M2128.7,2460.4l-3.1,16.8l6.8,1.2l6.9,1.2c2.5,0.4,5.3,0.7,8,1.1l15,1.9c2.1,0.3,3.8,0.5,5,0.6l1.9,0.1
			l1.6-17l-1.8-0.1c-1.2-0.1-2.8-0.3-4.8-0.6l-14.5-1.9c-2.6-0.4-5.3-0.6-7.8-1l-6.7-1.2L2128.7,2460.4z"/>
		<path class="st1" d="M2067.3,2445.1l-5.2,16.2l1.8,0.6c1.1,0.4,2.8,1,4.8,1.5l14.6,4.1c2.7,0.7,5.3,1.5,7.8,2.2l6.9,1.6l6.7,1.6
			l3.8-16.6l-6.5-1.5l-6.6-1.5c-2.4-0.6-5-1.4-7.5-2.1l-14.1-4c-1.9-0.5-3.5-1-4.6-1.4L2067.3,2445.1z"/>
		<path class="st1" d="M2008.3,2421.9l-7.3,15.4l6.3,2.8l6.4,2.9l3.6,1.6l1.9,0.8l1.9,0.8l20.5,8.1l5.9-16l-19.8-7.8l-1.9-0.7
			l-1.8-0.8l-3.5-1.6l-6.2-2.8L2008.3,2421.9z"/>
		<path class="st1" d="M1952.8,2391.2l-9.2,14.4l5.8,3.7c3.4,2.3,8.3,5,13,7.7s9.5,5.6,13.2,7.5l6.1,3.1l7.9-15.1l-5.9-3
			c-3.5-1.9-8.1-4.6-12.7-7.3s-9.3-5.2-12.6-7.5L1952.8,2391.2z"/>
		<path class="st1" d="M1901.7,2353.9l-10.9,13.1c0,0,2,1.9,5.3,4.4l11.9,9.4c4.3,3.5,8.8,6.6,12.2,9l5.6,4l9.8-14l-5.4-3.9
			c-3.2-2.3-7.7-5.3-11.8-8.7l-11.5-9C1903.6,2355.7,1901.7,2353.9,1901.7,2353.9z"/>
		<path class="st1" d="M1855.7,2310.2l-12.5,11.6l4.8,5l4.9,5.1c1.8,1.9,3.6,3.9,5.7,5.8l15.9,15.2l11.5-12.6l-15.4-14.7
			c-2-1.8-3.7-3.8-5.5-5.6l-4.7-4.9L1855.7,2310.2z"/>
		<path class="st1" d="M1815.7,2261.1l-13.9,9.9l4,5.6c2.3,3.4,5.8,7.7,9.2,12s6.8,8.7,9.4,11.9l4.5,5.2l13-11.1l-4.4-5
			c-2.6-3.1-5.8-7.3-9.1-11.5s-6.7-8.3-8.9-11.6L1815.7,2261.1z"/>
		<path class="st1" d="M1782.2,2207.3l-15,8.1c0,0,1.2,2.5,3.3,6l7.6,13.1c2.7,4.8,5.7,9.4,7.9,12.9l3.7,5.8l14.3-9.3l-3.6-5.6
			c-2.1-3.4-5.1-7.8-7.7-12.4l-7.3-12.7C1783.4,2209.7,1782.2,2207.3,1782.2,2207.3z"/>
		<path class="st1" d="M1756,2149.6l-16,6.1c0,0,1,2.6,2.5,6.4l2.6,6.6c1,2.4,1.9,5,3.1,7.5l9.1,20.1l15.4-7.4l-8.8-19.4
			c-1.2-2.4-2.1-4.9-3-7.2l-2.5-6.3L1756,2149.6z"/>
		<path class="st1" d="M1737.4,2089l-16.6,3.9c0,0,0.6,2.7,1.6,6.7c0.4,2,1.1,4.3,1.8,6.8s1.5,5.1,2.2,7.8s1.5,5.3,2.2,7.8
			s1.3,4.8,2.1,6.8l2.2,6.5l16.2-5.4l-2.1-6.3c-0.7-1.9-1.3-4.1-2-6.5s-1.4-5-2.1-7.5s-1.4-5.1-2.1-7.5s-1.3-4.6-1.8-6.6
			C1738,2091.6,1737.4,2089,1737.4,2089z"/>
		<path class="st1" d="M1726.7,2026.6l-17,1.8l2.8,21.8c0.8,5.4,1.9,10.9,2.6,14.9s1.2,6.8,1.2,6.8l16.8-3.2l-1.2-6.6
			c-0.7-3.9-1.7-9.1-2.5-14.4L1726.7,2026.6z"/>
		<path class="st1" d="M1724.1,1963.3l-17.1-0.4c0,0-0.1,2.8-0.2,6.9s0.1,9.6,0.2,15.1s0.3,11,0.4,15.1c0.3,4.1,0.5,6.9,0.5,6.9
			l17-1.1c0,0-0.2-2.7-0.5-6.6c-0.1-4-0.2-9.3-0.4-14.6s-0.4-10.6-0.2-14.6S1724.1,1963.3,1724.1,1963.3z"/>
		<path class="st1" d="M1729.4,1900.1l-16.9-2.5l-2.8,21.8c-0.4,2.7-0.5,5.5-0.7,8l-0.5,7l-0.5,6.9l17,1.1c0,0,0.2-2.7,0.5-6.6
			c0.2-2,0.3-4.3,0.5-6.8s0.3-5.2,0.7-7.8L1729.4,1900.1z"/>
		<path class="st1" d="M1742.9,1838.2l-16.4-4.7l-1.9,6.6c-0.6,2-1.3,4.3-1.9,6.8s-1.2,5.2-1.8,7.9c-1.2,5.4-2.5,10.7-3.4,14.8
			c-0.5,2-0.7,3.7-1,4.9s-0.3,1.9-0.3,1.9l16.8,3.2c0,0,0.1-0.7,0.3-1.8s0.4-2.8,0.9-4.7l3.3-14.3l1.8-7.6c0.6-2.4,1.3-4.7,1.8-6.6
			L1742.9,1838.2z"/>
		<path class="st1" d="M1764.1,1778.5l-15.7-6.8l-0.8,1.7c-0.5,1.1-1.2,2.7-1.9,4.6l-5.6,14.1c-1,2.6-2.1,5.1-2.9,7.6
			s-1.6,4.7-2.3,6.7l-2.2,6.5l16.2,5.4l2.1-6.3c0.6-1.9,1.4-4.1,2.2-6.5s1.8-4.8,2.8-7.3l5.4-13.6c0.7-1.9,1.3-3.4,1.8-4.4
			L1764.1,1778.5z"/>
		<path class="st1" d="M1792.9,1722.1l-14.7-8.7l-3.4,6l-3.5,6.1c-1.3,2.3-2.7,4.6-3.9,7.1l-10,19.6l15.4,7.4l9.7-18.9
			c1.2-2.4,2.6-4.7,3.8-6.8l3.4-5.9C1791.6,1724.4,1792.9,1722.1,1792.9,1722.1z"/>
		<path class="st1" d="M1828.8,1669.8l-13.4-10.5l-4.3,5.4c-2.6,3.2-5.7,7.8-8.9,12.2s-6.4,8.9-8.7,12.4l-3.7,5.8l14.3,9.3l3.6-5.6
			c2.2-3.3,5.4-7.6,8.4-12s6.1-8.7,8.7-11.8S1828.8,1669.8,1828.8,1669.8z"/>
		<path class="st1" d="M1870.8,1622.4l-12-12.1c0,0-2,1.8-4.8,4.9l-10.4,11c-3.9,3.9-7.4,8.2-10.1,11.3l-4.5,5.2l13,11.1l4.4-5
			c2.6-3,6-7.1,9.8-10.9l10.1-10.6C1868.8,1624.2,1870.8,1622.4,1870.8,1622.4z"/>
		<path class="st1" d="M1918.7,1580.9l-10.3-13.6l-5.4,4.3l-5.6,4.4c-2,1.6-4.3,3.2-6.3,5.1l-16.7,14.4l11.5,12.6l16.1-13.9
			c2-1.8,4.1-3.3,6.1-4.9l5.4-4.2L1918.7,1580.9z"/>
		<path class="st1" d="M1971.4,1545.8l-8.5-14.8l-6,3.4c-3.6,2-8.2,5-12.9,8s-9.3,5.9-12.7,8.2l-5.6,4l9.8,14l5.4-3.9
			c3.3-2.3,7.8-5.1,12.3-7.9s8.9-5.8,12.4-7.7L1971.4,1545.8z"/>
		<path class="st1" d="M2028.2,1517.6l-6.6-15.7l-1.8,0.7c-1.1,0.4-2.7,1.2-4.6,2l-13.8,6.2c-5.1,2.2-9.9,4.8-13.6,6.7l-6.1,3.1
			l7.9,15.1l5.9-3c3.6-1.8,8.2-4.4,13.1-6.4l13.3-6c1.8-0.8,3.3-1.5,4.4-2L2028.2,1517.6z"/>
		<path class="st1" d="M2088.1,1497.1l-4.5-16.4l-6.6,1.9l-6.8,1.9l-3.8,1.1l-3.9,1.3l-14.4,4.9l-4.7,1.6c-0.6,0.2-1.2,0.4-1.8,0.6
			l5.9,16c0.6-0.2,1.1-0.4,1.7-0.6l4.6-1.6l13.9-4.7l3.8-1.3l3.7-1.1l6.6-1.9L2088.1,1497.1z"/>
		<path class="st1" d="M2150.2,1484.4l-2.3-16.9l-6.8,0.9c-4.1,0.7-9.5,1.7-14.9,2.6s-10.9,1.8-14.9,2.9l-6.7,1.5l3.8,16.6l6.5-1.5
			c3.9-1,9.1-1.8,14.4-2.8s10.5-1.9,14.4-2.6L2150.2,1484.4z"/>
		<path class="st1" d="M2213.4,1479.8l-0.2-17.1l-22,0.6l-22,1.7l1.6,17l21.2-1.6L2213.4,1479.8z"/>
		<path class="st1" d="M2276.7,1483.2l2-16.9l-6.8-0.9c-4.1-0.4-9.6-0.8-15.1-1.2l-8.1-0.6l-3.7-0.3l-3.3-0.1l-6.9-0.2l-0.5,17.1
			l6.6,0.2c1,0,2.1,0,3.2,0.1l3.6,0.3l7.8,0.6c5.3,0.4,10.6,0.8,14.6,1.2L2276.7,1483.2z"/>
		<path class="st1" d="M2339,1494.5l4.1-16.5l-21.5-4.9l-21.7-3.9l-2.7,16.8l21,3.8L2339,1494.5z"/>
		<path class="st1" d="M2399.3,1513.9l6.2-15.9l-6.4-2.5c-1.9-0.7-4.1-1.7-6.6-2.5l-7.7-2.6l-14.4-4.9l-6.6-1.9l-4.9,16.3l6.4,1.8
			l13.9,4.7l7.4,2.5c2.4,0.8,4.5,1.7,6.4,2.4L2399.3,1513.9z"/>
		<path class="st1" d="M2456.7,1540.8l8.2-14.9l-1.6-0.9c-1-0.6-2.6-1.4-4.4-2.3l-13.5-6.9c-4.8-2.6-9.9-4.8-13.7-6.5l-6.3-2.8
			l-6.9,15.6l6.1,2.7c3.6,1.7,8.5,3.8,13.2,6.3l13,6.7c1.8,0.9,3.3,1.6,4.3,2.3L2456.7,1540.8z"/>
		<path class="st1" d="M2510.1,1574.9l10.1-13.8l-5.6-4l-5.8-4.1c-2.1-1.5-4.3-3.1-6.7-4.6l-18.5-11.9l-8.9,14.6l17.9,11.5
			c2.3,1.4,4.4,3,6.4,4.4l5.6,4L2510.1,1574.9z"/>
		<path class="st1" d="M2558.7,1615.6l11.7-12.4l-5-4.8c-2.9-2.9-7.2-6.4-11.3-10.1s-8.3-7.3-11.5-9.9l-5.4-4.3l-10.6,13.3l5.2,4.1
			c3.1,2.5,7.1,6.1,11.1,9.5s8.1,6.9,10.9,9.7L2558.7,1615.6z"/>
		<path class="st1" d="M2601.9,1662l13.2-10.8l-1.2-1.5c-0.7-1-1.9-2.2-3.2-3.8l-9.9-11.4c-3.5-4.2-7.4-8.1-10.3-11.1l-4.8-5
			l-12.3,11.9l4.6,4.8c2.7,2.9,6.5,6.7,9.9,10.8l9.6,11.1c1.3,1.5,2.4,2.8,3.1,3.7L2601.9,1662z"/>
		<path class="st1" d="M2638.6,1713.6l14.5-9l-3.7-5.8l-3.8-5.9c-1.4-2.2-2.8-4.5-4.5-6.7l-12.8-17.9l-13.7,10.2l12.3,17.3
			c1.6,2.1,2.9,4.4,4.3,6.5l3.6,5.8L2638.6,1713.6z"/>
		<path class="st1" d="M2668.5,1769.4l15.5-7.1l-2.8-6.3c-1.6-3.8-4.3-8.7-6.7-13.6s-5-9.8-7-13.4l-3.4-6l-14.9,8.4l3.3,5.8
			c1.9,3.5,4.3,8.3,6.7,13s5,9.4,6.5,13.1L2668.5,1769.4z"/>
		<path class="st1" d="M2691.1,1828.6l16.3-5c0,0-0.2-0.7-0.5-1.8s-0.9-2.8-1.6-4.7l-4.9-14.3l-1.3-3.9c-0.4-1.3-1-2.5-1.4-3.7
			l-2.6-6.6c-1.5-3.8-2.5-6.4-2.5-6.4l-15.8,6.4l2.4,6.2l2.5,6.3c0.4,1.2,1,2.3,1.4,3.6s0.8,2.5,1.3,3.8l4.7,13.9
			c0.6,1.9,1.2,3.5,1.6,4.6S2691.1,1828.6,2691.1,1828.6z"/>
		<path class="st1" d="M2705.7,1890.3l16.8-2.9l-1.2-6.8c-0.8-4.1-1.6-9.5-2.9-14.8s-2.5-10.7-3.4-14.8c-0.5-2-0.9-3.7-1.1-4.9
			l-0.5-1.8l-16.5,4.3l0.5,1.8c0.3,1.1,0.6,2.8,1.1,4.7c0.9,3.9,2.1,9.1,3.3,14.3s2.1,10.4,2.8,14.4S2705.7,1890.3,2705.7,1890.3z"
			/>
		<path class="st1" d="M2712.4,1953.3l17-0.7c0,0,0-0.7,0-1.9s0-2.9-0.2-5l-1.1-15.1c-0.2-2.7-0.4-5.5-0.6-8.1s-0.6-4.9-0.9-7
			c-0.5-4.1-0.9-6.8-0.9-6.8l-16.9,2.2c0,0,0.3,2.6,0.8,6.6c0.2,2,0.6,4.3,0.8,6.8s0.4,5.1,0.6,7.8c0.4,5.3,0.8,10.6,1.1,14.6
			c0.2,2,0.2,3.7,0.2,4.8S2712.4,1953.3,2712.4,1953.3z"/>
	</g>
	<g id="Setting">
		<path class="st1" d="M2121.3,2017.5c0.3-0.2,0.6-0.5,1-0.7l296.3-243.8c11.5-9.4,13.1-26.4,3.7-37.9c0,0,0,0,0,0l-25.7-31.2
			c-9.4-11.5-26.4-13.1-37.9-3.7c0,0,0,0,0,0L2062.4,1944c-0.3,0.3-0.6,0.6-0.9,0.8c-67.7-41.4-156.1-20-197.4,47.7
			c-21.6,35.4-26.9,78.3-14.5,117.9l113.2-93.1c11.5-9.4,28.5-7.8,37.9,3.7l34.2,41.6c9.4,11.5,7.8,28.4-3.7,37.9l-113.2,93.1
			c69.7,37.9,156.9,12.1,194.8-57.6C2132.6,2099.5,2135.7,2056.3,2121.3,2017.5L2121.3,2017.5z"/>
		<path class="st2" d="M2068.9,2065l-61.8-75.2c-9.4-11.5-26.4-13.1-37.9-3.7l-124.6,102.5c1.1,7.4,2.8,14.6,5,21.7l113.2-93.1
			c11.5-9.4,28.5-7.8,37.9,3.7l34.2,41.6c9.4,11.5,7.8,28.4-3.7,37.9l-113.3,93.1c7.8,4.2,16,7.7,24.4,10.4l122.9-101.1
			C2076.7,2093.4,2078.4,2076.5,2068.9,2065z"/>
		<path class="st3" d="M2425.9,1740.8c-1-2.1-2.2-4-3.6-5.8l-25.7-31.2c-1.5-1.8-3.1-3.3-5-4.6L2086,1950.7
			c-13.1,10.8-16.1,28.8-6.6,40.3s27.7,12.1,40.8,1.3L2425.9,1740.8z"/>
		
			<ellipse transform="matrix(0.7723 -0.6353 0.6353 0.7723 -568.6355 1908.0878)" class="st4" cx="2377.3" cy="1747.2" rx="22.2" ry="22.2"/>
	</g>
	<polygon class="st5" points="1912.8,1659.1 1906.8,1666.4 1900.7,1673.6 1934.8,1725.2 1964.7,1731.4 1964.7,1731.4 2253.4,1963.6 
		2271.8,1941.4 1983.2,1709.3 1971,1681.8 	"/>
	<path class="st6" d="M2554.8,2103.2c0,0-153.4-124.9-172.3-138.5s-29.2-4.2-29.2-4.2c-1.3-12.6-9.3-24.5-9.3-24.5
		s-36.2-28.4-47.1-35.6s-22.6-1-22.6-1l-32.8,36l0.5,0.4l-27.7,36.7c0,0-3.8,12.5,5.6,21.6s44.9,38.2,44.9,38.2s13.5,5.3,26.3,4.1
		c0,0-7.3,11.8,10.1,27.2s172.7,138,172.7,138s21.6,13.4,44-4.3s27.8-25.9,27.8-25.9l-0.6-0.5c5.3-7.8,10.1-16,14.3-24.4
		C2572.5,2121.3,2554.8,2103.2,2554.8,2103.2z"/>
	<path class="st1" d="M2561.6,2141.7c-14.5-4.5-32.4,1.3-44.3,15.6c-11.6,14-14,32-7.2,45c2.8-1.4,5.4-3.1,7.9-5
		c22.4-17.7,27.8-25.9,27.8-25.9l-0.6-0.5c5.3-7.8,10.1-16,14.3-24.4C2560.2,2144.9,2560.9,2143.3,2561.6,2141.7z"/>
	<path class="st7" d="M2353.4,1960.5c-1.3-12.6-9.3-24.5-9.3-24.5s-36.2-28.4-47.1-35.6s-22.6-1-22.6-1l-32.8,36l0.5,0.4l-0.1,0.1
		l299.3,240.7c1.6-1.6,3.1-3.4,4.4-5.3l-0.6-0.5c5.3-7.8,10.1-16,14.3-24.4c13.1-25.1-4.6-43.2-4.6-43.2s-153.4-124.9-172.3-138.5
		S2353.4,1960.5,2353.4,1960.5z"/>
	<path class="st8" d="M2496.9,2167.2c3.9,3.1,4.5,8.8,1.4,12.6c0,0-0.1,0.1-0.1,0.1l0,0c-3.3,3.9-9,4.4-13,1.3l-165.1-132.8
		c-3.9-3.1-4.5-8.8-1.4-12.7c0,0,0.1-0.1,0.1-0.1l0,0c3.3-3.9,9-4.4,13-1.3L2496.9,2167.2z"/>
	<path class="st8" d="M2531.3,2126c3.9,3.1,4.5,8.8,1.4,12.6c0,0-0.1,0.1-0.1,0.1l0,0c-3.3,3.9-9,4.4-13,1.3l-165.1-132.8
		c-3.9-3.1-4.5-8.8-1.4-12.7c0,0,0.1-0.1,0.1-0.1l0,0c3.3-3.9,9-4.5,13-1.3L2531.3,2126z"/>
	<polygon class="st8" points="2271.8,1941.4 1983.2,1709.3 1971,1681.8 1912.8,1659.1 1906.8,1666.4 2262.6,1952.5 	"/>
	<g id="Active">
		<g id="Active2">
			<path class="st9" d="M1686,2188c5,1.8,9.6,4.5,13.7,7.9l18.9-7.8l12.7,22l-15.8,13.1c0.9,5,0.9,10.2,0.2,15.2l16.5,12.7l-12.7,22
				l-19-7c-4,3.5-8.5,6.2-13.5,8.1l-2.7,20.1h-25.4l-3.4-19.8c-5-1.8-9.6-4.5-13.7-7.9l-18.9,7.8l-12.7-22l15.8-13.1
				c-0.5-2.7-0.7-5.4-0.7-8.1c0-2.4,0.2-4.8,0.6-7.1l-16.5-12.7l12.7-22l19,7c4-3.5,8.5-6.2,13.5-8.1l2.7-20.1h25.5L1686,2188z"/>
			<path class="st4" d="M1670.7,2263.8c17.9,0,32.5-14.5,32.5-32.5c0-17.9-14.5-32.5-32.5-32.5c-17.9,0-32.5,14.5-32.5,32.5l0,0
				C1638.2,2249.2,1652.7,2263.7,1670.7,2263.8z"/>
			<path class="st10" d="M1670.7,2253.2c12.1,0,21.9-9.8,21.9-21.9s-9.8-21.9-21.9-21.9c-12.1,0-21.9,9.8-21.9,21.9
				C1648.7,2243.4,1658.6,2253.2,1670.7,2253.2z"/>
		</g>
		<g id="Active1">
			<path class="st1" d="M1755.1,2275.2c3.8,1.4,7.4,3.4,10.5,6.1l14.6-6l9.8,17l-12.2,10.1c0.4,2.1,0.5,4.1,0.5,6.2
				c0,1.8-0.1,3.7-0.4,5.5l12.7,9.8l-9.8,17l-14.7-5.4c-3.1,2.7-6.6,4.8-10.4,6.3l-2.1,15.5h-19.6l-2.6-15.2
				c-3.8-1.4-7.4-3.4-10.5-6.1l-14.6,6l-9.8-17l12.2-10.1c-0.4-2.1-0.5-4.1-0.5-6.2c0-1.8,0.1-3.7,0.4-5.5l-12.7-9.8l9.8-17
				l14.6,5.4c3.1-2.7,6.6-4.8,10.4-6.3l2.1-15.5h19.6L1755.1,2275.2z"/>
			<path class="st4" d="M1743.3,2334c14.1,0,25.5-11.4,25.5-25.5c0-14.1-11.4-25.5-25.5-25.5c-14.1,0-25.5,11.4-25.5,25.5
				C1717.9,2322.6,1729.3,2334,1743.3,2334z"/>
			<path class="st10" d="M1743.3,2325.4c9.3,0,16.9-7.6,16.9-16.9c0-9.3-7.6-16.9-16.9-16.9c-9.3,0-16.9,7.6-16.9,16.9l0,0
				C1726.5,2317.9,1734,2325.4,1743.3,2325.4z"/>
		</g>
		<g id="Active-2">
			<path class="st1" d="M1790.3,2130.3c6,0.2,12,1.5,17.6,3.8l17.8-15.1l21.5,19.5l-12.6,19.8c1.4,2.7,2.6,5.6,3.6,8.5
				c0.8,2.6,1.5,5.3,1.9,8l22.4,8l-6.1,28.4l-23.1-1c-3.1,5.2-7.1,9.8-11.8,13.6l4.1,22.8l-27.6,8.9l-10.6-20.3
				c-6-0.2-12-1.5-17.6-3.8l-17.8,15.1l-21.5-19.5l12.6-19.8c-1.4-2.7-2.6-5.6-3.6-8.5c-0.8-2.6-1.5-5.3-1.9-8l-22.4-8l6.1-28.4
				l23.1,1c3.1-5.2,7.1-9.8,11.8-13.6l-4.1-22.8l27.6-8.9L1790.3,2130.3z"/>
			<path class="st4" d="M1788.8,2223.7c22.7,0,41.1-18.4,41.1-41.1c0-22.7-18.4-41.1-41.1-41.1c-22.7,0-41.1,18.4-41.1,41.1
				C1747.8,2205.3,1766.1,2223.7,1788.8,2223.7z"/>
			<path class="st10" d="M1796.5,2206.5c13.1-4.3,20.3-18.4,16.1-31.5s-18.4-20.3-31.5-16.1c-13.1,4.2-20.3,18.3-16.1,31.4
				C1769.2,2203.5,1783.3,2210.7,1796.5,2206.5z"/>
		</g>
	</g>
	<g id="Laptop">
		<rect x="1668.3" y="1586.7" class="st11" width="174.3" height="8.1"/>
		<path class="st12" d="M1885,1488.2h-262.2c-12,0-15.7,7.6-13.4,16.5c0-0.1,0-0.2,0-0.3c0,0.6,0,1.2,0.2,1.8l19,71.6
			c2.9,10.9,5.4,11.2,19.6,11.2h219.2c11.4,0,16.9,0,19.2-10.9l14.8-71.9c0.1-0.3,0.1-0.5,0.1-0.8l0,0l0.7-6.1
			C1903.2,1490.5,1891.7,1488.2,1885,1488.2z M1609.5,1503.4c0,0.2-0.1,0.3-0.1,0.5C1609.5,1503.7,1609.5,1503.5,1609.5,1503.4
			L1609.5,1503.4z M1610.1,1501.7c0,0.1-0.1,0.2-0.1,0.2C1610,1501.8,1610,1501.8,1610.1,1501.7L1610.1,1501.7z M1609.8,1502.5
			c0,0.1-0.1,0.3-0.1,0.4C1609.7,1502.7,1609.7,1502.6,1609.8,1502.5L1609.8,1502.5z M1620.5,1495.5c0.4,0,0.8-0.1,1.2-0.1
			C1621.3,1495.4,1620.9,1495.4,1620.5,1495.5L1620.5,1495.5z M1613.2,1498.2L1613.2,1498.2L1613.2,1498.2z M1614.1,1497.6l0.2-0.1
			L1614.1,1497.6z M1615,1497.1l0.3-0.1L1615,1497.1z M1616,1496.6l0.3-0.1L1616,1496.6z M1617.1,1496.2l0.4-0.1L1617.1,1496.2z
			 M1618.2,1495.9l0.5-0.1L1618.2,1495.9z M1619.3,1495.6l0.7-0.1L1619.3,1495.6z"/>
		<path class="st4" d="M1622.8,1488.2H1885c6.7,0,18.2,2.3,17.2,11.1l-0.7,6.1c-1-4.5-6.6-9.9-12.2-9.9h-267.7
			c-6,0-12.3,4.2-12.3,9.2C1607.1,1495.7,1610.8,1488.2,1622.8,1488.2z"/>
		<polygon class="st13" points="1622.7,1500.5 1889.6,1500.2 1875.2,1583.6 1639.5,1583.7 		"/>
		<path class="st14" d="M1635.8,1591.4h240.7c4,0,7.2,3.2,7.3,7.3v132.7c0,4-3.3,7.2-7.3,7.3h-240.7c-4,0-7.2-3.3-7.3-7.3v-132.7
			C1628.6,1594.7,1631.8,1591.4,1635.8,1591.4z"/>
		<path class="st7" d="M1883.8,1598.7c0-4-3.3-7.2-7.3-7.3h-20.3l-153.4,147.2h173.7c4,0,7.2-3.2,7.3-7.3V1598.7z"/>
		<rect x="1722.1" y="1693.8" class="st11" width="68.2" height="35.7"/>
		<rect x="1641.2" y="1603.8" class="st15" width="229.9" height="83.6"/>
		<path class="st15" d="M1783.9,1711.9c0,8.5-1.5,15.4-3.3,15.4H1730c-1.8,0-3.3-6.9-3.3-15.4l0,0c0-8.5,1.5-15.4,3.3-15.4h50.6
			C1782.4,1696.5,1783.9,1703.4,1783.9,1711.9L1783.9,1711.9z"/>
		<g id="Keyboard">
			<path class="st16" d="M1646.2,1608.8h10.7c0.7,0.1,1.2,0.8,1.1,1.5v11.5c0.1,0.7-0.4,1.4-1.1,1.5h-10.7c-0.7-0.1-1.2-0.8-1.2-1.5
				v-11.5C1645,1609.5,1645.5,1608.9,1646.2,1608.8z"/>
			<path class="st16" d="M1663.5,1608.8h10.7c0.7,0.1,1.2,0.8,1.2,1.5v11.5c0.1,0.7-0.4,1.4-1.2,1.5h-10.7c-0.7-0.1-1.2-0.8-1.2-1.5
				v-11.5C1662.3,1609.5,1662.8,1608.9,1663.5,1608.8z"/>
			<path class="st16" d="M1680.9,1608.8h10.7c0.7,0.1,1.2,0.8,1.2,1.5v11.5c0.1,0.7-0.4,1.4-1.2,1.5h-10.7c-0.7-0.1-1.2-0.8-1.2-1.5
				v-11.5C1679.6,1609.5,1680.1,1608.9,1680.9,1608.8z"/>
			<path class="st16" d="M1698.2,1608.8h10.7c0.7,0.1,1.2,0.8,1.2,1.5v11.5c0.1,0.7-0.4,1.4-1.2,1.5h-10.7c-0.7-0.1-1.2-0.8-1.2-1.5
				v-11.5C1696.9,1609.5,1697.5,1608.9,1698.2,1608.8z"/>
			<path class="st16" d="M1715.5,1608.8h10.7c0.7,0.1,1.2,0.8,1.2,1.5v11.5c0.1,0.7-0.4,1.4-1.2,1.5h-10.7c-0.7-0.1-1.2-0.8-1.2-1.5
				v-11.5C1714.3,1609.5,1714.8,1608.9,1715.5,1608.8z"/>
			<path class="st16" d="M1732.8,1608.8h10.7c0.7,0.1,1.2,0.8,1.2,1.5v11.5c0.1,0.7-0.4,1.4-1.2,1.5h-10.7c-0.7-0.1-1.2-0.8-1.2-1.5
				v-11.5C1731.6,1609.5,1732.1,1608.9,1732.8,1608.8z"/>
			<path class="st16" d="M1750.1,1608.8h10.7c0.7,0.1,1.2,0.8,1.2,1.5v11.5c0.1,0.7-0.4,1.4-1.2,1.5h-10.7c-0.7-0.1-1.2-0.8-1.2-1.5
				v-11.5C1748.9,1609.5,1749.4,1608.9,1750.1,1608.8z"/>
			<path class="st16" d="M1767.5,1608.8h10.7c0.7,0.1,1.2,0.8,1.2,1.5v11.5c0.1,0.7-0.4,1.4-1.2,1.5h-10.7c-0.7-0.1-1.2-0.8-1.2-1.5
				v-11.5C1766.2,1609.5,1766.7,1608.9,1767.5,1608.8z"/>
			<path class="st16" d="M1784.8,1608.8h10.6c0.7,0.1,1.2,0.8,1.2,1.5v11.5c0.1,0.7-0.4,1.4-1.2,1.5h-10.6c-0.7-0.1-1.2-0.8-1.2-1.5
				v-11.5C1783.6,1609.5,1784.1,1608.9,1784.8,1608.8z"/>
			<path class="st16" d="M1802.1,1608.8h10.6c0.7,0.1,1.2,0.8,1.2,1.5v11.5c0.1,0.7-0.4,1.4-1.2,1.5h-10.6c-0.7-0.1-1.2-0.8-1.2-1.5
				v-11.5C1800.9,1609.5,1801.4,1608.9,1802.1,1608.8z"/>
			<path class="st16" d="M1819.4,1608.8h10.7c0.7,0.1,1.2,0.8,1.2,1.5v11.5c0.1,0.7-0.4,1.4-1.2,1.5h-10.7c-0.7-0.1-1.2-0.8-1.2-1.5
				v-11.5C1818.2,1609.5,1818.7,1608.9,1819.4,1608.8z"/>
			<path class="st16" d="M1672.2,1628.9h10.6c0.7,0.1,1.2,0.8,1.2,1.5v11.5c0.1,0.7-0.4,1.4-1.2,1.5h-10.6c-0.7-0.1-1.2-0.8-1.2-1.5
				v-11.5C1671,1629.6,1671.5,1629,1672.2,1628.9z"/>
			<path class="st16" d="M1689.5,1628.9h10.7c0.7,0.1,1.2,0.8,1.2,1.5v11.5c0.1,0.7-0.4,1.4-1.2,1.5h-10.7c-0.7-0.1-1.2-0.8-1.2-1.5
				v-11.5C1688.3,1629.6,1688.8,1629,1689.5,1628.9z"/>
			<path class="st16" d="M1706.8,1628.9h10.7c0.7,0.1,1.2,0.8,1.2,1.5v11.5c0.1,0.7-0.4,1.4-1.2,1.5h-10.7c-0.7-0.1-1.2-0.8-1.1-1.5
				v-11.5C1705.6,1629.6,1706.1,1629,1706.8,1628.9z"/>
			<path class="st16" d="M1724.2,1628.9h10.7c0.7,0.1,1.2,0.8,1.2,1.5v11.5c0.1,0.7-0.4,1.4-1.2,1.5h-10.7c-0.7-0.1-1.2-0.8-1.2-1.5
				v-11.5C1723,1629.6,1723.5,1629,1724.2,1628.9z"/>
			<path class="st16" d="M1741.5,1628.9h10.7c0.7,0.1,1.2,0.8,1.1,1.5v11.5c0.1,0.7-0.4,1.4-1.1,1.5h-10.7c-0.7-0.1-1.2-0.8-1.2-1.5
				v-11.5C1740.3,1629.6,1740.8,1629,1741.5,1628.9z"/>
			<path class="st16" d="M1758.8,1628.9h10.7c0.7,0.1,1.2,0.8,1.2,1.5v11.5c0.1,0.7-0.4,1.4-1.2,1.5h-10.7c-0.7-0.1-1.2-0.8-1.2-1.5
				v-11.5C1757.6,1629.6,1758.1,1629,1758.8,1628.9z"/>
			<path class="st16" d="M1776.2,1628.9h10.7c0.7,0.1,1.2,0.8,1.2,1.5v11.5c0.1,0.7-0.4,1.4-1.2,1.5h-10.7c-0.7-0.1-1.2-0.8-1.2-1.5
				v-11.5C1774.9,1629.6,1775.4,1629,1776.2,1628.9z"/>
			<path class="st16" d="M1793.5,1628.9h10.7c0.7,0.1,1.2,0.8,1.1,1.5v11.5c0.1,0.7-0.4,1.4-1.1,1.5h-10.7c-0.7-0.1-1.2-0.8-1.2-1.5
				v-11.5C1792.2,1629.6,1792.7,1629,1793.5,1628.9z"/>
			<path class="st16" d="M1810.8,1628.9h10.7c0.7,0.1,1.2,0.8,1.2,1.5v11.5c0.1,0.7-0.4,1.4-1.2,1.5h-10.7c-0.7-0.1-1.2-0.8-1.2-1.5
				v-11.5C1809.6,1629.6,1810.1,1629,1810.8,1628.9z"/>
			<path class="st16" d="M1828.1,1628.9h10.7c0.7,0.1,1.2,0.8,1.2,1.5v11.5c0.1,0.7-0.4,1.4-1.2,1.5h-10.7c-0.7-0.1-1.2-0.8-1.2-1.5
				v-11.5C1826.9,1629.6,1827.4,1629,1828.1,1628.9z"/>
			<path class="st16" d="M1836.8,1608.8h10.6c0.7,0.1,1.2,0.8,1.2,1.5v11.5c0.1,0.7-0.4,1.4-1.2,1.5h-10.6c-0.7-0.1-1.2-0.8-1.2-1.5
				v-11.5C1835.5,1609.5,1836,1608.9,1836.8,1608.8z"/>
			<path class="st16" d="M1854.1,1608.8h10.7c0.7,0.1,1.2,0.8,1.2,1.5v11.5c0.1,0.7-0.4,1.4-1.2,1.5h-10.7c-0.7-0.1-1.2-0.8-1.2-1.5
				v-11.5C1852.8,1609.5,1853.4,1608.9,1854.1,1608.8z"/>
			<path class="st16" d="M1845.7,1628.9h19c0.7,0.1,1.2,0.8,1.2,1.5v11.5c0.1,0.7-0.4,1.4-1.2,1.5h-19c-0.7-0.1-1.2-0.8-1.2-1.5
				v-11.5C1844.5,1629.6,1845,1629,1845.7,1628.9z"/>
			<path class="st16" d="M1646.4,1628.9h19.7c0.7,0.1,1.2,0.8,1.2,1.5v11.5c0.1,0.7-0.4,1.4-1.2,1.5h-19.7c-0.7-0.1-1.2-0.8-1.2-1.5
				v-11.5C1645.1,1629.6,1645.7,1629,1646.4,1628.9z"/>
			<path class="st16" d="M1646.4,1648.9h23.6c0.7,0.1,1.2,0.8,1.2,1.5v11.5c0.1,0.7-0.4,1.4-1.2,1.5h-23.6c-0.7-0.1-1.2-0.8-1.2-1.5
				v-11.5C1645.2,1649.7,1645.7,1649,1646.4,1648.9L1646.4,1648.9z"/>
			<path class="st16" d="M1646.4,1669h10.6c0.7,0.1,1.2,0.8,1.2,1.5v11.5c0.1,0.7-0.4,1.4-1.2,1.5h-10.6c-0.7-0.1-1.2-0.8-1.2-1.5
				v-11.5C1645.1,1669.8,1645.7,1669.1,1646.4,1669L1646.4,1669z"/>
			<path class="st16" d="M1663.7,1669h10.6c0.7,0.1,1.2,0.8,1.2,1.5v11.5c0.1,0.7-0.4,1.4-1.2,1.5h-10.6c-0.7-0.1-1.2-0.8-1.2-1.5
				v-11.5C1662.5,1669.8,1663,1669.1,1663.7,1669L1663.7,1669z"/>
			<path class="st16" d="M1681,1669h10.6c0.7,0.1,1.2,0.8,1.2,1.5v11.5c0.1,0.7-0.4,1.4-1.2,1.5H1681c-0.7-0.1-1.2-0.8-1.2-1.5
				v-11.5C1679.8,1669.8,1680.3,1669.1,1681,1669z"/>
			<path class="st16" d="M1698.3,1669H1809c0.7,0.1,1.2,0.8,1.2,1.5v11.5c0.1,0.7-0.4,1.4-1.2,1.5h-110.7c-0.7-0.1-1.2-0.8-1.2-1.5
				v-11.5C1697,1669.8,1697.5,1669.1,1698.3,1669L1698.3,1669z"/>
			<path class="st16" d="M1676.4,1649.1h10.6c0.7,0.1,1.2,0.8,1.2,1.5v11.5c0.1,0.7-0.4,1.4-1.2,1.5h-10.6c-0.7-0.1-1.2-0.8-1.2-1.5
				v-11.5C1675.1,1649.9,1675.6,1649.2,1676.4,1649.1z"/>
			<path class="st16" d="M1693.7,1649.1h10.7c0.7,0.1,1.2,0.8,1.2,1.5v11.5c0.1,0.7-0.4,1.4-1.2,1.5h-10.7c-0.7-0.1-1.2-0.8-1.2-1.5
				v-11.5C1692.5,1649.9,1693,1649.2,1693.7,1649.1z"/>
			<path class="st16" d="M1711,1649.1h10.7c0.7,0.1,1.2,0.8,1.2,1.5v11.5c0.1,0.7-0.4,1.4-1.2,1.5H1711c-0.7-0.1-1.2-0.8-1.1-1.5
				v-11.5C1709.8,1649.9,1710.3,1649.2,1711,1649.1z"/>
			<path class="st16" d="M1728.3,1649.1h10.7c0.7,0.1,1.2,0.8,1.2,1.5v11.5c0.1,0.7-0.4,1.4-1.2,1.5h-10.6c-0.7-0.1-1.2-0.8-1.2-1.5
				v-11.5C1727.1,1649.9,1727.6,1649.2,1728.3,1649.1L1728.3,1649.1z"/>
			<path class="st16" d="M1745.6,1649.1h10.7c0.7,0.1,1.2,0.8,1.1,1.5v11.5c0.1,0.7-0.4,1.4-1.1,1.5h-10.7c-0.7-0.1-1.2-0.8-1.2-1.5
				v-11.5C1744.4,1649.9,1744.9,1649.2,1745.6,1649.1z"/>
			<path class="st16" d="M1763,1649.1h10.7c0.7,0.1,1.2,0.8,1.2,1.5v11.5c0.1,0.7-0.4,1.4-1.2,1.5H1763c-0.7-0.1-1.2-0.8-1.2-1.5
				v-11.5C1761.8,1649.9,1762.3,1649.2,1763,1649.1z"/>
			<path class="st16" d="M1780.3,1649.1h10.7c0.7,0.1,1.2,0.8,1.2,1.5v11.5c0.1,0.7-0.4,1.4-1.2,1.5h-10.7c-0.7-0.1-1.2-0.8-1.2-1.5
				v-11.5C1779.1,1649.9,1779.6,1649.2,1780.3,1649.1z"/>
			<path class="st16" d="M1797.6,1649.1h10.7c0.7,0.1,1.2,0.8,1.1,1.5v11.5c0.1,0.7-0.4,1.4-1.1,1.5h-10.7c-0.7-0.1-1.2-0.8-1.2-1.5
				v-11.5C1796.4,1649.9,1796.9,1649.2,1797.6,1649.1z"/>
			<path class="st16" d="M1814.9,1649.1h19.8c0.7,0.1,1.2,0.8,1.2,1.5v11.5c0.1,0.7-0.4,1.4-1.2,1.5h-19.8c-0.7-0.1-1.2-0.8-1.2-1.5
				v-11.5C1813.7,1649.9,1814.2,1649.2,1814.9,1649.1z"/>
			<path class="st16" d="M1841,1648.9h23.6c0.7,0.1,1.2,0.8,1.2,1.5v11.5c0.1,0.7-0.4,1.4-1.2,1.5H1841c-0.7-0.1-1.2-0.8-1.2-1.5
				v-11.5C1839.8,1649.7,1840.3,1649,1841,1648.9z"/>
			<path class="st16" d="M1843.2,1669h8.8c0.3,0,0.4,0.2,0.4,0.5v4c0,0.3-0.2,0.5-0.4,0.5h-8.9c-0.2,0-0.4-0.3-0.4-0.5v-4
				C1842.7,1669.3,1842.9,1669,1843.2,1669L1843.2,1669z"/>
			<path class="st16" d="M1843.2,1677.7h8.8c0.3,0,0.4,0.3,0.4,0.5v3.9c0,0.3-0.2,0.5-0.4,0.5h-8.9c-0.2,0-0.4-0.2-0.4-0.5v-3.9
				C1842.7,1677.9,1842.9,1677.7,1843.2,1677.7L1843.2,1677.7z"/>
			<path class="st16" d="M1830,1677.7h8.9c0.3,0,0.4,0.3,0.4,0.5v3.9c0,0.3-0.2,0.5-0.4,0.5h-8.9c-0.2,0-0.4-0.3-0.4-0.5v-3.9
				C1829.6,1677.9,1829.8,1677.7,1830,1677.7z"/>
			<path class="st16" d="M1856.3,1677.7h8.9c0.3,0,0.4,0.3,0.4,0.5v3.9c0,0.2-0.2,0.5-0.4,0.5h-8.9c-0.3,0-0.4-0.3-0.4-0.5v-3.9
				C1855.9,1677.9,1856,1677.7,1856.3,1677.7z"/>
			<path class="st16" d="M1814.5,1669h10.7c0.7,0.1,1.2,0.8,1.2,1.5v11.5c0.1,0.7-0.4,1.4-1.2,1.5h-10.7c-0.7-0.1-1.2-0.8-1.2-1.5
				v-11.5C1813.3,1669.8,1813.8,1669.1,1814.5,1669L1814.5,1669z"/>
		</g>
		<g id="Light">
			<polygon class="st10" points="1785.7,1500.2 1729.4,1500.2 1670.5,1583.6 1705.5,1584.9 			"/>
			<polygon class="st10" points="1813.5,1500.2 1740.2,1583.6 1748.1,1583.6 1840.5,1500.2 			"/>
		</g>
	</g>
	<path class="st2" d="M2789.9,2149.3h-167.1c-6.7,0-12.1,5.4-12.1,12.1v180.6c0,3.9,1.9,7.6,5.1,9.8l0,0c0.3,0.2,0.6,0.4,1,0.6h0.1
		c0.3,0.2,0.7,0.4,1,0.5l0.1,0.1c0.3,0.1,0.6,0.3,1,0.4l0.2,0.1c0.3,0.1,0.6,0.2,0.9,0.3l0.3,0.1c0.3,0.1,0.6,0.1,0.9,0.1h0.3
		c0.4,0,0.9,0.1,1.3,0.1h167.1c6.7,0,12.1-5.4,12.1-12.1v-180.5C2802.1,2154.7,2796.6,2149.3,2789.9,2149.3
		C2789.9,2149.3,2789.9,2149.3,2789.9,2149.3z"/>
	<g id="Envelop">
		<g id="Envelop-2">
			<path class="st17" d="M2790.8,2333.9c0,6.7-5.4,12.1-12.1,12.1h-167.1c-6.7,0-12.1-5.4-12.1-12.1v-180.6
				c0-6.7,5.4-12.1,12.1-12.1h167.1c6.7,0,12.1,5.4,12.1,12.1V2333.9z"/>
			<path class="st18" d="M2603.8,2243.6h187l-68.4,49c0,0-55.6,12.6-65.2,5.6s-44-30.3-44-30.3L2603.8,2243.6z"/>
			<rect x="2617.8" y="2158.3" class="st19" width="154.6" height="169.3"/>
			<path class="st1" d="M2603.8,2243.6h-4.3v90.3c0,6.7,5.4,12.1,12.1,12.1h167.1c6.7,0,12.1-5.4,12.1-12.1v-90.3l-95.7,51.2
				L2603.8,2243.6z"/>
			<path class="st7" d="M2611.6,2346.1h167.1c6.7,0,12.1-5.4,12.1-12.1v-90.3l-95.7,51.2l-92.4,47.3
				C2605,2344.6,2608.2,2346.1,2611.6,2346.1z"/>
		</g>
		<g id="Text" class="st20">
			<rect x="2636.5" y="2174.4" class="st21" width="124.3" height="4.6"/>
			<rect x="2636.5" y="2182.5" class="st21" width="124.3" height="4.5"/>
			<rect x="2636.5" y="2191.1" class="st21" width="124.3" height="4.6"/>
			<rect x="2636.5" y="2199.4" class="st21" width="124.3" height="4.5"/>
			<rect x="2636.5" y="2210.1" class="st21" width="124.3" height="4.5"/>
			<rect x="2636.5" y="2222.7" class="st21" width="124.3" height="4.5"/>
			<rect x="2636.5" y="2231.5" class="st21" width="124.3" height="4.5"/>
			<rect x="2636.5" y="2239.9" class="st21" width="124.3" height="4.6"/>
			<rect x="2636.5" y="2249.5" class="st21" width="124.3" height="4.6"/>
		</g>
	</g>
	<g id="Mouse">
		<ellipse class="st22" cx="2213.5" cy="1496.8" rx="99" ry="144.4"/>
		<ellipse class="st23" cx="2213.5" cy="1496.8" rx="93.7" ry="136.7"/>
		<path class="st24" d="M2224.1,1445.6c0,6.7-5.5,12.2-12.2,12.2l0,0c-6.7,0-12.2-5.5-12.2-12.2v-33.1c0-6.7,5.5-12.2,12.2-12.2l0,0
			c6.7,0,12.2,5.5,12.2,12.2V1445.6z"/>
		<path class="st25" d="M2222.8,1443.8c0,6-4.9,10.9-10.9,10.9l0,0l0,0c-6,0-10.9-4.9-10.9-10.9v0v-29.4c0-6,4.9-10.9,10.9-10.9
			c0,0,0,0,0,0l0,0c6,0,10.9,4.9,10.9,10.8c0,0,0,0,0,0V1443.8z"/>
		<path class="st8" d="M2312.5,1496.8c0-79.8-44.3-144.4-99-144.4v288.8C2268.2,1641.2,2312.5,1576.5,2312.5,1496.8z"/>
	</g>
	<g id="Phone">
		<path class="st26" d="M2512.9,1554.2c0,2-1.6,3.6-3.6,3.6l0,0c-2,0-3.6-1.6-3.6-3.6v-22.9c0-2,1.6-3.5,3.6-3.6l0,0
			c2,0,3.6,1.6,3.6,3.6V1554.2z"/>
		<path class="st26" d="M2512.9,1592.9c0,2-1.6,3.6-3.6,3.6c0,0,0,0,0,0l0,0c-2,0-3.5-1.6-3.6-3.6V1570c0-2,1.6-3.5,3.6-3.6l0,0
			c2,0,3.6,1.6,3.6,3.5v0V1592.9z"/>
		<path class="st26" d="M2710.7,1588.7c0,2-1.6,3.6-3.6,3.6l0,0c-2,0-3.6-1.6-3.6-3.6v0v-22.9c0-2,1.6-3.6,3.6-3.6l0,0
			c2,0,3.5,1.6,3.6,3.6V1588.7z"/>
		<path class="st6" d="M2707.4,1812.6c0,10.5-8.5,19-19,19h-159.1c-10.5,0-19-8.5-19-19v-288.8c0-10.5,8.5-19,19-19l0,0h159.2
			c10.5,0,19,8.5,19,19l0,0L2707.4,1812.6z"/>
		<rect x="2529.8" y="1532.1" class="st14" width="158.1" height="253.3"/>
		<path class="st15" d="M2614.6,1517.2c0,1.3-1.1,2.4-2.4,2.4h-33.8c-1.3,0-2.4-1.1-2.4-2.4l0,0c0-1.3,1.1-2.4,2.4-2.4h33.8
			C2613.6,1514.8,2614.6,1515.8,2614.6,1517.2z"/>
		<path class="st15" d="M2625.9,1517.2c0,1.3-1.1,2.4-2.4,2.4c0,0,0,0,0,0h-2.2c-1.3,0-2.4-1.1-2.4-2.4c0,0,0,0,0,0l0,0
			c0-1.3,1.1-2.4,2.4-2.4h2.2C2624.8,1514.8,2625.9,1515.8,2625.9,1517.2z"/>
		<path class="st1" d="M2617,1620.5l10.7,10.7l-35,34.9l-10.7-10.7c-6.1,7.1-8,15.5-4,19.5l2.6,2.6c4.3,4.3,13.9,1.8,21.3-5.6
			l31.6-31.6c7.4-7.4,9.9-16.9,5.6-21.3l-2.6-2.6C2632.5,1612.5,2624.1,1614.3,2617,1620.5z"/>
		<path class="st27" d="M2571.8,1699.8c1-0.2,2-0.3,3-0.3c1.2-0.1,2.5,0.2,3.5,0.9c0.7,0.5,1.1,1.4,1.1,2.3c0,1.3-0.9,2.4-2.2,2.8
			l0,0c1.5,0.3,2.6,1.6,2.6,3.2c0,1-0.4,1.9-1.1,2.6c-0.9,0.8-2.3,1.2-4.4,1.2c-0.9,0-1.7,0-2.6-0.2V1699.8z M2573.5,1705h1.5
			c1.8,0,2.8-0.9,2.8-2.1c0-1.5-1.1-2.1-2.8-2.1c-0.5,0-1,0-1.5,0.1L2573.5,1705z M2573.5,1711.2c0.5,0.1,0.9,0.1,1.4,0.1
			c1.7,0,3.3-0.6,3.3-2.5s-1.5-2.5-3.3-2.5h-1.4L2573.5,1711.2z"/>
		<path class="st27" d="M2589.7,1709.9c0,1,0,1.8,0.1,2.5h-1.5l-0.1-1.5l0,0c-0.6,1.1-1.8,1.7-3,1.7c-1.4,0-3.2-0.8-3.2-4v-5.4h1.7
			v5.1c0,1.8,0.5,2.9,2.1,2.9c1,0,1.8-0.6,2.2-1.5c0.1-0.3,0.2-0.6,0.1-0.8v-5.6h1.7L2589.7,1709.9z"/>
		<path class="st27" d="M2592.3,1710.7c0.7,0.4,1.4,0.6,2.2,0.7c1.2,0,1.8-0.6,1.8-1.4s-0.5-1.2-1.7-1.7c-1.6-0.6-2.4-1.5-2.4-2.6
			c0-1.5,1.2-2.7,3.2-2.7c0.8,0,1.6,0.2,2.3,0.6l-0.4,1.2c-0.6-0.3-1.2-0.5-1.9-0.5c-1,0-1.5,0.6-1.5,1.3s0.6,1.1,1.7,1.6
			c1.6,0.6,2.4,1.4,2.4,2.8c0,1.6-1.3,2.8-3.4,2.8c-0.9,0-1.8-0.2-2.6-0.6L2592.3,1710.7z"/>
		<path class="st27" d="M2601.9,1700.7c0,0.6-0.5,1-1,1s-1-0.5-1-1l0,0c0-0.6,0.4-1,1-1C2601.4,1699.6,2601.8,1700.1,2601.9,1700.7
			C2601.9,1700.6,2601.9,1700.6,2601.9,1700.7z M2600,1712.4v-9.2h1.7v9.2H2600z"/>
		<path class="st27" d="M2604.5,1705.7c0-1,0-1.7-0.1-2.5h1.5l0.1,1.5l0,0c0.6-1.1,1.8-1.7,3-1.7c1.3,0,3.3,0.8,3.3,3.9v5.5h-1.7
			v-5.3c0-1.5-0.6-2.7-2.1-2.7c-1,0-2,0.7-2.2,1.7c-0.1,0.2-0.1,0.5-0.1,0.8v5.5h-1.7L2604.5,1705.7z"/>
		<path class="st27" d="M2615,1705.7c0-1,0-1.7-0.1-2.5h1.5l0.1,1.5l0,0c0.6-1.1,1.8-1.7,3-1.7c1.3,0,3.2,0.8,3.2,3.9v5.5h-1.7v-5.3
			c0-1.5-0.6-2.7-2.1-2.7c-1,0-2,0.7-2.2,1.7c-0.1,0.2-0.1,0.5-0.1,0.8v5.5h-1.6V1705.7z"/>
		<path class="st27" d="M2626.4,1708.1c-0.1,1.6,1.1,3,2.7,3.2c0.2,0,0.3,0,0.5,0c0.9,0,1.7-0.1,2.5-0.5l0.3,1.2
			c-1,0.4-2,0.6-3.1,0.6c-2.3,0.1-4.4-1.6-4.5-4c0-0.2,0-0.4,0-0.6c0-2.8,1.6-4.9,4.3-4.9c3,0,3.8,2.6,3.8,4.3c0,0.3,0,0.5-0.1,0.8
			L2626.4,1708.1z M2631.3,1706.9c0.2-1.3-0.7-2.5-2-2.7c-0.1,0-0.2,0-0.3,0c-1.4,0.1-2.5,1.3-2.6,2.7H2631.3z"/>
		<path class="st27" d="M2634.8,1710.7c0.7,0.4,1.4,0.6,2.2,0.7c1.2,0,1.8-0.6,1.8-1.4s-0.5-1.2-1.7-1.7c-1.6-0.6-2.4-1.5-2.4-2.6
			c0-1.5,1.2-2.7,3.2-2.7c0.8,0,1.6,0.2,2.3,0.6l-0.4,1.2c-0.6-0.3-1.2-0.5-1.9-0.5c-1,0-1.5,0.6-1.5,1.3s0.6,1.1,1.7,1.6
			c1.6,0.6,2.4,1.4,2.4,2.8c0,1.6-1.3,2.8-3.4,2.8c-0.9,0-1.8-0.2-2.6-0.6L2634.8,1710.7z"/>
		<path class="st27" d="M2573.5,1722.4v12.8h-1.6v-12.8H2573.5z"/>
		<path class="st27" d="M2576.5,1728.5c0-0.9,0-1.7-0.1-2.5h1.5l0.1,1.5l0,0c0.6-1.1,1.8-1.8,3-1.7c1.3,0,3.2,0.8,3.2,3.9v5.5h-1.7
			v-5.3c0-1.5-0.6-2.7-2.1-2.7c-1,0-1.9,0.7-2.2,1.7c-0.1,0.3-0.1,0.5-0.1,0.8v5.5h-1.7L2576.5,1728.5z"/>
		<path class="st27" d="M2593.6,1734.8c-0.8,0.4-1.7,0.5-2.6,0.5c-2.4,0.1-4.5-1.7-4.6-4.2c0-0.2,0-0.4,0-0.5
			c-0.1-2.6,1.9-4.8,4.4-4.9c0.2,0,0.3,0,0.5,0c0.8,0,1.6,0.2,2.3,0.5l-0.4,1.3c-0.6-0.3-1.3-0.5-1.9-0.4c-1.9,0.1-3.4,1.7-3.3,3.6
			c0.1,1.8,1.5,3.2,3.2,3.3c0.7,0,1.4-0.2,2.1-0.5L2593.6,1734.8z"/>
		<path class="st27" d="M2603.7,1730.5c0.2,2.5-1.6,4.6-4.1,4.9c-0.2,0-0.3,0-0.5,0c-2.5,0-4.4-1.8-4.4-4.7c0-3.1,2-4.9,4.6-4.9
			S2603.7,1727.7,2603.7,1730.5z M2596.4,1730.6c0,2,1.2,3.5,2.8,3.5s2.8-1.5,2.8-3.6c0-1.6-0.8-3.5-2.8-3.5
			S2596.4,1728.9,2596.4,1730.6z"/>
		<path class="st27" d="M2605.8,1728.5c0-0.9,0-1.7-0.1-2.5h1.5l0.1,1.5h0.1c0.6-1.1,1.7-1.7,2.9-1.7c1.2,0,2.2,0.7,2.6,1.8l0,0
			c0.2-0.5,0.6-0.9,1-1.2c0.6-0.4,1.3-0.7,2-0.6c1.2,0,3,0.8,3,4v5.4h-1.6v-5.2c0-1.8-0.6-2.8-2-2.8c-0.9,0-1.7,0.6-2,1.5
			c-0.1,0.3-0.1,0.6-0.1,0.8v5.7h-1.6v-5.5c0-1.5-0.6-2.5-1.9-2.5c-1,0.1-1.8,0.7-2.1,1.7c-0.1,0.3-0.1,0.5-0.1,0.8v5.5h-1.6
			L2605.8,1728.5z"/>
		<path class="st27" d="M2623.5,1723.4c0,0.6-0.4,1-1,1c0,0,0,0-0.1,0c-0.6,0-1-0.4-1-1s0.4-1,1-1
			C2623,1722.4,2623.5,1722.8,2623.5,1723.4C2623.5,1723.4,2623.5,1723.4,2623.5,1723.4z M2621.6,1735.2v-9.2h1.7v9.2L2621.6,1735.2
			z"/>
		<path class="st27" d="M2626.1,1728.5c0-0.9,0-1.7-0.1-2.5h1.5l0.1,1.5l0,0c0.6-1.1,1.8-1.8,3-1.7c1.3,0,3.3,0.8,3.3,3.9v5.5h-1.7
			v-5.3c0-1.5-0.6-2.7-2.1-2.7c-1,0-2,0.7-2.2,1.7c-0.1,0.3-0.1,0.5-0.1,0.8v5.5h-1.7L2626.1,1728.5z"/>
		<path class="st27" d="M2644.5,1726c0,0.7-0.1,1.4-0.1,2.5v5.3c0,2.1-0.4,3.4-1.3,4.2c-0.9,0.8-2.1,1.2-3.3,1.1c-1,0-2.1-0.2-3-0.8
			l0.4-1.3c0.8,0.5,1.7,0.7,2.7,0.7c1.7,0,3-0.9,3-3.2v-1l0,0c-0.6,1-1.7,1.6-2.9,1.5c-2.3,0-3.9-1.9-3.9-4.5c0-3.1,2-4.9,4.1-4.9
			c1.2-0.1,2.3,0.6,2.9,1.6l0,0l0.1-1.4L2644.5,1726z M2642.8,1729.6c0-0.3,0-0.5-0.1-0.8c-0.3-1-1.2-1.8-2.3-1.8
			c-1.6,0-2.7,1.3-2.7,3.5c0,1.8,0.9,3.3,2.7,3.3c1.1,0,2-0.7,2.3-1.7c0.1-0.3,0.1-0.6,0.1-0.9L2642.8,1729.6z"/>
		<path class="st27" d="M2580.8,1757.6c-1.1,0.4-2.2,0.6-3.4,0.6c-3.6,0-6.3-2.3-6.3-6.5c-0.2-3.5,2.5-6.5,6-6.7c0.2,0,0.5,0,0.7,0
			c1,0,2.1,0.2,3,0.6l-0.4,1.3c-0.8-0.4-1.7-0.5-2.6-0.5c-3,0-5,1.9-5,5.3c0,3.1,1.8,5.1,4.9,5.1c0.9,0,1.8-0.2,2.7-0.5
			L2580.8,1757.6z"/>
		<path class="st27" d="M2585,1753.9l-1.3,4h-1.7l4.3-12.8h2l4.4,12.8h-1.8l-1.4-4H2585z M2589.2,1752.6l-1.2-3.7
			c-0.3-0.8-0.5-1.6-0.7-2.3l0,0c-0.2,0.8-0.4,1.5-0.6,2.3l-1.3,3.7H2589.2z"/>
		<path class="st27" d="M2594.5,1745.2h1.6v11.4h5.5v1.4h-7.1L2594.5,1745.2z"/>
		<path class="st27" d="M2603.5,1745.2h1.6v11.4h5.5v1.4h-7.1L2603.5,1745.2z"/>
		<path class="st27" d="M2616,1757c0-0.6,0.4-1.1,1-1.2c0,0,0.1,0,0.1,0c0.7,0.1,1.1,0.6,1.1,1.3c-0.1,0.6-0.5,1-1.1,1.1
			c-0.6,0-1.1-0.5-1.1-1.1C2616,1757.1,2616,1757,2616,1757z"/>
		<path class="st27" d="M2619.9,1757c0-0.6,0.4-1.1,1-1.2c0,0,0.1,0,0.1,0c0.7,0.1,1.1,0.6,1.1,1.3c-0.1,0.6-0.5,1-1.1,1.1
			C2620.4,1758.2,2619.9,1757.7,2619.9,1757C2619.9,1757.1,2619.9,1757,2619.9,1757z"/>
		<path class="st27" d="M2623.8,1757c0-0.6,0.4-1.1,1-1.2c0,0,0.1,0,0.1,0c0.7,0.1,1.1,0.6,1.1,1.3c-0.1,0.6-0.5,1-1.1,1.1
			c-0.6,0-1.1-0.5-1.1-1.1C2623.8,1757.1,2623.8,1757,2623.8,1757z"/>
	</g>
	<g id="Blooming">
		<path class="st17" d="M2247.2,2573.4c-15.4-13.6-8.4-45.2-8.4-45.2h-45.8c0,0,7,31.6-8.4,45.2c-9.3,8.1-21,12.9-33.3,13.6v7.6
			h129.1v-7.6C2268.2,2586.3,2256.5,2581.5,2247.2,2573.4z"/>
		<rect x="2151.4" y="2586.9" class="st28" width="129.1" height="7.6"/>
		<path class="st29" d="M2386.6,2507.9c0,11.2-9.1,20.3-20.3,20.3c0,0,0,0,0,0h-300.6c-11.2,0-20.3-9.1-20.3-20.3l0,0v-166.1
			c0-11.2,9.1-20.3,20.3-20.3h300.6c11.2,0,20.3,9.1,20.3,20.3V2507.9z"/>
		<path class="st30" d="M2045.4,2341.8v166.1c0,3.8,1.1,7.5,3.1,10.7h335.1c2-3.2,3.1-6.9,3.1-10.7v-166.1c0-5.1-1.9-9.9-5.3-13.6
			h-330.6C2047.3,2331.8,2045.4,2336.7,2045.4,2341.8z"/>
		<rect x="2060.1" y="2335" class="st31" width="311.9" height="176.5"/>
		<rect x="2091" y="2448" class="st1" width="33.3" height="63.6"/>
		<rect x="2147.5" y="2428.8" class="st1" width="33.3" height="82.7"/>
		<rect x="2204.5" y="2388.4" class="st1" width="33.3" height="123.1"/>
		<rect x="2264" y="2367.3" class="st1" width="33.3" height="144.3"/>
		<rect x="2320.8" y="2345" class="st1" width="33.3" height="163.6"/>
		<polygon class="st6" points="2082.3,2473.5 2079.2,2469.4 2176,2396.8 2279.7,2386 2352.8,2342.8 2355.4,2347.2 2281.4,2390.9 
			2177.9,2401.7 		"/>
		<circle class="st32" cx="2080.7" cy="2471.4" r="8.3"/>
		<circle class="st32" cx="2176.9" cy="2399.3" r="8.3"/>
		<circle class="st32" cx="2280.5" cy="2388.4" r="8.3"/>
		<circle class="st32" cx="2354.1" cy="2345" r="8.3"/>
	</g>
</g>
<circle id="Background_2-2" class="st33" cx="712.2" cy="2035.6" r="532"/>
<g id="Data_Security">
	<g id="Data">
		<rect x="696.7" y="1827.3" class="st5" width="31" height="533.2"/>
		<rect x="445.6" y="2363.3" class="st5" width="533.2" height="31.1"/>
		<path class="st23" d="M960.7,1886c0,32.4-26.3,58.7-58.7,58.7l0,0H522.3c-32.4,0-58.7-26.3-58.7-58.7l0,0l0,0
			c0-32.4,26.3-58.7,58.7-58.7h0h379.7C934.5,1827.3,960.7,1853.6,960.7,1886L960.7,1886z"/>
		<path class="st23" d="M960.7,2042.3c0,32.4-26.3,58.7-58.7,58.7H522.3c-32.4,0-58.7-26.3-58.7-58.7l0,0l0,0
			c0-32.4,26.3-58.7,58.6-58.7c0,0,0,0,0,0h379.7C934.5,1983.6,960.7,2009.8,960.7,2042.3C960.7,2042.2,960.7,2042.3,960.7,2042.3
			L960.7,2042.3z"/>
		<path class="st23" d="M960.7,2203.1c0,32.4-26.3,58.7-58.7,58.7c0,0,0,0,0,0H522.3c-32.4,0-58.7-26.3-58.7-58.6c0,0,0,0,0,0l0,0
			c0-32.4,26.3-58.7,58.7-58.7c0,0,0,0,0,0h379.7C934.5,2144.4,960.7,2170.6,960.7,2203.1C960.7,2203,960.7,2203.1,960.7,2203.1z"/>
		<rect x="618.3" y="2363.3" class="st7" width="187.2" height="31.1"/>
		<rect x="622.2" y="2353.2" class="st5" width="180" height="51.2"/>
		<rect x="432.2" y="2288.8" class="st5" width="51.2" height="180"/>
		<rect x="943.6" y="2288.8" class="st5" width="51.2" height="180"/>
		<circle class="st1" cx="541.4" cy="1883.2" r="20.4"/>
		<circle class="st1" cx="889.4" cy="1883.2" r="20.4"/>
		<circle class="st1" cx="897.8" cy="2046.4" r="20.4"/>
		<circle class="st1" cx="897.8" cy="2203.1" r="20.4"/>
		<circle class="st1" cx="541.4" cy="2046.4" r="20.4"/>
		<circle class="st1" cx="541.4" cy="2203.1" r="20.4"/>
	</g>
	<g id="Security">
		<path class="st34" d="M211.4,1612.8l-161.1,69.6V1855c0,0,9.5,120.2,161.1,186.9c151.6-66.8,161.1-186.9,161.1-186.9v-172.6
			L211.4,1612.8z"/>
		<path class="st1" d="M211.4,1656.6L83.3,1712v137.3c0,0,7.6,95.6,128.2,148.7c120.6-53.1,128.2-148.7,128.2-148.7V1712
			L211.4,1656.6z"/>
		<path class="st35" d="M372.6,1855v-172.6l-161.1-69.6v429.1C363.1,1975.1,372.6,1855,372.6,1855z"/>
		<polygon class="st23" points="210.8,1866.5 312,1780 296.8,1762.3 212.9,1833.9 178.1,1794.8 160.6,1810.3 210.6,1866.5 
			210.7,1866.6 210.7,1866.6 210.7,1866.6 		"/>
	</g>
	<g id="Globe">
		<g id="Globe-2">
			<circle class="st36" cx="733.9" cy="1538.1" r="158.8"/>
			<path class="st31" d="M825.3,1618.6c-1,0-2.2-1.9-3.5-3.1s-8.3,0.3-10,0.3s-2.5-0.7-4.1-1.7s-3.2,0.2-4.4,0.5s-1.7-0.8-1-2.1
				s-2.5-1-4.9-0.5s-1.5,1.7-3.4,1s2.3-2.9,3.7-4.6s-0.3-4.5-1.1-4.8s-2.3-2.7-4.8-4.6s-4.2-0.5-7.1-0.5s-3.5-1.3-4.9-2.3
				s-0.9-3-6.3-5.8s-3.1-1.3-2.7-1.8s0.9-0.5-1-1.3s-3.4,1-5.3,1.7c-1.6,0.6-3.3,0.7-5,0.3c-0.8-0.2-1.7-2.1-2.7-2.6
				c-1-0.5-1.8-1.3-2.3-2.2c-0.5-0.6-1.4-0.6-2-0.1c-0.4,0.3-0.5,0.8-0.4,1.3c0.1,1.7-0.9,2.7-2.8,3.5s-1.1-2.1-1.1-2.9
				s1.7-1.7,1.8-3.1s-1.7,1.3-3.4,3.1s-2.9,0.1-6.3,0.5s-1.7,3.8-1.7,5.8s-2.8,2.6-3.3,2.1s-0.5-1.5-1.5-1.5s-1.3-1.6-1.5-2.2
				s-3.7-1.2-5,1.2s-2.6,0.5-4.2,0s-4.5-6.5-3.9-7.6s0.7-1.5-0.1-2.3s-0.4-1.3,0.2-2.4s2.2-2.2-1-4.3s-8.2-0.3-10.9-0.5
				s-0.5-2.2,0-2.7c0.9-1.2,1.7-2.6,2.1-4c0.5-1.6-0.5-1.7,0.5-3.9s0.7-3.6-1.5-3.7s-4.2,1.5-4.3,4.6s-3.2,2.9-10.3,2.4
				s-6.4-6.2-7.2-10.7s1.5-8.4,1.6-10.7s3-4.8,5.6-6.8s6.5-1.5,6.5-1.5s5.2,1.1,6.8,1s0.3-1.3,0.4-2.9s7.9-0.5,9.2-0.5
				s1.1,1.1,2.5,2.5s1.2-1.5,2.7-1.2s0.3,1.2,2.4,4.7s1.7,4.7,2.4,7.6s2.1,1.5,3.1-0.9s-1.1-10.2-1.6-14.2s3.1-2.6,6.6-6.3
				s7.1-4,8.7-6.7s-0.1-7.1,0.8-4.7s1.1-0.9,1.2-3.5s1.5-3.6,2.1-2.1s1.5,0.4,2-2.1s2.8-5.2,3.9-6.4s3.2-0.1,6.2,0s0.1-0.5-0.7-3.5
				s1.9-4,3-4s6-2.6,7.1-3.3s2.5-0.6,4.3,0.8s-1.7,0.3-2.9,2.4s1.7,2.3,3,0.5s4.1-1,6.5-3.4s-2.7-1.5-3.9-1.9s-1.8-3.1-1.7-4
				c-0.1-1.6-0.8-3.1-1.9-4.2c-1.2-1-4.3,0.1-7,1.2s-3.5,2.1-3.3,0.8s4.7-4.3,5.9-4.5c2.3-0.6,4.5-1.8,6.2-3.4
				c1.6-1.8,6.2,0.3,8.3,0.5s5.1,1.4,6.2-0.1s2-1.5,4.2-1.8s2.6-3.5,1.1-4.9s-3.7-6.5-6.8-8.1s-1.9-2.6-0.9-3.9s-3.2-4.5-4.5-7.9
				s0.1-4.2-1.5-4.3s-0.5,2.4-1.3,4.7s-4.2,1.1-4.7,0.9c-1.4-1.1-2.3-2.8-2.3-4.6c0.1-2.1,0.7-4,0-4.7s-2.1-0.1-2.9-0.9
				s-1.9-3.2-3.1-4.3s-3.9-0.4-5.8-0.8s-3.6,0.3-3.2,1.5s0.1,2.8-0.5,7.1s-2,2-3.1,3.1s0.7,1.3,1.6,4.4s-1.2,5.3-2.1,6.3
				s-4,1.6-6,2.3s0.1,3.2,0.4,5.3s-1.7,5.2-2.8,5.6s-4.5-4-4.8-6.6s2.1-5.3,1.1-6.2s-5.2-0.8-9.1-4s-8.6-4.9-10.2-8.8
				s1.6-7.4,3-10.2s4-2.4,8.3-4s1.6-3.1,2.7-3.1s4.5-0.5,5.3-1.6s2.7-2.1,4.4-3.1s2.1-2.8,2.8-3.9s2.5,1.5,4.7,1.2s2,0.4,5-0.9
				s0.4-2.1,0.1-3.6s1.9-1.1,1.2-2.7s-3.6-3.2-5.6-2.9s0.6,2.1-1.4,4s-1.6,3.1-2.3,3.3s-3.6-0.7-3.6-1.6s1.3-1.8,1.9-2.2
				s-0.4-2.4-0.7-3.1s-1.5,0.8-1.7,2.1s-1.7,1.5-1.3,0.3s-1.1-2.7-2.1-4.2s1.1-1.3,2.3-3.2s0.8-2.7-0.8-3.6s-3.5,0.5-5.3,2.6
				s-1.2,1.9-0.5,4.4s0,0,0.4,2.4s-3.1,2.1-3.1,2.1c-0.8-0.1-1.6-0.2-2.4-0.4c-0.7-0.3,0-1.2-1.5-1.7s-2.1,1.9-2.1,1.9
				s-4-0.1-5.6-0.1s-3.9-0.8-4.3-1.5c-1.1-1.2-2.6-1.9-4.2-2c-1.7,0-2.4,1.5-2.4,3.2s-2.9,1.9-2.8,1.1c0-1.2-0.2-2.4-0.4-3.6
				l-1.6,0.9c0,0-4.4-0.3-5.9-0.4s-0.9-2-0.9-2l2.9-0.3l0.4-0.7c-0.5-0.5-1-0.8-1.6-1.1c-0.8-0.3-4.3-0.9-4.3-0.9l-1.1-1.5h-2.3
				c-0.7,0-1.7,1.3-2.3,1.3s-0.5-1.5-0.5-1.5l0.3-1.2l-1.3,0.7c-1.3,0.7-1.9,0.1-1.9,0.1l0.5-1.3l0.1-1.5c0,0-0.8-0.9-0.8-0.3
				c-0.3,1.1-1.4,1.9-2.5,2c-1.2-0.1-2,1.1-3.8,0.7s-5.1,0.8-7,2.4s-3.1,2.1-2.7,0.3s-5.2-1.6-6.2-2c-1.8-0.5-3.7-0.8-5.6-0.9
				c-1.3-0.1-2.4-0.9-2.8-2.1l-0.9-3.3c-11.6,6.4-22.5,14.1-32.2,23.2c0.8,1.7,1.8,3.4,3,4.9c0.6,0.4,1.3,0.4,1.9,0
				c-3.4,2.4-6.7,5.1-9.8,7.9c-6,5.3-4,5.9-4,7.9s1.2,1.2,1.2,1.2s-4.7,4.8-6,6.2s-3.8,3.2-3.8,3.2l-2.4,2.9l1.1,0.4l14.5-12.2
				c0,0,0.9-0.2,1-0.7c0.2-0.8,0.6-1.6,1.2-2.3c0.6-0.7,1.2-1.4,1.6-2.2c0.7-0.4,1.4-0.8,2-1.4c1.1-1,2.2-2.5,3.1-2.6s0,1.3-1.6,2.6
				c-1.3,1.2-2.5,2.6-3.5,4.1c0,0,5.3-2.8,7.1-4s1.2-3,1.9-3.1s2.3,1.4,2.8,2.9s1.1-0.3,3.8,0s0.9,2.4,1.9,3.8s1,1.8,3.6,1.2
				s-1,5.6-1,5.6l-0.2,2c0.4,0.5,0.7,1,1,1.6c0,0.2-1.2,3.8-1.2,3.8h2c-0.5,0.6-1.1,1.2-1.8,1.6c-1,0.6,0.2,2.2,1.2,3s0,0-1.4,3.2
				s0,2.2,1.6,4.4c1.2,1.6,2.5,3.1,3.8,4.6c1.2,1.4,0,4.6-1.2,4.8s-3.8-1.8-3.8-1.8c0.2,30.1-1.8,10-2.8,12.7s-2.4,4-2.4,5.6
				c0.2,2.2-0.4,4.4-1.6,6.2c-1.6,2.2-0.2,7.2,0,7.8s1.5,3.2,1.5,3.2v8.2c0,2.7,4.8,4,6.4,6.3s1.2,6.7,1.3,7.4
				c0.4,1.3,1.1,2.4,2.1,3.4c0.9,0.9,1,2.3,1.7,3.7s-1.1,0.9-1.3,2.6s1.7,1.8,2.7,2.2c1.1,0.2,1.8,1.3,1.6,2.4
				c0,0.2-0.1,0.3-0.1,0.4c-0.5,1.9-0.3,1.2,0.7,2.3s0.5,0.4,1.1,2.4s1.9,1.1,1.9,1.1v1.2c0,0.3,1.2,0.7,1.2,0.7l0.8-1.2
				c0,0-0.6-0.3-0.6-0.5s-0.1-1.2-0.1-1.2l-1.8-0.7c-0.1-0.5-0.2-0.9-0.3-1.4v-1.7c0-0.3-0.7-0.5-0.7-0.5s-0.1-1.8-0.1-2.9
				s-1.7-2.1-1.8-2.5c-0.1-1.1-0.4-2.1-0.9-3c-0.7-1-2.3-3.1-2.2-5.4s-0.5-3.8,0.3-3.8s2.3,2.2,2.7,2.6s0.1,3.1,1.7,5.6s6,7.6,5.6,8
				s-1.5,0.3-0.9,1.8s2.1,1.9,3.2,2.2s2.9,6.4,4.1,8.4s-0.3,2-0.6,3.3s0.1,2,2.1,2.9s1.6,3.1,3.9,3.8s6.8,3.6,8,3.9s1.1,1.3,2.7,1.5
				c1,0.1,2,0.5,2.7,1.2c0.8,0.5,3.6-0.5,4.2-0.9s1.1-0.3,2.5,0s5.8,4.8,7.1,6.2s2.4-0.5,3.5,0s3.1,1.7,3.9,1.6s0.8-0.8,1.3-0.8
				s0.1,1.1,2.1,3.6s1.6,3.1,1.6,3.5s0.9,2.4,2.3,2.1s2.7,1.1,2.7,1.1v2.2c0,0,4.5,0.3,5.5,0.5s1.1,2.3,1.5,2.6s2-1.6,1.7-2.7
				s1.7-1.6,2.5-2.4s1.9,0.9,2.5,1.7s2.2,2.8,2.2,4.4s-0.1,4-0.1,6.6s-2,3.7-3.5,5.5s-2.8,2.5-3.5,3.3c-0.8,1.5-1.2,3.2-0.9,4.8
				c0.3,1.5,2.1,0.1,2.1,1.9s-1.7,0.8-3.8,2.4s0.3,1.8,0.9,3.1s-0.9,0.3-0.9,1.9s2.4,1.3,4.7,2s4.7,6.6,6,9.6s2.7,5.8,4,6.3
				s1.5,1.7,4.3,2.4s5,2.9,6.6,2.9s1.5,2.7,1,3.8s-0.1,1.4,0.3,5.4s-0.9,13-1.3,14s-0.3,0.8,0.4,1.5s-1.2,3.9-1.3,4.9
				s-1.9,1.6-2.3,2.6s0.9,0.9,1.2,1.8s-0.5,3,0.3,3.8s1.5,0.5,1.8,1.8c0.2,1.1-0.6,2.2-1.7,2.4c-0.1,0-0.2,0-0.4,0
				c-1.3,0-1.3,1.4-0.7,0.9c0.4-0.3,1-0.3,1.4,0l1.1,1.9c3.3-0.3,6.5-0.8,9.7-1.3c0.7-0.8,1.3-1.4,1.8-1.5c1.6-0.3,0.8-1.9-0.1-5.2
				s2.3-0.5,4.3-1.3s1.3-3.5,4.2-3.9s5.9-2.9,7.1-4.8s-0.5-2.8,3.9-2.3s8.4-5.1,11.9-9.2s0.4-5.5,6.6-9.4s16.1-14.4,16.7-17.7
				s-1.1-3.4,2.4-5.7s7.9-8.7,8.3-10.5S826.3,1618.6,825.3,1618.6z"/>
			<path class="st31" d="M791.4,1398.4c-5.1,0-6.2,5.1-1.6,5.9s13.9,0.8,15.5,7.5s-4.8,8.6,0,11.8s-1.1,6.7-1.1,11.2
				c0,4.2,2,8.2,5.3,10.7c3.2,2.4,6.4,5.6,6.7,7.5s3.5,1.3,3.5,1.3c-0.2-0.9-0.2-1.8,0-2.7c0.3-1.6,2.9-3.5,2.9-8s2.4-4.3,4.3-4
				s5.6-0.3,6.7,0s7.5,0.3,8-2.9s-4.3-8-4.3-8s2.7-4.5,2.7-6.5c-0.1-0.9-0.4-1.8-0.8-2.7c-13-11.6-27.8-20.9-43.8-27.7
				C795.5,1394.3,795,1398.4,791.4,1398.4z"/>
			<path class="st31" d="M886.4,1529.2c-9.2-7.6-15.3-7.6-16.1-5.6s6.4,9.2,0,18.1s-11.2,12.4-8.8,19.7s-10.1,13.7-0.6,20.1
				s7.5,6.4,14.3,6s5.8,10.2,5.3,11.7c8-19.3,12.1-40,12.1-60.9c0-0.7,0-1.3,0-2C891,1533.4,888.9,1531.1,886.4,1529.2z"/>
			<path class="st35" d="M748.6,1696.2c87.3-8.1,151.5-85.5,143.4-172.8c-6.6-71.2-60.1-129.3-130.5-141.7
				C853.5,1418.8,899.3,1643.6,748.6,1696.2z"/>
		</g>
		<g id="Loading">
			<path class="st1" d="M779.6,1654.9l-1-3.5l-1.2-4.1c-0.5-1.6-1.1-3.3-1.7-5.3c-3.3-9.8-7.3-19.4-12.1-28.6
				c-1.4-2.6-2.8-5.2-4.3-7.7l-2.3-3.8l-2.3-3.6c-1.5-2.4-3.2-4.7-4.8-6.9s-3.2-4.2-4.7-6.1s-3-3.6-4.3-5s-2.5-2.8-3.5-3.8l-3.2-3.3
				l1,2c0.6,1.3,1.6,3.1,2.6,5.3s2.1,4.8,3.2,7.5s2.1,5.7,3.1,8.6s1.8,5.9,2.5,8.6s1.3,5.3,1.8,7.5s0.8,4,1,5.3l0.3,2l-2-1.2
				c-1.3-0.8-3.2-1.8-5.6-3.1c-6.8-3.6-13.8-6.7-21-9.2c-10.2-3.6-20.9-5.9-31.7-6.7c-12.3-0.9-24.7,0.2-36.6,3.4
				c-6,1.6-11.8,3.6-17.5,6.1c-5.4,2.4-10.7,5.2-15.7,8.3c-8.9,5.5-17.2,11.8-24.8,18.9c-5.4,5-10.4,10.3-15,16
				c-3.3,4.1-5,6.6-5,6.6s1.9-2.3,5.5-6.1c5.1-5.2,10.4-10,16.1-14.5c8-6.3,16.5-11.8,25.6-16.3c5.1-2.5,10.3-4.7,15.7-6.6
				c5.5-1.9,11.1-3.3,16.8-4.3c11.1-2,22.4-2.1,33.6-0.3c9.6,1.6,19,4.4,27.8,8.5c6.3,2.9,12.3,6.2,18.1,9.9
				c2.1,1.4,3.8,2.4,4.8,3.2l1.7,1.2l-1.8,0.6c-1.2,0.4-2.8,0.9-4.8,1.6s-4.2,1.6-6.6,2.5s-4.8,2.1-7.2,3.3s-4.7,2.5-6.8,3.7
				s-4,2.5-5.6,3.5s-2.9,2-3.8,2.7l-1.4,1l2.7-0.9c0.9-0.3,2-0.6,3.2-0.9s2.7-0.7,4.3-1c8.4-1.5,17-2.1,25.6-1.7
				c9.3,0.5,18.6,1.7,27.8,3.6c1.9,0.4,3.7,0.8,5.3,1.2l4.1,1L779.6,1654.9z"/>
			<path class="st1" d="M575.1,1692l1,3.5l1.2,4.1c0.5,1.6,1.1,3.3,1.7,5.3c3.3,9.8,7.3,19.4,12.1,28.6c1.4,2.6,2.8,5.2,4.3,7.7
				l2.3,3.8l2.3,3.6c1.5,2.4,3.2,4.7,4.8,6.9s3.2,4.2,4.7,6.1s3,3.6,4.3,5s2.5,2.8,3.5,3.8l3.2,3.3l-1-2c-0.6-1.3-1.6-3.1-2.6-5.3
				s-2.1-4.8-3.2-7.5s-2.1-5.7-3.1-8.6s-1.8-5.9-2.5-8.6s-1.3-5.3-1.8-7.5s-0.8-4-1-5.3s-0.3-2-0.3-2l2,1.2c1.3,0.8,3.2,1.8,5.6,3.1
				c6.8,3.6,13.8,6.7,21,9.2c10.2,3.6,20.9,5.9,31.7,6.7c12.3,0.9,24.7-0.3,36.6-3.4c6-1.6,11.8-3.6,17.5-6.1
				c5.4-2.4,10.7-5.2,15.7-8.3c8.9-5.5,17.2-11.8,24.8-18.9c5.4-5,10.4-10.3,15-16c3.3-4.1,5-6.6,5-6.6s-1.9,2.3-5.5,6.1
				c-5,5.2-10.4,10-16.1,14.5c-8,6.3-16.5,11.8-25.6,16.3c-5.1,2.5-10.3,4.7-15.7,6.6c-5.5,1.9-11.1,3.3-16.8,4.3
				c-11.1,2-22.4,2.1-33.6,0.3c-9.6-1.6-19-4.4-27.8-8.5c-6.3-2.9-12.3-6.2-18.1-9.9c-2.1-1.4-3.8-2.4-4.8-3.2l-1.7-1.2l1.8-0.6
				c1.2-0.4,2.8-0.9,4.8-1.6s4.2-1.6,6.6-2.5s4.8-2.1,7.2-3.3s4.7-2.5,6.8-3.7s4-2.5,5.6-3.5s2.9-2,3.8-2.7l1.4-1l-2.7,0.9
				c-0.9,0.3-2,0.5-3.2,0.9s-2.7,0.7-4.3,1c-8.4,1.5-17,2.1-25.6,1.7c-9.3-0.5-18.6-1.7-27.8-3.6c-1.9-0.4-3.7-0.8-5.3-1.2l-4.1-1
				L575.1,1692z"/>
			<path class="st8" d="M711.4,1740.6c-5.2,0.3-11.5,0.8-19,1.8c-51.7,6.6-99.3-34.2-115.6-50l-1.8-0.4l1,3.5l1.2,4.1
				c0.5,1.6,1.1,3.3,1.7,5.3c3.3,9.8,7.3,19.4,12.1,28.6c1.4,2.6,2.8,5.2,4.3,7.7l2.3,3.8l2.3,3.6c1.5,2.4,3.2,4.7,4.8,6.9
				s3.2,4.2,4.7,6.1s3,3.6,4.3,5s2.5,2.8,3.5,3.8l3.2,3.3l-1-2c-0.6-1.3-1.6-3.1-2.6-5.3s-2.1-4.8-3.2-7.5s-2.1-5.7-3.1-8.6
				s-1.8-5.9-2.5-8.6s-1.3-5.3-1.8-7.5s-0.8-4-1-5.3s-0.3-2-0.3-2l2,1.2c1.3,0.8,3.2,1.8,5.6,3.1c6.8,3.6,13.8,6.7,21,9.2
				c10.2,3.6,20.9,5.9,31.7,6.7c12.3,0.9,24.7-0.3,36.6-3.4C704.9,1742.8,708.2,1741.8,711.4,1740.6z"/>
			<path class="st8" d="M777.3,1647.2c-0.5-1.6-1.1-3.3-1.7-5.3c-3.3-9.8-7.3-19.4-12.1-28.6c-1.4-2.6-2.8-5.2-4.3-7.7l-2.3-3.8
				l-2.3-3.6c-1.5-2.4-3.2-4.7-4.8-6.9s-3.2-4.2-4.7-6.1s-3-3.6-4.3-5s-2.5-2.8-3.5-3.8l-3.2-3.3l1,2c0.6,1.3,1.6,3.1,2.6,5.3
				s2.1,4.8,3.2,7.5s2.1,5.7,3.1,8.6s1.8,5.9,2.5,8.6s1.3,5.3,1.8,7.5s0.8,4,1,5.3l0.3,2l-2-1.2c-1.3-0.8-3.2-1.8-5.6-3.1
				c-6.8-3.6-13.8-6.7-21-9.2c-10.2-3.6-20.9-5.9-31.7-6.7c-12.3-0.9-24.7,0.2-36.6,3.4c-6,1.6-11.8,3.6-17.5,6.1
				c-1.4,0.6-2.7,1.2-4,1.9c4.9-1.1,10.4-2.3,16.6-3.5c73.6-15.2,131.5,47.2,131.5,47.2l-1-3.5L777.3,1647.2z"/>
		</g>
	</g>
	<g id="Document">
		<path class="st37" d="M1062.3,1695.5c0,0,7.1-36.8,9-36.8s9,1.1,38.7,8.6s54.9,14,54.9,14s11,3.2,13.6-4.2s1.3-7.4,16.1-3.6
			s37.4,10.3,37.4,10.3s7.1,2.6,7.1,7.8v9l23.2,5.8c0,0,9,1.9,4.5,17.4s-55.5,193.6-55.5,193.6L1062.3,1695.5z"/>
		<path class="st1" d="M1058.5,1691.7c0,0,7.1-36.8,9-36.8s9,1.1,38.7,8.6s54.9,14,54.9,14s11,3.2,13.6-4.2s1.3-7.4,16.1-3.6
			s37.4,10.3,37.4,10.3s7.1,2.6,7.1,7.8v9l23.2,5.8c0,0,9,1.9,4.5,17.4s-55.5,193.6-55.5,193.6L1058.5,1691.7z"/>
		<path class="st38" d="M1215.2,1904.2l-36.7-173.8c0,0,1.9-7.7-10.3-12.3s-19.4-5.2-19.4-5.2s2.2-12.9-11.2-16.8
			s-52.7-16.1-52.7-16.1l-5.8,3.9v4.5l-76.8-23.9l-7.5,2.8l45,164.3l171.7,85.8L1215.2,1904.2z"/>
		<path class="st32" d="M1211.4,1917.5l-38.7-183.3c0,0,1.9-7.7-10.3-12.3s-19.4-5.2-19.4-5.2s2.2-12.9-11.2-16.8
			s-52.7-16.1-52.7-16.1l-5.8,8.4l-76.8-23.9c0,0-3.9-6.4,0,12.3s37.5,154.9,37.5,154.9L1211.4,1917.5z"/>
	</g>
</g>
<circle id="Background_2-3" class="st39" cx="2192.1" cy="594.8" r="532"/>
<g id="Line-2">
	<polygon class="st40" points="1924.7,181.4 1924.7,844.6 2404.8,844.6 2404.8,292.9 2298.1,181.4 	"/>
	<polygon class="st8" points="2300.1,289.5 2408.4,397.9 2408.4,289.5 2329.9,245.3 	"/>
	<polygon class="st41" points="2404.8,292.9 2298.1,294.5 2298.1,181.4 	"/>
	<rect x="1991.3" y="309.8" class="st42" width="60.8" height="60.8"/>
	<rect x="1991.3" y="384.2" class="st43" width="60.8" height="13.7"/>
	<rect x="2052.1" y="384.2" class="st1" width="82.4" height="13.7"/>
	<rect x="2134.5" y="384.2" class="st42" width="84.3" height="13.7"/>
	<rect x="2073.7" y="309.8" class="st44" width="60.8" height="60.8"/>
	<rect x="2158" y="309.8" class="st45" width="60.8" height="60.8"/>
</g>
<g id="Chart">
	<path class="st34" d="M1622.6,595.7h618.9c7,0,12.7,5.7,12.7,12.7v345.5c0,7-5.7,12.7-12.7,12.7h-618.9c-7,0-12.7-5.7-12.7-12.7
		V608.3C1609.9,601.3,1615.6,595.7,1622.6,595.7z"/>
	<rect x="1660.3" y="635" class="st46" width="543.6" height="292.2"/>
	<rect x="1689.7" y="818.2" class="st1" width="32.8" height="73"/>
	<rect x="1763.8" y="797.9" class="st1" width="32.8" height="93.3"/>
	<rect x="1836.9" y="773.6" class="st1" width="32.8" height="117.7"/>
	<rect x="1914" y="745.2" class="st1" width="32.8" height="146.1"/>
	<rect x="1991.3" y="721.7" class="st1" width="32.8" height="169.6"/>
	<rect x="2070.7" y="698.4" class="st1" width="32.8" height="192.9"/>
	<rect x="2141.6" y="670.9" class="st1" width="32.8" height="220.4"/>
	<rect x="1706.2" y="818.2" class="st35" width="16.4" height="73"/>
	<rect x="1778.8" y="797.9" class="st35" width="17.8" height="93.3"/>
	<rect x="1853.3" y="773.6" class="st35" width="16.4" height="117.7"/>
	<rect x="1930.4" y="745.2" class="st35" width="16.4" height="146.1"/>
	<rect x="2007.7" y="721.7" class="st35" width="16.4" height="169.6"/>
	<rect x="2087.1" y="698.4" class="st35" width="16.4" height="192.9"/>
	<rect x="2158" y="670.9" class="st35" width="16.4" height="220.4"/>
	<rect x="1667.1" y="674.9" class="st47" width="9.5" height="220.2"/>
	<rect x="1667.1" y="891.5" class="st43" width="528.3" height="10.1"/>
	<rect x="1667.1" y="891.5" class="st35" width="528.3" height="5"/>
</g>
<g id="Data-2">
	<path class="st48" d="M2627.9,1016.1l-45.9-59.7c-62,51.7-146.7,66.7-222.7,39.3l-20.4,72.6
		C2437.8,1101.9,2547,1082.2,2627.9,1016.1L2627.9,1016.1z"/>
	<path class="st1" d="M2582,956.4l45.9,59.7c102.2-83.7,138.2-224,88.9-346.6l-73.8,18.7C2685.3,781.2,2660.3,890.9,2582,956.4
		L2582,956.4z"/>
	<path class="st49" d="M2334.8,579.6l-29.9-69.1c-100.9,48.9-170.4,152.3-170.4,271.9c0,132.7,85.5,245.3,204.5,285.9l20.4-72.6
		c-87.3-31.6-149.6-115.2-149.6-213.4C2209.6,696.5,2258.1,618,2334.8,579.6z"/>
	<path class="st50" d="M2436.5,555.5c88.9,0,169.6,51.9,206.5,132.7l73.8-18.7c-44.7-110.9-153.3-189.2-280.3-189.2
		c-45.6-0.1-90.6,10.2-131.7,30.1l29.9,69.1C2366.4,563.7,2401.2,555.5,2436.5,555.5z"/>
</g>
<g id="Document-2">
	<path class="st47" d="M2695.1,236.3H2558c-0.6,0-1.2,0-1.8,0h-91c-7.8,0-14,6.3-14.1,14.1v129.8c0.1,7.7,6.3,14,14.1,14h222.6
		c7.7,0,14-6.3,14.1-14V243.1C2701.8,239.4,2698.8,236.4,2695.1,236.3z M2560.1,236.5L2560.1,236.5z M2561.9,236.7L2561.9,236.7z
		 M2573,251.4c0,0.1,0.1,0.1,0.1,0.2S2573.1,251.5,2573,251.4z M2572,250L2572,250L2572,250z M2572.4,250.7l0.1,0.1L2572.4,250.7z
		 M2573.6,252.1l0.2,0.2L2573.6,252.1z M2574.4,252.7l0.3,0.2L2574.4,252.7z M2575.4,253.2l0.4,0.2L2575.4,253.2z M2576.6,253.7
		l0.5,0.2L2576.6,253.7z M2578,254.1l0.6,0.1L2578,254.1z M2579.5,254.5l0.6,0.1L2579.5,254.5z M2581.4,254.7l0.7,0.1L2581.4,254.7z
		 M2583.6,254.9h0.6H2583.6z"/>
	<path class="st51" d="M2695.1,236.3H2558c23.4,0.9,1.4,19.1,28.7,18.6h115.1v-11.8C2701.9,239.4,2698.8,236.3,2695.1,236.3z"/>
	<path class="st50" d="M2586.8,254.9h102.4c-2.2-7.4-9-12.5-16.8-12.5h-102.4C2572,247.9,2569.3,255.2,2586.8,254.9z"/>
	<rect x="2521.1" y="280.7" class="st52" width="110.9" height="64.6"/>
	<rect x="2530.9" y="302.6" width="91.2" height="4.3"/>
	<rect x="2530.9" y="309.8" width="91.2" height="4.3"/>
	<rect x="2530.9" y="317" width="91.2" height="4.3"/>
	<rect x="2530.9" y="324.2" width="91.2" height="4.3"/>
	<path class="st7" d="M2650.5,394.3h37.3c7.7,0,14-6.3,14.1-14v-78.8C2692.1,332.9,2675.3,374.1,2650.5,394.3z"/>
	<g id="Document-3">
		<path class="st1" d="M2792.6,299.3h-164.3c-0.7,0-1.4,0-2.2,0h-109c-9.3,0-16.9,7.1-16.9,15.8v146c0,8.7,7.6,15.8,16.9,15.8H2784
			c9.3,0,16.8-7.1,16.8-15.8V306.9C2800.7,302.5,2797,299.1,2792.6,299.3z M2630.8,299.4L2630.8,299.4z M2633,299.6L2633,299.6z
			 M2646.3,316.2l0.2,0.2L2646.3,316.2z M2645.2,314.6L2645.2,314.6L2645.2,314.6z M2645.7,315.4l0.1,0.2L2645.7,315.4z
			 M2647.1,316.9c0.1,0.1,0.2,0.1,0.3,0.2C2647.3,317.1,2647.2,317,2647.1,316.9L2647.1,316.9z M2648.1,317.6l0.4,0.2L2648.1,317.6z
			 M2649.3,318.2l0.4,0.2L2649.3,318.2z M2650.7,318.8l0.6,0.2L2650.7,318.8z M2652.3,319.3l0.6,0.2L2652.3,319.3z M2654.2,319.6
			l0.8,0.1L2654.2,319.6z M2656.4,319.9l0.8,0.1L2656.4,319.9z M2659.1,320.1h0.8H2659.1z"/>
		<path class="st51" d="M2792.6,299.3h-164.3c28,1,1.7,21.5,34.4,20.9h138v-13.2C2800.6,302.5,2797,299.1,2792.6,299.3z"/>
		<path class="st32" d="M2662.8,320.1h122.8c-2.6-8.1-10.6-14.1-20.1-14.1h-122.7C2645.1,312.3,2641.9,320.5,2662.8,320.1z"/>
		<rect x="2584.1" y="349.2" class="st52" width="132.9" height="72.6"/>
		<rect x="2595.9" y="373.8" class="st32" width="109.3" height="4.8"/>
		<rect x="2595.9" y="381.9" class="st32" width="109.3" height="4.8"/>
		<rect x="2595.9" y="390" class="st32" width="109.3" height="4.8"/>
		<rect x="2595.9" y="398" class="st32" width="109.3" height="4.8"/>
	</g>
</g>
<g id="Controlling">
	<g id="Correction">
		<g id="Active-3">
			<g id="Active1-2">
				<path class="st1" d="M2441.4,839.4c6,2.2,11.7,5.4,16.6,9.6l23-9.5l15.5,26.8l-19.3,16c0.6,3.2,0.9,6.5,0.9,9.8
					c0,2.9-0.2,5.8-0.7,8.7l20.1,15.5L2482,943l-23.1-8.6c-4.8,4.2-10.4,7.6-16.4,9.9l-3.3,24.5h-31l-4.1-24.1
					c-6.1-2.2-11.7-5.4-16.6-9.6l-23,9.5l-15.5-26.8l19.3-16c-1.1-6.1-1.1-12.4-0.2-18.5l-20.1-15.4l15.5-26.8l23.1,8.6
					c4.9-4.2,10.4-7.6,16.4-9.9l3.3-24.5h31L2441.4,839.4z"/>
				<path class="st4" d="M2422.8,932.3c22.2,0,40.2-18,40.2-40.3c0-22.2-18-40.2-40.3-40.2c-22.2,0-40.2,18-40.2,40.2
					C2382.6,914.3,2400.6,932.3,2422.8,932.3z"/>
				<path class="st10" d="M2422.8,918.8c14.7,0,26.7-12,26.7-26.7c0-14.7-12-26.7-26.7-26.7c-14.7,0-26.7,11.9-26.7,26.7
					C2396.1,906.8,2408.1,918.7,2422.8,918.8z"/>
			</g>
			<g id="Active-4">
				<path class="st34" d="M2497,610.4c9.5,0.3,18.9,2.4,27.8,5.9l28.2-23.9l34,30.8l-20,31.3c2.3,4.3,4.2,8.8,5.7,13.5
					c1.3,4.1,2.3,8.3,3,12.6l35.3,12.6l-9.6,44.8l-36.5-1.6c-4.9,8.2-11.2,15.4-18.6,21.4l6.5,36l-43.7,14.1l-16.7-32.1
					c-9.5-0.3-18.9-2.3-27.8-5.9l-28.2,23.8l-34-30.8l19.9-31.3c-2.3-4.3-4.2-8.8-5.7-13.4c-1.3-4.1-2.3-8.3-3-12.6l-35.3-12.7
					l9.6-44.8l36.5,1.6c4.9-8.2,11.2-15.4,18.6-21.4l-6.5-36l43.7-14.1L2497,610.4z"/>
				<path class="st4" d="M2494.7,758.1c35.8,0,64.9-29.1,64.9-64.9s-29.1-64.9-64.9-64.9c-35.8,0-64.9,29.1-64.9,64.9
					C2429.9,729,2458.9,758,2494.7,758.1z"/>
				<path class="st10" d="M2506.8,730.8c20.8-6.7,32.2-29,25.5-49.8s-29-32.2-49.8-25.5c-20.8,6.7-32.2,29-25.5,49.8c0,0,0,0,0,0
					C2463.8,726.1,2486,737.5,2506.8,730.8z"/>
			</g>
		</g>
		<g id="Active-5">
			<g id="Active1-3">
				<path class="st53" d="M2315.5,792.3c2.5-1,5.1-1.6,7.8-1.8l4.3-9.4l12.3,3.8l-1.4,10.3c1.1,0.8,2.1,1.8,3,2.8
					c0.8,0.9,1.6,1.8,2.3,2.8l10.5-1l2.9,12.5l-9.5,3.9c-0.3,2.7-1,5.3-2.2,7.7l5.9,8.4l-9.4,8.8l-8.1-6.2c-2.5,1-5.1,1.6-7.8,1.8
					l-4.3,9.4l-12.3-3.8l1.4-10.3c-1.1-0.8-2.1-1.7-3-2.8c-0.8-0.9-1.6-1.8-2.3-2.8l-10.5,1l-2.9-12.5l9.5-3.9
					c0.3-2.7,1-5.3,2.2-7.7l-5.9-8.4l9.4-8.8L2315.5,792.3z"/>
				<path class="st4" d="M2336.1,825.9c6.8-6.3,7.1-16.9,0.9-23.6c-6.3-6.8-16.9-7.1-23.6-0.9c-6.8,6.3-7.1,16.9-0.9,23.6
					C2318.7,831.8,2329.3,832.2,2336.1,825.9z"/>
				<path class="st10" d="M2332.3,821.8c4.5-4.2,4.7-11.2,0.6-15.7c-4.2-4.5-11.2-4.7-15.7-0.6c-4.5,4.2-4.7,11.2-0.6,15.7
					C2320.7,825.7,2327.8,825.9,2332.3,821.8z"/>
			</g>
			<g id="Active-6">
				<path class="st49" d="M2267.6,706.8c3-2.6,6.4-4.6,10.1-6l1.8-15.3l19.1-0.3l2.8,15.2c1.9,0.7,3.8,1.5,5.5,2.5
					c1.6,0.9,3.1,1.9,4.5,3l14.4-6.1l9.8,16.4L2324,726c0.8,3.9,0.9,7.9,0.4,11.8l12.2,9.1l-9.3,16.6l-14.2-5c-3,2.6-6.4,4.6-10.1,6
					l-1.8,15.3l-19.1,0.3l-2.8-15.2c-1.9-0.7-3.8-1.5-5.5-2.5c-1.6-0.9-3.1-1.9-4.5-3l-14.4,6.1l-9.8-16.4l11.6-9.9
					c-0.8-3.9-0.9-7.9-0.4-11.8l-12.2-9.1l9.3-16.7L2267.6,706.8z"/>
				<path class="st4" d="M2308.7,752.5c10.9-10.1,11.6-27.2,1.4-38.2c-10.1-10.9-27.2-11.6-38.2-1.4c-10.9,10.1-11.6,27.2-1.4,38.2
					c0,0,0,0,0,0C2280.7,761.9,2297.8,762.6,2308.7,752.5z"/>
				<path class="st10" d="M2304.7,740.7c4.4-7.9,1.6-17.9-6.3-22.4c-7.9-4.4-17.9-1.6-22.4,6.3c-4.4,7.9-1.6,17.9,6.3,22.4
					C2290.2,751.4,2300.2,748.6,2304.7,740.7z"/>
			</g>
		</g>
	</g>
</g>
<circle id="Background_2-4" class="st1" cx="656.4" cy="587.7" r="532"/>
<rect x="467.6" y="40" class="st54" width="434.4" height="279.3"/>
<rect x="484.4" y="50.5" class="st55" width="403.2" height="259.2"/>
<rect x="506" y="50.5" class="st8" width="381.6" height="259.2"/>
<rect x="709.3" y="64" class="st1" width="154.1" height="10.1"/>
<rect x="709.3" y="87.2" class="st1" width="154.1" height="10.1"/>
<rect x="704.5" y="114.7" class="st1" width="154.1" height="10.1"/>
<rect x="704.5" y="135.2" class="st1" width="154.1" height="10.1"/>
<rect x="704.5" y="157.6" class="st1" width="154.1" height="10.1"/>
<rect x="704.5" y="192.8" class="st1" width="154.1" height="10.1"/>
<polygon class="st56" points="814.7,345.6 684.8,309.7 686,50.3 814.7,0 "/>
<rect x="873" y="50.5" class="st15" width="14.5" height="259.2"/>
<rect x="518.1" y="64" class="st1" width="154.1" height="10.1"/>
<rect x="518.1" y="102.7" class="st57" width="154.1" height="10.1"/>
<rect x="518.1" y="119.7" class="st57" width="154.1" height="10.1"/>
<rect x="518.1" y="162.7" class="st57" width="154.1" height="10.1"/>
<rect x="518.1" y="180.1" class="st57" width="154.1" height="10.1"/>
<rect x="518.1" y="197.9" class="st58" width="154.1" height="10.1"/>
<rect x="518.1" y="231.5" class="st1" width="154.1" height="10.1"/>
<rect x="518.1" y="253.9" class="st1" width="154.1" height="10.1"/>
<g id="Pen">
	<g id="Pen-2">
		<path class="st37" d="M555.3,275.5c0.8,4.8-1.6,9.6-5.4,10.7l0,0c-3.8,1-7.5-2-8.3-6.9L512,105c-0.8-4.8,1.6-9.6,5.4-10.7l0,0
			c3.8-1.1,7.5,2,8.3,6.9L555.3,275.5z"/>
		<path class="st7" d="M518.9,94.1l32,188.4l3.7-1c0.8-1.9,1-4,0.6-6l-29.6-174.4C525,97,522.1,94.2,518.9,94.1z"/>
		<path class="st59" d="M539.2,155.2c0.3,2.1-0.7,4.1-2.3,4.5l0,0c-1.6,0.4-3.2-0.9-3.5-2.9l-7.8-45.9c-0.3-2.1,0.7-4.1,2.3-4.5l0,0
			c1.6-0.4,3.2,0.9,3.5,2.9L539.2,155.2z"/>
		<path class="st60" d="M512,105l29.7,174.3c0.7,4,3.4,6.8,6.4,7l0,0L515.5,95.2C512.8,97,511.3,101,512,105z"/>
		<path class="st61" d="M562,305.2c0,5-3.1,9-7,9l0,0c-3.9,0-7-4-7-9V126.8c0-5,3.1-9,7-9l0,0c3.9,0,7,4,7,9V305.2z"/>
		<path class="st7" d="M556.6,118.1v195.7c0,0,1.7,0,3.8-2.9c1.1-1.7,1.7-3.7,1.6-5.7V126.8C562,122.6,559.7,119,556.6,118.1z"/>
		<path class="st6" d="M566.3,183.3c0,2.1-1.3,3.8-3,3.8l0,0c-1.6,0-3-1.7-3-3.8v-47c0-2.1,1.3-3.8,3-3.8l0,0c1.6,0,3,1.7,3,3.8
			V183.3z"/>
		<path class="st62" d="M548,126.8v178.4c0,4.1,2.2,7.5,5.1,8.6l0,0V118.2C550.2,119.3,548,122.7,548,126.8z"/>
		<path class="st53" d="M602.5,270.8c-0.6,4.9-4.2,8.2-8,7.5l0,0c-3.8-0.8-6.5-5.3-5.8-10.2l21.5-176.3c0.6-4.9,4.2-8.2,8-7.5l0,0
			c3.8,0.8,6.5,5.3,5.8,10.2L602.5,270.8z"/>
		<path class="st7" d="M619.8,84.8l-23.6,193.5c0,0,1.9,0,4.1-2.2c1.3-1.5,2.1-3.3,2.3-5.3l21.5-176.3
			C624.6,90.3,622.7,86.4,619.8,84.8z"/>
		<path class="st63" d="M621.4,151.2c-0.3,2.1-1.8,3.5-3.4,3.2l0,0c-1.6-0.3-2.7-2.3-2.5-4.3l5.7-46.4c0.3-2.1,1.8-3.5,3.4-3.2l0,0
			c1.6,0.3,2.7,2.3,2.5,4.3L621.4,151.2z"/>
		<path class="st64" d="M610.2,91.8L588.7,268c-0.5,4,1.2,7.9,4,9.5l0,0l23.6-193.2C613.2,84.7,610.7,87.7,610.2,91.8z"/>
	</g>
</g>
<g id="Laptop-2">
	<rect x="921.8" y="566.9" class="st11" width="295.6" height="13.7"/>
	<path class="st65" d="M1289.3,399.8H844.7c-20.4,0-26.7,12.8-22.7,27.9c0-0.2,0-0.4,0-0.5c-0.1,1.1,0.1,2.1,0.3,3.1l32.2,121.5
		c4.9,18.4,9.2,19,33.2,19h371.8c19.3,0,28.7,0,32.5-18.5l25-122c0.1-0.5,0.1-0.9,0.2-1.4l0,0l1.2-10.3
		C1320.1,403.8,1300.6,399.8,1289.3,399.8z M822.2,425.6c-0.1,0.3-0.1,0.6-0.1,0.9C822,426.2,822.1,425.9,822.2,425.6z M823.2,422.8
		c-0.1,0.1-0.2,0.3-0.2,0.4C823,423,823,422.9,823.2,422.8L823.2,422.8z M822.6,424.1c-0.1,0.2-0.2,0.5-0.2,0.7
		C822.4,424.6,822.5,424.3,822.6,424.1L822.6,424.1z M840.8,412.2c0.7-0.1,1.3-0.1,2-0.1C842.1,412.1,841.4,412.1,840.8,412.2
		L840.8,412.2z M828.4,416.8l0.1-0.1L828.4,416.8z M829.9,415.8l0.3-0.2L829.9,415.8z M831.4,414.9l0.4-0.2L831.4,414.9z
		 M833.2,414.1l0.6-0.2L833.2,414.1z M835,413.4l0.7-0.2L835,413.4z M836.8,412.9c0.3-0.1,0.6-0.1,0.9-0.2
		C837.4,412.7,837.1,412.8,836.8,412.9L836.8,412.9z M838.8,412.4c0.4-0.1,0.8-0.1,1.2-0.2C839.5,412.4,839.1,412.4,838.8,412.4
		L838.8,412.4z"/>
	<path class="st4" d="M844.7,399.8h444.6c11.3,0,30.9,4,29.1,18.8l-1.2,10.4c-1.6-7.7-11.2-16.9-20.6-16.9H842.7
		c-10.2,0-20.9,7.1-20.8,15.7C818,412.7,824.3,399.9,844.7,399.8L844.7,399.8z"/>
	<polygon class="st13" points="844.5,420.7 1297.2,420.2 1272.8,561.7 872.9,561.8 	"/>
	<path class="st66" d="M866.8,574.9H1275c6.8,0,12.3,5.5,12.3,12.3v225.1c0,6.8-5.5,12.3-12.3,12.3H866.8c-6.8,0-12.3-5.5-12.3-12.3
		V587.2C854.5,580.4,860,575,866.8,574.9z"/>
	<path class="st7" d="M1287.3,587.2c0-6.8-5.5-12.3-12.3-12.3h-34.4L980.4,824.6H1275c6.8,0,12.3-5.5,12.3-12.3L1287.3,587.2z"/>
	<rect x="1013" y="748.5" class="st30" width="115.6" height="60.5"/>
	<rect x="876" y="596" class="st15" width="389.9" height="141.7"/>
	<g id="Keyboard-2">
		<path class="st16" d="M884.4,604.4h18.1c1.2,0.2,2.1,1.3,1.9,2.5v19.5c0.1,1.2-0.7,2.3-1.9,2.5h-18.1c-1.2-0.2-2.1-1.3-2-2.5
			v-19.5C882.3,605.7,883.2,604.6,884.4,604.4L884.4,604.4z"/>
		<path class="st16" d="M913.8,604.4h18.1c1.2,0.2,2.1,1.3,2,2.5v19.5c0.1,1.2-0.8,2.4-2,2.5h-18.1c-1.2-0.2-2.1-1.3-2-2.5v-19.5
			C911.6,605.7,912.5,604.6,913.8,604.4L913.8,604.4z"/>
		<path class="st16" d="M943.2,604.4h18.1c1.2,0.2,2.1,1.3,2,2.5v19.5c0.1,1.2-0.8,2.4-2,2.5h-18.1c-1.2-0.2-2.1-1.3-2-2.5v-19.5
			C941,605.7,941.9,604.6,943.2,604.4L943.2,604.4z"/>
		<path class="st16" d="M972.5,604.4h18.1c1.2,0.1,2.1,1.3,2,2.5v19.5c0.1,1.2-0.8,2.4-2,2.5h-18.1c-1.2-0.2-2.1-1.3-2-2.5v-19.5
			C970.4,605.7,971.3,604.6,972.5,604.4L972.5,604.4z"/>
		<path class="st16" d="M1001.9,604.4h18.1c1.2,0.2,2.1,1.3,2,2.5v19.5c0.1,1.2-0.8,2.4-2,2.5h-18.1c-1.2-0.2-2.1-1.3-2-2.5v-19.5
			C999.8,605.7,1000.7,604.6,1001.9,604.4L1001.9,604.4z"/>
		<path class="st16" d="M1031.3,604.4h18.1c1.2,0.2,2.1,1.3,2,2.5v19.5c0.1,1.2-0.8,2.4-2,2.5h-18.1c-1.2-0.2-2.1-1.3-2-2.5v-19.5
			C1029.1,605.7,1030,604.6,1031.3,604.4L1031.3,604.4z"/>
		<path class="st16" d="M1060.6,604.4h18.1c1.2,0.1,2.1,1.3,2,2.5v19.5c0.1,1.2-0.8,2.4-2,2.5h-18.1c-1.2-0.2-2.1-1.3-2-2.5v-19.5
			C1058.5,605.7,1059.4,604.6,1060.6,604.4L1060.6,604.4z"/>
		<path class="st16" d="M1090,604.4h18.1c1.2,0.2,2.1,1.3,2,2.5v19.5c0.1,1.2-0.8,2.4-2,2.5H1090c-1.2-0.2-2.1-1.3-2-2.5v-19.5
			C1087.9,605.7,1088.8,604.5,1090,604.4L1090,604.4z"/>
		<path class="st16" d="M1119.4,604.4h18.1c1.2,0.2,2.1,1.3,2,2.5v19.5c0.1,1.2-0.8,2.4-2,2.5h-18.1c-1.2-0.1-2.1-1.3-2-2.5v-19.5
			C1117.3,605.7,1118.2,604.5,1119.4,604.4L1119.4,604.4z"/>
		<path class="st16" d="M1148.8,604.4h18.1c1.2,0.1,2.1,1.3,2,2.5v19.5c0.1,1.2-0.8,2.4-2,2.5h-18.1c-1.2-0.2-2.1-1.3-2-2.5v-19.5
			C1146.6,605.7,1147.5,604.5,1148.8,604.4L1148.8,604.4z"/>
		<path class="st16" d="M1178.1,604.4h18.1c1.2,0.2,2.1,1.3,2,2.5v19.5c0.1,1.2-0.8,2.4-2,2.5h-18.1c-1.2-0.2-2.1-1.3-2-2.5v-19.5
			C1176,605.7,1176.9,604.5,1178.1,604.4L1178.1,604.4z"/>
		<path class="st16" d="M928.5,638.4h18.1c1.2,0.2,2.1,1.3,2,2.5v19.5c0.1,1.2-0.8,2.4-2,2.5h-18.1c-1.2-0.2-2.1-1.3-2-2.5V641
			C926.4,639.8,927.3,638.6,928.5,638.4L928.5,638.4z"/>
		<path class="st16" d="M957.8,638.4h18.1c1.2,0.2,2.1,1.3,2,2.5v19.5c0.1,1.2-0.8,2.4-2,2.5h-18.1c-1.2-0.2-2.1-1.3-2-2.5V641
			C955.7,639.8,956.6,638.6,957.8,638.4L957.8,638.4z"/>
		<path class="st16" d="M987.2,638.4h18.1c1.2,0.2,2.1,1.3,2,2.5v19.5c0.1,1.2-0.8,2.4-2,2.5h-18.1c-1.2-0.2-2.1-1.3-1.9-2.5V641
			C985.1,639.8,986,638.7,987.2,638.4L987.2,638.4z"/>
		<path class="st16" d="M1016.6,638.4h18.1c1.2,0.2,2.1,1.3,2,2.5v19.5c0.1,1.2-0.8,2.4-2,2.5h-18.1c-1.2-0.2-2.1-1.3-2-2.5V641
			C1014.5,639.8,1015.4,638.6,1016.6,638.4L1016.6,638.4z"/>
		<path class="st16" d="M1046,638.4h18.1c1.2,0.2,2.1,1.3,1.9,2.6v19.5c0.1,1.2-0.7,2.3-1.9,2.5H1046c-1.2-0.2-2.1-1.3-2-2.5V641
			C1043.9,639.8,1044.8,638.6,1046,638.4L1046,638.4z"/>
		<path class="st16" d="M1075.3,638.4h18.1c1.2,0.2,2.1,1.3,2,2.5v19.5c0.1,1.2-0.8,2.4-2,2.5h-18.1c-1.2-0.2-2.1-1.3-2-2.5V641
			C1073.2,639.8,1074.1,638.6,1075.3,638.4L1075.3,638.4z"/>
		<path class="st16" d="M1104.7,638.4h18.1c1.2,0.2,2.1,1.3,2,2.5v19.5c0.1,1.2-0.8,2.4-2,2.5h-18.1c-1.2-0.2-2.1-1.3-2-2.5V641
			C1102.6,639.8,1103.5,638.6,1104.7,638.4L1104.7,638.4z"/>
		<path class="st16" d="M1134.1,638.4h18.1c1.2,0.2,2.1,1.3,1.9,2.5v19.5c0.1,1.2-0.7,2.3-1.9,2.5h-18.1c-1.2-0.2-2.1-1.3-2-2.5V641
			C1132,639.8,1132.9,638.6,1134.1,638.4L1134.1,638.4z"/>
		<path class="st16" d="M1163.5,638.4h18.1c1.2,0.2,2.1,1.3,2,2.5v19.5c0.1,1.2-0.8,2.4-2,2.5h-18.1c-1.2-0.2-2.1-1.3-2-2.5V641
			C1161.3,639.8,1162.2,638.6,1163.5,638.4L1163.5,638.4z"/>
		<path class="st16" d="M1192.9,638.4h18.1c1.2,0.2,2.1,1.3,2,2.5v19.5c0.1,1.2-0.8,2.4-2,2.5h-18.1c-1.2-0.2-2.1-1.3-2-2.5V641
			C1190.7,639.8,1191.6,638.6,1192.9,638.4L1192.9,638.4z"/>
		<path class="st16" d="M1207.5,604.4h18.1c1.2,0.2,2.1,1.3,2,2.5v19.5c0.1,1.2-0.8,2.4-2,2.5h-18.1c-1.2-0.1-2.1-1.3-2-2.5v-19.5
			C1205.4,605.7,1206.3,604.5,1207.5,604.4L1207.5,604.4z"/>
		<path class="st16" d="M1236.9,604.4h18.1c1.2,0.2,2.1,1.3,2,2.5v19.5c0.1,1.2-0.8,2.4-2,2.5h-18.1c-1.2-0.2-2.1-1.3-2-2.5v-19.5
			C1234.8,605.7,1235.6,604.5,1236.9,604.4L1236.9,604.4z"/>
		<path class="st16" d="M1222.7,638.4h32.2c1.2,0.2,2.1,1.3,2,2.5v19.5c0.1,1.2-0.8,2.4-2,2.5h-32.2c-1.2-0.2-2.1-1.3-2-2.5V641
			C1220.6,639.8,1221.5,638.6,1222.7,638.4L1222.7,638.4z"/>
		<path class="st16" d="M884.7,638.4h33.5c1.2,0.2,2.1,1.3,2,2.5v19.5c0.1,1.2-0.8,2.4-2,2.5h-33.5c-1.2-0.1-2.1-1.3-2-2.5V641
			C882.5,639.8,883.4,638.6,884.7,638.4L884.7,638.4z"/>
		<path class="st16" d="M884.7,672.5h40c1.2,0.2,2.1,1.3,2,2.5v19.5c0.1,1.2-0.8,2.4-2,2.5h-40c-1.2-0.1-2.1-1.3-2-2.5V675
			C882.5,673.8,883.4,672.6,884.7,672.5L884.7,672.5z"/>
		<path class="st16" d="M884.7,706.5h18c1.2,0.2,2.1,1.3,2,2.5v19.5c0.1,1.2-0.8,2.4-2,2.5h-18c-1.2-0.1-2.1-1.3-2-2.5V709
			C882.5,707.8,883.4,706.6,884.7,706.5L884.7,706.5z"/>
		<path class="st16" d="M914,706.5h18c1.2,0.2,2.1,1.3,2,2.5v19.5c0.1,1.2-0.8,2.4-2,2.5h-18c-1.2-0.2-2.1-1.3-2-2.5V709
			C911.9,707.8,912.8,706.6,914,706.5L914,706.5z"/>
		<path class="st16" d="M943.3,706.5h18c1.2,0.1,2.1,1.3,2,2.5v19.5c0.1,1.2-0.8,2.4-2,2.5h-18c-1.2-0.2-2.1-1.3-2-2.5V709
			C941.2,707.8,942.1,706.6,943.3,706.5L943.3,706.5z"/>
		<path class="st16" d="M972.7,706.5h187.8c1.2,0.1,2.1,1.3,2,2.5v19.5c0.1,1.2-0.8,2.4-2,2.5H972.7c-1.2-0.2-2.1-1.3-2-2.5V709
			C970.5,707.8,971.4,706.6,972.7,706.5L972.7,706.5z"/>
		<path class="st16" d="M935.5,672.8h18.1c1.2,0.2,2.1,1.3,2,2.5v19.5c0.1,1.2-0.8,2.4-2,2.5h-18.1c-1.2-0.2-2.1-1.3-2-2.5v-19.5
			C933.4,674.1,934.3,673,935.5,672.8z"/>
		<path class="st16" d="M964.9,672.8H983c1.2,0.2,2.1,1.3,2,2.5v19.5c0.1,1.2-0.8,2.4-2,2.5h-18.1c-1.2-0.2-2.1-1.3-2-2.5v-19.5
			C962.8,674.1,963.7,673,964.9,672.8L964.9,672.8z"/>
		<path class="st16" d="M994.2,672.8h18.1c1.2,0.2,2.1,1.3,2,2.5v19.5c0.1,1.2-0.8,2.4-2,2.5h-18.1c-1.2-0.2-2.1-1.3-1.9-2.5v-19.5
			C992.2,674.1,993,673,994.2,672.8z"/>
		<path class="st16" d="M1023.6,672.8h18.1c1.2,0.2,2.1,1.3,2,2.5v19.5c0.1,1.2-0.8,2.4-2,2.5h-18.1c-1.2-0.2-2.1-1.3-2-2.5v-19.5
			C1021.5,674.1,1022.4,673,1023.6,672.8L1023.6,672.8z"/>
		<path class="st16" d="M1053,672.8h18.1c1.2,0.2,2.1,1.3,1.9,2.5v19.5c0.1,1.2-0.7,2.3-1.9,2.5H1053c-1.2-0.2-2.1-1.3-2-2.5v-19.5
			C1050.9,674.1,1051.8,673,1053,672.8z"/>
		<path class="st16" d="M1082.4,672.8h18.1c1.2,0.2,2.1,1.3,2,2.5v19.5c0.1,1.2-0.8,2.4-2,2.5h-18.1c-1.2-0.2-2.1-1.3-2-2.5v-19.5
			C1080.2,674.1,1081.1,673,1082.4,672.8z"/>
		<path class="st16" d="M1111.8,672.8h18.1c1.2,0.2,2.1,1.3,2,2.5v19.5c0.1,1.2-0.8,2.4-2,2.5h-18.1c-1.2-0.2-2.1-1.3-2-2.5v-19.5
			C1109.6,674.1,1110.5,673,1111.8,672.8z"/>
		<path class="st16" d="M1141.1,672.8h18.1c1.2,0.2,2.1,1.3,1.9,2.5v19.5c0.1,1.2-0.7,2.3-1.9,2.5h-18.1c-1.2-0.2-2.1-1.3-2-2.5
			v-19.5C1139,674.1,1139.9,673,1141.1,672.8z"/>
		<path class="st16" d="M1170.5,672.8h33.7c1.2,0.2,2.1,1.3,2,2.5v19.5c0.1,1.2-0.8,2.4-2,2.5h-33.7c-1.2-0.2-2.1-1.3-2-2.5v-19.5
			C1168.4,674.1,1169.2,673,1170.5,672.8z"/>
		<path class="st16" d="M1214.8,672.5h40c1.2,0.2,2.1,1.3,2,2.5v19.5c0.1,1.2-0.8,2.4-2,2.5h-40c-1.2-0.2-2.1-1.3-2-2.5V675
			C1212.6,673.8,1213.5,672.6,1214.8,672.5L1214.8,672.5z"/>
		<path class="st16" d="M1218.3,706.5h15.1c0.4,0.1,0.7,0.4,0.7,0.8v6.8c0,0.4-0.3,0.8-0.7,0.8h-15.1c-0.4-0.1-0.7-0.4-0.7-0.8v-6.8
			C1217.6,706.9,1217.9,706.6,1218.3,706.5z"/>
		<path class="st16" d="M1218.3,721.2h15.1c0.4,0.1,0.7,0.4,0.7,0.9v6.7c0,0.4-0.3,0.8-0.7,0.9h-15.1c-0.4-0.1-0.7-0.4-0.7-0.9v-6.7
			C1217.6,721.6,1217.9,721.3,1218.3,721.2z"/>
		<path class="st16" d="M1196,721.2h15.1c0.4,0.1,0.7,0.4,0.7,0.9v6.7c0,0.4-0.3,0.8-0.7,0.9H1196c-0.4-0.1-0.7-0.4-0.7-0.9v-6.7
			C1195.3,721.6,1195.6,721.3,1196,721.2z"/>
		<path class="st16" d="M1240.7,721.2h15.1c0.4,0.1,0.7,0.4,0.7,0.9v6.7c0,0.4-0.3,0.8-0.7,0.9h-15.1c-0.4-0.1-0.7-0.4-0.7-0.9v-6.7
			C1239.9,721.6,1240.2,721.3,1240.7,721.2z"/>
		<path class="st16" d="M1169.8,706.5h18.1c1.2,0.2,2.1,1.3,2,2.5v19.5c0.1,1.2-0.8,2.4-2,2.5h-18.1c-1.2-0.2-2.1-1.3-2-2.5V709
			C1167.7,707.8,1168.5,706.6,1169.8,706.5L1169.8,706.5z"/>
	</g>
</g>
<path class="st0" d="M1176.3,331.2c8.1-5.6,19.2-3.5,24.8,4.6l0,0c5.6,8.1,3.5,19.2-4.6,24.8l-80.3,55.3c-8.1,5.6-19.2,3.5-24.8-4.6
	c0,0,0,0,0,0l0,0c-5.6-8.1-3.5-19.2,4.6-24.8c0,0,0,0,0,0L1176.3,331.2z"/>
<path class="st7" d="M1171.8,337.6c6.9-4.7,16.3-3,21,3.9l0,0c4.7,6.9,3,16.3-3.9,21l-68.1,47c-6.9,4.7-16.3,3-21-3.9l0,0
	c-4.7-6.9-3-16.3,3.9-21L1171.8,337.6z"/>
<path class="st8" d="M1089,396.5c-2.6,9.5,3,19.3,12.5,21.9c0.4,0.1,0.7,0.2,1.1,0.3c1.2-3.5,0-9.1-3.5-14.1
	C1096.1,400.3,1092.3,397.4,1089,396.5z"/>
<path class="st1" d="M963.1,400.5c-37.2,25.6-46.6,76.6-21,113.8c25.6,37.2,76.6,46.6,113.8,21c34.1-23.5,45.3-68.8,26-105.5
	l17.5-12c0,0,3.3-15-11-18l-18.5,12.8C1042.3,382.4,996.7,377.3,963.1,400.5z M1062.3,431.5c20.1,29.1,12.8,69-16.3,89
	c-29.1,20.1-69,12.8-89-16.3s-12.8-69,16.3-89c0,0,0,0,0,0C1002.4,395.1,1042.2,402.4,1062.3,431.5L1062.3,431.5z"/>
<path class="st7" d="M945.9,474.2c3.5,35.2,34.8,60.9,70,57.4c9-0.9,17.6-3.7,25.5-8.1C982,537.4,956,498,945.9,474.2z"/>
<g id="Active1-4">
	<path class="st47" d="M1050.6,511.9c2.4,0.9,4.7,2.2,6.7,3.9l9.3-3.8l6.3,10.8l-7.8,6.5c0.2,1.3,0.3,2.7,0.3,4
		c0,1.2-0.1,2.3-0.3,3.5l8.1,6.3l-6.2,10.8l-9.4-3.5c-2,1.7-4.2,3.1-6.6,4l-1.3,9.9h-12.5l-1.7-9.7c-2.5-0.9-4.7-2.2-6.7-3.9
		l-9.3,3.8l-6.3-10.8l7.8-6.5c-0.4-2.5-0.5-5-0.1-7.5l-8.1-6.2l6.3-10.8l9.4,3.5c2-1.7,4.2-3.1,6.6-4l1.3-9.9h12.5L1050.6,511.9z"/>
	<path class="st4" d="M1043,549.5c9,0,16.3-7.3,16.3-16.3c0-9-7.3-16.3-16.3-16.3c-9,0-16.3,7.3-16.3,16.3
		C1026.7,542.2,1034,549.5,1043,549.5z"/>
	<path class="st10" d="M1043,544c6,0,10.8-4.8,10.8-10.8c0-6-4.8-10.8-10.8-10.8c-6,0-10.8,4.8-10.8,10.8
		C1032.2,539.2,1037,544,1043,544z"/>
</g>
<g id="Active-8">
	<path class="st5" d="M1073.1,419.3c3.9,0.1,7.7,0.9,11.2,2.4l11.4-9.7l13.8,12.5l-8.1,12.7c1.7,3.3,2.9,6.8,3.5,10.5l14.3,5.1
		l-3.9,18.1l-14.8-0.6c-2,3.3-4.5,6.2-7.5,8.7l2.6,14.6l-17.7,5.7l-6.8-13c-3.9-0.1-7.7-0.9-11.2-2.4l-11.4,9.6l-13.8-12.4l8.1-12.7
		c-0.9-1.7-1.7-3.6-2.3-5.4c-0.5-1.7-0.9-3.4-1.2-5.1l-14.4-5.1l3.9-18.1l14.8,0.6c2-3.3,4.5-6.2,7.5-8.7l-2.6-14.6l17.7-5.7
		L1073.1,419.3z"/>
	<path class="st4" d="M1072.1,479c14.5,0,26.2-11.8,26.2-26.3s-11.8-26.2-26.3-26.2c-14.5,0-26.2,11.7-26.2,26.2
		C1045.9,467.2,1057.6,479,1072.1,479z"/>
	<path class="st10" d="M1077,468c8.4-2.7,13-11.7,10.3-20.1s-11.7-13-20.1-10.3c-8.4,2.7-13,11.7-10.3,20.1c0,0,0,0,0,0
		C1059.6,466.1,1068.6,470.7,1077,468z"/>
</g>
<g id="Active-9">
	<g id="Active1-5">
		<path class="st67" d="M999.6,492.9c1-0.4,2.1-0.7,3.1-0.7l1.8-3.8l5,1.5l-0.5,4.2c0.4,0.3,0.9,0.7,1.2,1.1
			c0.3,0.4,0.6,0.7,0.9,1.1l4.2-0.4l1.2,5.1l-3.8,1.6c-0.1,1.1-0.4,2.1-0.9,3.1l2.4,3.4l-3.8,3.5l-3.3-2.5c-1,0.4-2.1,0.7-3.1,0.7
			l-1.8,3.8l-5-1.5l0.5-4.2c-0.4-0.3-0.9-0.7-1.2-1.1c-0.3-0.4-0.6-0.7-0.9-1.1l-4.2,0.4l-1.2-5.1l3.8-1.6c0.1-1.1,0.4-2.1,0.9-3.1
			l-2.4-3.4l3.8-3.5L999.6,492.9z"/>
		<path class="st4" d="M1008,506.5c2.7-2.5,2.9-6.8,0.3-9.6c-2.5-2.7-6.8-2.9-9.6-0.3c-2.7,2.5-2.9,6.8-0.3,9.6
			C1001,508.8,1005.3,509,1008,506.5z"/>
		<path class="st10" d="M1006.4,504.8c1.8-1.7,1.9-4.5,0.2-6.3c-1.7-1.8-4.5-1.9-6.3-0.2s-1.9,4.5-0.2,6.3c0,0,0,0,0,0
			C1001.7,506.4,1004.6,506.5,1006.4,504.8z"/>
	</g>
	<g id="Active-10">
		<path class="st61" d="M980.3,458.3c1.2-1,2.6-1.9,4.1-2.4l0.7-6.2l7.7-0.1l1.1,6.1c0.8,0.3,1.5,0.6,2.2,1c0.6,0.4,1.2,0.8,1.8,1.2
			l5.8-2.5l4,6.6l-4.7,4c0.3,1.6,0.4,3.2,0.2,4.8l4.9,3.7l-3.8,6.7l-5.7-2c-1.2,1-2.6,1.9-4.1,2.5l-0.8,6.2l-7.7,0.1l-1.1-6.1
			c-0.8-0.3-1.5-0.6-2.2-1c-0.6-0.4-1.2-0.8-1.8-1.2l-5.8,2.5l-4-6.6l4.7-4c-0.3-1.6-0.4-3.2-0.2-4.8l-4.9-3.7l3.8-6.7L980.3,458.3z
			"/>
		<path class="st4" d="M996.9,476.8c4.4-4.1,4.7-11,0.6-15.4c-4.1-4.4-11-4.7-15.4-0.6c-4.4,4.1-4.7,11-0.6,15.4
			C985.5,480.6,992.4,480.9,996.9,476.8z"/>
		<path class="st10" d="M995.3,472c1.8-3.2,0.6-7.3-2.6-9.1s-7.3-0.6-9.1,2.6c-1.8,3.2-0.7,7.2,2.5,9
			C989.4,476.3,993.4,475.2,995.3,472z"/>
	</g>
</g>
<path class="st17" d="M315.5,784.9c-24-21.2-13.1-70.6-13.1-70.6h-71.5c0,0,10.9,49.5-13.1,70.6s-52,21.2-52,21.2V818h201.7v-11.9
	C367.5,806.1,339.5,806.1,315.5,784.9z"/>
<rect x="165.8" y="806.1" class="st28" width="201.8" height="11.9"/>
<path class="st29" d="M31.8,391.1h469.8c17.6,0,31.8,14.2,31.8,31.8v259.6c0,17.6-14.2,31.8-31.8,31.8h0H31.8
	C14.2,714.3,0,700,0,682.5V422.9C0,405.3,14.2,391.1,31.8,391.1C31.8,391.1,31.8,391.1,31.8,391.1L31.8,391.1z"/>
<path class="st30" d="M0,422.9v259.6c0,5.9,1.7,11.8,4.8,16.8h523.7c3.2-5,4.8-10.8,4.8-16.8V422.9c0-7.9-3-15.5-8.3-21.4H8.3
	C3,407.4,0,415,0,422.9z"/>
<rect x="23" y="412.3" class="st31" width="487.4" height="275.9"/>
<rect x="71.3" y="588.9" class="st1" width="52" height="99.3"/>
<rect x="159.6" y="558.9" class="st1" width="52" height="129.3"/>
<rect x="248.7" y="495.9" class="st1" width="52" height="192.4"/>
<rect x="341.7" y="462.7" class="st1" width="52" height="225.5"/>
<rect x="430.5" y="428" class="st32" width="52" height="255.6"/>
<polygon class="st6" points="57.6,628.7 52.8,622.3 204.1,508.9 366.3,492 480.5,424.5 484.5,431.4 368.8,499.7 207.2,516.6 "/>
<circle class="st57" cx="55.2" cy="625.5" r="13"/>
<circle class="st57" cx="205.6" cy="512.7" r="13"/>
<circle class="st57" cx="367.5" cy="495.9" r="13"/>
<circle class="st57" cx="482.5" cy="428" r="13"/>
<g id="Man">
	<polygon class="st68" points="559.5,775.4 566.8,711.3 724.3,679.1 721.6,728.9 728.2,770.6 705.4,792 655.4,810.5 584.7,794.2 	
		"/>
	<path class="st69" d="M538.4,770.6l24.6-25.8c0,0,24.4,60.3,84.3,56.7s77.3-54,77.3-54l31.5,23.2l2.3,58.5c0,0-121,31.3-140.1,26.8
		S532,819.6,532,819.6L538.4,770.6z"/>
	<path class="st70" d="M756,770.6c-21.8,57.1-108.8,62.6-108.8,62.6s-87-5.4-108.8-62.6c0,0-201.3,49-217.6,242.1
		c0,0,81.6,160.5,326.4,176.8c244.8-16.3,326.4-176.8,326.4-176.8C957.3,819.6,756,770.6,756,770.6z"/>
	<path class="st71" d="M795.5,429.3C777.8,365.4,647.2,345,647.2,345S516.7,365.4,499,429.3s-4.1,137.4,15,194.5
		c19.1,57.1,57.1,127.8,133.3,155c76.2-27.2,114.2-97.9,133.3-155S813.2,493.2,795.5,429.3z"/>
	<path class="st7" d="M669.7,349.5c37.2,54.4,111.9,205-5.3,422.1c64.8-31,98.6-95.2,116.1-147.8c19-57.1,32.6-130.6,15-194.5
		C782.4,382.1,707.8,358.6,669.7,349.5z"/>
	<path class="st7" d="M973.6,1012.7c-13.3-157.2-149.1-218.9-199.2-236.4c48.8,62.9,147.5,207.9,122.5,322.9
		C951.8,1055.6,973.6,1012.7,973.6,1012.7z"/>
</g>
</svg>
