<svg xmlns="http://www.w3.org/2000/svg" viewBox="0 0 2801.98 2594.57"><title>Products</title><g id="Layer_2" data-name="Layer 2"><g id="Web_and_Development" data-name="Web and Development"><circle id="Background_2" data-name="Background 2" cx="2211.73" cy="1974.2" r="532" style="fill:gray"/><g id="Setting_System" data-name="Setting System"><g id="Line"><path d="M2710.94,2016.68l17,1.45.52-6.86.53-7c.09-1.29.19-2.62.29-4s.07-2.73.1-4.1c.28-11,.56-22,.56-22h-17.06s-.27,10.64-.54,21.28c0,1.33-.07,2.67-.1,4s-.2,2.59-.29,3.83c-.19,2.49-.37,4.81-.52,6.8C2711.14,2014,2710.94,2016.68,2710.94,2016.68Z" style="fill:#e8e8e8"/><path d="M2701.57,2079.34l16.67,3.61.42-1.85c.25-1.18.71-2.84,1.07-4.87.73-4.07,1.7-9.49,2.66-14.91.48-2.71,1-5.42,1.42-8s.67-4.94,1-7c.52-4.09.87-6.83.87-6.83l-16.92-2.16s-.34,2.64-.83,6.6c-.29,2-.48,4.3-.92,6.76s-.91,5.07-1.38,7.7c-.94,5.23-1.87,10.48-2.57,14.41-.35,2-.79,3.57-1,4.71Z" style="fill:#e8e8e8"/><path d="M2684.2,2140.26l16.07,5.73s.89-2.6,2.21-6.52,3.14-9.11,4.8-14.36l6-21.19-16.5-4.32-5.81,20.48c-1.59,5.08-3.38,10.09-4.63,13.88Z" style="fill:#e8e8e8"/><path d="M2659.06,2198.42l15.2,7.75,3.14-6.13c2-3.63,4.15-8.69,6.45-13.7s4.57-10,6.2-13.81,2.53-6.41,2.53-6.41l-15.81-6.41-2.45,6.19c-1.57,3.67-3.82,8.49-6,13.35s-4.3,9.73-6.22,13.24Z" style="fill:#e8e8e8"/><path d="M2626.79,2252.95l14.08,9.63s1.65-2.21,3.83-5.72l8.18-12.75c3.07-4.58,5.7-9.42,7.77-13s3.44-6,3.44-6l-14.86-8.39-3.32,5.77c-2,3.45-4.54,8.13-7.51,12.55l-7.9,12.32C2628.39,2250.81,2626.79,2252.95,2626.79,2252.95Z" style="fill:#e8e8e8"/><path d="M2587.71,2302.85l12.74,11.34,4.5-5.2,4.62-5.33c1.67-2,3.54-4,5.2-6.19l13.6-17.32-13.66-10.21-13.15,16.74c-1.6,2.13-3.4,4.09-5,6l-4.47,5.16Z" style="fill:#e8e8e8"/><path d="M2542.62,2347.34l11.19,12.87,5.2-4.51c3.19-2.62,7.1-6.5,11.1-10.29s8-7.55,10.91-10.49l4.75-5-12.25-11.87-4.59,4.82c-2.8,2.84-6.72,6.45-10.55,10.14s-7.64,7.42-10.72,9.95Z" style="fill:#e8e8e8"/><path d="M2492.29,2385.86l9.46,14.2,1.59-1c1-.62,2.41-1.65,4.1-2.84l12.33-8.78c4.56-3.1,8.81-6.59,12.07-9.13l5.42-4.25-10.64-13.33-5.23,4.11c-3.15,2.45-7.27,5.84-11.67,8.83l-11.93,8.48c-1.63,1.15-3,2.15-4,2.75Z" style="fill:#e8e8e8"/><path d="M2437.4,2417.52l7.57,15.29,6.12-3.14,6.28-3.22c2.29-1.2,4.78-2.38,7.13-3.8l19.1-11-8.85-14.58-18.46,10.61c-2.28,1.38-4.68,2.52-6.89,3.67l-6.07,3.11Z" style="fill:#e8e8e8"/><path d="M2378.92,2441.87l5.54,16.13,6.52-2.21,3.16-1.07,3.46-1.36,7.52-3c5.11-2.06,10.28-4,14.06-5.64l6.27-2.83-6.91-15.6-6.07,2.74c-3.65,1.63-8.65,3.46-13.58,5.45l-7.27,2.86-3.35,1.32-3.05,1Z" style="fill:#e8e8e8"/><path d="M2317.82,2458.66l3.41,16.71,21.46-4.94c1.34-.33,2.7-.6,4-1l3.83-1.09,6.78-1.93,6.62-1.88-4.84-16.35-6.4,1.82-6.56,1.87-3.7,1c-1.27.34-2.57.61-3.86.92Z" style="fill:#e8e8e8"/><path d="M2255,2467.17l1.25,17,6.86-.52,7-.53c2.57-.28,5.29-.66,8-1l15-1.91c2.05-.24,3.76-.49,4.94-.72l1.86-.34-2.7-16.84-1.8.32c-1.15.23-2.79.47-4.77.7l-14.52,1.85c-2.64.33-5.27.7-7.75,1l-6.8.51Z" style="fill:#e8e8e8"/><path d="M2191.64,2467.93l-.91,17s.68.08,1.89.11l5,.13,15.13.38c5.5.25,11,0,15.13-.1l6.88-.18-.53-17.05-6.65.17c-4,.08-9.31.35-14.64.1l-14.63-.37-4.82-.12C2192.31,2468,2191.64,2467.93,2191.64,2467.93Z" style="fill:#e8e8e8"/><path d="M2128.73,2460.41l-3.07,16.78,6.78,1.21,6.94,1.24c2.54.44,5.29.7,8,1.07l15,1.91c2.05.25,3.76.5,5,.56l1.89.14,1.62-17-1.83-.14c-1.16-.05-2.81-.31-4.79-.55l-14.52-1.85c-2.64-.36-5.29-.61-7.75-1l-6.71-1.2Z" style="fill:#e8e8e8"/><path d="M2067.26,2445.06l-5.21,16.24,1.8.61c1.13.4,2.76,1,4.76,1.48l14.56,4.13c2.66.74,5.3,1.52,7.79,2.19l6.88,1.59,6.71,1.55,3.78-16.63-6.48-1.5-6.65-1.53c-2.41-.64-5-1.4-7.52-2.12l-14.08-4c-1.93-.51-3.5-1-4.6-1.43Z" style="fill:#e8e8e8"/><path d="M2008.3,2421.86l-7.25,15.44,6.27,2.84,6.43,2.9,3.63,1.64,1.86.84,1.91.76,20.5,8.08,5.89-16-19.8-7.81-1.86-.73-1.8-.81-3.5-1.59-6.21-2.81Z" style="fill:#e8e8e8"/><path d="M1952.85,2391.23l-9.18,14.38,5.79,3.72c3.42,2.32,8.27,5,13,7.72s9.52,5.55,13.16,7.49l6.13,3.14,7.9-15.12-5.92-3c-3.52-1.89-8.09-4.62-12.71-7.25s-9.28-5.21-12.58-7.47Z" style="fill:#e8e8e8"/><path d="M1901.66,2353.88,1890.73,2367s2,1.86,5.33,4.36l11.9,9.36c4.26,3.49,8.83,6.57,12.17,9l5.61,4,9.77-14-5.42-3.85c-3.24-2.33-7.66-5.31-11.77-8.69l-11.51-9C1903.63,2355.67,1901.66,2353.88,1901.66,2353.88Z" style="fill:#e8e8e8"/><path d="M1855.73,2310.22l-12.51,11.6,4.75,5,4.87,5.1c1.8,1.85,3.63,3.91,5.66,5.76l15.94,15.2,11.47-12.62-15.4-14.69c-2-1.79-3.74-3.78-5.48-5.57l-4.71-4.93Z" style="fill:#e8e8e8"/><path d="M1815.73,2261.07l-13.89,9.91,4,5.61c2.3,3.43,5.79,7.7,9.18,12s6.76,8.7,9.4,11.87l4.51,5.2,13-11.06-4.36-5c-2.55-3.07-5.77-7.31-9.08-11.48s-6.65-8.31-8.88-11.63Z" style="fill:#e8e8e8"/><path d="M1782.22,2207.3l-15,8.05s1.2,2.48,3.31,6l7.55,13.12c2.65,4.83,5.72,9.4,7.94,12.89l3.71,5.79,14.29-9.32-3.59-5.6c-2.14-3.37-5.12-7.79-7.68-12.45l-7.3-12.69C1783.37,2209.7,1782.22,2207.3,1782.22,2207.3Z" style="fill:#e8e8e8"/><path d="M1756,2149.61l-16,6.05s1,2.56,2.53,6.41l2.59,6.56c1,2.4,1.92,5,3.11,7.46l9.08,20.07,15.36-7.41-8.78-19.39c-1.15-2.4-2.08-4.9-3-7.21l-2.5-6.34Z" style="fill:#e8e8e8"/><path d="M1737.42,2089l-16.59,3.95s.62,2.69,1.55,6.71c.42,2,1.11,4.33,1.81,6.82s1.46,5.13,2.21,7.78,1.51,5.29,2.21,7.78,1.35,4.8,2.06,6.75l2.2,6.52,16.19-5.37-2.13-6.3c-.69-1.88-1.32-4.12-2-6.52s-1.41-5-2.14-7.52-1.45-5.12-2.13-7.52-1.35-4.63-1.76-6.59C1738,2091.64,1737.42,2089,1737.42,2089Z" style="fill:#e8e8e8"/><path d="M1726.65,2026.61l-17,1.79,2.77,21.84c.79,5.45,1.89,10.85,2.58,14.92s1.21,6.78,1.21,6.78l16.75-3.24-1.17-6.55c-.66-3.94-1.73-9.15-2.49-14.42Z" style="fill:#e8e8e8"/><path d="M1724.13,1963.28l-17.05-.37s-.07,2.75-.18,6.88.05,9.63.16,15.13.28,11,.38,15.12c.3,4.12.5,6.87.5,6.87l17-1.08s-.2-2.65-.48-6.63c-.1-4-.23-9.31-.37-14.64s-.37-10.64-.16-14.63S1724.13,1963.28,1724.13,1963.28Z" style="fill:#e8e8e8"/><path d="M1729.38,1900.12l-16.86-2.53-2.79,21.85c-.4,2.72-.51,5.48-.73,8l-.53,7-.52,6.86,17,1.08s.21-2.66.51-6.63c.15-2,.33-4.31.51-6.8s.31-5.15.71-7.78Z" style="fill:#e8e8e8"/><path d="M1742.93,1838.22l-16.41-4.67-1.87,6.61c-.55,2-1.25,4.3-1.89,6.8s-1.2,5.2-1.82,7.88c-1.24,5.36-2.48,10.74-3.41,14.76-.51,2-.7,3.72-1,4.9s-.33,1.86-.33,1.86l16.75,3.24s.12-.65.32-1.8.42-2.79.92-4.73l3.29-14.26,1.75-7.62c.62-2.42,1.31-4.65,1.84-6.57Z" style="fill:#e8e8e8"/><path d="M1764.12,1778.54l-15.66-6.76-.78,1.73c-.52,1.09-1.15,2.69-1.9,4.61l-5.56,14.09c-1,2.57-2.08,5.1-2.89,7.55s-1.59,4.73-2.26,6.69l-2.21,6.52,16.19,5.37,2.13-6.3c.64-1.89,1.39-4.1,2.19-6.46s1.85-4.81,2.8-7.3l5.37-13.61c.72-1.86,1.33-3.4,1.84-4.45Z" style="fill:#e8e8e8"/><path d="M1792.93,1722.09l-14.67-8.7-3.42,6-3.52,6.12c-1.27,2.25-2.72,4.59-3.93,7.07l-10,19.6,15.36,7.41,9.71-18.95c1.16-2.4,2.57-4.66,3.8-6.84l3.4-5.91C1791.61,1724.4,1792.93,1722.09,1792.93,1722.09Z" style="fill:#e8e8e8"/><path d="M1828.75,1669.82l-13.44-10.51-4.26,5.41c-2.64,3.18-5.72,7.75-8.93,12.22s-6.44,8.94-8.72,12.38l-3.72,5.79,14.28,9.32,3.59-5.61c2.2-3.33,5.37-7.61,8.42-12s6.09-8.74,8.65-11.81S1828.75,1669.82,1828.75,1669.82Z" style="fill:#e8e8e8"/><path d="M1870.82,1622.45l-12-12.14s-2,1.85-4.85,4.88l-10.45,11c-3.88,3.91-7.39,8.16-10.11,11.26l-4.5,5.2,13,11.06,4.36-5c2.63-3,6-7.12,9.77-10.89l10.1-10.59C1868.84,1624.23,1870.82,1622.45,1870.82,1622.45Z" style="fill:#e8e8e8"/><path d="M1918.67,1580.88l-10.35-13.56-5.4,4.25-5.55,4.36c-2,1.62-4.25,3.24-6.28,5.09l-16.65,14.41,11.47,12.62,16.09-13.94c2-1.78,4.13-3.35,6.07-4.92l5.36-4.21Z" style="fill:#e8e8e8"/><path d="M1971.42,1545.78l-8.53-14.77-6,3.43c-3.64,2-8.21,5-12.86,8s-9.3,5.89-12.71,8.22l-5.61,4,9.77,14,5.42-3.86c3.3-2.25,7.83-5.05,12.29-7.94s8.91-5.83,12.43-7.73Z" style="fill:#e8e8e8"/><path d="M2028.17,1517.59l-6.57-15.74-1.76.7c-1.12.44-2.67,1.18-4.56,2l-13.8,6.24c-5.06,2.16-9.9,4.81-13.59,6.67l-6.13,3.14,7.9,15.12,5.92-3c3.57-1.79,8.24-4.36,13.13-6.45l13.34-6c1.82-.81,3.32-1.54,4.41-2Z" style="fill:#e8e8e8"/><path d="M2088.1,1497.09l-4.49-16.45-6.61,1.88-6.79,1.93-3.82,1.09-3.89,1.31-14.35,4.86-4.73,1.6a18.42,18.42,0,0,0-1.77.64l5.89,16a17.16,17.16,0,0,1,1.72-.62l4.56-1.55,13.86-4.69,3.76-1.26,3.7-1.05,6.56-1.86Z" style="fill:#e8e8e8"/><path d="M2150.19,1484.42l-2.34-16.89-6.83.87c-4.07.67-9.49,1.68-14.91,2.63s-10.86,1.83-14.86,2.87l-6.71,1.54,3.79,16.63,6.48-1.5c3.87-1,9.13-1.79,14.37-2.77s10.48-1.9,14.41-2.55Z" style="fill:#e8e8e8"/><path d="M2213.39,1479.76l-.17-17.06-22,.61-22,1.67,1.62,17,21.24-1.61Z" style="fill:#e8e8e8"/><path d="M2276.66,1483.17l2-16.94-6.83-.87c-4.11-.43-9.6-.77-15.09-1.21l-8.07-.61-3.7-.28-3.33-.1-6.88-.18-.53,17.05,6.65.16c1,0,2.08,0,3.22.1l3.59.27,7.79.59c5.31.43,10.62.75,14.59,1.17Z" style="fill:#e8e8e8"/><path d="M2339,1494.52l4.14-16.54-21.46-4.95-21.67-3.89-2.71,16.84,21,3.75Z" style="fill:#e8e8e8"/><path d="M2399.31,1513.94l6.24-15.87-6.41-2.53c-1.93-.72-4.13-1.72-6.59-2.5l-7.66-2.59-14.35-4.86-6.61-1.88-4.85,16.35,6.4,1.82,13.86,4.69,7.4,2.51c2.38.75,4.5,1.72,6.37,2.42Z" style="fill:#e8e8e8"/><path d="M2456.69,1540.81l8.23-14.93-1.64-.94c-1-.63-2.58-1.37-4.41-2.33l-13.48-6.9c-4.84-2.61-9.91-4.79-13.67-6.5l-6.27-2.83-6.91,15.59,6.05,2.74c3.63,1.65,8.53,3.75,13.22,6.28l13,6.67c1.77.92,3.28,1.63,4.26,2.25Z" style="fill:#e8e8e8"/><path d="M2510.08,1574.91l10.07-13.76-5.61-4-5.75-4.09c-2.11-1.48-4.31-3.14-6.66-4.58l-18.54-11.87-8.85,14.58,17.92,11.48c2.27,1.39,4.39,3,6.43,4.43l5.56,4Z" style="fill:#e8e8e8"/><path d="M2558.7,1615.56l11.74-12.37-5-4.75c-2.92-2.93-7.16-6.44-11.3-10.06s-8.28-7.26-11.49-9.86l-5.41-4.25-10.64,13.33,5.23,4.11c3.11,2.51,7.07,6.07,11.11,9.53s8.12,6.9,10.94,9.73Z" style="fill:#e8e8e8"/><path d="M2601.85,1662l13.22-10.77-1.17-1.49c-.72-1-1.87-2.24-3.22-3.81l-9.91-11.45c-3.53-4.24-7.42-8.14-10.25-11.14l-4.75-5-12.25,11.87,4.6,4.82c2.73,2.9,6.5,6.67,9.9,10.77l9.59,11.06c1.3,1.52,2.42,2.75,3.11,3.68Z" style="fill:#e8e8e8"/><path d="M2638.63,1713.57l14.49-9-3.71-5.8-3.81-5.94c-1.41-2.15-2.81-4.53-4.46-6.74l-12.77-17.95-13.66,10.21,12.34,17.35c1.6,2.14,2.95,4.43,4.32,6.52L2635,1708Z" style="fill:#e8e8e8"/><path d="M2668.5,1769.45l15.53-7.07-2.83-6.27c-1.6-3.82-4.25-8.65-6.72-13.57s-5-9.83-7-13.44l-3.42-6-14.86,8.39,3.31,5.77c1.93,3.49,4.28,8.27,6.73,13s5,9.43,6.5,13.11Z" style="fill:#e8e8e8"/><path d="M2691.09,1828.64l16.31-5s-.19-.66-.53-1.82-.94-2.77-1.6-4.73l-4.85-14.34-1.32-3.89c-.44-1.28-1-2.51-1.43-3.71l-2.58-6.56c-1.52-3.84-2.53-6.41-2.53-6.41l-15.81,6.41,2.44,6.19,2.5,6.34c.45,1.17,1,2.35,1.39,3.59s.84,2.5,1.27,3.76l4.69,13.86c.64,1.89,1.18,3.46,1.55,4.57S2691.09,1828.64,2691.09,1828.64Z" style="fill:#e8e8e8"/><path d="M2705.66,1890.31l16.82-2.87-1.2-6.78c-.77-4.06-1.58-9.51-2.93-14.85s-2.48-10.73-3.41-14.75c-.46-2-.85-3.69-1.13-4.86l-.51-1.82-16.5,4.32.5,1.76c.26,1.14.64,2.75,1.09,4.7.9,3.89,2.1,9.08,3.29,14.26s2.1,10.43,2.83,14.36S2705.66,1890.31,2705.66,1890.31Z" style="fill:#e8e8e8"/><path d="M2712.35,1953.3l17-.71s0-.68,0-1.89,0-2.93-.23-5l-1.15-15.1c-.21-2.74-.42-5.49-.62-8.06s-.6-4.95-.85-7c-.52-4.1-.87-6.83-.87-6.83l-16.91,2.16s.34,2.64.83,6.6c.24,2,.59,4.28.83,6.76s.39,5.14.59,7.8c.4,5.31.81,10.61,1.11,14.59.19,2,.19,3.65.23,4.82S2712.35,1953.3,2712.35,1953.3Z" style="fill:#e8e8e8"/></g><g id="Setting"><path d="M2121.3,2017.47c.32-.24.65-.46,1-.71L2418.6,1773a26.92,26.92,0,0,0,3.68-37.9l-25.66-31.19a26.92,26.92,0,0,0-37.9-3.69L2062.39,1944c-.31.26-.59.55-.89.81a143.62,143.62,0,0,0-211.92,165.54l113.22-93.14a26.93,26.93,0,0,1,37.9,3.69l34.22,41.59a26.94,26.94,0,0,1-3.69,37.9L1918,2193.49a143.62,143.62,0,0,0,203.29-176Z" style="fill:#29abe2"/><path d="M2068.94,2065l-61.84-75.18a26.93,26.93,0,0,0-37.9-3.69l-124.59,102.49a142.91,142.91,0,0,0,5,21.72l113.22-93.14a26.93,26.93,0,0,1,37.9,3.69l34.22,41.59a26.94,26.94,0,0,1-3.69,37.9L1918,2193.49a143.43,143.43,0,0,0,24.39,10.45l122.86-101.07A26.92,26.92,0,0,0,2068.94,2065Z" style="opacity:0.4"/><path d="M2425.89,1740.82a26.86,26.86,0,0,0-3.6-5.76l-25.66-31.19a26.9,26.9,0,0,0-5-4.64L2086,1950.73c-13.11,10.78-16.07,28.83-6.63,40.33s27.74,12.05,40.84,1.27Z" style="fill:#fff;opacity:0.4"/><circle cx="2377.28" cy="1747.03" r="22.16" transform="translate(-568.49 1908.24) rotate(-39.44)" style="opacity:0.5"/></g><polygon points="1912.78 1659.11 1906.75 1666.36 1900.72 1673.59 1934.83 1725.19 1964.71 1731.45 1964.71 1731.45 2253.37 1963.56 2271.81 1941.41 1983.15 1709.3 1970.99 1681.75 1912.78 1659.11" style="fill:#14b0bf"/><path d="M2554.83,2103.18s-153.39-124.89-172.28-138.46-29.16-4.21-29.16-4.21c-1.32-12.58-9.34-24.5-9.34-24.5s-36.22-28.4-47.12-35.58-22.62-1-22.62-1l-32.8,36,.49.4-27.7,36.74s-3.8,12.53,5.57,21.58,44.95,38.19,44.95,38.19,13.49,5.31,26.3,4.06c0,0-7.25,11.78,10.08,27.22s172.69,138,172.69,138,21.62,13.37,44-4.31,27.77-25.94,27.77-25.94l-.61-.49a231,231,0,0,0,14.34-24.37C2572.5,2121.29,2554.83,2103.18,2554.83,2103.18Z" style="fill:#34495e"/><path d="M2561.55,2141.66c-14.49-4.47-32.43,1.3-44.32,15.58-11.65,14-14,32-7.17,45a45.18,45.18,0,0,0,7.85-5c22.41-17.68,27.77-25.94,27.77-25.94l-.61-.49a231,231,0,0,0,14.34-24.37A44.52,44.52,0,0,0,2561.55,2141.66Z" style="fill:#f99c1d"/><path d="M2353.39,1960.51c-1.32-12.58-9.34-24.5-9.34-24.5s-36.22-28.4-47.12-35.58-22.62-1-22.62-1l-32.8,36,.49.4-.06.08,299.29,240.66a46,46,0,0,0,4.44-5.25l-.61-.49a231,231,0,0,0,14.34-24.37c13.1-25.13-4.57-43.24-4.57-43.24s-153.39-124.89-172.28-138.46S2353.39,1960.51,2353.39,1960.51Z" style="opacity:0.2"/><path d="M2496.95,2167.24a9,9,0,0,1,1.3,12.78h0a9.36,9.36,0,0,1-13,1.28l-165.13-132.79a9,9,0,0,1-1.3-12.78h0a9.36,9.36,0,0,1,13-1.28Z" style="opacity:0.1"/><path d="M2531.26,2126a9,9,0,0,1,1.3,12.78h0a9.36,9.36,0,0,1-13,1.28l-165.13-132.79a9,9,0,0,1-1.3-12.77h0a9.34,9.34,0,0,1,13-1.28Z" style="opacity:0.1"/><polygon points="2271.81 1941.41 1983.15 1709.3 1970.99 1681.75 1912.78 1659.11 1906.75 1666.36 2262.59 1952.48 2271.81 1941.41" style="opacity:0.1"/><g id="Active"><g id="Active2"><path d="M1686,2188a45.55,45.55,0,0,1,13.65,7.86l18.93-7.8,12.73,22-15.85,13.14a46.49,46.49,0,0,1,.15,15.21l16.5,12.7-12.73,22-19-7a45.41,45.41,0,0,1-13.48,8.14l-2.68,20.12h-25.45l-3.37-19.79a45.25,45.25,0,0,1-13.65-7.86l-18.93,7.81-12.72-22,15.85-13.14a47,47,0,0,1-.71-8.07,46.16,46.16,0,0,1,.56-7.15l-16.5-12.7,12.72-22,19,7a45.43,45.43,0,0,1,13.47-8.14l2.68-20.12h25.46Z" style="fill:#595959;fill-rule:evenodd"/><path d="M1670.65,2263.75a32.47,32.47,0,1,0-32.47-32.47,32.54,32.54,0,0,0,32.47,32.47Z" style="fill-rule:evenodd;opacity:0.5"/><path d="M1670.65,2253.22a21.93,21.93,0,1,0-21.94-21.93,22,22,0,0,0,21.94,21.93Z" style="fill:#fff;fill-rule:evenodd;opacity:0.5"/></g><g id="Active1"><path d="M1755.11,2275.2a35.26,35.26,0,0,1,10.51,6.05l14.58-6,9.8,17-12.2,10.12a36.13,36.13,0,0,1,.53,6.21,35.59,35.59,0,0,1-.42,5.5l12.7,9.78-9.8,17-14.65-5.42a34.93,34.93,0,0,1-10.37,6.27l-2.07,15.5h-19.6l-2.59-15.24a34.69,34.69,0,0,1-10.52-6.05l-14.58,6-9.8-17,12.21-10.12a35.61,35.61,0,0,1-.54-6.21,36.56,36.56,0,0,1,.42-5.51l-12.7-9.78,9.8-17,14.64,5.42a35,35,0,0,1,10.38-6.27l2.07-15.49h19.6Z" style="fill:#ea844b;fill-rule:evenodd"/><path d="M1743.32,2334a25.47,25.47,0,1,0-25.48-25.47,25.53,25.53,0,0,0,25.48,25.47Z" style="fill-rule:evenodd;opacity:0.5"/><path d="M1743.32,2325.45a16.89,16.89,0,1,0-16.89-16.89,16.93,16.93,0,0,0,16.89,16.89Z" style="fill:#fff;fill-rule:evenodd;opacity:0.5"/></g><g id="Active-2" data-name="Active"><path d="M1790.29,2130.26a51.73,51.73,0,0,1,17.58,3.76l17.83-15.1,21.54,19.48-12.62,19.83a52.33,52.33,0,0,1,3.58,8.52,52.92,52.92,0,0,1,1.91,8l22.36,8-6.11,28.4-23.12-1a51.68,51.68,0,0,1-11.78,13.55l4.13,22.79-27.64,8.91-10.59-20.31a51.49,51.49,0,0,1-17.59-3.76l-17.83,15.1-21.54-19.49,12.62-19.83a52.83,52.83,0,0,1-3.59-8.51,54.21,54.21,0,0,1-1.91-8l-22.36-8,6.11-28.39,23.13,1a51.59,51.59,0,0,1,11.78-13.55l-4.13-22.79,27.64-8.91Z" style="fill:#e74c3c;fill-rule:evenodd"/><path d="M1788.81,2223.73a41.07,41.07,0,1,0-41.08-41.07,41.16,41.16,0,0,0,41.08,41.07Z" style="fill-rule:evenodd;opacity:0.5"/><path d="M1796.49,2206.49a25,25,0,1,0-31.51-16.15,25.08,25.08,0,0,0,31.51,16.15Z" style="fill:#fff;fill-rule:evenodd;opacity:0.5"/></g></g><g id="Laptop"><rect x="1668.26" y="1586.67" width="174.32" height="8.09" style="fill:#033"/><path d="M1885,1488.17H1622.78c-12,0-15.73,7.55-13.41,16.46,0-.1,0-.21,0-.32a6.14,6.14,0,0,0,.18,1.84l19,71.63c2.87,10.87,5.44,11.21,19.59,11.19l219.22,0c11.38,0,16.93,0,19.19-10.9l14.77-71.9a5.88,5.88,0,0,0,.1-.82v0l.72-6.09C1903.17,1490.51,1891.65,1488.17,1885,1488.17Zm-275.46,15.19a4.46,4.46,0,0,0-.09.51A4.46,4.46,0,0,1,1609.51,1503.36Zm.56-1.66c0,.08-.08.16-.12.24C1610,1501.85,1610,1501.78,1610.07,1501.7Zm-.32.77c0,.14-.1.28-.14.42C1609.65,1502.74,1609.71,1502.61,1609.76,1502.47Zm10.7-7c.4,0,.79-.05,1.18-.05C1621.25,1495.4,1620.86,1495.42,1620.46,1495.45Zm-7.29,2.71.08-.07Zm.86-.58.16-.1Zm.94-.53.25-.13Zm1-.47.33-.14Zm1.06-.4.43-.13Zm1.11-.33.53-.12Zm1.14-.25.7-.1Z" style="fill:#366;fill-rule:evenodd"/><path d="M1622.78,1488.17H1885c6.68,0,18.2,2.34,17.19,11.09l-.72,6.09c-1-4.53-6.62-9.95-12.17-9.95H1621.64c-6,0-12.33,4.17-12.27,9.23-2.32-8.91,1.39-16.46,13.41-16.46Z" style="fill-rule:evenodd;opacity:0.5"/><polygon points="1622.72 1500.46 1889.63 1500.17 1875.23 1583.59 1639.46 1583.66 1622.72 1500.46" style="fill:#fff;fill-rule:evenodd;opacity:0.8"/><path d="M1635.83,1591.41h240.7a7.28,7.28,0,0,1,7.26,7.25V1731.4a7.28,7.28,0,0,1-7.26,7.25h-240.7a7.28,7.28,0,0,1-7.25-7.25V1598.66a7.28,7.28,0,0,1,7.25-7.25Z" style="fill:#cecece;fill-rule:evenodd"/><path d="M1883.79,1598.66a7.28,7.28,0,0,0-7.26-7.25h-20.26l-153.43,147.24h173.69a7.28,7.28,0,0,0,7.26-7.25Z" style="opacity:0.2"/><rect x="1722.08" y="1693.75" width="68.19" height="35.69" style="fill:#033"/><rect x="1641.23" y="1603.85" width="229.9" height="83.57" style="opacity:0.30000000000000004"/><path d="M1783.93,1711.92c0,8.5-1.47,15.39-3.28,15.39H1730c-1.82,0-3.28-6.89-3.28-15.39h0c0-8.5,1.46-15.38,3.28-15.38h50.6c1.81,0,3.28,6.89,3.28,15.38Z" style="opacity:0.30000000000000004"/><g id="Keyboard"><path d="M1646.21,1608.79h10.67a1.34,1.34,0,0,1,1.13,1.48v11.49a1.35,1.35,0,0,1-1.13,1.49h-10.67a1.36,1.36,0,0,1-1.15-1.49v-11.49a1.36,1.36,0,0,1,1.15-1.48Z" style="fill:#333;fill-rule:evenodd"/><path d="M1663.53,1608.79h10.68a1.36,1.36,0,0,1,1.15,1.48v11.49a1.37,1.37,0,0,1-1.15,1.49h-10.68a1.37,1.37,0,0,1-1.15-1.49v-11.49a1.36,1.36,0,0,1,1.15-1.48Z" style="fill:#333;fill-rule:evenodd"/><path d="M1680.87,1608.79h10.65a1.36,1.36,0,0,1,1.15,1.48v11.49a1.37,1.37,0,0,1-1.15,1.49h-10.65a1.36,1.36,0,0,1-1.16-1.49v-11.49a1.36,1.36,0,0,1,1.16-1.48Z" style="fill:#333;fill-rule:evenodd"/><path d="M1698.17,1608.79h10.66a1.34,1.34,0,0,1,1.15,1.48v11.49a1.35,1.35,0,0,1-1.15,1.49h-10.66a1.37,1.37,0,0,1-1.15-1.49v-11.49a1.36,1.36,0,0,1,1.15-1.48Z" style="fill:#333;fill-rule:evenodd"/><path d="M1715.49,1608.79h10.68a1.36,1.36,0,0,1,1.15,1.48v11.49a1.36,1.36,0,0,1-1.15,1.49h-10.68a1.37,1.37,0,0,1-1.15-1.49v-11.49a1.36,1.36,0,0,1,1.15-1.48Z" style="fill:#333;fill-rule:evenodd"/><path d="M1732.83,1608.79h10.65a1.36,1.36,0,0,1,1.15,1.48v11.49a1.36,1.36,0,0,1-1.15,1.49h-10.65a1.37,1.37,0,0,1-1.15-1.49v-11.49a1.36,1.36,0,0,1,1.15-1.48Z" style="fill:#333;fill-rule:evenodd"/><path d="M1750.14,1608.79h10.65a1.34,1.34,0,0,1,1.16,1.48v11.49a1.35,1.35,0,0,1-1.16,1.49h-10.65a1.36,1.36,0,0,1-1.15-1.49v-11.49a1.36,1.36,0,0,1,1.15-1.48Z" style="fill:#333;fill-rule:evenodd"/><path d="M1767.46,1608.79h10.68a1.36,1.36,0,0,1,1.15,1.48v11.49a1.37,1.37,0,0,1-1.15,1.49h-10.68a1.37,1.37,0,0,1-1.15-1.49v-11.49a1.36,1.36,0,0,1,1.15-1.48Z" style="fill:#333;fill-rule:evenodd"/><path d="M1784.8,1608.79h10.64a1.36,1.36,0,0,1,1.15,1.48v11.49a1.36,1.36,0,0,1-1.15,1.49H1784.8a1.35,1.35,0,0,1-1.16-1.49v-11.49a1.34,1.34,0,0,1,1.16-1.48Z" style="fill:#333;fill-rule:evenodd"/><path d="M1802.11,1608.79h10.64a1.34,1.34,0,0,1,1.16,1.48v11.49a1.35,1.35,0,0,1-1.16,1.49h-10.64a1.36,1.36,0,0,1-1.15-1.49v-11.49a1.36,1.36,0,0,1,1.15-1.48Z" style="fill:#333;fill-rule:evenodd"/><path d="M1819.42,1608.79h10.68a1.35,1.35,0,0,1,1.15,1.48v11.49a1.36,1.36,0,0,1-1.15,1.49h-10.68a1.36,1.36,0,0,1-1.15-1.49v-11.49a1.35,1.35,0,0,1,1.15-1.48Z" style="fill:#333;fill-rule:evenodd"/><path d="M1672.22,1628.87h10.64a1.36,1.36,0,0,1,1.15,1.48v11.49a1.36,1.36,0,0,1-1.15,1.48h-10.64a1.36,1.36,0,0,1-1.16-1.48v-11.49a1.36,1.36,0,0,1,1.16-1.48Z" style="fill:#333;fill-rule:evenodd"/><path d="M1689.53,1628.87h10.67a1.36,1.36,0,0,1,1.16,1.48v11.49a1.36,1.36,0,0,1-1.16,1.48h-10.67a1.36,1.36,0,0,1-1.15-1.48v-11.49a1.36,1.36,0,0,1,1.15-1.48Z" style="fill:#333;fill-rule:evenodd"/><path d="M1706.85,1628.87h10.68a1.36,1.36,0,0,1,1.15,1.48v11.49a1.36,1.36,0,0,1-1.15,1.48h-10.68a1.34,1.34,0,0,1-1.13-1.48v-11.49a1.34,1.34,0,0,1,1.13-1.48Z" style="fill:#333;fill-rule:evenodd"/><path d="M1724.18,1628.87h10.65a1.36,1.36,0,0,1,1.15,1.48v11.49a1.36,1.36,0,0,1-1.15,1.48h-10.65a1.36,1.36,0,0,1-1.15-1.48v-11.49a1.36,1.36,0,0,1,1.15-1.48Z" style="fill:#333;fill-rule:evenodd"/><path d="M1741.5,1628.87h10.67a1.34,1.34,0,0,1,1.13,1.48v11.49a1.34,1.34,0,0,1-1.13,1.48H1741.5a1.36,1.36,0,0,1-1.15-1.48v-11.49a1.36,1.36,0,0,1,1.15-1.48Z" style="fill:#333;fill-rule:evenodd"/><path d="M1758.81,1628.87h10.68a1.36,1.36,0,0,1,1.15,1.48v11.49a1.36,1.36,0,0,1-1.15,1.48h-10.68a1.36,1.36,0,0,1-1.15-1.48v-11.49a1.36,1.36,0,0,1,1.15-1.48Z" style="fill:#333;fill-rule:evenodd"/><path d="M1776.15,1628.87h10.65a1.36,1.36,0,0,1,1.15,1.48v11.49a1.36,1.36,0,0,1-1.15,1.48h-10.65a1.36,1.36,0,0,1-1.15-1.48v-11.49a1.36,1.36,0,0,1,1.15-1.48Z" style="fill:#333;fill-rule:evenodd"/><path d="M1793.46,1628.87h10.68a1.34,1.34,0,0,1,1.13,1.48v11.49a1.34,1.34,0,0,1-1.13,1.48h-10.68a1.36,1.36,0,0,1-1.15-1.48v-11.49a1.36,1.36,0,0,1,1.15-1.48Z" style="fill:#333;fill-rule:evenodd"/><path d="M1810.78,1628.87h10.68a1.36,1.36,0,0,1,1.15,1.48v11.49a1.36,1.36,0,0,1-1.15,1.48h-10.68a1.36,1.36,0,0,1-1.15-1.48v-11.49a1.36,1.36,0,0,1,1.15-1.48Z" style="fill:#333;fill-rule:evenodd"/><path d="M1828.12,1628.87h10.66a1.36,1.36,0,0,1,1.15,1.48v11.49a1.36,1.36,0,0,1-1.15,1.48h-10.66a1.36,1.36,0,0,1-1.15-1.48v-11.49a1.36,1.36,0,0,1,1.15-1.48Z" style="fill:#333;fill-rule:evenodd"/><path d="M1836.77,1608.79h10.64a1.36,1.36,0,0,1,1.15,1.48v11.49a1.37,1.37,0,0,1-1.15,1.49h-10.64a1.35,1.35,0,0,1-1.16-1.49v-11.49a1.35,1.35,0,0,1,1.16-1.48Z" style="fill:#333;fill-rule:evenodd"/><path d="M1854.07,1608.79h10.65a1.36,1.36,0,0,1,1.16,1.48v11.49a1.36,1.36,0,0,1-1.16,1.49h-10.65a1.37,1.37,0,0,1-1.15-1.49v-11.49a1.36,1.36,0,0,1,1.15-1.48Z" style="fill:#333;fill-rule:evenodd"/><path d="M1845.71,1628.87h19a1.36,1.36,0,0,1,1.16,1.48v11.49a1.36,1.36,0,0,1-1.16,1.48h-19a1.36,1.36,0,0,1-1.16-1.48v-11.49a1.36,1.36,0,0,1,1.16-1.48Z" style="fill:#333;fill-rule:evenodd"/><path d="M1646.39,1628.87h19.73a1.36,1.36,0,0,1,1.16,1.48v11.49a1.36,1.36,0,0,1-1.16,1.48h-19.73a1.34,1.34,0,0,1-1.16-1.48v-11.49a1.34,1.34,0,0,1,1.16-1.48Z" style="fill:#333;fill-rule:evenodd"/><path d="M1646.39,1648.94H1670a1.36,1.36,0,0,1,1.15,1.48v11.5a1.36,1.36,0,0,1-1.15,1.48h-23.57a1.35,1.35,0,0,1-1.16-1.48v-11.5a1.34,1.34,0,0,1,1.16-1.48Z" style="fill:#333;fill-rule:evenodd"/><path d="M1646.39,1669H1657a1.36,1.36,0,0,1,1.15,1.48V1682a1.36,1.36,0,0,1-1.15,1.48h-10.62a1.34,1.34,0,0,1-1.16-1.48v-11.5a1.34,1.34,0,0,1,1.16-1.48Z" style="fill:#333;fill-rule:evenodd"/><path d="M1663.68,1669h10.63a1.36,1.36,0,0,1,1.16,1.48V1682a1.36,1.36,0,0,1-1.16,1.48h-10.62a1.36,1.36,0,0,1-1.16-1.48v-11.5a1.36,1.36,0,0,1,1.16-1.48Z" style="fill:#333;fill-rule:evenodd"/><path d="M1681,1669h10.63a1.34,1.34,0,0,1,1.16,1.48V1682a1.34,1.34,0,0,1-1.16,1.48H1681a1.36,1.36,0,0,1-1.16-1.48v-11.5A1.36,1.36,0,0,1,1681,1669Z" style="fill:#333;fill-rule:evenodd"/><path d="M1698.26,1669H1809a1.34,1.34,0,0,1,1.15,1.48V1682a1.34,1.34,0,0,1-1.15,1.48H1698.26a1.36,1.36,0,0,1-1.15-1.48v-11.5a1.36,1.36,0,0,1,1.15-1.48Z" style="fill:#333;fill-rule:evenodd"/><path d="M1676.36,1649.13H1687a1.36,1.36,0,0,1,1.16,1.48v11.5a1.36,1.36,0,0,1-1.16,1.48h-10.64a1.36,1.36,0,0,1-1.15-1.48v-11.5a1.36,1.36,0,0,1,1.15-1.48Z" style="fill:#333;fill-rule:evenodd"/><path d="M1693.67,1649.13h10.68a1.37,1.37,0,0,1,1.15,1.48v11.5a1.36,1.36,0,0,1-1.15,1.48h-10.68a1.36,1.36,0,0,1-1.15-1.48v-11.5a1.37,1.37,0,0,1,1.15-1.48Z" style="fill:#333;fill-rule:evenodd"/><path d="M1711,1649.13h10.67a1.36,1.36,0,0,1,1.15,1.48v11.5a1.36,1.36,0,0,1-1.15,1.48H1711a1.34,1.34,0,0,1-1.13-1.48v-11.5a1.35,1.35,0,0,1,1.13-1.48Z" style="fill:#333;fill-rule:evenodd"/><path d="M1728.32,1649.13H1739a1.36,1.36,0,0,1,1.16,1.48v11.5a1.36,1.36,0,0,1-1.16,1.48h-10.64a1.36,1.36,0,0,1-1.15-1.48v-11.5a1.36,1.36,0,0,1,1.15-1.48Z" style="fill:#333;fill-rule:evenodd"/><path d="M1745.63,1649.13h10.68a1.35,1.35,0,0,1,1.13,1.48v11.5a1.35,1.35,0,0,1-1.13,1.48h-10.68a1.36,1.36,0,0,1-1.15-1.48v-11.5a1.36,1.36,0,0,1,1.15-1.48Z" style="fill:#333;fill-rule:evenodd"/><path d="M1763,1649.13h10.67a1.36,1.36,0,0,1,1.15,1.48v11.5a1.36,1.36,0,0,1-1.15,1.48H1763a1.36,1.36,0,0,1-1.16-1.48v-11.5a1.36,1.36,0,0,1,1.16-1.48Z" style="fill:#333;fill-rule:evenodd"/><path d="M1780.28,1649.13h10.66a1.36,1.36,0,0,1,1.15,1.48v11.5a1.36,1.36,0,0,1-1.15,1.48h-10.66a1.36,1.36,0,0,1-1.15-1.48v-11.5a1.36,1.36,0,0,1,1.15-1.48Z" style="fill:#333;fill-rule:evenodd"/><path d="M1797.6,1649.13h10.68a1.35,1.35,0,0,1,1.13,1.48v11.5a1.35,1.35,0,0,1-1.13,1.48H1797.6a1.36,1.36,0,0,1-1.15-1.48v-11.5a1.37,1.37,0,0,1,1.15-1.48Z" style="fill:#333;fill-rule:evenodd"/><path d="M1814.92,1649.13h19.84a1.37,1.37,0,0,1,1.15,1.48v11.5a1.36,1.36,0,0,1-1.15,1.48h-19.84a1.36,1.36,0,0,1-1.16-1.48v-11.5a1.36,1.36,0,0,1,1.16-1.48Z" style="fill:#333;fill-rule:evenodd"/><path d="M1841,1648.94h23.59a1.36,1.36,0,0,1,1.15,1.48v11.5a1.36,1.36,0,0,1-1.15,1.48H1841a1.36,1.36,0,0,1-1.15-1.48v-11.5a1.36,1.36,0,0,1,1.15-1.48Z" style="fill:#333;fill-rule:evenodd"/><path d="M1843.15,1669H1852a.47.47,0,0,1,.42.5v4a.48.48,0,0,1-.42.51h-8.88a.46.46,0,0,1-.39-.51v-4a.45.45,0,0,1,.39-.5Z" style="fill:#333;fill-rule:evenodd"/><path d="M1843.15,1677.67H1852a.47.47,0,0,1,.42.51v3.95a.48.48,0,0,1-.42.51h-8.88c-.22,0-.39-.23-.39-.51v-3.95c0-.29.17-.51.39-.51Z" style="fill:#333;fill-rule:evenodd"/><path d="M1830,1677.67h8.89a.47.47,0,0,1,.42.51v3.95a.48.48,0,0,1-.42.51H1830a.46.46,0,0,1-.39-.51v-3.95a.46.46,0,0,1,.39-.51Z" style="fill:#333;fill-rule:evenodd"/><path d="M1856.3,1677.67h8.89a.46.46,0,0,1,.4.51v3.95a.47.47,0,0,1-.4.51h-8.89a.48.48,0,0,1-.42-.51v-3.95a.47.47,0,0,1,.42-.51Z" style="fill:#333;fill-rule:evenodd"/><path d="M1814.5,1669h10.68a1.36,1.36,0,0,1,1.15,1.48V1682a1.36,1.36,0,0,1-1.15,1.48H1814.5a1.35,1.35,0,0,1-1.15-1.48v-11.5a1.35,1.35,0,0,1,1.15-1.48Z" style="fill:#333;fill-rule:evenodd"/></g><g id="Light"><polygon points="1785.65 1500.17 1729.42 1500.17 1670.48 1583.64 1705.47 1584.87 1785.65 1500.17" style="fill:#fff;opacity:0.5"/><polygon points="1813.52 1500.24 1740.19 1583.62 1748.07 1583.62 1840.46 1500.19 1813.52 1500.24" style="fill:#fff;opacity:0.5"/></g></g><path d="M2789.85,2149.26H2622.78a12.13,12.13,0,0,0-12.13,12.13v180.55a12.1,12.1,0,0,0,5.07,9.84h0c.32.23.64.44,1,.64l.07,0a9.73,9.73,0,0,0,1,.5l.13.06c.31.14.63.26,1,.37l.22.08c.3.1.61.18.92.25l.28.07c.31.07.63.11.94.15l.3,0a11.94,11.94,0,0,0,1.28.07h167.08a12.13,12.13,0,0,0,12.12-12.12V2161.38A12.13,12.13,0,0,0,2789.85,2149.26Z" style="opacity:0.4"/><g id="Envelop"><g id="Envelop-2" data-name="Envelop"><path d="M2790.78,2333.93a12.13,12.13,0,0,1-12.13,12.12H2611.57a12.13,12.13,0,0,1-12.12-12.12V2153.38a12.13,12.13,0,0,1,12.12-12.13h167.08a12.13,12.13,0,0,1,12.13,12.13Z" style="fill:#a5a5a5"/><path d="M2603.79,2243.65h187l-68.38,49s-55.57,12.64-65.18,5.56-44-30.31-44-30.31Z" style="fill:#0f0f0f;opacity:0.6000000000000001"/><rect x="2617.81" y="2158.27" width="154.61" height="169.26" style="fill:#e8e8e6"/><path d="M2603.79,2243.65h-4.34v90.28a12.13,12.13,0,0,0,12.12,12.12h167.08a12.13,12.13,0,0,0,12.13-12.12v-90.28l-95.66,51.2Z" style="fill:#00eaa6"/><path d="M2611.57,2346.05h167.08a12.13,12.13,0,0,0,12.13-12.12v-90.28l-95.66,51.2-92.42,47.3A12,12,0,0,0,2611.57,2346.05Z" style="opacity:0.2"/></g><g id="Text" style="opacity:0.4"><rect x="2636.5" y="2174.43" width="124.3" height="4.55" style="opacity:0.7000000000000001"/><rect x="2636.5" y="2182.52" width="124.3" height="4.54" style="opacity:0.7000000000000001"/><rect x="2636.5" y="2191.1" width="124.3" height="4.55" style="opacity:0.7000000000000001"/><rect x="2636.5" y="2199.44" width="124.3" height="4.54" style="opacity:0.7000000000000001"/><rect x="2636.5" y="2210.06" width="124.3" height="4.54" style="opacity:0.7000000000000001"/><rect x="2636.5" y="2222.69" width="124.3" height="4.54" style="opacity:0.7000000000000001"/><rect x="2636.5" y="2231.53" width="124.3" height="4.54" style="opacity:0.7000000000000001"/><rect x="2636.5" y="2239.86" width="124.3" height="4.55" style="opacity:0.7000000000000001"/><rect x="2636.5" y="2249.46" width="124.3" height="4.55" style="opacity:0.7000000000000001"/></g></g><g id="Mouse"><ellipse cx="2213.54" cy="1496.76" rx="98.99" ry="144.42" style="fill:#eaeaea"/><ellipse cx="2213.53" cy="1496.76" rx="93.7" ry="136.71" style="fill:#fff"/><path d="M2224.13,1445.64a12.21,12.21,0,0,1-12.21,12.21h0a12.21,12.21,0,0,1-12.2-12.21v-33.07a12.21,12.21,0,0,1,12.2-12.21h0a12.21,12.21,0,0,1,12.21,12.21Z" style="fill:#4b4c4b;opacity:0.5"/><path d="M2222.79,1443.83a10.87,10.87,0,0,1-10.87,10.87h0a10.87,10.87,0,0,1-10.87-10.87v-29.45a10.86,10.86,0,0,1,10.87-10.87h0a10.86,10.86,0,0,1,10.87,10.87Z" style="fill:#4b4c4b"/><path d="M2312.52,1496.76c0-79.77-44.32-144.42-99-144.42v288.84C2268.21,1641.18,2312.52,1576.52,2312.52,1496.76Z" style="opacity:0.1"/></g><g id="Phone"><path d="M2512.93,1554.16a3.57,3.57,0,0,1-3.57,3.56h0a3.56,3.56,0,0,1-3.55-3.56v-22.93a3.56,3.56,0,0,1,3.55-3.55h0a3.57,3.57,0,0,1,3.57,3.55Z" style="fill:#213b51"/><path d="M2512.93,1592.91a3.56,3.56,0,0,1-3.57,3.55h0a3.56,3.56,0,0,1-3.55-3.55V1570a3.56,3.56,0,0,1,3.55-3.55h0a3.56,3.56,0,0,1,3.57,3.55Z" style="fill:#213b51"/><path d="M2710.71,1588.69a3.56,3.56,0,0,1-3.55,3.56h0a3.56,3.56,0,0,1-3.56-3.56v-22.93a3.56,3.56,0,0,1,3.56-3.55h0a3.56,3.56,0,0,1,3.55,3.55Z" style="fill:#213b51"/><path d="M2707.38,1812.58a19,19,0,0,1-19,19H2529.23a19,19,0,0,1-19-19V1523.73a19,19,0,0,1,19-19h159.18a19,19,0,0,1,19,19Z" style="fill:#34495e"/><rect x="2529.77" y="1532.07" width="158.09" height="253.29" style="fill:#cecece"/><path d="M2614.65,1517.15a2.39,2.39,0,0,1-2.38,2.39h-33.78a2.39,2.39,0,0,1-2.38-2.39h0a2.39,2.39,0,0,1,2.38-2.38h33.78a2.39,2.39,0,0,1,2.38,2.38Z" style="opacity:0.30000000000000004"/><path d="M2625.91,1517.15a2.38,2.38,0,0,1-2.38,2.39h-2.22a2.38,2.38,0,0,1-2.38-2.39h0a2.38,2.38,0,0,1,2.38-2.38h2.22a2.38,2.38,0,0,1,2.38,2.38Z" style="opacity:0.30000000000000004"/><path d="M2617,1620.47l10.68,10.7-35,34.91-10.68-10.7c-6.15,7.1-8,15.51-4,19.52l2.62,2.62c4.32,4.34,13.85,1.85,21.26-5.55l31.62-31.56c7.41-7.4,9.91-16.92,5.59-21.26l-2.62-2.62C2632.52,1612.52,2624.1,1614.34,2617,1620.47Z" style="fill:#1abc9c"/><path d="M2571.82,1699.82a15.51,15.51,0,0,1,3-.27,5.27,5.27,0,0,1,3.52.93,2.66,2.66,0,0,1,1.06,2.25,3,3,0,0,1-2.16,2.81v0a3.3,3.3,0,0,1,2.64,3.2,3.47,3.47,0,0,1-1.08,2.57c-.89.81-2.34,1.2-4.42,1.2a18.64,18.64,0,0,1-2.56-.16Zm1.65,5.23h1.5c1.75,0,2.77-.9,2.77-2.14,0-1.5-1.13-2.09-2.8-2.09a6.86,6.86,0,0,0-1.46.12Zm0,6.13a9.49,9.49,0,0,0,1.39.07c1.71,0,3.28-.62,3.28-2.48s-1.5-2.47-3.31-2.47h-1.36Z" style="fill:#3a3939"/><path d="M2589.72,1709.92c0,1,0,1.78.08,2.51h-1.48l-.1-1.5h0a3.44,3.44,0,0,1-3,1.71c-1.44,0-3.16-.79-3.16-4v-5.36h1.67v5.08c0,1.75.53,2.92,2.05,2.92a2.42,2.42,0,0,0,2.2-1.52,2.34,2.34,0,0,0,.15-.85v-5.63h1.67Z" style="fill:#3a3939"/><path d="M2592.28,1710.72a4.37,4.37,0,0,0,2.19.66c1.22,0,1.78-.61,1.78-1.37s-.48-1.24-1.71-1.69c-1.65-.58-2.43-1.5-2.43-2.59,0-1.48,1.2-2.7,3.16-2.7a4.67,4.67,0,0,1,2.27.57l-.42,1.22a3.55,3.55,0,0,0-1.87-.53c-1,0-1.54.57-1.54,1.26s.55,1.1,1.74,1.55c1.6.61,2.41,1.41,2.41,2.77,0,1.61-1.25,2.75-3.42,2.75a5.27,5.27,0,0,1-2.59-.62Z" style="fill:#3a3939"/><path d="M2601.87,1700.67a1,1,0,0,1-2.06,0,1,1,0,0,1,1-1A1,1,0,0,1,2601.87,1700.67Zm-1.86,11.76v-9.18h1.67v9.18Z" style="fill:#3a3939"/><path d="M2604.46,1705.73c0-1,0-1.73-.08-2.49h1.48l.09,1.52h0a3.38,3.38,0,0,1,3-1.73c1.28,0,3.25.76,3.25,3.91v5.48h-1.67v-5.29c0-1.48-.55-2.71-2.12-2.71a2.37,2.37,0,0,0-2.24,1.71,2.51,2.51,0,0,0-.1.77v5.52h-1.67Z" style="fill:#3a3939"/><path d="M2615,1705.73c0-1,0-1.73-.08-2.49h1.48l.09,1.52h0a3.38,3.38,0,0,1,3-1.73c1.28,0,3.24.76,3.24,3.91v5.48h-1.67v-5.29c0-1.48-.55-2.71-2.12-2.71a2.37,2.37,0,0,0-2.24,1.71,2.31,2.31,0,0,0-.12.77v5.52H2615Z" style="fill:#3a3939"/><path d="M2626.44,1708.14a2.94,2.94,0,0,0,3.15,3.18,6,6,0,0,0,2.54-.48l.29,1.2a7.51,7.51,0,0,1-3.05.57,4.26,4.26,0,0,1-4.51-4.63c0-2.77,1.63-4.95,4.31-4.95,3,0,3.79,2.64,3.79,4.32a6.2,6.2,0,0,1-.06.78Zm4.9-1.2a2.38,2.38,0,0,0-2.31-2.71,2.76,2.76,0,0,0-2.56,2.71Z" style="fill:#3a3939"/><path d="M2634.79,1710.72a4.4,4.4,0,0,0,2.2.66c1.22,0,1.78-.61,1.78-1.37s-.48-1.24-1.71-1.69c-1.65-.58-2.43-1.5-2.43-2.59,0-1.48,1.2-2.7,3.16-2.7a4.64,4.64,0,0,1,2.26.57l-.42,1.22a3.51,3.51,0,0,0-1.87-.53c-1,0-1.53.57-1.53,1.26s.55,1.1,1.74,1.55c1.6.61,2.41,1.41,2.41,2.77,0,1.61-1.25,2.75-3.43,2.75a5.26,5.26,0,0,1-2.58-.62Z" style="fill:#3a3939"/><path d="M2573.47,1722.41v12.78h-1.65v-12.78Z" style="fill:#3a3939"/><path d="M2576.48,1728.5c0-.94,0-1.73-.07-2.48h1.48l.09,1.52h0a3.37,3.37,0,0,1,3-1.73c1.28,0,3.24.76,3.24,3.91v5.48h-1.67v-5.29c0-1.48-.55-2.71-2.12-2.71a2.39,2.39,0,0,0-2.24,1.71,2.36,2.36,0,0,0-.11.78v5.51h-1.67Z" style="fill:#3a3939"/><path d="M2593.56,1734.85a6.18,6.18,0,0,1-2.64.53,4.37,4.37,0,0,1-4.57-4.69,4.67,4.67,0,0,1,4.93-4.88,5.46,5.46,0,0,1,2.31.48l-.38,1.29a3.78,3.78,0,0,0-1.93-.44,3.46,3.46,0,0,0-.06,6.91,4.76,4.76,0,0,0,2.05-.46Z" style="fill:#3a3939"/><path d="M2603.71,1730.53a4.49,4.49,0,0,1-4.57,4.88c-2.49,0-4.4-1.82-4.4-4.73,0-3.07,2-4.88,4.56-4.88S2603.71,1727.73,2603.71,1730.53Zm-7.28.1c0,2,1.16,3.52,2.79,3.52s2.79-1.5,2.79-3.56c0-1.56-.78-3.53-2.75-3.53S2596.43,1728.88,2596.43,1730.63Z" style="fill:#3a3939"/><path d="M2605.82,1728.5c0-.94,0-1.73-.08-2.48h1.46l.07,1.48h.06a3.15,3.15,0,0,1,2.88-1.69,2.72,2.72,0,0,1,2.6,1.84h0a3.8,3.8,0,0,1,1-1.2,3.18,3.18,0,0,1,2-.64c1.22,0,3,.8,3,4v5.4h-1.63V1730c0-1.76-.64-2.83-2-2.83a2.17,2.17,0,0,0-2,1.52,2.74,2.74,0,0,0-.13.84v5.66h-1.63v-5.5c0-1.46-.64-2.53-1.91-2.53a2.26,2.26,0,0,0-2.06,1.67,2.2,2.2,0,0,0-.13.81v5.53h-1.63Z" style="fill:#3a3939"/><path d="M2623.5,1723.44a1,1,0,0,1-1.05,1,1,1,0,0,1-1-1,1,1,0,0,1,1-1A1,1,0,0,1,2623.5,1723.44Zm-1.85,11.76V1726h1.67v9.17Z" style="fill:#3a3939"/><path d="M2626.09,1728.5c0-.94,0-1.73-.08-2.48h1.47l.1,1.52h0a3.37,3.37,0,0,1,3-1.73c1.27,0,3.25.76,3.25,3.91v5.48h-1.67v-5.29c0-1.48-.55-2.71-2.12-2.71a2.37,2.37,0,0,0-2.24,1.71,2.55,2.55,0,0,0-.11.78v5.51h-1.67Z" style="fill:#3a3939"/><path d="M2644.53,1726c0,.66-.08,1.41-.08,2.52v5.33c0,2.11-.42,3.4-1.31,4.2a4.88,4.88,0,0,1-3.33,1.09,5.94,5.94,0,0,1-3-.76l.42-1.27a5.15,5.15,0,0,0,2.69.72c1.71,0,3-.89,3-3.2v-1h0a3.28,3.28,0,0,1-2.92,1.54c-2.28,0-3.91-1.94-3.91-4.48,0-3.11,2-4.88,4.13-4.88a3.06,3.06,0,0,1,2.86,1.6h0l.08-1.38Zm-1.73,3.62a2.33,2.33,0,0,0-.09-.76,2.41,2.41,0,0,0-2.33-1.76c-1.59,0-2.73,1.35-2.73,3.48,0,1.8.91,3.29,2.71,3.29a2.44,2.44,0,0,0,2.31-1.71,2.8,2.8,0,0,0,.13-.89Z" style="fill:#3a3939"/><path d="M2580.75,1757.55a8.22,8.22,0,0,1-3.37.61c-3.61,0-6.32-2.28-6.32-6.46a6.36,6.36,0,0,1,6.67-6.72,6.79,6.79,0,0,1,3,.57l-.4,1.35a5.94,5.94,0,0,0-2.58-.53c-3,0-5,1.91-5,5.27,0,3.13,1.8,5.14,4.92,5.14a6.68,6.68,0,0,0,2.7-.53Z" style="fill:#3a3939"/><path d="M2585,1753.94l-1.33,4h-1.71l4.34-12.79h2l4.36,12.79h-1.76l-1.37-4Zm4.19-1.29-1.24-3.68c-.29-.83-.47-1.59-.66-2.33h0c-.18.76-.39,1.54-.64,2.31l-1.25,3.7Z" style="fill:#3a3939"/><path d="M2594.51,1745.18h1.65v11.4h5.47V1758h-7.12Z" style="fill:#3a3939"/><path d="M2603.47,1745.18h1.65v11.4h5.46V1758h-7.11Z" style="fill:#3a3939"/><path d="M2616,1757a1.12,1.12,0,0,1,1.14-1.19,1.2,1.2,0,0,1,0,2.39A1.11,1.11,0,0,1,2616,1757Z" style="fill:#3a3939"/><path d="M2619.92,1757a1.12,1.12,0,0,1,1.13-1.19,1.2,1.2,0,0,1,0,2.39A1.12,1.12,0,0,1,2619.92,1757Z" style="fill:#3a3939"/><path d="M2623.84,1757a1.12,1.12,0,0,1,1.14-1.19,1.2,1.2,0,0,1,0,2.39A1.12,1.12,0,0,1,2623.84,1757Z" style="fill:#3a3939"/></g><g id="Blooming"><path d="M2247.24,2573.39c-15.35-13.56-8.37-45.2-8.37-45.2h-45.76s7,31.63-8.37,45.2a55,55,0,0,1-33.29,13.56v7.62h129.09V2587A55.05,55.05,0,0,1,2247.24,2573.39Z" style="fill:#a5a5a5"/><rect x="2151.44" y="2586.95" width="129.09" height="7.62" style="fill:#fff;opacity:0.30000000000000004"/><path d="M2386.6,2507.86a20.34,20.34,0,0,1-20.34,20.34H2065.71a20.34,20.34,0,0,1-20.34-20.34V2341.76a20.34,20.34,0,0,1,20.34-20.33h300.55a20.34,20.34,0,0,1,20.34,20.33Z" style="fill:#ccc"/><path d="M2045.37,2341.76v166.09a20.26,20.26,0,0,0,3.09,10.74h335.05a20.26,20.26,0,0,0,3.09-10.74V2341.76a20.23,20.23,0,0,0-5.3-13.65H2050.67A20.23,20.23,0,0,0,2045.37,2341.76Z" style="fill:#223666"/><rect x="2060.06" y="2334.98" width="311.85" height="176.54" style="fill:#e2e2e2"/><rect x="2091" y="2447.97" width="33.29" height="63.55" style="fill:#9ac900"/><rect x="2147.49" y="2428.81" width="33.29" height="82.72" style="fill:#c3df00"/><rect x="2204.48" y="2388.45" width="33.29" height="123.07" style="fill:#dfc300"/><rect x="2263.99" y="2367.27" width="33.29" height="144.26" style="fill:#e85f00"/><rect x="2320.78" y="2345.02" width="33.28" height="163.55" style="fill:#e53400"/><polygon points="2082.26 2473.48 2079.19 2469.38 2175.97 2396.79 2279.71 2385.97 2352.76 2342.81 2355.36 2347.22 2281.35 2390.94 2177.91 2401.74 2082.26 2473.48" style="fill:#34495e"/><circle cx="2080.72" cy="2471.43" r="8.32" style="fill:#0cc1b0"/><circle cx="2176.95" cy="2399.26" r="8.32" style="fill:#0cc1b0"/><circle cx="2280.53" cy="2388.45" r="8.32" style="fill:#0cc1b0"/><circle cx="2354.06" cy="2345.02" r="8.32" style="fill:#0cc1b0"/></g></g><circle id="Background_2-2" data-name="Background 2" cx="712.21" cy="2035.6" r="532" style="fill:#144f7f"/><g id="Data_Security" data-name="Data Security"><g id="Data"><rect x="696.68" y="1827.33" width="31.05" height="533.2" style="fill:#00c0a4"/><rect x="445.61" y="2363.27" width="533.2" height="31.06" style="fill:#00c0a4"/><path d="M960.74,1886a58.67,58.67,0,0,1-58.67,58.67H522.34A58.67,58.67,0,0,1,463.67,1886h0a58.67,58.67,0,0,1,58.67-58.67H902.07A58.67,58.67,0,0,1,960.74,1886Z" style="fill:#ffdb09"/><path d="M960.74,2042.26a58.67,58.67,0,0,1-58.67,58.67H522.34a58.67,58.67,0,0,1-58.67-58.67h0a58.66,58.66,0,0,1,58.67-58.67H902.07a58.66,58.66,0,0,1,58.67,58.67Z" style="fill:#ffdb09"/><path d="M960.74,2203.06a58.66,58.66,0,0,1-58.67,58.67H522.34a58.66,58.66,0,0,1-58.67-58.67h0a58.66,58.66,0,0,1,58.67-58.67H902.07a58.66,58.66,0,0,1,58.67,58.67Z" style="fill:#ffdb09"/><rect x="618.34" y="2363.27" width="187.2" height="31.06" style="opacity:0.2"/><rect x="622.21" y="2353.19" width="180" height="51.2" style="fill:#00c0a4"/><rect x="432.21" y="2288.8" width="51.2" height="180" style="fill:#00c0a4"/><rect x="943.6" y="2288.8" width="51.2" height="180" style="fill:#00c0a4"/><circle cx="541.41" cy="1883.2" r="20.4" style="fill:#03386d"/><circle cx="889.41" cy="1883.2" r="20.4" style="fill:#03386d"/><circle cx="897.81" cy="2046.4" r="20.4" style="fill:#03386d"/><circle cx="897.81" cy="2203.06" r="20.4" style="fill:#03386d"/><circle cx="541.41" cy="2046.4" r="20.4" style="fill:#03386d"/><circle cx="541.41" cy="2203.06" r="20.4" style="fill:#03386d"/></g><g id="Security"><path d="M211.45,1612.8,50.33,1682.39V1855s9.51,120.18,161.12,186.9C363.07,1975.13,372.57,1855,372.57,1855V1682.39Z" style="fill:#ff4247"/><path d="M211.45,1656.64,83.26,1712v137.3s7.57,95.62,128.2,148.7c120.63-53.09,128.19-148.7,128.19-148.7V1712Z" style="fill:#ffdf42"/><path d="M372.57,1855V1682.39L211.45,1612.8v429.06C363.07,1975.13,372.57,1855,372.57,1855Z" style="fill:#231f20;opacity:0.1"/><polygon points="210.8 1866.53 311.95 1780.02 296.76 1762.25 212.94 1833.94 178.12 1794.76 160.64 1810.3 210.58 1866.48 210.7 1866.62 210.7 1866.62 210.7 1866.62 210.8 1866.53" style="fill:#09c6a2"/></g><g id="Globe"><g id="Globe-2" data-name="Globe"><circle cx="733.88" cy="1538.1" r="158.77" style="fill:#008aac"/><path d="M825.31,1618.57c-1,0-2.21-1.91-3.51-3.11s-8.3.34-10,.34-2.55-.74-4.08-1.68-3.21.21-4.41.47-1.74-.8-1-2.14-2.48-1-4.89-.54-1.47,1.67-3.41,1,2.27-2.88,3.68-4.55-.27-4.49-1.07-4.75-2.34-2.68-4.75-4.55-4.22-.47-7.09-.47-3.55-1.27-4.89-2.27-.94-3-6.29-5.82-3.08-1.28-2.74-1.81.87-.46-1-1.33-3.41,1-5.29,1.74a9.4,9.4,0,0,1-5,.33c-.8-.2-1.74-2.14-2.68-2.55a5.65,5.65,0,0,1-2.34-2.21,1.44,1.44,0,0,0-2.48,1.21c.07,1.74-.93,2.74-2.81,3.48s-1.07-2.07-1.07-2.94,1.67-1.74,1.81-3.08-1.67,1.27-3.41,3.14-2.94.13-6.29.47-1.74,3.82-1.74,5.76-2.81,2.6-3.28,2.14-.47-1.54-1.47-1.54-1.27-1.61-1.54-2.21-3.68-1.2-5,1.2-2.61.47-4.15,0-4.55-6.49-3.88-7.56.67-1.54-.07-2.28-.4-1.27.2-2.41,2.21-2.21-1-4.28-8.23-.27-10.91-.54-.53-2.21,0-2.74a13.43,13.43,0,0,0,2.14-4c.53-1.6-.47-1.73.47-3.88s.67-3.61-1.47-3.74-4.15,1.47-4.28,4.55-3.21,2.94-10.3,2.41-6.43-6.16-7.23-10.71,1.47-8.43,1.61-10.7,2.95-4.82,5.62-6.83,6.49-1.48,6.49-1.48,5.15,1.09,6.76,1,.27-1.34.4-2.95,7.9-.53,9.23-.53,1.07,1.07,2.54,2.53,1.2-1.46,2.68-1.19.27,1.2,2.41,4.68,1.74,4.68,2.41,7.63,2.14,1.47,3.08-.94-1.07-10.17-1.61-14.19,3.08-2.55,6.56-6.29,7.09-4,8.7-6.69-.13-7.09.8-4.68,1.07-.94,1.2-3.48,1.47-3.61,2.14-2.14,1.47.4,2-2.14,2.81-5.15,3.88-6.43,3.21-.06,6.16,0,.13-.53-.74-3.48,1.88-4,3-4,6-2.6,7.1-3.27,2.47-.61,4.35.8-1.74.33-2.94,2.41,1.73,2.34,3,.47,4.08-1,6.49-3.41-2.74-1.54-3.88-1.87-1.84-3.14-1.74-4a6.38,6.38,0,0,0-1.91-4.22c-1.2-1-4.31.1-7,1.2s-3.51,2.11-3.31.8,4.71-4.32,5.92-4.51a13.86,13.86,0,0,0,6.22-3.42c1.61-1.8,6.22.3,8.33.5s5.12,1.41,6.22-.1,2-1.5,4.22-1.81,2.61-3.51,1.1-4.92-3.71-6.52-6.82-8.13-1.91-2.6-.9-3.91-3.15-4.52-4.49-7.86.13-4.15-1.47-4.28-.54,2.41-1.34,4.68-4.15,1.07-4.68.94a5.79,5.79,0,0,1-2.28-4.55c.14-2.14.67-4,0-4.68s-2.14-.13-2.94-.94-1.87-3.21-3.08-4.28-3.88-.4-5.75-.81-3.62.27-3.21,1.47.13,2.81-.53,7.1-2,2-3.08,3.07.67,1.34,1.61,4.42-1.21,5.35-2.14,6.29-4,1.6-6,2.27.13,3.21.4,5.35-1.74,5.22-2.81,5.63-4.55-4-4.82-6.56,2.14-5.35,1.07-6.15-5.22-.8-9.1-4-8.56-4.95-10.17-8.83,1.6-7.36,2.95-10.17,4-2.41,8.29-4,1.6-3.08,2.68-3.08,4.55-.53,5.35-1.61,2.68-2.14,4.42-3.07,2.14-2.81,2.81-3.88,2.54,1.47,4.68,1.2,2,.4,4.95-.94.4-2.14.14-3.61,1.88-1.07,1.2-2.68-3.61-3.22-5.56-2.94.61,2.14-1.4,4-1.6,3.08-2.28,3.35-3.61-.67-3.61-1.6,1.33-1.75,1.87-2.15-.4-2.4-.67-3.07-1.47.8-1.74,2.14-1.73,1.47-1.33.27-1.07-2.68-2.14-4.15,1.07-1.33,2.28-3.21.8-2.68-.8-3.61-3.48.53-5.35,2.55-1.2,1.87-.54,4.41,0,0,.4,2.41-3.08,2.14-3.08,2.14a12.4,12.4,0,0,1-2.41-.4c-.67-.27,0-1.2-1.47-1.74s-2.14,1.88-2.14,1.88-4-.14-5.62-.14-3.88-.8-4.28-1.47a6.08,6.08,0,0,0-4.15-2c-1.74,0-2.41,1.47-2.41,3.21s-2.94,1.88-2.81,1.07a19.12,19.12,0,0,0-.4-3.61l-1.61.94s-4.42-.27-5.89-.4-.94-2-.94-2l2.94-.27.4-.67a5.08,5.08,0,0,0-1.6-1.07c-.8-.27-4.28-.94-4.28-.94l-1.07-1.47h-2.28c-.67,0-1.74,1.34-2.27,1.34s-.54-1.47-.54-1.47l.27-1.2-1.33.67c-1.34.66-1.87.13-1.87.13l.53-1.34.13-1.47s-.8-.94-.8-.27a2.78,2.78,0,0,1-2.54,2c-1.2-.14-2,1.07-3.75.66s-5.08.81-7,2.41-3.08,2.14-2.68.27-5.22-1.6-6.16-2a30.26,30.26,0,0,0-5.62-.94,3.24,3.24,0,0,1-2.81-2.14l-.93-3.3a159.13,159.13,0,0,0-32.17,23.18,30.1,30.1,0,0,0,3,4.88,1.66,1.66,0,0,0,1.87,0,111.07,111.07,0,0,0-9.77,7.86c-6,5.31-4,5.92-4,7.93s1.21,1.21,1.21,1.21-4.68,4.81-6,6.15-3.75,3.21-3.75,3.21l-2.41,2.94,1.07.4,14.55-12.21s.9-.2,1-.7a6.24,6.24,0,0,1,1.2-2.3,13.25,13.25,0,0,0,1.61-2.21,8.52,8.52,0,0,0,2-1.41c1.1-1,2.21-2.51,3.11-2.61s0,1.3-1.61,2.61a23.87,23.87,0,0,0-3.51,4.11s5.32-2.81,7.13-4,1.2-3,1.91-3.11,2.31,1.41,2.81,2.91,1.11-.3,3.82,0,.9,2.41,1.91,3.81,1,1.81,3.61,1.2-1,5.63-1,5.63l-.2,2a11.17,11.17,0,0,1,1,1.61c0,.2-1.2,3.81-1.2,3.81h2a8,8,0,0,1-1.81,1.61c-1,.61.2,2.21,1.2,3s0,0-1.41,3.22,0,2.21,1.61,4.41a59.4,59.4,0,0,0,3.81,4.62c1.2,1.41,0,4.62-1.2,4.82s-3.82-1.81-3.82-1.81c.2,30.11-1.81,10-2.81,12.65s-2.41,4-2.41,5.62a10,10,0,0,1-1.61,6.22c-1.61,2.21-.2,7.23,0,7.83s1.47,3.22,1.47,3.22v8.23c0,2.68,4.81,4,6.42,6.29s1.2,6.69,1.34,7.43a8.69,8.69,0,0,0,2.07,3.41c.94.87,1,2.34,1.74,3.68s-1.14.87-1.34,2.61,1.67,1.8,2.68,2.21a2.07,2.07,0,0,1,1.47,2.88c-.53,1.88-.27,1.2.74,2.27s.53.4,1.07,2.41,1.88,1.14,1.88,1.14v1.2c0,.33,1.2.67,1.2.67l.8-1.21s-.6-.26-.6-.46-.13-1.2-.13-1.2l-1.81-.74a8.65,8.65,0,0,1-.27-1.4v-1.74c0-.27-.67-.47-.67-.47s-.07-1.81-.07-2.88-1.74-2.08-1.81-2.54a7.47,7.47,0,0,0-.87-3c-.67-1-2.28-3.14-2.21-5.42s-.53-3.75.34-3.75,2.34,2.21,2.74,2.61.06,3.08,1.74,5.55,6,7.56,5.61,8-1.51.25-.9,1.76,2.06,1.86,3.16,2.15,2.91,6.43,4.11,8.43-.3,2-.6,3.31.1,2,2.11,2.91,1.61,3.11,3.92,3.82,6.82,3.64,8,3.91,1.07,1.34,2.68,1.48a4.26,4.26,0,0,1,2.68,1.19c.8.53,3.61-.53,4.15-.94s1.07-.27,2.54,0,5.76,4.82,7.09,6.15,2.41-.53,3.48,0,3.08,1.74,3.88,1.61.8-.81,1.34-.81.13,1.07,2.14,3.62,1.61,3.07,1.61,3.48.93,2.41,2.27,2.14,2.68,1.13,2.68,1.13v2.21s4.55.27,5.48.53,1.08,2.27,1.48,2.55,2-1.61,1.74-2.68,1.74-1.61,2.54-2.41,1.88.93,2.54,1.74,2.15,2.81,2.15,4.41-.14,4-.14,6.56-2,3.74-3.48,5.49-2.81,2.54-3.48,3.35a7.82,7.82,0,0,0-.94,4.82c.27,1.47,2.14.13,2.14,1.88s-1.74.8-3.75,2.4.27,1.75.94,3.08-.94.27-.94,1.88,2.41,1.34,4.69,2,4.68,6.56,6,9.64,2.67,5.76,4,6.29,1.47,1.74,4.28,2.41,5,2.88,6.6,2.88,1.53,2.71,1,3.82-.1,1.41.3,5.42-.91,13-1.33,14-.31.81.43,1.54-1.2,3.95-1.27,4.95-1.94,1.61-2.33,2.55.92.94,1.19,1.81-.53,3,.27,3.81,1.54.53,1.75,1.8a2.11,2.11,0,0,1-2.08,2.47c-1.34,0-1.34,1.41-.74.94a1.37,1.37,0,0,1,1.41,0l1.08,1.89q4.92-.51,9.74-1.31c.69-.79,1.28-1.43,1.77-1.52,1.61-.27.8-1.87-.14-5.21s2.28-.54,4.28-1.34,1.34-3.48,4.15-3.88,5.89-2.94,7.09-4.82-.53-2.81,3.88-2.28,8.43-5.08,11.91-9.23.4-5.48,6.56-9.36,16.13-14.42,16.73-17.73-1.11-3.41,2.41-5.72,7.93-8.73,8.33-10.54S826.31,1618.57,825.31,1618.57Z" style="fill:#e2e2e2"/><path d="M791.42,1398.41c-5.08,0-6.16,5.08-1.6,5.89s13.91.81,15.52,7.49-4.82,8.57,0,11.78-1.07,6.69-1.07,11.24a13.17,13.17,0,0,0,5.35,10.71c3.21,2.41,6.42,5.62,6.69,7.49s3.48,1.34,3.48,1.34a7.13,7.13,0,0,1,0-2.68c.27-1.61,2.94-3.48,2.94-8s2.39-4.28,4.27-4,5.63-.27,6.7,0,7.49.27,8-2.95-4.28-8-4.28-8,2.71-4.48,2.68-6.52a11.94,11.94,0,0,0-.76-2.68,158.89,158.89,0,0,0-43.85-27.71C795.52,1394.26,795,1398.41,791.42,1398.41Z" style="fill:#e2e2e2"/><path d="M886.43,1529.15c-9.23-7.63-15.26-7.63-16.06-5.62s6.42,9.24,0,18.07-11.24,12.44-8.83,19.67-10.09,13.65-.63,20.07,7.45,6.42,14.28,6,5.83,10.21,5.34,11.67a158.23,158.23,0,0,0,12.12-60.94c0-.66,0-1.32,0-2A26.54,26.54,0,0,0,886.43,1529.15Z" style="fill:#e2e2e2"/><path d="M748.57,1696.18a158.78,158.78,0,0,0,12.86-314.47C853.51,1418.75,899.28,1643.57,748.57,1696.18Z" style="fill:#231f20;opacity:0.1"/></g><g id="Loading"><path d="M779.59,1654.87l-1-3.54-1.23-4.11c-.48-1.59-1.09-3.34-1.74-5.29a202.19,202.19,0,0,0-12.1-28.56c-1.36-2.58-2.75-5.2-4.26-7.7l-2.25-3.78-2.35-3.64c-1.55-2.42-3.17-4.69-4.77-6.86s-3.17-4.19-4.68-6.07-3-3.56-4.28-5-2.48-2.82-3.51-3.84l-3.21-3.29,1,2c.64,1.29,1.59,3.09,2.59,5.31s2.12,4.79,3.23,7.53,2.13,5.73,3.12,8.64,1.8,5.89,2.54,8.61,1.3,5.32,1.78,7.49.8,4,1,5.26l.35,2-1.95-1.15c-1.25-.77-3.19-1.77-5.6-3.1a155.5,155.5,0,0,0-21-9.21,123.82,123.82,0,0,0-31.67-6.73,110.47,110.47,0,0,0-36.61,3.42,119.37,119.37,0,0,0-17.47,6.12,136.46,136.46,0,0,0-15.74,8.26,154.87,154.87,0,0,0-24.76,18.93,164.28,164.28,0,0,0-15,16c-3.34,4.09-5,6.59-5,6.59s1.89-2.35,5.54-6.12a163.32,163.32,0,0,1,16.14-14.48,151.14,151.14,0,0,1,25.61-16.33,129.45,129.45,0,0,1,15.65-6.58,111.4,111.4,0,0,1,16.81-4.32,100.69,100.69,0,0,1,33.57-.29,111.18,111.18,0,0,1,27.84,8.46,140.61,140.61,0,0,1,18.14,9.9c2.08,1.4,3.75,2.43,4.83,3.24l1.68,1.2-1.84.57c-1.17.38-2.81.88-4.78,1.61s-4.21,1.55-6.56,2.51-4.83,2.12-7.21,3.26-4.73,2.46-6.83,3.65-4,2.47-5.61,3.52-2.86,2-3.75,2.68l-1.37,1,2.72-.87c.88-.3,2-.55,3.23-.87s2.72-.68,4.34-1a110.82,110.82,0,0,1,25.6-1.66,174.55,174.55,0,0,1,27.79,3.61c1.93.4,3.73.77,5.3,1.15l4.07,1Z" style="fill:#ffd648"/><path d="M575.1,1692l1,3.54,1.22,4.1c.48,1.59,1.09,3.34,1.74,5.3a202.94,202.94,0,0,0,12.1,28.55c1.36,2.58,2.75,5.2,4.26,7.71l2.25,3.78,2.35,3.63c1.55,2.41,3.17,4.69,4.77,6.86s3.17,4.19,4.68,6.07,3,3.56,4.28,5,2.48,2.82,3.5,3.84l3.22,3.29-1-2c-.64-1.29-1.59-3.09-2.59-5.31s-2.12-4.79-3.23-7.53-2.14-5.72-3.12-8.63-1.79-5.9-2.54-8.61-1.3-5.31-1.78-7.48-.8-4-1-5.26-.35-2-.35-2l1.95,1.15c1.25.77,3.19,1.78,5.6,3.11a156.34,156.34,0,0,0,21,9.21,124.12,124.12,0,0,0,31.67,6.73,110.64,110.64,0,0,0,36.61-3.43,117.64,117.64,0,0,0,17.47-6.12,135.1,135.1,0,0,0,15.74-8.25,155.78,155.78,0,0,0,24.76-18.93,164.21,164.21,0,0,0,15-16c3.34-4.09,5-6.59,5-6.59s-1.88,2.35-5.54,6.12a162.11,162.11,0,0,1-16.13,14.48,151.32,151.32,0,0,1-25.61,16.34,130.55,130.55,0,0,1-15.65,6.57,110.74,110.74,0,0,1-16.81,4.32,100.7,100.7,0,0,1-33.57.29,111.45,111.45,0,0,1-27.84-8.46,140.55,140.55,0,0,1-18.14-9.91c-2.08-1.39-3.75-2.43-4.83-3.24l-1.68-1.2,1.84-.57c1.17-.37,2.81-.88,4.78-1.6s4.21-1.56,6.56-2.51,4.83-2.12,7.21-3.25,4.73-2.46,6.83-3.66,4-2.47,5.61-3.52,2.87-2,3.75-2.68l1.37-1-2.72.87c-.88.3-2,.54-3.23.87s-2.73.68-4.34,1a110.87,110.87,0,0,1-25.6,1.66,175.36,175.36,0,0,1-27.79-3.6c-1.93-.41-3.73-.77-5.3-1.15l-4.07-1Z" style="fill:#ff5c60"/><path d="M711.4,1740.62c-5.2.27-11.46.85-19,1.81-51.72,6.6-99.34-34.22-115.56-50l-1.77-.44,1,3.54,1.22,4.1c.48,1.59,1.09,3.34,1.74,5.3a202.94,202.94,0,0,0,12.1,28.55c1.36,2.58,2.75,5.2,4.26,7.71l2.25,3.78,2.35,3.63c1.55,2.41,3.17,4.69,4.77,6.86s3.17,4.19,4.68,6.07,3,3.56,4.28,5,2.48,2.82,3.5,3.84l3.22,3.29-1-2c-.64-1.29-1.59-3.09-2.59-5.31s-2.12-4.79-3.23-7.53-2.14-5.72-3.12-8.63-1.79-5.9-2.54-8.61-1.3-5.31-1.78-7.48-.8-4-1-5.26-.35-2-.35-2l1.95,1.15c1.25.77,3.19,1.78,5.6,3.11a156.34,156.34,0,0,0,21,9.21,124.12,124.12,0,0,0,31.67,6.73,110.64,110.64,0,0,0,36.61-3.43C704.94,1742.8,708.2,1741.77,711.4,1740.62Z" style="opacity:0.1"/><path d="M777.33,1647.22c-.48-1.59-1.09-3.34-1.74-5.29a202.19,202.19,0,0,0-12.1-28.56c-1.36-2.58-2.75-5.2-4.26-7.7l-2.25-3.78-2.35-3.64c-1.55-2.42-3.17-4.69-4.77-6.86s-3.17-4.19-4.68-6.07-3-3.56-4.28-5-2.48-2.82-3.51-3.84l-3.21-3.29,1,2c.64,1.29,1.59,3.09,2.59,5.31s2.12,4.79,3.23,7.53,2.13,5.73,3.12,8.64,1.8,5.89,2.54,8.61,1.3,5.32,1.78,7.49.8,4,1,5.26l.35,2-1.95-1.15c-1.25-.77-3.19-1.77-5.6-3.1a155.5,155.5,0,0,0-21-9.21,123.82,123.82,0,0,0-31.67-6.73,110.47,110.47,0,0,0-36.61,3.42,119.37,119.37,0,0,0-17.47,6.12q-2.06.91-4,1.88c4.88-1.07,10.37-2.25,16.59-3.53,73.62-15.21,131.45,47.19,131.45,47.19l-1-3.54Z" style="opacity:0.1"/></g></g><g id="Document"><path d="M1062.35,1695.53s7.1-36.78,9-36.78,9,1.07,38.72,8.6,54.86,14,54.86,14,11,3.22,13.55-4.19,1.29-7.42,16.13-3.55,37.43,10.33,37.43,10.33,7.1,2.58,7.1,7.75v9l23.23,5.81s9,1.93,4.52,17.42-55.5,193.61-55.5,193.61Z" style="fill:#3f3f3f"/><path d="M1058.48,1691.66s7.1-36.78,9-36.78,9,1.07,38.72,8.6,54.86,14,54.86,14,11,3.23,13.55-4.19,1.29-7.42,16.14-3.55,37.43,10.32,37.43,10.32,7.1,2.58,7.1,7.75v9l23.23,5.81s9,1.93,4.52,17.42-55.5,193.61-55.5,193.61Z" style="fill:#f1c40f"/><path d="M1215.24,1904.21l-36.73-173.84s1.94-7.74-10.33-12.26-19.36-5.16-19.36-5.16,2.16-12.9-11.18-16.78-52.71-16.14-52.71-16.14l-5.81,3.87v4.52l-76.8-23.87-7.53,2.79,45,164.35,171.66,85.83Z" style="fill:#4c4c4c"/><path d="M1211.43,1917.53l-38.72-183.28s1.93-7.74-10.33-12.26-19.36-5.16-19.36-5.16,2.16-12.91-11.18-16.78-52.71-16.14-52.71-16.14l-5.81,8.39-76.8-23.88s-3.87-6.45,0,12.27S1034,1835.57,1034,1835.57Z" style="fill:#e67e22"/></g></g><circle id="Background_2-3" data-name="Background 2" cx="2192.14" cy="594.76" r="532" style="fill:#16778e"/><g id="Data_Management" data-name="Data Management"><g id="Line-2" data-name="Line"><polygon points="1924.74 181.37 1924.74 844.61 2404.8 844.61 2404.8 292.86 2298.06 181.37 1924.74 181.37" style="fill:#a0e1e6"/><polygon points="2300.06 289.55 2408.41 397.89 2408.41 289.55 2329.87 245.3 2300.06 289.55" style="opacity:0.1"/><polygon points="2404.8 292.86 2298.05 294.53 2298.05 181.37 2404.8 292.86" style="fill:#e8e8e8"/><rect x="1991.27" y="309.81" width="60.8" height="60.8" style="fill:#0f3854"/><rect x="1991.27" y="384.22" width="60.8" height="13.68" style="fill:#00b09e"/><rect x="2052.07" y="384.22" width="82.4" height="13.68" style="fill:#dd3401"/><rect x="2134.47" y="384.22" width="84.34" height="13.68" style="fill:#0f3854"/><rect x="2073.67" y="309.81" width="60.8" height="60.8" style="fill:#0f3854;opacity:0.8"/><rect x="2158.01" y="309.81" width="60.8" height="60.8" style="fill:#0f3854;opacity:0.7000000000000001"/></g><g id="Chart"><path d="M1622.61,595.65h618.93a12.7,12.7,0,0,1,12.7,12.7V953.83a12.7,12.7,0,0,1-12.7,12.7H1622.62a12.71,12.71,0,0,1-12.71-12.71V608.35A12.7,12.7,0,0,1,1622.61,595.65Z" style="fill:#fdb940"/><rect x="1660.25" y="634.99" width="543.65" height="292.2" style="fill:#efefef"/><rect x="1689.74" y="818.23" width="32.82" height="73.05" style="fill:#e74c3c"/><rect x="1763.85" y="797.94" width="32.82" height="93.35" style="fill:#e74c3c"/><rect x="1836.9" y="773.59" width="32.82" height="117.7" style="fill:#e74c3c"/><rect x="1913.98" y="745.19" width="32.82" height="146.1" style="fill:#e74c3c"/><rect x="1991.27" y="721.72" width="32.82" height="169.57" style="fill:#e74c3c"/><rect x="2070.67" y="698.43" width="32.82" height="192.86" style="fill:#e74c3c"/><rect x="2141.6" y="670.9" width="32.82" height="220.38" style="fill:#e74c3c"/><rect x="1706.15" y="818.23" width="16.41" height="73.05" style="fill:#231f20;opacity:0.1"/><rect x="1778.85" y="797.94" width="17.82" height="93.35" style="fill:#231f20;opacity:0.1"/><rect x="1853.31" y="773.59" width="16.41" height="117.7" style="fill:#231f20;opacity:0.1"/><rect x="1930.39" y="745.19" width="16.41" height="146.1" style="fill:#231f20;opacity:0.1"/><rect x="2007.68" y="721.72" width="16.41" height="169.57" style="fill:#231f20;opacity:0.1"/><rect x="2087.08" y="698.43" width="16.41" height="192.86" style="fill:#231f20;opacity:0.1"/><rect x="2158.01" y="670.9" width="16.41" height="220.38" style="fill:#231f20;opacity:0.1"/><rect x="1667.08" y="674.87" width="9.52" height="220.2" style="fill:#ff910b"/><rect x="1667.08" y="891.55" width="528.27" height="10.06" style="fill:#00b09e"/><rect x="1667.08" y="891.55" width="528.27" height="5.03" style="fill:#231f20;opacity:0.1"/></g><g id="Data-2" data-name="Data"><path d="M2627.85,1016.11,2582,956.44a227.14,227.14,0,0,1-222.68,39.3l-20.38,72.57a302.5,302.5,0,0,0,288.91-52.2Z" style="fill:#44baca"/><path d="M2582,956.44l45.85,59.67a302.3,302.3,0,0,0,88.93-346.6l-73.8,18.7a227,227,0,0,1-61,268.22Z" style="fill:#fdb940"/><path d="M2334.79,579.56l-29.94-69.11c-100.85,48.93-170.39,152.3-170.39,271.92,0,132.67,85.53,245.35,204.47,285.94l20.38-72.57c-87.28-31.59-149.65-115.2-149.65-213.37A226.85,226.85,0,0,1,2334.79,579.56Z" style="fill:#42536c"/><path d="M2436.53,555.51A226.89,226.89,0,0,1,2643,688.22l73.8-18.7c-44.71-110.92-153.33-189.21-280.25-189.21a300.9,300.9,0,0,0-131.67,30.14l29.94,69.11A225.91,225.91,0,0,1,2436.53,555.51Z" style="fill:#f47f74"/></g><g id="Document-2" data-name="Document"><path d="M2695.08,236.33H2558c-.59,0-1.17,0-1.82,0h-91a14.11,14.11,0,0,0-14.06,14.06V380.22a14.1,14.1,0,0,0,14.06,14h222.59a14.1,14.1,0,0,0,14.06-14V243.14A6.82,6.82,0,0,0,2695.08,236.33Zm-135,.13h0Zm1.82.23h0ZM2573,251.4c0,.06.09.12.15.18S2573.08,251.46,2573,251.4Zm-1-1.41,0,.07Zm.43.72.09.14Zm1.2,1.35.22.2Zm.81.61.29.2Zm1,.55.37.18Zm1.16.49.46.17Zm1.36.42.55.14Zm1.58.33.64.12Zm1.87.25.68.07Zm2.23.16.63,0Z" style="fill:#f47f74;fill-rule:evenodd"/><path d="M2695.08,236.33H2558c23.37.89,1.41,19.06,28.73,18.57h115.14V243.14A6.82,6.82,0,0,0,2695.08,236.33Z" style="fill:#020202;fill-rule:evenodd;opacity:0.1"/><path d="M2586.75,254.9h102.44a17.54,17.54,0,0,0-16.75-12.54H2570.07C2572,247.91,2569.29,255.22,2586.75,254.9Z" style="fill:#fabe00;fill-rule:evenodd"/><rect x="2521.07" y="280.72" width="110.91" height="64.56" style="fill:#e6e8e8"/><rect x="2530.95" y="302.63" width="91.16" height="4.29"/><rect x="2530.95" y="309.8" width="91.16" height="4.3"/><rect x="2530.95" y="316.98" width="91.16" height="4.3"/><rect x="2530.95" y="324.16" width="91.16" height="4.29"/><path d="M2650.54,394.27h37.29a14.1,14.1,0,0,0,14.06-14V301.45C2692.1,332.87,2675.33,374.07,2650.54,394.27Z" style="opacity:0.2"/><g id="Document-3" data-name="Document"><path d="M2792.63,299.25H2628.34c-.7,0-1.41,0-2.18,0h-109c-9.26,0-16.85,7.12-16.85,15.81V461.1c0,8.68,7.59,15.81,16.85,15.81h266.8c9.25,0,16.84-7.12,16.84-15.81V306.91A7.93,7.93,0,0,0,2792.63,299.25Zm-161.81.15h0Zm2.17.25h0Zm13.35,16.54.18.2Zm-1.16-1.59,0,.08Zm.51.81.11.16Zm1.45,1.52c.08.07.17.15.26.21C2647.31,317.09,2647.23,317,2647.14,316.94Zm1,.68.35.22Zm1.16.63.45.21Zm1.39.55.55.19Zm1.63.47.65.16Zm1.89.38.76.13Zm2.24.29.82.08Zm2.67.18.75,0Z" style="fill:#fdb940;fill-rule:evenodd"/><path d="M2792.63,299.25H2628.34c28,1,1.69,21.45,34.44,20.89h138V306.91A7.93,7.93,0,0,0,2792.63,299.25Z" style="fill:#020202;fill-rule:evenodd;opacity:0.1"/><path d="M2662.78,320.15h122.78C2783,312,2775,306,2765.49,306H2642.79C2645.06,312.28,2641.86,320.5,2662.78,320.15Z" style="fill:#f9623e;fill-rule:evenodd"/><rect x="2584.06" y="349.19" width="132.94" height="72.62" style="fill:#e6e8e8"/><rect x="2595.9" y="373.82" width="109.26" height="4.83" style="fill:#ff3e03"/><rect x="2595.9" y="381.9" width="109.26" height="4.82" style="fill:#ff3e03"/><rect x="2595.9" y="389.97" width="109.26" height="4.83" style="fill:#ff3e03"/><rect x="2595.9" y="398.04" width="109.26" height="4.83" style="fill:#ff3e03"/></g></g><g id="Controlling"><g id="Correction"><g id="Active-3" data-name="Active"><g id="Active1-2" data-name="Active1"><path d="M2441.44,839.39a55.61,55.61,0,0,1,16.61,9.56l23-9.49,15.48,26.81-19.28,16a56.52,56.52,0,0,1,.85,9.82,55.26,55.26,0,0,1-.67,8.68l20.06,15.46L2482,943l-23.14-8.57a55.41,55.41,0,0,1-16.39,9.91l-3.26,24.47h-31l-4.1-24.08a55,55,0,0,1-16.61-9.56l-23,9.49-15.47-26.8,19.29-16a56.45,56.45,0,0,1-.19-18.51l-20.06-15.44,15.48-26.81,23.13,8.57a55.21,55.21,0,0,1,16.41-9.9l3.25-24.47h31Z" style="fill:#f05161;fill-rule:evenodd"/><path d="M2422.8,932.31a40.23,40.23,0,1,0-40.25-40.23,40.33,40.33,0,0,0,40.25,40.23Z" style="fill-rule:evenodd;opacity:0.5"/><path d="M2422.81,918.76a26.68,26.68,0,1,0-26.69-26.69,26.74,26.74,0,0,0,26.69,26.69Z" style="fill:#fff;fill-rule:evenodd;opacity:0.5"/></g><g id="Active-4" data-name="Active"><path d="M2497,610.43a82,82,0,0,1,27.77,5.94L2553,592.51l34,30.77L2567,654.61a83.76,83.76,0,0,1,5.66,13.46,82.86,82.86,0,0,1,3,12.57L2611,693.29l-9.64,44.85-36.53-1.58A81.74,81.74,0,0,1,2546.25,758l6.51,36-43.67,14.07L2492.36,776a81.51,81.51,0,0,1-27.77-5.93l-28.17,23.85-34-30.77,19.94-31.33a83.93,83.93,0,0,1-5.67-13.44,85.17,85.17,0,0,1-3-12.58l-35.32-12.66,9.64-44.84,36.53,1.57a81.36,81.36,0,0,1,18.61-21.41l-6.52-36,43.67-14.07Z" style="fill:#fdb940;fill-rule:evenodd"/><path d="M2494.68,758.08a64.88,64.88,0,1,0-64.89-64.88,65,65,0,0,0,64.89,64.88Z" style="fill-rule:evenodd;opacity:0.5"/><path d="M2506.81,730.84a39.55,39.55,0,1,0-49.77-25.5,39.63,39.63,0,0,0,49.77,25.5Z" style="fill:#fff;fill-rule:evenodd;opacity:0.5"/></g></g><g id="Active-5" data-name="Active"><g id="Active1-3" data-name="Active1"><path d="M2315.46,792.3a23.11,23.11,0,0,1,7.77-1.79l4.33-9.41,12.31,3.78-1.35,10.33a24.17,24.17,0,0,1,3,2.76,22.67,22.67,0,0,1,2.26,2.83l10.48-1,2.88,12.55-9.48,3.93a23,23,0,0,1-2.19,7.66l5.93,8.39-9.43,8.76-8.06-6.17a22.74,22.74,0,0,1-7.77,1.78l-4.33,9.41-12.3-3.79,1.35-10.33a23.58,23.58,0,0,1-3-2.75,24.07,24.07,0,0,1-2.26-2.84l-10.49,1-2.86-12.55,9.47-3.94a23,23,0,0,1,2.19-7.66l-5.93-8.38,9.44-8.76Z" style="fill:#e74c3c;fill-rule:evenodd"/><path d="M2336.08,825.88a16.73,16.73,0,1,0-23.66-.87,16.78,16.78,0,0,0,23.66.87Z" style="fill-rule:evenodd;opacity:0.5"/><path d="M2332.25,821.75a11.1,11.1,0,1,0-15.69-.58,11.12,11.12,0,0,0,15.69.58Z" style="fill:#fff;fill-rule:evenodd;opacity:0.5"/></g><g id="Active-6" data-name="Active"><path d="M2267.61,706.79a34,34,0,0,1,10.14-6l1.84-15.25,19.07-.25,2.79,15.18a34.82,34.82,0,0,1,5.53,2.51,34,34,0,0,1,4.47,3l14.35-6.14,9.75,16.41L2324,726a34,34,0,0,1,.38,11.79l12.18,9.13-9.33,16.64-14.18-5a33.59,33.59,0,0,1-10.14,6l-1.84,15.25-19.08.25-2.79-15.2a34.77,34.77,0,0,1-5.53-2.49,36,36,0,0,1-4.47-3l-14.35,6.13-9.75-16.4,11.58-9.86a33.84,33.84,0,0,1-.38-11.8l-12.17-9.12,9.32-16.65Z" style="fill:#42536c;fill-rule:evenodd"/><path d="M2308.68,752.45a27,27,0,1,0-38.13-1.41,27,27,0,0,0,38.13,1.41Z" style="fill-rule:evenodd;opacity:0.5"/><path d="M2304.68,740.71a16.44,16.44,0,1,0-22.39,6.32,16.49,16.49,0,0,0,22.39-6.32Z" style="fill:#fff;fill-rule:evenodd;opacity:0.5"/></g></g></g></g></g><circle id="Background_2-4" data-name="Background 2" cx="656.37" cy="587.73" r="532" style="fill:#29abe2"/><g id="Analysis_System" data-name="Analysis System"><g id="Book"><g id="Book-2" data-name="Book"><rect x="467.6" y="40" width="434.38" height="279.34" style="fill:#354666"/><rect x="484.4" y="50.55" width="403.18" height="259.19" style="fill:#f4f4f4"/><rect x="506" y="50.55" width="381.58" height="259.19" style="opacity:0.1"/><rect x="709.31" y="64" width="154.13" height="10.14" style="fill:#16a085"/><rect x="709.31" y="87.19" width="154.13" height="10.14" style="fill:#16a085"/><rect x="704.51" y="114.66" width="154.14" height="10.14" style="fill:#16a085"/><rect x="704.51" y="135.2" width="154.14" height="10.14" style="fill:#16a085"/><rect x="704.51" y="157.6" width="154.14" height="10.14" style="fill:#16a085"/><rect x="704.51" y="192.79" width="154.14" height="10.14" style="fill:#16a085"/><polygon points="814.65 345.6 684.79 309.73 685.99 50.31 814.65 0 814.65 345.6" style="fill:#f2f2f2"/><rect x="873.05" y="50.55" width="14.53" height="259.19" style="opacity:0.30000000000000004"/><rect x="518.12" y="64" width="154.13" height="10.14" style="fill:#e74c3c"/><rect x="518.12" y="102.66" width="154.13" height="10.14" style="fill:#e74c3c"/><rect x="518.12" y="119.73" width="154.13" height="10.13" style="fill:#e74c3c"/><rect x="518.12" y="162.66" width="154.13" height="10.14" style="fill:#e74c3c"/><rect x="518.12" y="180.14" width="154.13" height="10.14" style="fill:#0e8fff"/><rect x="518.12" y="197.86" width="154.13" height="10.13" style="fill:#0e8fff"/><rect x="518.12" y="231.46" width="154.13" height="10.13" style="fill:#16a085"/><rect x="518.12" y="253.86" width="154.13" height="10.14" style="fill:#16a085"/></g><g id="Pen"><g id="Pen-2" data-name="Pen"><path d="M555.32,275.51c.82,4.83-1.58,9.6-5.36,10.66h0c-3.78,1-7.52-2-8.34-6.86L512,105c-.82-4.84,1.58-9.61,5.36-10.66h0c3.79-1.05,7.52,2,8.34,6.86Z" style="fill:#3f3f3f"/><path d="M518.92,94.14l32,188.41,3.73-1a11.21,11.21,0,0,0,.62-6L525.66,101.19C525,97,522.11,94.2,518.92,94.14Z" style="opacity:0.2"/><path d="M539.2,155.22c.35,2.05-.67,4.08-2.28,4.52h0c-1.6.44-3.19-.85-3.54-2.91l-7.81-45.9c-.35-2.05.67-4.08,2.27-4.52h0c1.61-.45,3.19.86,3.54,2.9Z" style="fill:#757575"/><path d="M512,105l29.65,174.32c.68,4,3.36,6.78,6.4,7h0L515.5,95.2C512.81,97,511.28,101,512,105Z" style="fill:#757575;opacity:0.30000000000000004"/><path d="M562,305.23c0,4.95-3.14,9-7,9h0c-3.87,0-7-4-7-9V126.84c0-5,3.14-9,7-9h0c3.87,0,7,4,7,9Z" style="fill:#1abc9c"/><path d="M556.62,118.11V313.84s1.69,0,3.81-2.91a9.91,9.91,0,0,0,1.61-5.7V126.84C562,122.59,559.72,119,556.62,118.11Z" style="opacity:0.2"/><path d="M566.29,183.31c0,2.1-1.33,3.8-3,3.8h0c-1.64,0-3-1.71-3-3.8v-47c0-2.1,1.33-3.8,3-3.8h0c1.64,0,3,1.7,3,3.8Z" style="fill:#34495e"/><path d="M548,126.84V305.23c0,4.1,2.15,7.55,5.09,8.61h0V118.22C550.17,119.29,548,122.74,548,126.84Z" style="fill:#fff;opacity:0.1"/><path d="M602.54,270.79c-.6,4.89-4.18,8.24-8,7.47h0c-3.83-.76-6.45-5.34-5.85-10.23L610.2,91.76c.6-4.89,4.18-8.24,8-7.47h0c3.83.76,6.45,5.35,5.85,10.23Z" style="fill:#e74c3c"/><path d="M619.75,84.84l-23.59,193.5s1.93,0,4.1-2.23a9.19,9.19,0,0,0,2.27-5.32L624.06,94.52C624.57,90.33,622.71,86.37,619.75,84.84Z" style="opacity:0.2"/><path d="M621.44,151.17c-.25,2.08-1.77,3.5-3.4,3.17h0c-1.62-.33-2.73-2.27-2.48-4.34l5.67-46.41c.25-2.08,1.77-3.5,3.4-3.17h0c1.62.33,2.73,2.27,2.48,4.34Z" style="fill:#232700"/><path d="M610.2,91.76,588.68,268c-.49,4,1.22,7.87,4,9.5h0L616.27,84.26C613.23,84.73,610.69,87.71,610.2,91.76Z" style="fill:#757575;opacity:0.1"/></g></g></g><g id="Correction-2" data-name="Correction"><g id="Laptop-2" data-name="Laptop"><rect x="921.77" y="566.88" width="295.6" height="13.72" style="fill:#033"/><path d="M1289.28,399.84H844.66c-20.38,0-26.67,12.8-22.74,27.92,0-.18,0-.36,0-.55a10.5,10.5,0,0,0,.32,3.12L854.45,551.8c4.86,18.44,9.23,19,33.22,19l371.75,0c19.3,0,28.71,0,32.54-18.48L1317,430.33a11.3,11.3,0,0,0,.17-1.39v0l1.21-10.33C1320.13,403.81,1300.61,399.84,1289.28,399.84ZM822.15,425.6a8.59,8.59,0,0,0-.14.87C822,426.17,822.09,425.89,822.15,425.6Zm1-2.83c-.07.14-.15.28-.21.42C823,423.05,823,422.91,823.11,422.77Zm-.55,1.31c-.08.23-.17.47-.24.71C822.39,424.56,822.48,424.32,822.56,424.09Zm18.15-11.89c.67-.06,1.34-.09,2-.09C842.06,412.1,841.38,412.14,840.71,412.19Zm-12.36,4.6.14-.1Zm1.46-1,.28-.18Zm1.59-.9.43-.21Zm1.71-.8.56-.23Zm1.8-.69.73-.23Zm1.88-.55c.3-.08.61-.14.91-.2C837.4,412.74,837.09,412.8,836.79,412.88Zm1.94-.42c.39-.07.78-.11,1.18-.16C839.51,412.35,839.12,412.39,838.73,412.46Z" style="fill:#344f84;fill-rule:evenodd"/><path d="M844.66,399.84h444.62c11.33,0,30.86,4,29.14,18.8L1317.2,429c-1.64-7.69-11.23-16.87-20.63-16.87H842.72c-10.22,0-20.91,7.08-20.8,15.66-3.94-15.12,2.36-27.92,22.74-27.92Z" style="fill-rule:evenodd;opacity:0.5"/><polygon points="844.55 420.68 1297.18 420.18 1272.76 561.66 872.94 561.77 844.55 420.68" style="fill:#fff;fill-rule:evenodd;opacity:0.8"/><path d="M866.79,574.93H1275a12.34,12.34,0,0,1,12.3,12.29V812.3a12.34,12.34,0,0,1-12.3,12.3H866.79a12.34,12.34,0,0,1-12.3-12.3V587.22a12.34,12.34,0,0,1,12.3-12.29Z" style="fill:#c6c6c6;fill-rule:evenodd"/><path d="M1287.28,587.22a12.34,12.34,0,0,0-12.3-12.29h-34.37L980.42,824.6H1275a12.34,12.34,0,0,0,12.3-12.3Z" style="opacity:0.2"/><rect x="1013.05" y="748.46" width="115.63" height="60.52" style="fill:#223666"/><rect x="875.95" y="596.01" width="389.86" height="141.72" style="opacity:0.30000000000000004"/><g id="Keyboard-2" data-name="Keyboard"><path d="M884.39,604.39h18.1a2.28,2.28,0,0,1,1.92,2.52V626.4a2.28,2.28,0,0,1-1.92,2.52h-18.1a2.31,2.31,0,0,1-2-2.52V606.91a2.31,2.31,0,0,1,2-2.52Z" style="fill:#333;fill-rule:evenodd"/><path d="M913.75,604.39h18.1a2.31,2.31,0,0,1,2,2.52V626.4a2.31,2.31,0,0,1-2,2.52h-18.1a2.31,2.31,0,0,1-2-2.52V606.91a2.31,2.31,0,0,1,2-2.52Z" style="fill:#333;fill-rule:evenodd"/><path d="M943.15,604.39h18.06a2.31,2.31,0,0,1,2,2.52V626.4a2.31,2.31,0,0,1-2,2.52H943.15a2.31,2.31,0,0,1-2-2.52V606.91a2.31,2.31,0,0,1,2-2.52Z" style="fill:#333;fill-rule:evenodd"/><path d="M972.51,604.39h18.06a2.28,2.28,0,0,1,2,2.52V626.4a2.28,2.28,0,0,1-2,2.52H972.51a2.31,2.31,0,0,1-2-2.52V606.91a2.31,2.31,0,0,1,2-2.52Z" style="fill:#333;fill-rule:evenodd"/><path d="M1001.88,604.39H1020a2.31,2.31,0,0,1,2,2.52V626.4a2.31,2.31,0,0,1-2,2.52h-18.1a2.31,2.31,0,0,1-2-2.52V606.91a2.31,2.31,0,0,1,2-2.52Z" style="fill:#333;fill-rule:evenodd"/><path d="M1031.27,604.39h18.06a2.31,2.31,0,0,1,2,2.52V626.4a2.31,2.31,0,0,1-2,2.52h-18.06a2.31,2.31,0,0,1-2-2.52V606.91a2.31,2.31,0,0,1,2-2.52Z" style="fill:#333;fill-rule:evenodd"/><path d="M1060.64,604.39h18.06a2.28,2.28,0,0,1,2,2.52V626.4a2.28,2.28,0,0,1-2,2.52h-18.06a2.31,2.31,0,0,1-2-2.52V606.91a2.31,2.31,0,0,1,2-2.52Z" style="fill:#333;fill-rule:evenodd"/><path d="M1090,604.39h18.1a2.31,2.31,0,0,1,2,2.52V626.4a2.31,2.31,0,0,1-2,2.52H1090a2.3,2.3,0,0,1-2-2.52V606.91a2.3,2.3,0,0,1,2-2.52Z" style="fill:#333;fill-rule:evenodd"/><path d="M1119.4,604.39h18.06a2.31,2.31,0,0,1,2,2.52V626.4a2.31,2.31,0,0,1-2,2.52H1119.4a2.28,2.28,0,0,1-2-2.52V606.91a2.28,2.28,0,0,1,2-2.52Z" style="fill:#333;fill-rule:evenodd"/><path d="M1148.76,604.39h18.06a2.28,2.28,0,0,1,2,2.52V626.4a2.28,2.28,0,0,1-2,2.52h-18.06a2.3,2.3,0,0,1-2-2.52V606.91a2.3,2.3,0,0,1,2-2.52Z" style="fill:#333;fill-rule:evenodd"/><path d="M1178.13,604.39h18.1a2.3,2.3,0,0,1,2,2.52V626.4a2.3,2.3,0,0,1-2,2.52h-18.1a2.3,2.3,0,0,1-2-2.52V606.91a2.3,2.3,0,0,1,2-2.52Z" style="fill:#333;fill-rule:evenodd"/><path d="M928.49,638.43h18.06a2.31,2.31,0,0,1,2,2.52v19.49a2.31,2.31,0,0,1-2,2.52H928.49a2.31,2.31,0,0,1-2-2.52V641a2.31,2.31,0,0,1,2-2.52Z" style="fill:#333;fill-rule:evenodd"/><path d="M957.85,638.43h18.1a2.31,2.31,0,0,1,2,2.52v19.49a2.31,2.31,0,0,1-2,2.52h-18.1a2.31,2.31,0,0,1-2-2.52V641a2.31,2.31,0,0,1,2-2.52Z" style="fill:#333;fill-rule:evenodd"/><path d="M987.21,638.43h18.1a2.31,2.31,0,0,1,2,2.52v19.49a2.31,2.31,0,0,1-2,2.52h-18.1a2.28,2.28,0,0,1-1.92-2.52V641a2.28,2.28,0,0,1,1.92-2.52Z" style="fill:#333;fill-rule:evenodd"/><path d="M1016.61,638.43h18.06a2.3,2.3,0,0,1,2,2.52v19.49a2.3,2.3,0,0,1-2,2.52h-18.06a2.31,2.31,0,0,1-2-2.52V641a2.31,2.31,0,0,1,2-2.52Z" style="fill:#333;fill-rule:evenodd"/><path d="M1046,638.43h18.1A2.28,2.28,0,0,1,1066,641v19.49a2.28,2.28,0,0,1-1.92,2.52H1046a2.31,2.31,0,0,1-2-2.52V641a2.31,2.31,0,0,1,2-2.52Z" style="fill:#333;fill-rule:evenodd"/><path d="M1075.34,638.43h18.1a2.31,2.31,0,0,1,2,2.52v19.49a2.31,2.31,0,0,1-2,2.52h-18.1a2.31,2.31,0,0,1-2-2.52V641a2.31,2.31,0,0,1,2-2.52Z" style="fill:#333;fill-rule:evenodd"/><path d="M1104.74,638.43h18.06a2.31,2.31,0,0,1,2,2.52v19.49a2.31,2.31,0,0,1-2,2.52h-18.06a2.31,2.31,0,0,1-2-2.52V641a2.31,2.31,0,0,1,2-2.52Z" style="fill:#333;fill-rule:evenodd"/><path d="M1134.1,638.43h18.1a2.28,2.28,0,0,1,1.92,2.52v19.49a2.28,2.28,0,0,1-1.92,2.52h-18.1a2.3,2.3,0,0,1-2-2.52V641a2.3,2.3,0,0,1,2-2.52Z" style="fill:#333;fill-rule:evenodd"/><path d="M1163.46,638.43h18.1a2.3,2.3,0,0,1,2,2.52v19.49a2.3,2.3,0,0,1-2,2.52h-18.1a2.31,2.31,0,0,1-2-2.52V641a2.31,2.31,0,0,1,2-2.52Z" style="fill:#333;fill-rule:evenodd"/><path d="M1192.86,638.43h18.06a2.3,2.3,0,0,1,2,2.52v19.49a2.3,2.3,0,0,1-2,2.52h-18.06a2.31,2.31,0,0,1-2-2.52V641a2.31,2.31,0,0,1,2-2.52Z" style="fill:#333;fill-rule:evenodd"/><path d="M1207.53,604.39h18.06a2.31,2.31,0,0,1,2,2.52V626.4a2.31,2.31,0,0,1-2,2.52h-18.06a2.28,2.28,0,0,1-2-2.52V606.91a2.28,2.28,0,0,1,2-2.52Z" style="fill:#333;fill-rule:evenodd"/><path d="M1236.88,604.39h18.06a2.3,2.3,0,0,1,2,2.52V626.4a2.3,2.3,0,0,1-2,2.52h-18.06a2.3,2.3,0,0,1-2-2.52V606.91a2.3,2.3,0,0,1,2-2.52Z" style="fill:#333;fill-rule:evenodd"/><path d="M1222.71,638.43h32.24a2.3,2.3,0,0,1,2,2.52v19.49a2.3,2.3,0,0,1-2,2.52h-32.24a2.31,2.31,0,0,1-2-2.52V641a2.31,2.31,0,0,1,2-2.52Z" style="fill:#333;fill-rule:evenodd"/><path d="M884.68,638.43h33.46a2.3,2.3,0,0,1,2,2.52v19.49a2.3,2.3,0,0,1-2,2.52H884.68a2.28,2.28,0,0,1-2-2.52V641a2.28,2.28,0,0,1,2-2.52Z" style="fill:#333;fill-rule:evenodd"/><path d="M884.68,672.47h40a2.31,2.31,0,0,1,2,2.52v19.49a2.31,2.31,0,0,1-2,2.52h-40a2.28,2.28,0,0,1-2-2.52V675a2.28,2.28,0,0,1,2-2.52Z" style="fill:#333;fill-rule:evenodd"/><path d="M884.68,706.51h18a2.3,2.3,0,0,1,2,2.52v19.49a2.3,2.3,0,0,1-2,2.52h-18a2.28,2.28,0,0,1-2-2.52V709a2.28,2.28,0,0,1,2-2.52Z" style="fill:#333;fill-rule:evenodd"/><path d="M914,706.51h18a2.31,2.31,0,0,1,2,2.52v19.49a2.31,2.31,0,0,1-2,2.52H914a2.31,2.31,0,0,1-2-2.52V709a2.31,2.31,0,0,1,2-2.52Z" style="fill:#333;fill-rule:evenodd"/><path d="M943.34,706.51h18a2.28,2.28,0,0,1,2,2.52v19.49a2.28,2.28,0,0,1-2,2.52h-18a2.31,2.31,0,0,1-2-2.52V709a2.31,2.31,0,0,1,2-2.52Z" style="fill:#333;fill-rule:evenodd"/><path d="M972.66,706.51h187.81a2.28,2.28,0,0,1,2,2.52v19.49a2.28,2.28,0,0,1-2,2.52H972.66a2.31,2.31,0,0,1-2-2.52V709a2.31,2.31,0,0,1,2-2.52Z" style="fill:#333;fill-rule:evenodd"/><path d="M935.5,672.8h18.06a2.31,2.31,0,0,1,2,2.52v19.49a2.31,2.31,0,0,1-2,2.52H935.5a2.31,2.31,0,0,1-2-2.52V675.32a2.31,2.31,0,0,1,2-2.52Z" style="fill:#333;fill-rule:evenodd"/><path d="M964.87,672.8H983a2.31,2.31,0,0,1,2,2.52v19.49a2.31,2.31,0,0,1-2,2.52h-18.1a2.31,2.31,0,0,1-2-2.52V675.32a2.31,2.31,0,0,1,2-2.52Z" style="fill:#333;fill-rule:evenodd"/><path d="M994.23,672.8h18.1a2.31,2.31,0,0,1,2,2.52v19.49a2.31,2.31,0,0,1-2,2.52h-18.1a2.28,2.28,0,0,1-1.92-2.52V675.32a2.28,2.28,0,0,1,1.92-2.52Z" style="fill:#333;fill-rule:evenodd"/><path d="M1023.63,672.8h18.06a2.31,2.31,0,0,1,2,2.52v19.49a2.31,2.31,0,0,1-2,2.52h-18.06a2.31,2.31,0,0,1-2-2.52V675.32a2.31,2.31,0,0,1,2-2.52Z" style="fill:#333;fill-rule:evenodd"/><path d="M1053,672.8h18.1a2.29,2.29,0,0,1,1.92,2.52v19.49a2.28,2.28,0,0,1-1.92,2.52H1053a2.31,2.31,0,0,1-2-2.52V675.32a2.31,2.31,0,0,1,2-2.52Z" style="fill:#333;fill-rule:evenodd"/><path d="M1082.36,672.8h18.09a2.32,2.32,0,0,1,2,2.52v19.49a2.31,2.31,0,0,1-2,2.52h-18.09a2.31,2.31,0,0,1-2-2.52V675.32a2.31,2.31,0,0,1,2-2.52Z" style="fill:#333;fill-rule:evenodd"/><path d="M1111.75,672.8h18.06a2.31,2.31,0,0,1,2,2.52v19.49a2.31,2.31,0,0,1-2,2.52h-18.06a2.31,2.31,0,0,1-2-2.52V675.32a2.31,2.31,0,0,1,2-2.52Z" style="fill:#333;fill-rule:evenodd"/><path d="M1141.11,672.8h18.1a2.29,2.29,0,0,1,1.92,2.52v19.49a2.28,2.28,0,0,1-1.92,2.52h-18.1a2.31,2.31,0,0,1-2-2.52V675.32a2.31,2.31,0,0,1,2-2.52Z" style="fill:#333;fill-rule:evenodd"/><path d="M1170.48,672.8h33.65a2.31,2.31,0,0,1,2,2.52v19.49a2.31,2.31,0,0,1-2,2.52h-33.65a2.3,2.3,0,0,1-2-2.52V675.32a2.31,2.31,0,0,1,2-2.52Z" style="fill:#333;fill-rule:evenodd"/><path d="M1214.76,672.47h40a2.31,2.31,0,0,1,2,2.52v19.49a2.31,2.31,0,0,1-2,2.52h-40a2.31,2.31,0,0,1-2-2.52V675a2.31,2.31,0,0,1,2-2.52Z" style="fill:#333;fill-rule:evenodd"/><path d="M1218.35,706.51h15.07a.8.8,0,0,1,.7.85v6.75a.8.8,0,0,1-.7.85h-15.07a.77.77,0,0,1-.66-.85v-6.75a.78.78,0,0,1,.66-.85Z" style="fill:#333;fill-rule:evenodd"/><path d="M1218.35,721.2h15.07a.8.8,0,0,1,.7.86v6.7a.8.8,0,0,1-.7.86h-15.07a.78.78,0,0,1-.66-.86v-6.7a.78.78,0,0,1,.66-.86Z" style="fill:#333;fill-rule:evenodd"/><path d="M1196,721.2h15.07a.8.8,0,0,1,.7.86v6.7a.8.8,0,0,1-.7.86H1196a.78.78,0,0,1-.66-.86v-6.7a.78.78,0,0,1,.66-.86Z" style="fill:#333;fill-rule:evenodd"/><path d="M1240.65,721.2h15.07a.78.78,0,0,1,.67.86v6.7a.78.78,0,0,1-.67.86h-15.07a.81.81,0,0,1-.7-.86v-6.7a.81.81,0,0,1,.7-.86Z" style="fill:#333;fill-rule:evenodd"/><path d="M1169.78,706.51h18.1a2.31,2.31,0,0,1,2,2.52v19.49a2.31,2.31,0,0,1-2,2.52h-18.1a2.3,2.3,0,0,1-2-2.52V709a2.3,2.3,0,0,1,2-2.52Z" style="fill:#333;fill-rule:evenodd"/></g></g><g id="Lens"><path d="M1176.32,331.2a17.84,17.84,0,0,1,24.81,4.56h0a17.85,17.85,0,0,1-4.56,24.81l-80.27,55.34a17.83,17.83,0,0,1-24.8-4.56h0a17.83,17.83,0,0,1,4.56-24.8Z" style="fill:gray"/><path d="M1171.76,337.63a15.13,15.13,0,0,1,21,3.86h0a15.13,15.13,0,0,1-3.86,21l-68.09,47a15.12,15.12,0,0,1-21-3.87h0a15.13,15.13,0,0,1,3.87-21Z" style="opacity:0.2"/><path d="M1089,396.54a17.8,17.8,0,0,0,13.55,22.13c1.24-3.54,0-9.09-3.47-14.15C1096.14,400.29,1092.34,397.42,1089,396.54Z" style="opacity:0.1"/><path d="M963.1,400.47A81.85,81.85,0,1,0,1082,429.82l17.47-12.05s3.26-15-11-18l-18.54,12.79A81.86,81.86,0,0,0,963.1,400.47Zm99.17,31a64,64,0,1,1-89-16.36A64,64,0,0,1,1062.27,431.51Z" style="fill:#3aceb2"/><path d="M945.86,474.17a64,64,0,0,0,95.47,49.24C982,537.36,956,498.05,945.86,474.17Z" style="opacity:0.2"/></g><g id="Active-7" data-name="Active"><g id="Active1-4" data-name="Active1"><path d="M1050.57,511.93a22.57,22.57,0,0,1,6.72,3.87l9.31-3.84,6.26,10.84-7.8,6.47a23.19,23.19,0,0,1,.34,4,22.22,22.22,0,0,1-.27,3.51l8.12,6.26L1067,553.85l-9.36-3.46a22.53,22.53,0,0,1-6.63,4l-1.32,9.9h-12.52l-1.66-9.74a22.11,22.11,0,0,1-6.72-3.87l-9.32,3.84-6.26-10.85,7.8-6.47a22.78,22.78,0,0,1-.07-7.49l-8.12-6.24,6.26-10.85,9.36,3.47a22.13,22.13,0,0,1,6.63-4l1.32-9.9h12.53Z" style="fill:#f05161;fill-rule:evenodd"/><path d="M1043,549.52a16.28,16.28,0,1,0-16.28-16.28A16.31,16.31,0,0,0,1043,549.52Z" style="fill-rule:evenodd;opacity:0.5"/><path d="M1043,544a10.79,10.79,0,1,0-10.79-10.79A10.82,10.82,0,0,0,1043,544Z" style="fill:#fff;fill-rule:evenodd;opacity:0.5"/></g><g id="Active-8" data-name="Active"><path d="M1073.05,419.32a32.94,32.94,0,0,1,11.23,2.4l11.4-9.66,13.76,12.45-8.06,12.67a33.83,33.83,0,0,1,3.51,10.52l14.29,5.12-3.9,18.14-14.78-.64A33.09,33.09,0,0,1,1093,479l2.63,14.56-17.66,5.69-6.77-13a32.83,32.83,0,0,1-11.23-2.4l-11.4,9.64-13.76-12.44,8.07-12.68a33.93,33.93,0,0,1-2.29-5.44,34.7,34.7,0,0,1-1.22-5.08L1025,452.75l3.9-18.14,14.78.64a33,33,0,0,1,7.53-8.67L1048.62,412l17.66-5.69Z" style="fill:#f39c12;fill-rule:evenodd"/><path d="M1072.11,479a26.24,26.24,0,1,0-26.25-26.25A26.31,26.31,0,0,0,1072.11,479Z" style="fill-rule:evenodd;opacity:0.5"/><path d="M1077,468a16,16,0,1,0-20.13-10.32A16,16,0,0,0,1077,468Z" style="fill:#fff;fill-rule:evenodd;opacity:0.5"/></g></g><g id="Active-9" data-name="Active"><g id="Active1-5" data-name="Active1"><path d="M999.62,492.88a9.43,9.43,0,0,1,3.14-.72l1.75-3.8,5,1.53-.55,4.18a9.6,9.6,0,0,1,1.23,1.11,10,10,0,0,1,.91,1.15l4.24-.39,1.16,5.08-3.83,1.59a9.41,9.41,0,0,1-.89,3.1l2.4,3.39-3.81,3.55-3.26-2.5a9.26,9.26,0,0,1-3.14.72l-1.75,3.81-5-1.54.55-4.18a9,9,0,0,1-1.23-1.11,9.42,9.42,0,0,1-.91-1.15l-4.24.39L990.22,502l3.83-1.59a9.25,9.25,0,0,1,.89-3.1l-2.4-3.39,3.82-3.54Z" style="fill:#ea844b;fill-rule:evenodd"/><path d="M1008,506.46a6.77,6.77,0,1,0-9.57-.35,6.79,6.79,0,0,0,9.57.35Z" style="fill-rule:evenodd;opacity:0.5"/><path d="M1006.4,504.79a4.49,4.49,0,1,0-6.34-.23,4.49,4.49,0,0,0,6.34.23Z" style="fill:#fff;fill-rule:evenodd;opacity:0.5"/></g><g id="Active-10" data-name="Active"><path d="M980.26,458.29a13.85,13.85,0,0,1,4.11-2.44l.74-6.17,7.72-.1,1.13,6.14a14,14,0,0,1,2.24,1,14.28,14.28,0,0,1,1.81,1.2l5.8-2.48,3.95,6.63-4.68,4a13.83,13.83,0,0,1,.16,4.77l4.92,3.69-3.77,6.73-5.74-2a13.78,13.78,0,0,1-4.1,2.45l-.75,6.16-7.72.1-1.13-6.14a14.15,14.15,0,0,1-2.24-1,13.65,13.65,0,0,1-1.81-1.2l-5.8,2.48-3.95-6.63,4.68-4a13.63,13.63,0,0,1-.16-4.77L970.75,463l3.77-6.73Z" style="fill:#1abc9c;fill-rule:evenodd"/><path d="M996.87,476.76a10.91,10.91,0,1,0-15.43-.57,10.94,10.94,0,0,0,15.43.57Z" style="fill-rule:evenodd;opacity:0.5"/><path d="M995.25,472a6.65,6.65,0,1,0-9.06,2.55,6.67,6.67,0,0,0,9.06-2.55Z" style="fill:#fff;fill-rule:evenodd;opacity:0.5"/></g></g></g><g id="Blooming-2" data-name="Blooming"><path d="M315.51,784.9c-24-21.19-13.08-70.64-13.08-70.64H230.91s10.91,49.45-13.09,70.64-52,21.19-52,21.19V818H367.55V806.09S339.52,806.09,315.51,784.9Z" style="fill:#a5a5a5"/><rect x="165.79" y="806.09" width="201.76" height="11.92" style="fill:#fff;opacity:0.30000000000000004"/><path d="M31.79,391.09H501.55a31.79,31.79,0,0,1,31.79,31.79V682.48a31.78,31.78,0,0,1-31.78,31.78H31.79A31.79,31.79,0,0,1,0,682.48V422.87a31.79,31.79,0,0,1,31.79-31.79Z" style="fill:#ccc"/><path d="M0,422.87v259.6a31.58,31.58,0,0,0,4.82,16.78H528.51a31.57,31.57,0,0,0,4.82-16.78V422.87A31.62,31.62,0,0,0,525,401.52H8.29A31.61,31.61,0,0,0,0,422.87Z" style="fill:#223666"/><rect x="22.96" y="412.28" width="487.42" height="275.94" style="fill:#e2e2e2"/><rect x="71.3" y="588.87" width="52.03" height="99.34" style="fill:#9ac900"/><rect x="159.6" y="558.92" width="52.03" height="129.3" style="fill:#c3df00"/><rect x="248.68" y="495.85" width="52.03" height="192.37" style="fill:#dfc300"/><rect x="341.71" y="462.73" width="52.03" height="225.48" style="fill:#e85f00"/><rect x="430.45" y="427.95" width="52.03" height="255.63" style="fill:#e53400"/><polygon points="57.64 628.74 52.84 622.34 204.13 508.87 366.27 491.96 480.45 424.5 484.51 431.39 368.83 499.73 207.16 516.6 57.64 628.74" style="fill:#34495e"/><circle cx="55.24" cy="625.54" r="13.01" style="fill:#0cc1b0"/><circle cx="205.64" cy="512.74" r="13.01" style="fill:#0cc1b0"/><circle cx="367.55" cy="495.85" r="13.01" style="fill:#0cc1b0"/><circle cx="482.48" cy="427.95" r="13" style="fill:#0cc1b0"/></g><g id="Man"><polygon points="559.52 775.39 566.77 711.25 724.31 679.06 721.56 728.92 728.16 770.63 705.38 792.05 655.4 810.53 584.68 794.21 559.52 775.39" style="fill:#f6b98a"/><path d="M538.44,770.63,563,744.79s24.41,60.29,84.25,56.67,77.26-54,77.26-54L756,770.63l2.28,58.48s-121,31.27-140.08,26.75-86.15-36.27-86.15-36.27Z" style="fill:#efb73a"/><path d="M756,770.63c-21.76,57.12-108.8,62.56-108.8,62.56s-87-5.44-108.8-62.56c0,0-201.28,49-217.6,242.08,0,0,81.6,160.48,326.4,176.8,244.8-16.32,326.4-176.8,326.4-176.8C957.32,819.59,756,770.63,756,770.63Z" style="fill:#33839e"/><path d="M795.48,429.27C777.8,365.35,647.24,345,647.24,345S516.68,365.35,499,429.27s-4.08,137.36,15,194.49,57.12,127.84,133.28,155c76.16-27.2,114.24-97.92,133.28-155S813.16,493.2,795.48,429.27Z" style="fill:#5e3b28"/><path d="M669.67,349.55c37.16,54.35,111.88,205-5.28,422.06,64.82-31,98.58-95.2,116.13-147.85,19-57.12,32.64-130.56,15-194.49C782.42,382.06,707.8,358.6,669.67,349.55Z" style="opacity:0.2"/><path d="M973.64,1012.71C960.35,855.51,824.51,793.83,774.44,776.33c48.79,62.93,147.5,207.94,122.51,322.94C951.83,1055.59,973.64,1012.71,973.64,1012.71Z" style="opacity:0.2"/></g></g></g></g></svg>