<svg xmlns="http://www.w3.org/2000/svg" xmlns:xlink="http://www.w3.org/1999/xlink" viewBox="0 0 331.84 164.18"><defs><linearGradient id="linear-gradient" x1="165.92" y1="164.39" x2="165.92" y2="0.23" gradientUnits="userSpaceOnUse"><stop offset="0" stop-color="#225fbc"/><stop offset="1" stop-color="#1fb2f0"/></linearGradient></defs><title>sap</title><g id="Layer_2" data-name="Layer 2"><g id="Layer_1-2" data-name="Layer 1"><polyline points="0 164.15 167.7 164.15 331.84 0 0 0 0 164.15" style="fill-rule:evenodd;fill:url(#linear-gradient)"/><path d="M196.93,30.86H164.27v77.66L135.73,30.85H107.44L83.07,95.79c-2.58-16.36-19.52-22-32.85-26.27-8.81-2.82-18.13-7-18-11.58.06-3.77,5-7.27,14.78-6.74,6.57.35,12.37.88,23.89,6.44L82.22,37.88a88.43,88.43,0,0,0-37-8.76h-.08c-13.9,0-25.49,4.52-32.67,11.93a27.59,27.59,0,0,0-7.82,19c-.18,10,3.5,17.13,11.23,22.81,6.51,4.77,14.85,7.88,22.2,10.17,9.06,2.8,16.47,5.24,16.37,10.45a7.51,7.51,0,0,1-2.13,5.09c-2.27,2.34-5.73,3.22-10.53,3.31-9.26.19-16.12-1.26-27-7.72l-10.09,20a75.45,75.45,0,0,0,37,9.84h1.7c11.47-.2,20.72-3.49,28.12-9.43.41-.33.8-.68,1.19-1l-3.27,8.76H99l5-15.15a56.64,56.64,0,0,0,34.47.14l4.8,15h48.38V101h10.55c25.51,0,40.61-13,40.61-34.76C242.82,42,228.15,30.86,196.93,30.86ZM121.44,97.33A29.62,29.62,0,0,1,111,95.48l10.36-32.66h.21l10.14,32.75A30.17,30.17,0,0,1,121.44,97.33Zm77.41-18.77h-7.2V52.22h7.2c9.6,0,17.24,3.18,17.24,13,0,10.13-7.64,13.32-17.24,13.32" style="fill:#fff;fill-rule:evenodd"/><path d="M207.84,153.51a8.65,8.65,0,1,1,8.67,8.89A8.62,8.62,0,0,1,207.84,153.51Zm8.67,10.67a10.65,10.65,0,1,0-10.81-10.67A10.64,10.64,0,0,0,216.51,164.18Zm-2.26-9.83h2.14l3.23,5.32h2.09l-3.5-5.4c1.8-.21,3.19-1.18,3.19-3.37,0-2.42-1.43-3.49-4.33-3.49h-4.68v12.27h1.85Zm0-1.58V149h2.54c1.27,0,2.64.27,2.64,1.8,0,1.89-1.4,2-3,2Z" style="fill:#225fbc"/></g></g></svg>